<?xml version="1.0" encoding="utf-8"?>
<!-- Generator: Adobe Illustrator 16.0.0, SVG Export Plug-In . SVG Version: 6.00 Build 0)  -->
<!DOCTYPE svg PUBLIC "-//W3C//DTD SVG 1.1//EN" "http://www.w3.org/Graphics/SVG/1.1/DTD/svg11.dtd">
<svg version="1.1" id="Layer_1" xmlns="http://www.w3.org/2000/svg" xmlns:xlink="http://www.w3.org/1999/xlink" x="0px" y="0px"
	 width="50px" height="50px" viewBox="0 0 50 50" enable-background="new 0 0 50 50" xml:space="preserve">
<g>
	<path d="M31.698,24.45c1.029,0.472,2.049,0.872,3.002,1.39c0.971,0.53,1.883,1.151,2.796,1.779c0.574,0.399,0.793,1,0.609,1.688
		c-0.187,0.664-0.66,1.038-1.348,1.129c-0.431,0.059-0.812-0.085-1.157-0.343c-1.879-1.396-3.93-2.439-6.206-3
		c-1.792-0.439-3.604-0.611-5.456-0.47c-3.627,0.276-6.853,1.555-9.642,3.868c-3.149,2.613-5.138,5.94-5.857,9.982
		c-0.173,0.98-0.235,1.986-0.29,2.989c-0.05,0.896-0.766,1.544-1.597,1.535C5.648,44.982,4.982,44.25,5,43.287
		c0.032-1.8,0.287-3.57,0.8-5.303c1.018-3.426,2.818-6.377,5.384-8.869c2.087-2.023,4.522-3.482,7.234-4.493
		c0.072-0.028,0.146-0.056,0.216-0.086c0.021-0.009,0.036-0.031,0.086-0.076c-2.79-2.244-4.396-5.106-4.387-8.738
		c0.009-2.965,1.105-5.522,3.222-7.584c4.25-4.141,10.66-4.067,14.788-0.472c2.589,2.256,3.867,5.144,3.737,8.563
		C35.954,19.644,34.352,22.348,31.698,24.45z M17.484,15.762c-0.02,4.189,3.417,7.648,7.635,7.671
		c4.323,0.026,7.814-3.367,7.845-7.636c0.028-4.17-3.459-7.654-7.694-7.681C20.977,8.088,17.504,11.499,17.484,15.762z"/>
	<path d="M40.504,37.534c0.941,0,1.813-0.019,2.684,0.009c0.338,0.01,0.705,0.064,1.018,0.197c0.569,0.242,0.889,0.941,0.771,1.521
		c-0.145,0.706-0.648,1.203-1.328,1.219c-0.92,0.03-1.847,0.027-2.769,0.019c-0.291-0.007-0.385,0.083-0.376,0.372
		c0.015,0.927,0.017,1.853-0.017,2.773c-0.021,0.622-0.472,1.14-1.063,1.29c-1.019,0.27-1.874-0.465-1.874-1.59
		c0-0.83-0.015-1.662,0.013-2.496c0.004-0.283-0.082-0.356-0.357-0.352c-0.909,0.01-1.823,0.012-2.734-0.014
		c-0.65-0.019-1.162-0.44-1.339-1.055c-0.177-0.609,0.027-1.281,0.585-1.6c0.321-0.185,0.729-0.264,1.106-0.286
		c0.751-0.042,1.511-0.013,2.262-0.013c0.146,0,0.284,0,0.466,0c0-0.943,0.002-1.839,0-2.737c0-0.917,0.386-1.495,1.133-1.687
		c0.874-0.224,1.76,0.39,1.8,1.285c0.042,0.873,0.02,1.745,0.024,2.62C40.508,37.17,40.504,37.32,40.504,37.534z"/>
</g>
</svg>
