<?xml version="1.0" encoding="utf-8"?>
<!-- Generator: Adobe Illustrator 16.0.0, SVG Export Plug-In . SVG Version: 6.00 Build 0)  -->
<!DOCTYPE svg PUBLIC "-//W3C//DTD SVG 1.1//EN" "http://www.w3.org/Graphics/SVG/1.1/DTD/svg11.dtd">
<svg version="1.1" id="Layer_1" xmlns="http://www.w3.org/2000/svg" xmlns:xlink="http://www.w3.org/1999/xlink" x="0px" y="0px"
	 width="24px" height="24px" viewBox="0 0 24 24" enable-background="new 0 0 24 24" xml:space="preserve">
<g>
	<path fill-rule="evenodd" clip-rule="evenodd" d="M11.712,0.172c0.322,0.082,0.647,0.152,0.964,0.247
		c2.634,0.786,4.208,3.199,3.936,6.027c-0.239,2.481-2.358,4.542-4.946,4.813C8.745,11.563,6.033,9.454,5.64,6.571
		c-0.415-3.045,1.603-5.826,4.58-6.312c0.105-0.018,0.207-0.059,0.31-0.088C10.924,0.172,11.32,0.172,11.712,0.172z M15.513,5.764
		c0.014-2.36-1.952-4.394-4.265-4.409C8.743,1.336,6.739,3.273,6.73,5.722c-0.01,2.4,1.961,4.401,4.347,4.416
		C13.5,10.152,15.497,8.183,15.513,5.764z"/>
	<path fill-rule="evenodd" clip-rule="evenodd" d="M15.855,22.784c-0.048-1.795,0.052-3.57-0.186-5.298
		c-0.289-2.098-2.06-3.538-4.168-3.732c-0.125-0.011-0.249-0.037-0.393-0.058c0-0.364,0.009-0.668,0.009-1.111
		c0.588,0.021,0.979,0.065,1.447,0.178c2.452,0.587,4.308,2.84,4.377,5.364c0.048,1.729,0.02,3.46,0.018,5.189
		c0,0.465-0.208,0.67-0.675,0.67c-3.449,0.003-6.896,0.002-10.342,0.002c-0.376,0-0.65-0.161-0.655-0.559
		c-0.015-1.35-0.005-2.698-0.005-4.083c0.377,0,0.732,0,1.133,0c0,1.132,0,2.266,0,3.437C9.557,22.784,12.656,22.784,15.855,22.784z
		"/>
	<path fill-rule="evenodd" clip-rule="evenodd" fill="#41C363" d="M11.123,12.59c0,0.365-0.005,0.751-0.005,1.106
		c-3.244,0.42-4.781,2.387-4.707,5.642c-0.391,0-0.727,0-1.122,0C4.794,15.246,8.239,12.433,11.123,12.59z"/>
</g>
<rect x="15" y="16" fill="#FFFFFF" width="3" height="8"/>
<g>
	<path d="M15.82,24.023v-3.141h-3.117V19.57h3.117v-3.117h1.328v3.117h3.117v1.313h-3.117v3.141H15.82z"/>
</g>
<line fill="none" stroke="#FFFFFF" stroke-miterlimit="10" x1="14" y1="15.5" x2="18" y2="15.5"/>
</svg>
