<?xml version="1.0" encoding="utf-8"?>
<!-- Generator: Adobe Illustrator 16.0.0, SVG Export Plug-In . SVG Version: 6.00 Build 0)  -->
<!DOCTYPE svg PUBLIC "-//W3C//DTD SVG 1.1//EN" "http://www.w3.org/Graphics/SVG/1.1/DTD/svg11.dtd">
<svg version="1.1" id="Layer_1" xmlns="http://www.w3.org/2000/svg" xmlns:xlink="http://www.w3.org/1999/xlink" x="0px" y="0px"
	 width="16.667px" height="16.666px" viewBox="0 0 16.667 16.666" enable-background="new 0 0 16.667 16.666" xml:space="preserve">
<g>
	<g>
		<path fill="#C33232" stroke="#C33232" stroke-width="0.6" stroke-miterlimit="10" d="M8.333,0.3C3.904,0.3,0.3,3.903,0.3,8.333
			s3.604,8.033,8.034,8.033s8.033-3.604,8.033-8.033S12.763,0.3,8.333,0.3z M8.333,15.379c-3.885,0-7.045-3.161-7.045-7.046
			c0-3.884,3.16-7.044,7.045-7.044s7.044,3.16,7.044,7.044C15.377,12.218,12.218,15.379,8.333,15.379z"/>
	</g>
</g>
<circle fill="#C33232" stroke="#C33232" stroke-width="0.6" stroke-miterlimit="10" cx="8.461" cy="5.13" r="0.827"/>
<path fill="#C33232" stroke="#C33232" stroke-width="0.6" stroke-miterlimit="10" d="M8.243,7.306C7.971,7.306,7.75,7.527,7.75,7.8
	v4.203c0,0.271,0.221,0.493,0.494,0.493c0.274,0,0.495-0.222,0.495-0.493V7.8C8.738,7.527,8.517,7.306,8.243,7.306z"/>
</svg>
