<?xml version="1.0" encoding="utf-8"?>
<!-- Generator: Adobe Illustrator 16.0.0, SVG Export Plug-In . SVG Version: 6.00 Build 0)  -->
<!DOCTYPE svg PUBLIC "-//W3C//DTD SVG 1.1//EN" "http://www.w3.org/Graphics/SVG/1.1/DTD/svg11.dtd">
<svg version="1.1" id="Layer_1" xmlns="http://www.w3.org/2000/svg" xmlns:xlink="http://www.w3.org/1999/xlink" x="0px" y="0px"
	 width="50px" height="50px" viewBox="0 0 50 50" enable-background="new 0 0 50 50" xml:space="preserve">
<g>
	<g transform="translate(0,12)">
		<g transform="translate(2.4613295,0)">
			<g transform="matrix(0.83168912,0,0,0.83478174,-9.2909467,3.1675305)">
				<g>
					<path d="M58.542,27.409v-39.503c0-2.68-2.239-4.877-4.912-4.877H17.676c-2.675,0-4.913,2.198-4.913,4.877v42.389
						c0,2.679,2.239,4.876,4.913,4.876h20.403 M36.843,31.837H17.177c-0.499,0-0.809-0.318-0.809-0.773v-43.762
						c0-0.455,0.311-0.776,0.809-0.776H54.49c0.501,0,0.817,0.323,0.817,0.776l-0.07,39.222 M21.397-6.19v2.184l28.509-0.002V-6.19
						H21.397z M21.397,3.089v2.186h28.509V3.089H21.397z"/>
				</g>
			</g>
		</g>
	</g>
	<g>
		<g>
			<circle fill="#FFFFFF" cx="33.574" cy="36.257" r="11.775"/>
		</g>
		<g>
			<g>
				<path d="M33.636,24.371c-6.64,0-12.054,5.411-12.054,12.055c0,6.646,5.408,12.054,12.054,12.054
					c6.646,0,12.059-5.406,12.059-12.054C45.692,29.782,40.282,24.371,33.636,24.371z M33.636,47.002
					c-5.83,0-10.57-4.748-10.57-10.574c0-5.825,4.74-10.573,10.57-10.573c5.832,0,10.576,4.746,10.576,10.573
					C44.212,42.254,39.46,47.002,33.636,47.002z"/>
				<path d="M33.636,49c-6.935,0-12.573-5.641-12.573-12.574c0-6.935,5.64-12.574,12.573-12.574c6.936,0,12.577,5.64,12.579,12.574
					C46.215,43.359,40.571,49,33.636,49z M33.636,24.893c-6.358,0-11.532,5.173-11.532,11.533c0,6.361,5.174,11.533,11.532,11.533
					c6.363,0,11.538-5.173,11.538-11.533C45.172,30.065,39.995,24.893,33.636,24.893z M33.636,47.521
					c-6.116,0-11.091-4.979-11.091-11.094c0-6.116,4.975-11.095,11.091-11.095c6.119,0,11.098,4.979,11.098,11.095
					C44.733,42.543,39.755,47.521,33.636,47.521z M33.636,26.375c-5.541,0-10.05,4.51-10.05,10.053s4.509,10.054,10.05,10.054
					c5.545,0,10.057-4.511,10.057-10.054S39.181,26.375,33.636,26.375z"/>
			</g>
		</g>
	</g>
	<g>
		<path d="M31.282,42.416c-0.669,0-1.318-0.271-1.789-0.742l-1.986-2.182c-0.428-0.468-0.393-1.191,0.074-1.617
			c0.469-0.427,1.192-0.392,1.617,0.075l1.954,2.146l1.112,0.771l-0.875-0.738l6.768-8.014c0.41-0.482,1.136-0.545,1.612-0.136
			c0.484,0.405,0.546,1.131,0.138,1.612l-6.769,8.014C32.601,42.147,31.947,42.416,31.282,42.416z"/>
	</g>
	<g>
		<rect x="10.966" y="25.138" width="18.782" height="1.829"/>
	</g>
</g>
</svg>
