<svg id="Layer_1" data-name="Layer 1" xmlns="http://www.w3.org/2000/svg" width="28" height="27.39209" viewBox="0 0 28 27.39209"><defs><style>.cls-1{fill:#e4658f;}</style></defs><title>battery-status-icon</title><path class="cls-1" d="M28.2607,6.9565h-.913V4.2178a.9132.9132,0,0,0-.9122-.9136H20.957a.91352.91352,0,0,0-.914.9136V6.9565H13.9565V4.2178a.9133.9133,0,0,0-.913-.9136H7.56543a.91378.91378,0,0,0-.91357.9136V6.9565h-.9126A2.74259,2.74259,0,0,0,3,9.6958V27.957a2.7429,2.7429,0,0,0,2.73926,2.73926H28.2607A2.74259,2.74259,0,0,0,31,27.957V9.6958A2.74228,2.74228,0,0,0,28.2607,6.9565Zm.9141,18.26127H4.82617V12.4351H29.1748V25.21777Z" transform="translate(-3 -3.3042)"/><path class="cls-1" d="M11.2183,17.9141h-.91264V17A.91333.91333,0,0,0,8.479,17v.9141H7.56641a.9126.9126,0,1,0,0,1.8252h.91308v.914a.91309.91309,0,0,0,1.82617,0v-.914h.91314a.9126.9126,0,1,0-.0005-1.8252Z" transform="translate(-3 -3.3042)"/><path class="cls-1" d="M26.4355,17.9141H22.7842a.9126.9126,0,1,0,0,1.8252h3.6513a.9126.9126,0,1,0,0-1.8252Z" transform="translate(-3 -3.3042)"/><path class="cls-1" d="M19.9561,18.4346a.911.911,0,0,0-.8252-.5205H16.7974l1.519-1.8579a.91279.91279,0,1,0-1.4131-1.1558L14.1641,18.248a.91307.91307,0,0,0,.7065,1.4913h2.3345L15.686,21.5957a.91295.91295,0,1,0,1.4131,1.1563l2.7398-3.3477A.91484.91484,0,0,0,19.9561,18.4346Z" transform="translate(-3 -3.3042)"/></svg>