<?xml version="1.0" encoding="utf-8"?>
<!-- Generator: Adobe Illustrator 23.0.1, SVG Export Plug-In . SVG Version: 6.00 Build 0)  -->
<svg version="1.1" id="Capa_1" xmlns="http://www.w3.org/2000/svg" xmlns:xlink="http://www.w3.org/1999/xlink" x="0px" y="0px"
	 width="39px" height="28px" viewBox="0 0 412.7 412.7" style="enable-background:new 0 0 412.7 412.7;" xml:space="preserve">
<style type="text/css">
	.st0{fill:#FFFFFF;}
</style>
<g>
	<g>
		<path class="st0" d="M404.7,82.9C404.7,82.9,404.7,82.9,404.7,82.9L404.7,82.9h-27.2v-9.3c0.1-3.7-2.2-7-5.8-8
			c-18.8-4.9-38.2-7.4-57.7-7.4c-32,0-75.6,7.2-107.8,40c-32-33.1-75.9-40-107.8-40c-19.5,0-38.9,2.4-57.7,7.4c-3.5,1-5.9,4.3-5.8,8
			v9.2H8c-4.4,0-8,3.6-8,8v255.5c0,4.4,3.6,8,8,8c1.4,0,2.7-0.4,3.9-1c0.8-0.4,80.8-44.2,192.5-16h1.2h0.7c0.6,0.1,1.3,0.1,1.9,0
			c112-28.4,192,15.3,192.5,16c2.5,1.4,5.5,1.4,8,0c2.5-1.4,4-4,4-6.9V90.9C412.7,86.5,409.1,82.9,404.7,82.9z M16,333.7V98.9h19.1
			v200.6c0,4.4,3.5,8,7.9,8.1c0.4,0,0.9,0,1.3-0.1c16.5-2.5,33.3-3.9,50-4c23.2-0.4,46.3,3.1,68.3,10.3
			C112.9,307.9,62.4,314.7,16,333.7z M94.3,287.7c-14.6,0-29.1,1-43.5,2.8V80c15.6-3.5,31.5-5.2,47.4-5.3c29.9,0,71.2,6.9,99.8,39.2
			l0.2,199.3C181.7,302.3,149.2,287.7,94.3,287.7z M214.3,113.9c28.6-32,69.9-39.2,99.8-39.2c16,0,31.9,1.8,47.4,5.3v210.5
			c-14.4-1.8-28.8-2.8-43.3-2.9c-54.6,0-87.1,14.6-104,25.5V113.9z M396.6,333.7c-46.5-19-97.1-25.8-147-19.8
			c22.1-7.3,45.3-10.7,68.6-10.3c16.8,0.1,33.7,1.4,50.3,3.9c4.4,0.7,8.4-2.3,9.1-6.7c0.1-0.4,0.1-0.9,0.1-1.3V98.9H397L396.6,333.7
			z"/>
	</g>
</g>
</svg>
