<?xml version="1.0" encoding="utf-8"?>
<!-- Generator: Adobe Illustrator 16.0.0, SVG Export Plug-In . SVG Version: 6.00 Build 0)  -->
<!DOCTYPE svg PUBLIC "-//W3C//DTD SVG 1.1//EN" "http://www.w3.org/Graphics/SVG/1.1/DTD/svg11.dtd">
<svg version="1.1" id="Layer_1" xmlns="http://www.w3.org/2000/svg" xmlns:xlink="http://www.w3.org/1999/xlink" x="0px" y="0px"
	 width="39.257px" height="42.5px" viewBox="0 0 39.257 42.5" enable-background="new 0 0 39.257 42.5" xml:space="preserve">
<g>
	<rect x="6.618" y="29.955" fill="none" stroke="#41C363" stroke-miterlimit="10" width="7.642" height="11.295"/>
	<rect x="1.25" y="1.25" fill="none" stroke="#000000" stroke-width="2.5" stroke-miterlimit="10" width="18.378" height="40"/>
	
		<rect x="19.628" y="13.589" fill="none" stroke="#000000" stroke-width="2.5" stroke-miterlimit="10" width="18.379" height="27.661"/>
	<rect x="4.764" y="4.866" fill="none" stroke="#41C363" stroke-miterlimit="10" width="3.858" height="3.858"/>
	<rect x="12.229" y="4.866" fill="none" stroke="#000000" stroke-miterlimit="10" width="3.858" height="3.858"/>
	<rect x="4.764" y="12.862" fill="none" stroke="#000000" stroke-miterlimit="10" width="3.858" height="3.858"/>
	<rect x="12.229" y="12.862" fill="none" stroke="#41C363" stroke-miterlimit="10" width="3.858" height="3.858"/>
	<rect x="4.764" y="20.858" fill="none" stroke="#000000" stroke-miterlimit="10" width="3.858" height="3.858"/>
	<rect x="12.229" y="20.858" fill="none" stroke="#000000" stroke-miterlimit="10" width="3.858" height="3.858"/>
	<rect x="23.156" y="17.727" fill="none" stroke="#000000" stroke-miterlimit="10" width="3.858" height="3.858"/>
	<rect x="30.621" y="17.727" fill="none" stroke="#41C363" stroke-miterlimit="10" width="3.858" height="3.858"/>
	<rect x="23.156" y="25.723" fill="none" stroke="#41C363" stroke-miterlimit="10" width="3.858" height="3.858"/>
	<rect x="30.621" y="25.723" fill="none" stroke="#000000" stroke-miterlimit="10" width="3.858" height="3.858"/>
	<rect x="23.156" y="33.719" fill="none" stroke="#000000" stroke-miterlimit="10" width="3.858" height="3.858"/>
	<rect x="30.621" y="33.719" fill="none" stroke="#000000" stroke-miterlimit="10" width="3.858" height="3.858"/>
</g>
</svg>
