<?xml version="1.0" encoding="utf-8"?>
<!-- Generator: Adobe Illustrator 16.0.0, SVG Export Plug-In . SVG Version: 6.00 Build 0)  -->
<!DOCTYPE svg PUBLIC "-//W3C//DTD SVG 1.1//EN" "http://www.w3.org/Graphics/SVG/1.1/DTD/svg11.dtd">
<svg version="1.1" id="Layer_1" xmlns="http://www.w3.org/2000/svg" xmlns:xlink="http://www.w3.org/1999/xlink" x="0px" y="0px"
	 width="26px" height="26px" viewBox="0 0 26 26" enable-background="new 0 0 26 26" xml:space="preserve">
<g>
	<g>
		<path d="M19.654,15.793c-0.475-0.493-1.045-0.757-1.648-0.757c-0.6,0-1.174,0.258-1.667,0.751l-1.54,1.536
			c-0.127-0.069-0.253-0.132-0.375-0.194c-0.176-0.089-0.342-0.171-0.482-0.26c-1.442-0.916-2.754-2.11-4.012-3.656
			c-0.609-0.77-1.019-1.418-1.315-2.077c0.399-0.365,0.77-0.746,1.13-1.111c0.137-0.137,0.273-0.278,0.41-0.415
			c1.023-1.023,1.023-2.349,0-3.373l-1.332-1.33C8.671,4.756,8.515,4.6,8.369,4.444C8.077,4.142,7.77,3.83,7.453,3.538
			C6.979,3.069,6.414,2.821,5.819,2.821c-0.594,0-1.17,0.249-1.657,0.717c-0.005,0.005-0.005,0.005-0.01,0.009L2.495,5.219
			c-0.624,0.624-0.98,1.385-1.058,2.267c-0.117,1.424,0.302,2.75,0.624,3.617c0.79,2.131,1.969,4.105,3.729,6.22
			c2.135,2.549,4.704,4.563,7.639,5.979c1.122,0.532,2.618,1.161,4.289,1.268c0.104,0.007,0.21,0.011,0.308,0.011
			c1.127,0,2.072-0.405,2.813-1.209c0.007-0.009,0.015-0.015,0.021-0.024c0.254-0.307,0.547-0.584,0.854-0.883
			c0.21-0.197,0.426-0.408,0.635-0.627c0.481-0.503,0.735-1.088,0.735-1.688c0-0.604-0.259-1.185-0.752-1.672L19.654,15.793z
			 M21.398,20.925C21.395,20.925,21.395,20.932,21.398,20.925c-0.188,0.206-0.385,0.39-0.596,0.597
			c-0.316,0.302-0.639,0.619-0.939,0.974c-0.492,0.526-1.072,0.776-1.832,0.776c-0.074,0-0.152,0-0.225-0.006
			c-1.449-0.093-2.793-0.658-3.804-1.142c-2.759-1.336-5.182-3.229-7.195-5.634c-1.662-2.004-2.773-3.857-3.51-5.846
			C2.846,9.431,2.68,8.485,2.753,7.593c0.049-0.57,0.268-1.043,0.672-1.447l1.663-1.662C5.327,4.259,5.581,4.137,5.83,4.137
			c0.307,0,0.556,0.186,0.711,0.341c0.005,0.005,0.01,0.01,0.015,0.015c0.298,0.278,0.58,0.565,0.878,0.873
			c0.15,0.155,0.306,0.311,0.462,0.472l1.331,1.331c0.517,0.517,0.517,0.995,0,1.511C9.085,8.822,8.949,8.963,8.808,9.1
			c-0.409,0.419-0.799,0.809-1.224,1.189c-0.01,0.01-0.02,0.015-0.024,0.024c-0.419,0.419-0.341,0.829-0.253,1.107
			c0.005,0.015,0.01,0.029,0.015,0.043c0.347,0.839,0.833,1.628,1.575,2.57L8.9,14.037c1.345,1.658,2.764,2.949,4.329,3.939
			c0.2,0.125,0.404,0.229,0.6,0.325c0.175,0.089,0.341,0.171,0.481,0.259c0.021,0.01,0.039,0.024,0.059,0.033
			c0.167,0.083,0.322,0.122,0.482,0.122c0.404,0,0.657-0.254,0.74-0.337l1.667-1.667c0.167-0.166,0.431-0.364,0.737-0.364
			c0.302,0,0.55,0.189,0.701,0.355c0.005,0.005,0.005,0.005,0.01,0.009l2.688,2.687C21.896,19.898,21.896,20.409,21.398,20.925z"/>
		<path d="M13.883,6.979c1.276,0.214,2.438,0.819,3.363,1.745c0.926,0.927,1.525,2.087,1.744,3.364
			c0.055,0.321,0.332,0.545,0.648,0.545c0.038,0,0.073-0.004,0.112-0.01c0.36-0.058,0.601-0.399,0.54-0.76
			c-0.264-1.545-0.993-2.954-2.109-4.07c-1.117-1.116-2.525-1.848-4.07-2.111c-0.36-0.059-0.697,0.18-0.76,0.536
			C13.287,6.574,13.521,6.92,13.883,6.979z"/>
		<path d="M24.471,11.673c-0.435-2.545-1.634-4.86-3.477-6.703c-1.844-1.842-4.158-3.042-6.702-3.476
			C13.936,1.431,13.6,1.675,13.536,2.03c-0.058,0.361,0.18,0.697,0.542,0.761c2.271,0.385,4.343,1.462,5.99,3.105
			c1.647,1.648,2.721,3.72,3.104,5.991c0.056,0.322,0.332,0.546,0.647,0.546c0.041,0,0.074-0.005,0.113-0.01
			C24.289,12.37,24.534,12.029,24.471,11.673z"/>
	</g>
</g>
</svg>
