<?xml version="1.0" encoding="utf-8"?>
<!-- Generator: Adobe Illustrator 23.0.1, SVG Export Plug-In . SVG Version: 6.00 Build 0)  -->
<svg version="1.1" id="Layer_1" xmlns="http://www.w3.org/2000/svg" xmlns:xlink="http://www.w3.org/1999/xlink" x="0px" y="0px"
	 width="24px" height="24px" viewBox="0 0 24 24" style="enable-background:new 0 0 24 24;" xml:space="preserve">
<style type="text/css">
	.st0{fill-rule:evenodd;clip-rule:evenodd;stroke:#000000;stroke-width:0.2;stroke-miterlimit:10;}
</style>
<path class="st0" d="M11.5,17.2c-1.3,0-2.5,0-3.8,0c-0.4,0-0.5-0.1-0.5-0.5c0-0.7,0-1.5,0-2.2c0.1-1.1,1-1.9,2.1-1.9
	c1.5,0,2.9,0,4.4,0c1.1,0,2,0.9,2.1,2.1c0,0.7,0,1.4,0,2.2c0,0.3-0.2,0.4-0.5,0.4C14.1,17.2,12.8,17.2,11.5,17.2z M15,16.3
	c0-0.5,0-1,0-1.5c0-0.9-0.6-1.5-1.5-1.5c-1.3,0-2.5,0-3.8,0c-0.2,0-0.3,0-0.5,0c-0.6,0.1-1.1,0.6-1.2,1.2c0,0.6,0,1.2,0,1.8
	C10.4,16.3,12.7,16.3,15,16.3z"/>
<path class="st0" d="M13.3,21.4c0.5-0.1,1-0.1,1.5-0.3c3.2-0.9,5.2-2.9,6.1-6.1c0.2-0.6,0.2-1.3,0.3-1.9c0-0.3,0.2-0.5,0.4-0.5
	s0.4,0.2,0.4,0.5c0,4.3-3.1,8-7.3,8.9c-0.5,0.1-1,0.2-1.5,0.2c0.2,0.2,0.4,0.4,0.6,0.6c0.2,0.2,0.2,0.5,0.1,0.7
	c-0.2,0.2-0.5,0.2-0.7,0c-0.4-0.4-0.9-0.9-1.3-1.3c-0.2-0.2-0.2-0.5,0-0.7c0.4-0.4,0.9-0.9,1.3-1.3c0.2-0.2,0.5-0.2,0.7,0
	c0.2,0.2,0.2,0.4,0,0.7c-0.2,0.2-0.3,0.3-0.5,0.5C13.3,21.3,13.3,21.3,13.3,21.4C13.3,21.4,13.3,21.4,13.3,21.4z"/>
<path class="st0" d="M10.5,1.7C10.2,1.5,10,1.3,9.8,1.1c-0.2-0.2-0.2-0.5,0-0.7c0.2-0.2,0.4-0.2,0.7,0c0.4,0.4,0.9,0.9,1.3,1.3
	C12,2,12,2.3,11.8,2.5c-0.4,0.4-0.9,0.9-1.3,1.3C10.2,4,10,4,9.8,3.9c-0.2-0.2-0.2-0.4,0-0.7C10,3,10.2,2.8,10.4,2.7c0,0,0,0,0-0.1
	C10,2.6,9.6,2.7,9.2,2.8C5.8,3.6,3.6,5.6,2.7,9c-0.2,0.6-0.2,1.3-0.3,2c0,0.3-0.2,0.5-0.4,0.5c-0.3,0-0.4-0.2-0.4-0.5
	c0-4.4,3.2-8.3,7.6-9C9.6,1.8,10,1.8,10.5,1.7z"/>
<path class="st0" d="M11.5,6.5c0.9,0,1.7,0.3,2.1,1.2c0.6,1.2,0.1,2.9-1,3.6c-0.8,0.5-1.8,0.4-2.5-0.2C9.2,10.3,8.9,9,9.3,7.9
	c0.3-0.9,1-1.3,1.9-1.4C11.3,6.5,11.4,6.5,11.5,6.5z M13.1,9c0-1-0.4-1.5-1-1.6c-0.2-0.1-0.5-0.1-0.7-0.1c-0.6,0-1,0.3-1.3,0.9
	c-0.3,0.7,0,1.7,0.6,2.2c0.5,0.4,1.2,0.4,1.7,0C12.9,10.1,13.1,9.5,13.1,9z"/>
</svg>
