<?xml version="1.0" encoding="utf-8"?>
<!-- Generator: Adobe Illustrator 16.0.0, SVG Export Plug-In . SVG Version: 6.00 Build 0)  -->
<!DOCTYPE svg PUBLIC "-//W3C//DTD SVG 1.1//EN" "http://www.w3.org/Graphics/SVG/1.1/DTD/svg11.dtd">
<svg version="1.1" id="Layer_1" xmlns="http://www.w3.org/2000/svg" xmlns:xlink="http://www.w3.org/1999/xlink" x="0px" y="0px"
	 width="60px" height="50px" viewBox="0 0 60 50" enable-background="new 0 0 60 50" xml:space="preserve">
<g>
	<g>
		<g>
			<g>
				<path fill="#41C363" d="M55.043,1.143H14.698c-2.423,0-4.359,1.991-4.359,4.357v25.069c0,2.42,1.99,4.356,4.359,4.356h27.808
					l6.296,6.346c0.27,0.27,0.592,0.431,0.968,0.431c0.753,0,1.398-0.592,1.398-1.397v-5.379h3.875c2.419,0,4.355-1.989,4.355-4.356
					V5.5C59.398,3.08,57.408,1.143,55.043,1.143z"/>
				<path fill="#41C363" d="M7.865,30.677v-8.555h-4.41c-1.562,0-2.852,1.291-2.852,2.852v16.461
					c-0.054,1.668,1.236,2.957,2.852,2.957h2.526v3.552c0,0.483,0.431,0.914,0.914,0.914c0.27,0,0.484-0.106,0.646-0.268
					l4.143-4.145h18.291c1.56,0,2.85-1.288,2.85-2.852v-4.086H14.698C10.932,37.508,7.865,34.44,7.865,30.677z"/>
				<g>
					<polygon id="XMLID_18_" fill="#FFFFFF" points="30.274,7.591 26.41,7.591 19.545,28.723 23.41,28.723 					"/>
					<polygon id="XMLID_17_" fill="#FFFFFF" points="39.463,7.591 43.327,7.591 50.192,28.723 46.328,28.723 					"/>
				</g>
			</g>
		</g>
	</g>
</g>
</svg>
