<?xml version="1.0" encoding="utf-8"?>
<!-- Generator: Adobe Illustrator 16.0.0, SVG Export Plug-In . SVG Version: 6.00 Build 0)  -->
<!DOCTYPE svg PUBLIC "-//W3C//DTD SVG 1.1//EN" "http://www.w3.org/Graphics/SVG/1.1/DTD/svg11.dtd">
<svg version="1.1" id="Capa_1" xmlns="http://www.w3.org/2000/svg" xmlns:xlink="http://www.w3.org/1999/xlink" x="0px" y="0px"
	 width="30px" height="30px" viewBox="0 0 30 30" enable-background="new 0 0 30 30" xml:space="preserve">
<g>
	<circle cx="15" cy="15" r="10.306"/>
	<g>
		<path fill="#FFFFFF" d="M25.612,4.388c-5.852-5.851-15.373-5.852-21.225,0c-5.852,5.852-5.85,15.372,0,21.223
			c5.852,5.853,15.374,5.854,21.225,0C31.464,19.76,31.464,10.239,25.612,4.388z M20.919,20.918c-0.451,0.45-1.184,0.45-1.633,0
			L15,16.632l-4.49,4.489c-0.45,0.449-1.18,0.449-1.631,0c-0.451-0.45-0.451-1.184,0-1.634L13.367,15l-4.284-4.286
			c-0.451-0.451-0.451-1.184,0-1.632c0.449-0.451,1.18-0.451,1.631,0l4.285,4.286l4.083-4.082c0.449-0.451,1.182-0.451,1.633,0
			c0.449,0.449,0.449,1.182,0,1.632L16.632,15l4.285,4.285C21.369,19.736,21.369,20.467,20.919,20.918z"/>
	</g>
</g>
</svg>
