<?xml version="1.0" encoding="utf-8"?>
<!-- Generator: Adobe Illustrator 16.0.0, SVG Export Plug-In . SVG Version: 6.00 Build 0)  -->
<!DOCTYPE svg PUBLIC "-//W3C//DTD SVG 1.1//EN" "http://www.w3.org/Graphics/SVG/1.1/DTD/svg11.dtd">
<svg version="1.1" id="Capa_1" xmlns="http://www.w3.org/2000/svg" xmlns:xlink="http://www.w3.org/1999/xlink" x="0px" y="0px"
	 width="30px" height="30px" viewBox="0 0 30 30" enable-background="new 0 0 30 30" xml:space="preserve">
<g>
	<g>
		<path d="M7.413,6.549c4.133-3.739,10.321-3.795,14.512-0.383l-3.322,0.126c-0.43,0.017-0.76,0.372-0.743,0.802
			c0.019,0.417,0.36,0.742,0.772,0.742c0.012,0,0.018,0,0.027,0l5.102-0.188c0.416-0.017,0.742-0.354,0.742-0.771V6.819
			c0-0.011,0-0.017,0-0.026V6.788l0,0l-0.189-5.044C24.296,1.315,23.935,0.982,23.513,1c-0.428,0.017-0.76,0.372-0.742,0.8
			l0.119,3.162c-2.075-1.699-4.633-2.683-7.364-2.818c-3.384-0.173-6.64,0.988-9.15,3.264C2.924,8.537,1.459,13.293,2.558,17.82
			c0.086,0.354,0.399,0.589,0.75,0.589c0.062,0,0.12-0.005,0.183-0.021c0.411-0.104,0.67-0.52,0.566-0.931
			C3.094,13.473,4.375,9.293,7.413,6.549z"/>
		<path d="M27.442,12.176c-0.104-0.411-0.52-0.669-0.932-0.566c-0.41,0.103-0.67,0.521-0.563,0.933
			c0.963,3.978-0.322,8.159-3.359,10.903c-2.133,1.928-4.809,2.876-7.474,2.876c-2.544,0-5.083-0.863-7.131-2.567l3.362-0.303
			c0.425-0.04,0.738-0.412,0.699-0.841c-0.041-0.429-0.412-0.736-0.84-0.696l-5.084,0.458c-0.424,0.039-0.738,0.411-0.697,0.841
			l0.457,5.083C5.917,28.695,6.254,29,6.649,29c0.021,0,0.045,0,0.066-0.007c0.424-0.039,0.737-0.412,0.699-0.841l-0.275-3.094
			c2.076,1.683,4.621,2.659,7.337,2.796c0.217,0.013,0.435,0.021,0.646,0.021c3.152,0,6.147-1.156,8.504-3.285
			C27.077,21.461,28.54,16.709,27.442,12.176z"/>
	</g>
</g>
</svg>
