<svg id="Layer_1" data-name="Layer 1" xmlns="http://www.w3.org/2000/svg" viewBox="0 0 37 32.54" width="37" height="32"><defs><style>.cls-1{fill:#fff;}</style></defs><title>checked</title><path class="cls-1" d="M270,254.83a1,1,0,0,0-2,.14c0,.34,0,.69,0,1a14.29,14.29,0,1,1-14.29-14.29,14.13,14.13,0,0,1,8.57,2.85,1,1,0,1,0,1.19-1.58,16.11,16.11,0,0,0-9.76-3.25A16.27,16.27,0,1,0,270,256C270,255.61,270,255.22,270,254.83Z" transform="translate(-237.5 -239.73)"/><path class="cls-1" d="M273.37,242a3.86,3.86,0,0,0-5.45,0l-14.25,14.25-5-5a3.85,3.85,0,1,0-5.45,5.45l8.7,8.7a2.55,2.55,0,0,0,3.61,0l17.89-17.89A3.86,3.86,0,0,0,273.37,242ZM272,246l-17.89,17.89a.57.57,0,0,1-.82,0l-8.69-8.7a1.88,1.88,0,0,1,0-2.65,1.88,1.88,0,0,1,2.66,0l5.19,5.19a1.77,1.77,0,0,0,2.51,0l14.39-14.39A1.88,1.88,0,0,1,272,246Z" transform="translate(-237.5 -239.73)"/></svg>