<svg id="Capa_1" data-name="Capa 1" xmlns="http://www.w3.org/2000/svg" viewBox="0 0 57.99 58.15" width="34px" height="34px"><defs><style>.cls-1{fill:#fff;}</style></defs><title>alarm-clock</title><path class="cls-1" d="M40.08,29.15H32.93a4,4,0,0,0-2.85-2.85V16.15a1,1,0,0,0-2,0V26.3a4,4,0,1,0,4.85,4.85h7.15a1,1,0,0,0,0-2Zm-11,3a2,2,0,1,1,2-2A2,2,0,0,1,29.08,32.15Z" transform="translate(-0.08 0)"/><path class="cls-1" d="M50.19,9.76l4.09,4.1a1,1,0,0,0,.71.29,1,1,0,0,0,.71-.29A8.12,8.12,0,0,0,44.21,2.38a1,1,0,0,0-.29.7,1,1,0,0,0,.29.71l4.56,4.56-1.69,1.7a26.93,26.93,0,0,0-36,0l-1.7-1.7,4.56-4.56a1,1,0,0,0,.29-.71,1,1,0,0,0-.29-.7A8.12,8.12,0,0,0,2.45,13.86a1,1,0,0,0,.71.29,1,1,0,0,0,.71-.29L8,9.76l1.67,1.68a27,27,0,0,0,5.76,42l-3,3a1,1,0,0,0,0,1.41,1,1,0,0,0,1.41,0l3.45-3.45a27,27,0,0,0,23.69,0l3.45,3.45a1,1,0,0,0,1.41,0,1,1,0,0,0,0-1.41l-3-3a27,27,0,0,0,5.75-42Zm4.09-6a6.11,6.11,0,0,1,.65,7.89L46.39,3.14A6.13,6.13,0,0,1,54.28,3.79ZM3.22,11.68a6.12,6.12,0,0,1,8.54-8.54ZM29.08,55.15a25,25,0,1,1,25-25A25,25,0,0,1,29.08,55.15Z" transform="translate(-0.08 0)"/><path class="cls-1" d="M49,18.61a23.15,23.15,0,0,0-8.34-8.34l0,0h-.06a22.87,22.87,0,0,0-22.89,0h-.05l0,0A23.2,23.2,0,0,0,9.2,18.61s0,0,0,0,0,0,0,.06a22.93,22.93,0,0,0,0,22.89l0,0a.18.18,0,0,0,.05.07A23.09,23.09,0,0,0,17.53,50l0,0s.05,0,.08,0a22.9,22.9,0,0,0,22.84,0l.08,0,0,0A23.12,23.12,0,0,0,49,41.72l0-.07a.07.07,0,0,0,0,0,22.87,22.87,0,0,0,0-22.89.13.13,0,0,0,0-.06S49,18.63,49,18.61ZM40.42,47.8,39.94,47a1,1,0,0,0-1.73,1l.48.83a20.83,20.83,0,0,1-8.61,2.3v-1a1,1,0,1,0-2,0v1a20.72,20.72,0,0,1-8.62-2.3l.48-.83a1,1,0,0,0-.36-1.36,1,1,0,0,0-1.37.36l-.48.83a21.26,21.26,0,0,1-6.3-6.3l.83-.48a1,1,0,0,0,.36-1.37,1,1,0,0,0-1.36-.36l-.83.48a20.91,20.91,0,0,1-2.3-8.62h.95a1,1,0,0,0,0-2H8.13a20.68,20.68,0,0,1,2.3-8.61l.83.48a1,1,0,0,0,1.36-.37,1,1,0,0,0-.36-1.36l-.83-.48a21.14,21.14,0,0,1,6.3-6.3l.48.82a1,1,0,1,0,1.73-1l-.48-.83a21,21,0,0,1,8.62-2.3v1a1,1,0,0,0,2,0v-1a21,21,0,0,1,8.61,2.3l-.48.83a1,1,0,0,0,.86,1.5,1,1,0,0,0,.87-.5l.48-.82a21.26,21.26,0,0,1,6.3,6.3l-.83.48a1,1,0,0,0,.51,1.86,1,1,0,0,0,.49-.13l.83-.48A20.68,20.68,0,0,1,50,29.15h-1a1,1,0,0,0,0,2h1a20.68,20.68,0,0,1-2.3,8.61l-.83-.48a1,1,0,0,0-1.36.37A1,1,0,0,0,45.89,41l.83.47A21.18,21.18,0,0,1,40.42,47.8Z" transform="translate(-0.08 0)"/></svg>