<?xml version="1.0" encoding="utf-8"?>
<!-- Generator: Adobe Illustrator 16.0.3, SVG Export Plug-In . SVG Version: 6.00 Build 0)  -->
<!DOCTYPE svg PUBLIC "-//W3C//DTD SVG 1.1//EN" "http://www.w3.org/Graphics/SVG/1.1/DTD/svg11.dtd">
<svg version="1.1" id="Layer_1" xmlns="http://www.w3.org/2000/svg" xmlns:xlink="http://www.w3.org/1999/xlink" x="0px" y="0px"
	 width="24px" height="24px" viewBox="0 0 24 24" enable-background="new 0 0 24 24" xml:space="preserve">
<g>
	<path fill-rule="evenodd" clip-rule="evenodd" d="M17,21.093c0.513,0,0.711,0,1.162,0c0,0.316,0,0.738,0,1.032
		c-5.615,0-11.213,0-16.84,0c0-0.275,0-0.696,0-1.028c0.438,0,0.656,0,1.146,0c0-5.509,0-11.152,0-16.643c0.799,0,1.781,0,2.576,0
		c0-0.796,0-1.571,0-2.36c3.125,0,6.212,0,9.354,0c0,0.752,0,1.537,0,2.345c0.811,0,1.801,0,2.601,0C17,9.929,17,15.575,17,21.093z
		 M3.638,5.552C3.625,5.696,3.609,5.797,3.609,5.896c-0.001,4.932,0.002,9.861-0.008,14.792c-0.001,0.354,0.136,0.401,0.441,0.401
		c3.786-0.008,7.571-0.009,11.358,0.004c0.354,0.001,0.476-0.083,0.475-0.46c-0.013-4.886-0.011-9.773-0.012-14.658
		c0-0.14-0.02-0.278-0.03-0.423C11.749,5.552,7.717,5.552,3.638,5.552z M6.188,4.42c2.536,0,4.585,0,7.083,0c0-0.479,0-0.728,0-1.2
		c-2.519,0-4.577,0-7.083,0C6.188,3.699,6.188,3.95,6.188,4.42z"/>
	<path fill-rule="evenodd" clip-rule="evenodd" d="M8.752,7.754c0,0.283,0,0.736,0,1.023c-1.065,0-2.115,0-3.198,0
		c0-0.262,0-0.723,0-1.023C6.605,7.754,7.653,7.754,8.752,7.754z"/>
	<path fill-rule="evenodd" clip-rule="evenodd" fill="#41C363" d="M10.726,8.779c0-0.292,0-0.746,0-1.029c1.066,0,2.114,0,3.198,0
		c0,0.273,0,0.735,0,1.029C12.868,8.779,11.817,8.779,10.726,8.779z"/>
	<path fill-rule="evenodd" clip-rule="evenodd" fill="#41C363" d="M5.531,12.104c0-0.291,0-0.716,0-1.002c1.059,0,2.114,0,3.205,0
		c0,0.253,0,0.7,0,1.002C7.688,12.104,6.632,12.104,5.531,12.104z"/>
	<path fill-rule="evenodd" clip-rule="evenodd" d="M13.931,12.107c-1.065,0-2.112,0-3.189,0c0-0.267,0-0.713,0-1.014
		c1.051,0,2.107,0,3.189,0C13.931,11.366,13.931,11.813,13.931,12.107z"/>
	<path fill-rule="evenodd" clip-rule="evenodd" fill="#41C363" d="M8.75,15.384c-1.089,0-2.135,0-3.206,0c0-0.286,0-0.777,0-1.074
		c1.064,0,2.123,0,3.206,0C8.75,14.589,8.75,15.079,8.75,15.384z"/>
	<path fill-rule="evenodd" clip-rule="evenodd" d="M13.944,14.313c0,0.292,0,0.771,0,1.059c-1.071,0-2.128,0-3.217,0
		c0-0.268,0-0.76,0-1.059C11.787,14.313,12.845,14.313,13.944,14.313z"/>
	<path fill-rule="evenodd" clip-rule="evenodd" d="M8.733,18.652c-1.075,0-2.114,0-3.184,0c0-0.282,0-0.71,0-1.008
		c1.063,0,2.111,0,3.184,0C8.733,17.932,8.733,18.37,8.733,18.652z"/>
	<path fill-rule="evenodd" clip-rule="evenodd" fill="#41C363" d="M10.729,18.631c0-0.291,0-0.712,0-0.99c1.071,0,2.12,0,3.198,0
		c0,0.276,0,0.695,0,0.99C12.882,18.631,11.819,18.631,10.729,18.631z"/>
</g>
<g>
	<g>
		<circle fill="#FFFFFF" cx="18.094" cy="17.2" r="4.453"/>
		<path stroke="#000000" stroke-width="0.5" stroke-miterlimit="10" d="M18.106,12.58c-2.54,0-4.605,2.066-4.605,4.605
			c0,2.54,2.065,4.607,4.605,4.607c2.538,0,4.605-2.067,4.605-4.607C22.712,14.646,20.645,12.58,18.106,12.58z M18.106,21.227
			c-2.227,0-4.039-1.813-4.039-4.041c0-2.227,1.813-4.037,4.039-4.037s4.039,1.811,4.039,4.037
			C22.146,19.413,20.333,21.227,18.106,21.227z"/>
		<circle fill="#41C363" stroke="#41C363" stroke-width="0.5" stroke-miterlimit="10" cx="18.181" cy="15.35" r="0.473"/>
		<path fill="#41C363" stroke="#41C363" stroke-width="0.5" stroke-miterlimit="10" d="M18.054,16.596
			c-0.156,0-0.283,0.128-0.283,0.285v2.409c0,0.156,0.127,0.283,0.283,0.283c0.158,0,0.283-0.127,0.283-0.283v-2.409
			C18.337,16.724,18.212,16.596,18.054,16.596z"/>
	</g>
</g>
</svg>
