<svg id="Capa_1" data-name="Capa 1" xmlns="http://www.w3.org/2000/svg" width="28" height="28" viewBox="0 0 28 28"><defs><style>.cls-1{fill:#2f82f0;}</style></defs><title>current-icon</title><path class="cls-1" d="M17,3A14,14,0,1,0,31,17,14.01606,14.01606,0,0,0,17,3Zm0,25.22168A11.22169,11.22169,0,1,1,28.2217,17,11.23363,11.23363,0,0,1,17,28.22168Z" transform="translate(-3 -3)"/><path class="cls-1" d="M17.9053,11.7168a1.046,1.046,0,0,0-1.8111,0l-5.1518,8.9228a1.04566,1.04566,0,1,0,1.811,1.0459l1.6812-2.9111h5.1308l1.6807,2.9111a1.04563,1.04563,0,0,0,1.8115-1.0449Zm-2.2637,4.9663L17,14.3301l1.3584,2.353Z" transform="translate(-3 -3)"/></svg>