<?xml version="1.0" encoding="utf-8"?>
<!-- Generator: Adobe Illustrator 16.0.0, SVG Export Plug-In . SVG Version: 6.00 Build 0)  -->
<!DOCTYPE svg PUBLIC "-//W3C//DTD SVG 1.1//EN" "http://www.w3.org/Graphics/SVG/1.1/DTD/svg11.dtd">
<svg version="1.1" id="Layer_1" xmlns="http://www.w3.org/2000/svg" xmlns:xlink="http://www.w3.org/1999/xlink" x="0px" y="0px"
	 width="35px" height="35px" viewBox="0 0 35 35" enable-background="new 0 0 35 35" xml:space="preserve">
<path display="none" d="M17.063,19.206c0,0.501-0.506,0.907-1.13,0.907l0,0c-0.624,0-1.13-0.406-1.13-0.907v-14.4
	c0-0.501,0.506-0.908,1.13-0.908l0,0c0.624,0,1.13,0.407,1.13,0.908V19.206z"/>
<path display="none" d="M30.301,18.482c0.503,0,0.908,0.405,0.908,0.907l0,0c0,0.502-0.405,0.909-0.908,0.909l-14.399-0.002
	c-0.501,0-0.908-0.405-0.908-0.907l0,0c0-0.502,0.407-0.907,0.908-0.907H30.301z"/>
<path d="M17.854,18.205c0,1.156-0.779,2.094-1.74,2.094l0,0c-0.961,0-1.74-0.938-1.74-2.094V5.992c0-1.156,0.779-2.094,1.74-2.094
	l0,0c0.961,0,1.74,0.938,1.74,2.094V18.205z"/>
<path d="M28.638,16.807c1.156,0,2.094,0.782,2.094,1.746l0,0c0,0.964-0.938,1.746-2.094,1.746H16.425
	c-1.156,0-2.094-0.782-2.094-1.747l0,0c0-0.963,0.938-1.745,2.094-1.745H28.638z"/>
</svg>
