<?xml version="1.0" encoding="utf-8"?>
<!-- Generator: Adobe Illustrator 16.0.3, SVG Export Plug-In . SVG Version: 6.00 Build 0)  -->
<!DOCTYPE svg PUBLIC "-//W3C//DTD SVG 1.1//EN" "http://www.w3.org/Graphics/SVG/1.1/DTD/svg11.dtd">
<svg version="1.1" id="Layer_1" xmlns="http://www.w3.org/2000/svg" xmlns:xlink="http://www.w3.org/1999/xlink" x="0px" y="0px"
	 width="60px" height="60px" viewBox="0 0 60 60" enable-background="new 0 0 60 60" xml:space="preserve">
<g>
	<path fill-rule="evenodd" clip-rule="evenodd" d="M12.527,58.265c-1.396-0.609-1.635-1.429-1.489-2.997
		c0.213-2.283,0.485-4.553,1.211-6.75c0.443-1.34,1.189-2.35,2.56-2.826c2.897-1.006,5.789-2.027,8.696-3.003
		c0.248-0.084,0.651,0.05,0.891,0.217c1.887,1.304,3.752,2.641,5.652,3.987c1.876-1.331,3.733-2.638,5.574-3.968
		c0.38-0.274,0.711-0.356,1.174-0.194c2.672,0.936,5.345,1.871,8.038,2.74c1.886,0.609,2.876,1.967,3.235,3.788
		c0.425,2.152,0.798,4.324,0.998,6.505c0.11,1.188,0.197,1.861-1.789,2.501C35.695,58.265,24.111,58.265,12.527,58.265z
		 M30.061,56.434c4.365,0,8.73,0,13.096,0c1.138,0,2.277,0.004,3.417-0.002c0.791-0.005,0.911-0.136,0.853-0.932
		c-0.031-0.425-0.053-0.855-0.135-1.271c-0.364-1.826-0.73-3.65-1.136-5.467c-0.166-0.738-0.664-1.245-1.386-1.5
		c-2.648-0.938-5.292-1.884-7.952-2.786c-0.226-0.076-0.597,0.08-0.824,0.239c-1.54,1.063-3.06,2.158-4.586,3.241
		c-1.132,0.805-1.596,0.802-2.746-0.018c-1.506-1.07-3.006-2.151-4.527-3.2c-0.245-0.168-0.643-0.334-0.887-0.254
		c-2.531,0.84-5.042,1.74-7.565,2.601c-1.068,0.363-1.714,1.095-1.921,2.17c-0.39,2.014-0.747,4.035-1.074,6.062
		c-0.157,0.971,0.011,1.115,1.004,1.116C19.148,56.434,24.604,56.434,30.061,56.434z"/>
	<path fill-rule="evenodd" clip-rule="evenodd" d="M29.65,19.974c3.585-0.007,6.531,2.301,7.637,5.699
		c1.052,3.232,0.401,6.312-0.894,9.312c-0.72,1.667-1.695,3.173-3.085,4.377c-2.091,1.809-4.478,1.831-6.533-0.021
		c-2.502-2.253-3.733-5.191-4.307-8.434c-0.527-2.987,0.009-5.754,1.953-8.15C25.854,20.989,27.734,20.056,29.65,19.974z
		 M36.239,28.485c-0.196-0.746-0.345-1.948-0.821-3.001c-1.047-2.311-2.774-3.872-5.469-3.824c-2.622,0.046-4.264,1.612-5.311,3.865
		c-0.715,1.54-0.889,3.175-0.595,4.856c0.504,2.879,1.52,5.522,3.671,7.591c1.53,1.473,3.087,1.446,4.651,0.021
		c0.192-0.176,0.382-0.357,0.549-0.557C34.994,34.977,35.965,32.09,36.239,28.485z"/>
	<path fill-rule="evenodd" clip-rule="evenodd" d="M39.317,32c0.063-0.474,0.064-0.934,0.209-1.343
		c0.057-0.156,0.441-0.274,0.678-0.275c4.15-0.017,8.303-0.013,12.453-0.013c1.134,0,2.267,0,3.478,0
		c-0.207-1.999-0.318-3.933-1.114-5.732c-0.11-0.251-0.389-0.506-0.646-0.602c-1.99-0.741-3.992-1.451-6.002-2.141
		c-0.169-0.059-0.449,0.053-0.619,0.17c-1.149,0.796-2.282,1.616-3.422,2.426c-0.938,0.668-1.58,0.669-2.523,0
		c-1.14-0.81-2.271-1.632-3.423-2.423c-0.183-0.125-0.456-0.116-0.688-0.168c-0.152-0.034-0.354-0.015-0.445-0.107
		c-0.344-0.346-0.65-0.728-1.03-1.164c0.693-0.211,1.288-0.423,1.9-0.561c0.182-0.041,0.441,0.084,0.614,0.205
		c1.3,0.912,2.596,1.83,3.873,2.773c0.344,0.254,0.584,0.249,0.926-0.004c1.276-0.944,2.57-1.865,3.874-2.772
		c0.183-0.127,0.489-0.235,0.68-0.173c2.086,0.678,4.152,1.421,6.243,2.086c1.584,0.502,2.411,1.625,2.703,3.165
		c0.308,1.624,0.552,3.262,0.744,4.904c0.121,1.02-0.722,1.785-1.843,1.785c-5.338,0.005-10.676,0.003-16.013,0
		C39.736,32.036,39.551,32.016,39.317,32z"/>
	<path fill-rule="evenodd" clip-rule="evenodd" d="M3.945,30.369c0.356,0,0.634,0,0.913,0c4.886,0,9.773,0.017,14.66-0.018
		c0.767-0.005,1.236,0.096,1.161,0.988c-0.017,0.201,0.07,0.41,0.126,0.699c-0.323,0-0.579,0-0.835,0
		c-5.219,0-10.438,0.001-15.657,0c-1.469,0-2.184-0.827-1.94-2.268c0.288-1.696,0.559-3.397,0.912-5.081
		c0.239-1.137,0.943-1.931,2.079-2.318c2.211-0.753,4.412-1.535,6.629-2.269c0.206-0.069,0.538,0.06,0.739,0.199
		c1.229,0.849,2.45,1.71,3.642,2.607c0.458,0.345,0.787,0.404,1.279,0.023c1.142-0.885,2.354-1.677,3.508-2.547
		c0.419-0.316,0.789-0.419,1.283-0.209c0.426,0.182,0.885,0.287,1.424,0.454c-0.369,0.424-0.686,0.794-1.011,1.156
		c-0.058,0.064-0.178,0.149-0.233,0.129c-0.765-0.292-1.164,0.342-1.661,0.673c-0.907,0.604-1.778,1.261-2.666,1.893
		c-0.951,0.677-1.586,0.682-2.524,0.016c-1.14-0.81-2.27-1.634-3.421-2.426c-0.182-0.125-0.491-0.221-0.682-0.156
		c-1.924,0.646-3.848,1.3-5.743,2.027c-0.387,0.148-0.788,0.558-0.951,0.945C4.252,26.606,4.159,28.455,3.945,30.369z"/>
	<path fill-rule="evenodd" clip-rule="evenodd" d="M23.108,9.172c-0.282,3.173-1.209,5.9-3.569,7.952
		c-1.602,1.392-3.479,1.364-5.084-0.04c-1.944-1.698-2.881-3.936-3.344-6.421c-0.255-1.368-0.125-2.694,0.362-3.979
		c0.962-2.538,3.34-4.207,5.761-4.083c2.538,0.13,4.771,1.979,5.514,4.615C22.938,7.895,23.007,8.606,23.108,9.172z M21.417,9.256
		c-0.055-0.399-0.078-0.924-0.203-1.424c-0.496-2.009-2.21-3.507-4.027-3.563c-2.023-0.062-3.958,1.483-4.367,3.664
		c-0.568,3.031,0.479,5.613,2.572,7.762c1.155,1.186,2.316,1.082,3.502-0.204C20.479,13.773,21.279,11.712,21.417,9.256z"/>
	<path fill-rule="evenodd" clip-rule="evenodd" d="M37.002,9.277c0.043-2.894,1.753-5.483,4.231-6.351
		c3.195-1.119,6.604,0.903,7.61,4.401c0.945,3.287-0.998,8.109-3.399,9.93c-1.557,1.18-3.315,1.189-4.822-0.067
		c-1.986-1.657-2.956-3.886-3.435-6.366C37.09,10.315,37.063,9.793,37.002,9.277z M38.667,9.38c0.067,0.515,0.088,1.041,0.207,1.543
		c0.459,1.924,1.231,3.692,2.8,4.986c0.991,0.818,1.837,0.809,2.813-0.023c1.603-1.367,2.396-3.189,2.816-5.207
		c0.333-1.602,0.131-3.112-0.794-4.485c-1.663-2.467-4.846-2.589-6.689-0.258C39.026,6.94,38.662,8.092,38.667,9.38z"/>
</g>
</svg>
