<?xml version="1.0" encoding="utf-8"?>
<!-- Generator: Adobe Illustrator 16.0.0, SVG Export Plug-In . SVG Version: 6.00 Build 0)  -->
<!DOCTYPE svg PUBLIC "-//W3C//DTD SVG 1.1//EN" "http://www.w3.org/Graphics/SVG/1.1/DTD/svg11.dtd">
<svg version="1.1" id="Layer_1" xmlns="http://www.w3.org/2000/svg" xmlns:xlink="http://www.w3.org/1999/xlink" x="0px" y="0px"
	 width="26px" height="26px" viewBox="0 0 26 26" enable-background="new 0 0 26 26" xml:space="preserve">
<path d="M20.945,22.354c-5.557,0-11.112,0-16.667,0c-0.016-0.011-0.029-0.026-0.046-0.03c-0.734-0.154-1.179-0.595-1.332-1.33
	c-0.004-0.019-0.02-0.03-0.03-0.048c0-4.946,0-9.894,0-14.84c0.01-0.016,0.025-0.03,0.03-0.047c0.215-0.895,0.795-1.355,1.712-1.356
	c0.767-0.001,1.535,0,2.302,0c0.068,0,0.136,0,0.223,0c0-0.348,0.017-0.678-0.004-1.004C7.107,3.313,7.228,3.031,7.588,2.87
	c0.102,0,0.203,0,0.305,0c0.345,0.16,0.489,0.429,0.455,0.807c-0.016,0.17-0.003,0.341-0.003,0.512c0,0.168,0,0.336,0,0.5
	c1.236,0,2.441,0,3.663,0c0-0.34,0.017-0.668-0.004-0.995C11.979,3.312,12.1,3.03,12.459,2.87c0.101,0,0.203,0,0.304,0
	c0.346,0.16,0.489,0.429,0.455,0.807c-0.016,0.17-0.003,0.341-0.003,0.512c0,0.168,0,0.336,0,0.5c1.236,0,2.441,0,3.663,0
	c0-0.34,0.017-0.668-0.005-0.995C16.85,3.312,16.971,3.03,17.33,2.87c0.102,0,0.202,0,0.304,0c0.356,0.163,0.482,0.444,0.457,0.828
	c-0.022,0.326-0.005,0.655-0.005,1.003c0.087,0,0.155,0,0.225,0c0.811,0,1.623-0.007,2.435,0.004
	c0.782,0.011,1.405,0.535,1.567,1.297c0.008,0.036,0.026,0.069,0.041,0.103c0,4.947,0,9.894,0,14.84
	c-0.016,0.048-0.033,0.094-0.047,0.141c-0.166,0.629-0.563,1.032-1.187,1.214C21.063,22.314,21.004,22.335,20.945,22.354z
	 M8.344,5.918c0,0.416,0.005,0.808-0.001,1.201C8.337,7.466,8.074,7.732,7.746,7.735c-0.334,0.004-0.6-0.267-0.609-0.623
	c-0.002-0.102,0-0.203,0-0.304c0-0.295,0-0.591,0-0.899c-0.077,0-0.127,0-0.177,0c-0.793,0-1.585-0.001-2.378,0
	c-0.353,0-0.499,0.146-0.499,0.496c0,4.743,0,9.485,0,14.229c0,0.36,0.146,0.506,0.51,0.506c5.347,0,10.693,0,16.039,0
	c0.363,0,0.509-0.146,0.509-0.507c0-4.743,0-9.487,0-14.231c0-0.348-0.147-0.493-0.5-0.494c-0.793-0.001-1.586,0-2.379,0
	c-0.055,0-0.109,0.007-0.176,0.012c0,0.414,0.006,0.813-0.001,1.211c-0.005,0.28-0.183,0.501-0.442,0.577
	c-0.248,0.073-0.524-0.021-0.658-0.254c-0.063-0.109-0.098-0.249-0.102-0.377c-0.012-0.384-0.004-0.769-0.004-1.159
	c-1.23,0-2.438,0-3.663,0c0,0.41,0.004,0.808-0.003,1.206c-0.005,0.345-0.275,0.609-0.602,0.609c-0.328,0-0.595-0.266-0.602-0.611
	c-0.006-0.342-0.001-0.685-0.001-1.027c0-0.06,0-0.12,0-0.179C10.772,5.918,9.569,5.918,8.344,5.918z"/>
<path d="M9.555,10.196c0,0.603,0,1.191,0,1.79c-0.802,0-1.597,0-2.405,0c0-0.591,0-1.183,0-1.79
	C7.943,10.196,8.743,10.196,9.555,10.196z"/>
<path d="M11.405,11.983c0-0.603,0-1.19,0-1.79c0.802,0,1.596,0,2.404,0c0,0.59,0,1.182,0,1.79
	C13.019,11.983,12.219,11.983,11.405,11.983z"/>
<path d="M18.076,11.992c-0.809,0-1.598,0-2.402,0c0-0.597,0-1.189,0-1.796c0.794,0,1.594,0,2.402,0
	C18.076,10.791,18.076,11.382,18.076,11.992z"/>
<path d="M9.556,13.24c0,0.603,0,1.191,0,1.79c-0.802,0-1.597,0-2.405,0c0-0.591,0-1.183,0-1.79C7.943,13.24,8.742,13.24,9.556,13.24
	z"/>
<path d="M11.414,13.232c0.806,0,1.597,0,2.398,0c0,0.599,0,1.19,0,1.795c-0.793,0-1.588,0-2.398,0
	C11.414,14.439,11.414,13.842,11.414,13.232z"/>
<path d="M18.078,13.238c0,0.598,0,1.185,0,1.788c-0.797,0-1.598,0-2.406,0c0-0.592,0-1.185,0-1.788
	C16.468,13.238,17.264,13.238,18.078,13.238z"/>
<path d="M9.555,16.284c0,0.604,0,1.19,0,1.791c-0.802,0-1.596,0-2.405,0c0-0.591,0-1.183,0-1.791
	C7.943,16.284,8.743,16.284,9.555,16.284z"/>
<path d="M11.414,16.279c0.798,0,1.594,0,2.398,0c0,0.598,0,1.188,0,1.795c-0.794,0-1.588,0-2.398,0
	C11.414,17.48,11.414,16.885,11.414,16.279z"/>
<path d="M15.668,18.07c0-0.604,0-1.189,0-1.789c0.801,0,1.596,0,2.404,0c0,0.591,0,1.182,0,1.789
	C17.279,18.07,16.48,18.07,15.668,18.07z"/>
</svg>
