<?xml version="1.0" encoding="utf-8"?>
<!-- Generator: Adobe Illustrator 16.0.0, SVG Export Plug-In . SVG Version: 6.00 Build 0)  -->
<!DOCTYPE svg PUBLIC "-//W3C//DTD SVG 1.1//EN" "http://www.w3.org/Graphics/SVG/1.1/DTD/svg11.dtd">
<svg version="1.1" id="Layer_1" xmlns="http://www.w3.org/2000/svg" xmlns:xlink="http://www.w3.org/1999/xlink" x="0px" y="0px"
	 width="10px" height="10px" viewBox="0 0 10 10" enable-background="new 0 0 10 10" xml:space="preserve">
<g>
	<g>
		<path fill="#010101" d="M7.9,1.198H6.345C6.268,0.525,5.693,0,5,0C4.306,0,3.732,0.524,3.655,1.198H2.099
			c-0.63,0-1.142,0.513-1.142,1.143v0.059c0,0.482,0.301,0.894,0.723,1.062v5.396C1.68,9.486,2.191,10,2.821,10h4.357
			c0.63,0,1.142-0.514,1.142-1.144V3.46c0.422-0.168,0.723-0.58,0.723-1.062V2.34C9.043,1.71,8.531,1.198,7.9,1.198z M5,0.542
			c0.395,0,0.724,0.283,0.797,0.656H4.203C4.276,0.825,4.605,0.542,5,0.542z M7.779,8.856c0,0.332-0.271,0.601-0.601,0.601H2.821
			c-0.33,0-0.602-0.269-0.602-0.601V3.542h5.56V8.856z M8.502,2.399C8.502,2.73,8.231,3,7.9,3H2.099C1.768,3,1.498,2.73,1.498,2.399
			V2.34c0-0.332,0.27-0.601,0.601-0.601H7.9c0.331,0,0.602,0.269,0.602,0.601V2.399L8.502,2.399z"/>
		<path fill="#010101" d="M3.547,8.766c0.15,0,0.272-0.122,0.272-0.271v-3.05c0-0.149-0.122-0.271-0.272-0.271
			c-0.148,0-0.27,0.122-0.27,0.271v3.05C3.277,8.644,3.398,8.766,3.547,8.766z"/>
		<path fill="#010101" d="M5,8.766c0.148,0,0.271-0.122,0.271-0.271v-3.05c0-0.149-0.123-0.271-0.271-0.271
			c-0.149,0-0.272,0.122-0.272,0.271v3.05C4.728,8.644,4.851,8.766,5,8.766z"/>
		<path fill="#010101" d="M6.452,8.766c0.149,0,0.271-0.122,0.271-0.271v-3.05c0-0.149-0.121-0.271-0.271-0.271
			c-0.15,0-0.271,0.122-0.271,0.271v3.05C6.181,8.644,6.303,8.766,6.452,8.766z"/>
	</g>
</g>
</svg>
