<?xml version="1.0" encoding="utf-8"?>
<!-- Generator: Adobe Illustrator 16.0.0, SVG Export Plug-In . SVG Version: 6.00 Build 0)  -->
<!DOCTYPE svg PUBLIC "-//W3C//DTD SVG 1.1//EN" "http://www.w3.org/Graphics/SVG/1.1/DTD/svg11.dtd">
<svg version="1.1" id="Layer_1" xmlns="http://www.w3.org/2000/svg" xmlns:xlink="http://www.w3.org/1999/xlink" x="0px" y="0px"
	 width="4px" height="16px" viewBox="0 0 4 16" enable-background="new 0 0 4 16" xml:space="preserve">
<g>
	<g>
		<path fill-rule="evenodd" clip-rule="evenodd" fill="#57595B" d="M1.999,4c1.104,0,2-0.896,2-2s-0.896-2-2-2s-2,0.896-2,2
			S0.895,4,1.999,4z M1.999,6c-1.104,0-2,0.896-2,2s0.896,2,2,2s2-0.896,2-2S3.104,6,1.999,6z M1.999,12c-1.104,0-2,0.896-2,2
			s0.896,2,2,2s2-0.896,2-2S3.104,12,1.999,12z"/>
	</g>
</g>
</svg>
