<?xml version="1.0" encoding="utf-8"?>
<!-- Generator: Adobe Illustrator 16.0.3, SVG Export Plug-In . SVG Version: 6.00 Build 0)  -->
<!DOCTYPE svg PUBLIC "-//W3C//DTD SVG 1.1//EN" "http://www.w3.org/Graphics/SVG/1.1/DTD/svg11.dtd">
<svg version="1.1" id="Layer_1" xmlns="http://www.w3.org/2000/svg" xmlns:xlink="http://www.w3.org/1999/xlink" x="0px" y="0px"
	 width="20px" height="20px" viewBox="0 0 20 20" enable-background="new 0 0 20 20" xml:space="preserve">
<g>
	<path fill="#41C363" d="M19.23,13.077h-0.538c-0.462,0-0.77,0.308-0.77,0.769v2.738c0,0.23-0.153,0.385-0.384,0.385H2.461
		c-0.23,0-0.384-0.154-0.384-0.385v-2.738c0-0.461-0.308-0.769-0.77-0.769H0.77c-0.462,0-0.77,0.308-0.77,1.308V19
		c0-0.077,0.308,0.23,0.77,0.23H19.23c0.462,0,0.77-0.308,0.77-0.23v-4.615C20,13.385,19.692,13.077,19.23,13.077z"/>
	<g>
		<g id="arrow-forward">
			<polygon points="15.514,8.135 14.137,6.775 10.933,10.281 10.969,1.351 8.876,1.351 8.858,10.263 5.522,6.775 4.091,8.183 
				9.922,13.906 			"/>
		</g>
	</g>
</g>
</svg>
