<?xml version="1.0" encoding="utf-8"?>
<!-- Generator: Adobe Illustrator 16.0.0, SVG Export Plug-In . SVG Version: 6.00 Build 0)  -->
<!DOCTYPE svg PUBLIC "-//W3C//DTD SVG 1.1//EN" "http://www.w3.org/Graphics/SVG/1.1/DTD/svg11.dtd">
<svg version="1.1" id="Layer_1" xmlns="http://www.w3.org/2000/svg" xmlns:xlink="http://www.w3.org/1999/xlink" x="0px" y="0px"
	 width="10px" height="10px" viewBox="0 0 10 10" enable-background="new 0 0 10 10" xml:space="preserve">
<path fill="#010101" d="M9.523,0.476c-0.635-0.635-1.668-0.635-2.304,0L0.693,7.004C0.689,7.006,0.688,7.01,0.686,7.014
	C0.682,7.018,0.678,7.022,0.675,7.027C0.665,7.041,0.658,7.055,0.652,7.07C0.65,7.075,0.648,7.079,0.646,7.084
	c0,0.002-0.002,0.004-0.002,0.006l-0.64,2.688C0.002,9.789,0.001,9.802,0.001,9.814C0.001,9.816,0,9.818,0,9.82
	c0,0.021,0.005,0.041,0.012,0.061c0.002,0.004,0.004,0.008,0.006,0.013c0.008,0.02,0.02,0.038,0.035,0.054
	C0.07,9.965,0.09,9.978,0.111,9.986C0.134,9.996,0.157,10,0.181,10c0.014,0,0.028-0.002,0.042-0.005l2.688-0.64
	C2.915,9.354,2.92,9.352,2.924,9.35C2.93,9.348,2.936,9.346,2.941,9.343C2.955,9.337,2.967,9.33,2.979,9.32
	c0.004-0.003,0.009-0.006,0.014-0.01C2.993,9.31,2.994,9.309,2.996,9.307L9.523,2.78C10.158,2.145,10.158,1.111,9.523,0.476z
	 M9.268,0.732c0.45,0.451,0.488,1.158,0.117,1.654L7.613,0.614C8.109,0.244,8.817,0.282,9.268,0.732z M8.371,3.42L6.58,1.628
	l0.256-0.256l1.792,1.792L8.371,3.42z M0.898,9.102c-0.071-0.07-0.186-0.07-0.256,0L0.505,9.238l0.462-1.941l0.801-0.088
	L1.664,8.135c0,0.008,0.002,0.014,0.002,0.021S1.664,8.168,1.664,8.176c0.002,0.006,0.004,0.01,0.006,0.016
	c0.002,0.011,0.005,0.021,0.009,0.03c0.005,0.012,0.011,0.022,0.017,0.032C1.701,8.263,1.707,8.27,1.714,8.277
	c0.009,0.01,0.019,0.018,0.028,0.024C1.75,8.307,1.758,8.313,1.768,8.316c0.012,0.006,0.024,0.01,0.037,0.013
	c0.007,0.001,0.013,0.005,0.02,0.006s0.014,0.001,0.02,0.001l0,0h0.001l0,0l0,0c0.007,0,0.013,0,0.021-0.001l0.926-0.103
	L2.703,9.033L0.761,9.494l0.138-0.137C0.969,9.287,0.969,9.173,0.898,9.102z M3.17,8.11L7.22,4.06c0.071-0.071,0.071-0.185,0-0.256
	s-0.185-0.071-0.256,0l-4.05,4.051L2.05,7.95l0.096-0.864l4.051-4.05c0.071-0.071,0.071-0.185,0-0.256s-0.185-0.071-0.256,0
	L1.89,6.83L1.313,6.895l5.011-5.011l1.791,1.792l-5.01,5.011L3.17,8.11z M8.884,2.908L7.092,1.116L7.348,0.86L9.14,2.652
	L8.884,2.908z"/>
</svg>
