<?xml version="1.0" encoding="utf-8"?>
<!-- Generator: Adobe Illustrator 16.0.0, SVG Export Plug-In . SVG Version: 6.00 Build 0)  -->
<!DOCTYPE svg PUBLIC "-//W3C//DTD SVG 1.1//EN" "http://www.w3.org/Graphics/SVG/1.1/DTD/svg11.dtd">
<svg version="1.1" id="Layer_1" xmlns="http://www.w3.org/2000/svg" xmlns:xlink="http://www.w3.org/1999/xlink" x="0px" y="0px"
	 width="20px" height="20px" viewBox="0 0 20 20" enable-background="new 0 0 20 20" xml:space="preserve">
<g>
	<path fill="#41C363" d="M18.27,1.731c-1.636-1.64-4.295-1.64-5.931,0L1.465,12.601c-0.085,0.085-0.138,0.194-0.154,0.312
		L0.506,18.88c-0.025,0.17,0.036,0.34,0.153,0.457c0.101,0.102,0.243,0.162,0.385,0.162c0.024,0,0.048,0,0.073-0.004l3.595-0.486
		c0.299-0.04,0.51-0.315,0.47-0.615c-0.041-0.3-0.316-0.51-0.616-0.47l-2.882,0.389l0.563-4.161l4.381,4.38
		c0.101,0.102,0.242,0.162,0.384,0.162s0.284-0.057,0.385-0.162L18.27,7.662c0.793-0.794,1.23-1.846,1.23-2.968
		S19.063,2.521,18.27,1.731z M12.549,3.067l1.826,1.826l-9.923,9.923l-1.825-1.826L12.549,3.067z M7.015,17.374l-1.785-1.786
		l9.923-9.922l1.785,1.785L7.015,17.374z M17.698,6.67L13.33,2.302c0.555-0.458,1.247-0.708,1.976-0.708
		c0.83,0,1.607,0.324,2.194,0.907s0.907,1.364,0.907,2.194C18.407,5.427,18.156,6.115,17.698,6.67z"/>
</g>
</svg>
