<?xml version="1.0" encoding="utf-8"?>
<!-- Generator: Adobe Illustrator 16.0.3, SVG Export Plug-In . SVG Version: 6.00 Build 0)  -->
<!DOCTYPE svg PUBLIC "-//W3C//DTD SVG 1.1//EN" "http://www.w3.org/Graphics/SVG/1.1/DTD/svg11.dtd">
<svg version="1.1" id="Layer_1" xmlns="http://www.w3.org/2000/svg" xmlns:xlink="http://www.w3.org/1999/xlink" x="0px" y="0px"
	 width="22px" height="22px" viewBox="0 0 22 22" enable-background="new 0 0 22 22" xml:space="preserve">
<g display="none">
	<path display="inline" d="M19.081,7.674c-0.141-0.335-0.308-0.6-0.502-0.794l-2.925-2.924c-0.195-0.195-0.46-0.362-0.794-0.501
		c-0.334-0.139-0.64-0.209-0.92-0.209H4.248c-0.278,0-0.515,0.097-0.71,0.292C3.343,3.733,3.246,3.97,3.246,4.248v14.085
		c0,0.279,0.097,0.517,0.292,0.711c0.195,0.195,0.432,0.294,0.71,0.294l14.037-0.002c0.279,0,0.517-0.097,0.711-0.292
		c0.195-0.194,0.294-0.432,0.294-0.711v-9.74C19.29,8.315,19.219,8.008,19.081,7.674z M9.93,4.917c0-0.091,0.033-0.169,0.1-0.235
		c0.067-0.066,0.145-0.099,0.235-0.099h2.006c0.091,0,0.168,0.032,0.234,0.099c0.067,0.066,0.101,0.145,0.101,0.235v3.342
		c0,0.09-0.034,0.169-0.101,0.234c-0.066,0.066-0.144,0.1-0.234,0.1h-2.006c-0.091,0-0.168-0.033-0.235-0.1
		c-0.066-0.065-0.1-0.144-0.1-0.234V4.917L9.93,4.917z M15.277,18H7.256 M5.919,18H4.583V4.583h1.336v4.344
		c0,0.279,0.097,0.516,0.292,0.71C6.407,9.833,6.644,9.93,6.922,9.93h6.016c0.281,0,0.517-0.097,0.712-0.292
		c0.194-0.195,0.291-0.431,0.291-0.71V4.583c0.105,0,0.24,0.035,0.408,0.104c0.167,0.07,0.286,0.139,0.354,0.209l2.937,2.935
		c0.068,0.069,0.138,0.19,0.207,0.36c0.072,0.171,0.105,0.305,0.105,0.402V18l0,0h-1.337l0,0"/>
</g>
<g display="none">
	<path display="inline" d="M15.277,18H7.256v-4.06h8.021V18z M16.615,18L16.615,18v-4.393c0-0.279-0.099-0.516-0.293-0.712
		c-0.194-0.194-0.432-0.291-0.71-0.291h-8.69c-0.279,0-0.515,0.097-0.711,0.291c-0.195,0.196-0.292,0.433-0.292,0.712V18"/>
</g>
<g display="none">
	<path display="inline" stroke="#000000" stroke-width="0.5" d="M2.236,14.711c0.091,0,0.17,0,0.247,0c1.075,0,2.15,0,3.227,0
		c0.071,0,0.144-0.003,0.214,0.008c0.242,0.036,0.399,0.221,0.398,0.458c-0.001,0.229-0.15,0.404-0.384,0.448
		c-0.077,0.012-0.157,0.011-0.235,0.011c-1.24,0.004-2.48,0.007-3.72,0.009c-0.516,0.003-0.623-0.103-0.666-0.613
		c-0.142-1.7,0.131-3.337,0.88-4.866c1.446-2.958,3.795-4.807,7.038-5.386c4.283-0.764,8.359,1.323,10.313,5.203
		c0.788,1.562,1.105,3.227,0.97,4.977c-0.005,0.077-0.005,0.156-0.011,0.236c-0.021,0.263-0.193,0.447-0.457,0.447
		c-1.354,0-2.709-0.002-4.064-0.012c-0.293-0.001-0.482-0.2-0.477-0.467c0.003-0.273,0.201-0.451,0.518-0.451
		c1.096-0.004,2.192-0.002,3.29-0.002c0.086,0,0.172,0,0.313,0c0.063-2.925-0.963-5.346-3.211-7.206
		c-2.746-2.273-6.668-2.6-9.729-0.879C3.372,8.491,2.004,11.964,2.236,14.711z"/>
	<path display="inline" stroke="#000000" stroke-width="0.5" d="M11.286,17.484c-1.019-0.021-1.853-0.567-2.242-1.505
		c-0.441-1.062-0.7-2.178-0.917-3.302c-0.153-0.786-0.273-1.58-0.396-2.373c-0.02-0.121-0.008-0.261,0.032-0.376
		c0.072-0.206,0.322-0.31,0.535-0.241c0.094,0.031,0.187,0.076,0.267,0.135c1.374,1.012,2.718,2.06,3.925,3.272
		c0.208,0.208,0.401,0.429,0.597,0.649c1.113,1.245,0.514,3.153-1.127,3.621C11.739,17.427,11.51,17.446,11.286,17.484z
		 M8.819,11.224c0.097,0.513,0.188,1.025,0.293,1.533c0.205,0.981,0.426,1.96,0.824,2.884c0.101,0.233,0.271,0.464,0.467,0.621
		c0.579,0.467,1.441,0.373,1.95-0.167c0.376-0.402,0.55-1.171-0.038-1.827C11.281,13.115,10.084,12.152,8.819,11.224z"/>
</g>
<g>
	<path fill-rule="evenodd" clip-rule="evenodd" fill="#FFFFFF" stroke="#FFFFFF" stroke-width="0.4" stroke-miterlimit="10" d="
		M7.733,17.88c-1.222-1.223-2.407-2.41-3.653-3.655c0.017-0.019,0.072-0.071,0.112-0.111c3.582-3.581,7.163-7.162,10.745-10.743
		c0.403-0.403,0.775-0.403,1.181,0.001c0.826,0.826,1.652,1.652,2.478,2.479c0.396,0.397,0.397,0.773,0,1.169
		c-3.586,3.589-7.174,7.178-10.763,10.768C7.798,17.818,7.764,17.851,7.733,17.88z M13.442,5.952
		c-2.773,2.771-5.549,5.547-8.305,8.303c0.855,0.855,1.719,1.719,2.571,2.571c2.761-2.763,5.537-5.538,8.303-8.305
		C15.159,7.668,14.297,6.807,13.442,5.952z M16.558,7.959c0.512-0.51,1.027-1.026,1.521-1.52c-0.85-0.851-1.716-1.714-2.558-2.558
		c-0.5,0.499-1.016,1.013-1.521,1.519C14.851,6.251,15.713,7.113,16.558,7.959z"/>
	<path fill-rule="evenodd" clip-rule="evenodd" fill="#FFFFFF" stroke="#FFFFFF" stroke-width="0.5" stroke-miterlimit="10" d="
		M3.172,18.826c0.24-1.386,0.474-2.74,0.713-4.126c0.146,0.146,0.572,0.536,0.715,0.649c0.059,0.047,0.073,0.058,0.073,0.058
		c-0.16,0.601-0.396,1.693-0.522,2.303c-0.01,0.051-0.017,0.103-0.027,0.171c0.452-0.072,0.889-0.142,1.326-0.213
		c0.38-0.061,0.759-0.125,1.139-0.184c0.039-0.006,0.095,0,0.12,0.024c0.195,0.187,0.384,0.379,0.599,0.593
		C5.918,18.346,4.562,18.583,3.172,18.826z"/>
</g>
</svg>
