<svg id="Layer_1" data-name="Layer 1" xmlns="http://www.w3.org/2000/svg" width="9.87778mm" height="5.34327mm" viewBox="0 0 28 15.14627"><defs><style>.cls-1{fill:#3392bc;}</style></defs><title>engine-oil-icon</title><path class="cls-1" d="M245.46724,144.66156v-9.25541c-1.50217-.42555-2.97634-.8428-4.45025-1.261-.36052-.10228-.72034-.20705-1.08022-.31159a.6152.6152,0,0,1-.4305-.91882q.668-1.47744,1.35026-2.94844a.62758.62758,0,0,1,1.02779-.29274q2.49049,1.57333,4.977,3.153a1.101,1.101,0,0,0,.64273.183c.70752-.01157,1.41534-.00413,2.14323-.00413v-1.0939c-.3433,0-.68994.00051-1.03657-.00016-.30373-.00059-.6077.00474-.9111-.00589a.59394.59394,0,0,1-.12461-1.17012,1.27823,1.27823,0,0,1,.32566-.04089q2.40254-.00413,4.80509-.00043a1.08612,1.08612,0,0,1,.32464.04762.5819.5819,0,0,1,.39489.67247.54656.54656,0,0,1-.54141.49171c-.48744.0134-.97547.00542-1.46326.00627-.16379.00028-.32758,0-.51335,0v1.09338h.29439c1.15065,0,2.30133.005,3.45192-.00336a.70032.70032,0,0,1,.65972.35947c.353.56928.72036,1.12961,1.0823,1.69333a.54713.54713,0,0,0,.81057.18637q3.0177-1.735,6.03461-3.47137c.18287-.10521.36327-.215.54913-.31464a.56338.56338,0,0,1,.79009.13q.64045.72268,1.26015,1.46368a.585.585,0,0,1,.05481.718.61068.61068,0,0,1-.69259.27046c-.35551-.07458-.74786-.27177-1.05731-.18285-.30315.0871-.52413.465-.77782.71863q-2.85136,2.85049-5.69653,5.70715a.59414.59414,0,0,0-.15471.37723c-.01075,1.33457-.00617,2.66928-.00583,4.00394Z" transform="translate(-239.42725 -129.51529)"/><path class="cls-1" d="M267.42725,138.18854a2.21731,2.21731,0,0,1-1.56592,2.10882,2.03877,2.03877,0,0,1-2.43642-1.49069,2.3695,2.3695,0,0,1,.2558-1.88293c.37045-.65234.78151-1.283,1.20033-1.90592a.595.595,0,0,1,.93806-.05595,7.75171,7.75171,0,0,1,1.53861,2.73857A4.04309,4.04309,0,0,1,267.42725,138.18854Z" transform="translate(-239.42725 -129.51529)"/></svg>