<svg id="Capa_1" data-name="Capa 1" xmlns="http://www.w3.org/2000/svg" width="25" height="29.47265" viewBox="0 0 25 29.47265"><defs><style>.cls-1{fill:#d6b33b;}</style></defs><title>engine-icon</title><path class="cls-1" d="M37.3262,24.23519A12.5,12.5,0,1,1,15.99189,15.3931a1.83705,1.83705,0,1,1,2.59642,2.59955,8.82408,8.82408,0,1,0,12.479.0023,1.83766,1.83766,0,1,1,2.59955-2.59813A12.42485,12.42485,0,0,1,37.3262,24.23519Z" transform="translate(-12.3262 -7.26077)"/><path class="cls-1" d="M21.50475,26.55157l5.624-6.24225a.41113.41113,0,0,0-.26024-.69019h-.4484a.4091.4091,0,0,1-.28724-.65536l2.9824-4.15434a.40921.40921,0,0,0-.28783-.65542h-1.499a.40869.40869,0,0,1-.29355-.647l3.81069-5.599a.409.409,0,0,0-.29354-.64728H24.52746a.36229.36229,0,0,0-.32784.22423l-2.94527,6.58384a.40445.40445,0,0,0,.32726.58485h1.35881a.40429.40429,0,0,1,.3275.58427l-2.01357,4.503a.40456.40456,0,0,0,.32726.5848h1.27995a.40367.40367,0,0,1,.32956.58055l-2.27376,5.18418C20.736,26.50028,21.2138,26.87506,21.50475,26.55157Z" transform="translate(-12.3262 -7.26077)"/></svg>