<?xml version="1.0" encoding="utf-8"?>
<!-- Generator: Adobe Illustrator 16.0.0, SVG Export Plug-In . SVG Version: 6.00 Build 0)  -->
<!DOCTYPE svg PUBLIC "-//W3C//DTD SVG 1.1//EN" "http://www.w3.org/Graphics/SVG/1.1/DTD/svg11.dtd">
<svg version="1.1" id="Layer_1" xmlns="http://www.w3.org/2000/svg" xmlns:xlink="http://www.w3.org/1999/xlink" x="0px" y="0px"
	 width="30px" height="30px" viewBox="0 0 30 30" enable-background="new 0 0 30 30" xml:space="preserve">
<g>
	<path fill-rule="evenodd" clip-rule="evenodd" d="M10.037,26.721c-1.828,0-3.655,0.002-5.482,0
		c-0.925-0.002-1.248-0.329-1.249-1.266c-0.001-3.394-0.029-6.788,0.007-10.182c0.048-4.597,1.994-8.198,6.025-10.436
		c4.046-2.246,8.151-2.039,12.076,0.424c4.359,2.734,6.372,8.522,4.716,13.362c-1.688,4.936-6.016,8.057-11.237,8.096
		C13.274,26.731,11.655,26.721,10.037,26.721z M10.767,24.908c0,0.024,0.001,0.048,0.002,0.072c1.945-0.076,3.912,0.001,5.833-0.257
		c5.525-0.742,9.302-6.354,8.053-11.794c-1.296-5.64-6.792-8.928-12.377-7.405c-3.939,1.074-6.954,4.749-7.088,8.85
		c-0.11,3.374-0.048,6.753-0.077,10.129c-0.003,0.388,0.188,0.41,0.485,0.409C7.32,24.904,9.043,24.908,10.767,24.908z"/>
	<path fill-rule="evenodd" clip-rule="evenodd" fill="#41C363" d="M14.699,11.552c-0.538-0.027-0.996,0.213-1.34,0.722
		c-0.335,0.496-0.708,0.595-1.143,0.359c-0.434-0.235-0.588-0.685-0.396-1.213c0.293-0.807,0.937-1.25,1.707-1.48
		c0.986-0.296,1.99-0.28,2.963,0.099c1.737,0.677,2.276,2.428,1.186,3.942c-0.33,0.459-0.748,0.87-1.182,1.235
		c-0.582,0.488-0.93,1.042-0.937,1.826c-0.006,0.659-0.256,0.861-0.898,0.861c-0.599,0.001-0.869-0.257-0.893-0.897
		c-0.04-1.068,0.298-1.978,1.161-2.655c0.232-0.182,0.461-0.369,0.68-0.566c0.445-0.399,0.796-0.848,0.58-1.498
		C16.025,11.798,15.542,11.56,14.699,11.552z"/>
	<path fill-rule="evenodd" clip-rule="evenodd" fill="#41C363" d="M15.848,20.236c0.001,0.664-0.512,1.197-1.168,1.213
		c-0.659,0.017-1.234-0.548-1.235-1.212c-0.001-0.639,0.546-1.205,1.181-1.221C15.289,19.001,15.846,19.557,15.848,20.236z"/>
</g>
</svg>
