<?xml version="1.0" encoding="utf-8"?>
<!-- Generator: Adobe Illustrator 16.0.0, SVG Export Plug-In . SVG Version: 6.00 Build 0)  -->
<!DOCTYPE svg PUBLIC "-//W3C//DTD SVG 1.1//EN" "http://www.w3.org/Graphics/SVG/1.1/DTD/svg11.dtd">
<svg version="1.1" id="Layer_1" xmlns="http://www.w3.org/2000/svg" xmlns:xlink="http://www.w3.org/1999/xlink" x="0px" y="0px"
	 width="19px" height="19px" viewBox="0 0 19 19" enable-background="new 0 0 19 19" xml:space="preserve">
<path fill-rule="evenodd" clip-rule="evenodd" fill="#FFFFFF" d="M18.748,1.708c-0.285,0.307-0.576,0.61-0.856,0.921
	c-1.81,2.009-3.616,4.02-5.428,6.026c-0.087,0.097-0.122,0.193-0.122,0.321c0.002,2.879,0.002,5.758,0,8.636
	c0,0.149-0.007,0.302-0.038,0.448c-0.113,0.51-0.592,0.788-1.129,0.633c-0.363-0.106-0.71-0.258-1.063-0.396
	c-0.648-0.255-1.296-0.511-1.94-0.775c-0.763-0.313-1.258-0.869-1.463-1.669c-0.042-0.166-0.052-0.345-0.052-0.519
	c-0.004-2.114-0.004-4.226,0-6.34C6.659,8.854,6.619,8.75,6.524,8.642c-2.017-2.234-4.03-4.473-6.044-6.71
	C0.408,1.853,0.329,1.783,0.252,1.708c0-0.048,0-0.096,0-0.145c0.012-0.045,0.026-0.09,0.035-0.137
	C0.37,1.013,0.582,0.682,0.954,0.48C1.138,0.38,1.352,0.333,1.551,0.263c5.3,0,10.599,0,15.896,0
	c0.027,0.011,0.056,0.026,0.083,0.03c0.401,0.054,0.731,0.245,0.943,0.583c0.129,0.206,0.186,0.457,0.274,0.688
	C18.748,1.612,18.748,1.66,18.748,1.708z M16.834,1.692c-4.907,0-9.77,0-14.658,0C2.214,1.74,2.235,1.769,2.26,1.795
	c1.65,1.835,3.3,3.67,4.954,5.503c0.045,0.049,0.134,0.08,0.202,0.08c1.391,0.006,2.78,0.006,4.172,0
	c0.073,0,0.165-0.042,0.212-0.093c1.402-1.55,2.798-3.104,4.197-4.657C16.268,2.325,16.539,2.021,16.834,1.692z M10.915,8.811
	c-0.946,0-1.883,0-2.843,0c0,0.086,0,0.164,0,0.239c0,2.083,0,4.166,0,6.248c0,0.436,0.212,0.75,0.624,0.915
	c0.596,0.24,1.193,0.478,1.791,0.716c0.137,0.055,0.274,0.109,0.429,0.17C10.915,14.325,10.915,11.573,10.915,8.811z"/>
</svg>
