<?xml version="1.0" encoding="utf-8"?>
<!-- Generator: Adobe Illustrator 16.0.0, SVG Export Plug-In . SVG Version: 6.00 Build 0)  -->
<!DOCTYPE svg PUBLIC "-//W3C//DTD SVG 1.1//EN" "http://www.w3.org/Graphics/SVG/1.1/DTD/svg11.dtd">
<svg version="1.1" id="Layer_1" xmlns="http://www.w3.org/2000/svg" xmlns:xlink="http://www.w3.org/1999/xlink" x="0px" y="0px"
	 width="28px" height="28px" viewBox="0 231.5 28 28" enable-background="new 0 231.5 28 28" xml:space="preserve">
<path fill="#575757" d="M19.411,236.833c0.81,0,1.539-0.487,1.848-1.235c0.31-0.748,0.139-1.607-0.434-2.18
	c-0.64-0.641-1.631-0.771-2.415-0.318c-0.784,0.453-1.167,1.375-0.932,2.25C17.713,236.226,18.506,236.833,19.411,236.833z
	 M18.57,233.992c0.465-0.461,1.215-0.458,1.678,0.004c0.463,0.463,0.465,1.213,0.005,1.679c-0.3,0.303-0.74,0.422-1.152,0.313
	c-0.413-0.109-0.734-0.432-0.844-0.844C18.147,234.731,18.267,234.292,18.57,233.992L18.57,233.992z"/>
<path fill="#575757" d="M8.131,235.967c0.955,0,1.776-0.674,1.962-1.61s-0.315-1.874-1.197-2.239
	c-0.881-0.365-1.899-0.057-2.429,0.737c-0.53,0.794-0.426,1.851,0.249,2.526C7.091,235.758,7.601,235.969,8.131,235.967z
	 M7.291,233.126c0.464-0.465,1.218-0.465,1.682,0c0.464,0.464,0.465,1.218,0,1.683c-0.466,0.46-1.215,0.458-1.679-0.005
	C6.832,234.341,6.83,233.591,7.291,233.126z"/>
<path fill="#575757" d="M14.084,259.033c0.955,0,1.776-0.674,1.962-1.609c0.186-0.937-0.315-1.874-1.197-2.239
	s-1.899-0.057-2.429,0.737c-0.53,0.793-0.426,1.852,0.249,2.526C13.044,258.824,13.553,259.035,14.084,259.033z M13.242,256.192
	c0.465-0.465,1.218-0.465,1.683,0c0.465,0.464,0.465,1.218,0,1.682c-0.465,0.461-1.216,0.459-1.679-0.005
	C12.785,257.407,12.783,256.657,13.242,256.192z"/>
<path fill="#575757" d="M22.999,237.429h-7.231c0.343-0.836,0.082-1.797-0.635-2.346c-0.717-0.549-1.714-0.549-2.431,0
	c-0.718,0.549-0.978,1.51-0.636,2.346H5.001c-0.224,0-0.405,0.182-0.405,0.405v2.822c0,0.023,0.002,0.046,0.006,0.069
	c0,0.002,0,0.004,0,0.006c0.004,0.021,0.011,0.043,0.019,0.064c0.001,0.002,0.002,0.005,0.002,0.007
	c0.008,0.02,0.018,0.04,0.029,0.059c0.002,0.002,0.003,0.005,0.005,0.008c0.011,0.019,0.024,0.036,0.038,0.052
	c0.001,0.001,0.002,0.002,0.003,0.004l6.87,7.674v5.667h0.81v-5.822c0-0.1-0.037-0.195-0.103-0.27l-6.368-7.114h16.185l-6.369,7.114
	c-0.066,0.073-0.103,0.17-0.103,0.27v5.822h0.81v-5.667l6.87-7.673c0.001-0.001,0.002-0.003,0.003-0.004
	c0.015-0.016,0.027-0.033,0.039-0.052c0.002-0.002,0.003-0.005,0.005-0.008c0.011-0.019,0.021-0.038,0.029-0.059
	c0-0.002,0.001-0.005,0.002-0.007c0.008-0.021,0.014-0.042,0.018-0.064c0-0.002,0-0.004,0.001-0.006
	c0.004-0.023,0.006-0.046,0.006-0.069v-2.822C23.404,237.611,23.223,237.429,22.999,237.429z M13.575,235.529
	c0.503-0.151,1.045,0.045,1.335,0.482c0.289,0.438,0.258,1.014-0.078,1.418h-1.829c-0.178-0.213-0.275-0.482-0.274-0.761
	C12.728,236.144,13.072,235.68,13.575,235.529z M22.594,240.251H5.406v-2.012h17.188V240.251z"/>
<rect x="11.566" y="253.456" fill="#575757" width="4.866" height="0.81"/>
</svg>
