<?xml version="1.0" encoding="utf-8"?>
<!-- Generator: Adobe Illustrator 16.0.0, SVG Export Plug-In . SVG Version: 6.00 Build 0)  -->
<!DOCTYPE svg PUBLIC "-//W3C//DTD SVG 1.1//EN" "http://www.w3.org/Graphics/SVG/1.1/DTD/svg11.dtd">
<svg version="1.1" id="Layer_1" xmlns="http://www.w3.org/2000/svg" xmlns:xlink="http://www.w3.org/1999/xlink" x="0px" y="0px"
	 width="112px" height="21.481px" viewBox="0 0 112 21.481" enable-background="new 0 0 112 21.481" xml:space="preserve">
<g>
	<g>
		<g>
			<polygon id="XMLID_47_" fill="#41C363" points="14.771,18.958 7.067,18.958 6.248,21.481 15.59,21.481 			"/>
			<polygon id="XMLID_46_" points="11.572,0 15.268,0 21.837,20.219 18.141,20.219 			"/>
			<polygon id="XMLID_45_" points="10.266,0 6.57,0 0,20.219 3.696,20.219 			"/>
			<g>
				<polygon id="XMLID_44_" points="107.203,0 92.92,0 92.92,2.968 98.392,2.968 98.392,20.219 101.73,20.219 101.73,2.968 
					107.203,2.968 				"/>
				<polygon id="XMLID_43_" points="72.93,0 72.93,20.219 85.915,20.219 85.915,17.251 76.269,17.251 76.269,11.501 84.533,11.501 
					84.533,8.533 76.269,8.533 76.269,2.968 85.915,2.968 85.915,0 				"/>
				<polygon id="XMLID_42_" points="38.256,0 33.528,15.111 28.802,0.005 28.8,0 25.104,0 31.673,20.219 35.383,20.219 41.953,0 
									"/>
				<polygon id="XMLID_41_" points="51.732,0 48.886,0 48.886,20.219 52.225,20.219 52.225,6.701 61.343,20.219 64.189,20.219 
					64.189,0 60.851,0 60.851,13.518 				"/>
			</g>
		</g>
		<g id="XMLID_33_">
			<g id="XMLID_34_">
				<g id="XMLID_35_">
					<path id="XMLID_36_" d="M110.518,2.965c-0.819,0-1.482-0.664-1.482-1.483c0-0.819,0.663-1.482,1.482-1.482S112,0.664,112,1.482
						C112,2.302,111.337,2.965,110.518,2.965z M110.518,0.274c-0.663,0-1.188,0.532-1.188,1.208s0.525,1.208,1.188,1.208
						s1.184-0.533,1.184-1.208S111.181,0.274,110.518,0.274z M110.829,2.281l-0.328-0.635h-0.205v0.635h-0.295V0.68h0.603
						c0.303,0,0.516,0.226,0.516,0.492c0,0.226-0.139,0.373-0.315,0.434l0.356,0.676H110.829z M110.566,0.93h-0.271v0.483h0.271
						c0.156,0,0.263-0.106,0.263-0.242S110.723,0.93,110.566,0.93z"/>
				</g>
			</g>
		</g>
	</g>
</g>
</svg>
