<?xml version="1.0" encoding="utf-8"?>
<!-- Generator: Adobe Illustrator 16.0.0, SVG Export Plug-In . SVG Version: 6.00 Build 0)  -->
<!DOCTYPE svg PUBLIC "-//W3C//DTD SVG 1.1//EN" "http://www.w3.org/Graphics/SVG/1.1/DTD/svg11.dtd">
<svg version="1.1" id="Layer_1" xmlns="http://www.w3.org/2000/svg" xmlns:xlink="http://www.w3.org/1999/xlink" x="0px" y="0px"
	 width="219.604px" height="45px" viewBox="0 0 219.604 45" enable-background="new 0 0 219.604 45" xml:space="preserve">
<polygon id="XMLID_47_" fill="#41C363" points="30.486,38.194 15.63,38.194 14.049,43.06 32.066,43.06 "/>
<polygon id="XMLID_46_" fill="#FFFFFF" points="24.317,1.633 31.446,1.633 44.115,40.627 36.987,40.627 "/>
<polygon id="XMLID_45_" fill="#FFFFFF" points="21.798,1.633 14.67,1.633 2,40.627 9.128,40.627 "/>
<g>
	<polygon id="XMLID_44_" fill="#FFFFFF" points="208.749,1.633 181.202,1.633 181.202,7.357 191.756,7.357 191.756,40.627 
		198.195,40.627 198.195,7.357 208.749,7.357 	"/>
	<polygon id="XMLID_43_" fill="#FFFFFF" points="142.65,1.633 142.65,40.627 167.692,40.627 167.692,34.903 149.09,34.903 
		149.09,23.813 165.028,23.813 165.028,18.089 149.09,18.089 149.09,7.357 167.692,7.357 167.692,1.633 	"/>
	<polygon id="XMLID_42_" fill="#FFFFFF" points="75.78,1.633 66.661,30.776 57.546,1.643 57.542,1.633 50.414,1.633 63.084,40.627 
		70.239,40.627 82.909,1.633 	"/>
	<polygon id="XMLID_41_" fill="#FFFFFF" points="101.77,1.633 96.28,1.633 96.28,40.627 102.72,40.627 102.72,14.556 
		120.305,40.627 125.794,40.627 125.794,1.633 119.354,1.633 119.354,27.703 	"/>
</g>
<g id="XMLID_33_">
	<g id="XMLID_34_">
		<g id="XMLID_35_">
			<path id="XMLID_36_" fill="#FFFFFF" d="M215.141,7.352c-1.58,0-2.859-1.279-2.859-2.859c0-1.58,1.279-2.859,2.859-2.859
				S218,2.913,218,4.492C218,6.072,216.721,7.352,215.141,7.352z M215.141,2.162c-1.279,0-2.291,1.027-2.291,2.33
				s1.012,2.33,2.291,2.33s2.283-1.027,2.283-2.33S216.42,2.162,215.141,2.162z M215.741,6.033l-0.632-1.225h-0.396v1.225h-0.568
				V2.944h1.161c0.584,0,0.995,0.435,0.995,0.948c0,0.435-0.269,0.719-0.608,0.837l0.688,1.304H215.741z M215.235,3.426h-0.521
				v0.932h0.521c0.301,0,0.506-0.205,0.506-0.466S215.536,3.426,215.235,3.426z"/>
		</g>
	</g>
</g>
</svg>
