<svg id="Capa_1" data-name="Capa 1" xmlns="http://www.w3.org/2000/svg" width="26" height="25.82372" viewBox="0 0 26 25.82372"><defs><style>.cls-1{fill:#ed734c;}</style></defs><title>fuel-sm-icon</title><path class="cls-1" d="M956.25433,1908.74924H938.20494a1.54274,1.54274,0,0,0,0,3.08547l3.27032.00382a.86386.86386,0,1,1,0,1.72771h-2.73793v6.55225h-.53239a1.54274,1.54274,0,0,0,0,3.08547l3.27032.00455a.864.864,0,1,1,0,1.728h-2.73793v6.55127h-.53239a1.54261,1.54261,0,0,0,0,3.08521h13.58975a7.49775,7.49775,0,0,1-2.76393-5.81535c0-1.72848,1.07478-4.01884,3.28643-7.00169a48.14661,48.14661,0,0,1,3.09385-3.74542l.31116-.33338v-5.84241h.53213a1.54274,1.54274,0,1,0,0-3.08547Z" transform="translate(-936.66234 -1908.74924)"/><path class="cls-1" d="M959.88121,1923.01431c-1.35118-1.82227-2.72156-3.29655-2.73519-3.31116a.36917.36917,0,0,0-.54018,0c-.01359.01461-1.38395,1.48889-2.73468,3.31116-1.84547,2.4891-2.7806,4.42082-2.7806,5.74279a5.78589,5.78589,0,0,0,11.57178,0C962.66182,1927.43513,961.72622,1925.50341,959.88121,1923.01431Zm-2.42752,9.65616a4.03938,4.03938,0,0,1-4.967-3.93,4.18428,4.18428,0,0,1,.54467-1.76933.20909.20909,0,0,1,.39495.1175,2.04186,2.04186,0,0,0-.01565.24413,5.04067,5.04067,0,0,0,4.036,4.92918.20912.20912,0,0,1,.007.40853Z" transform="translate(-936.66234 -1908.74924)"/></svg>