<?xml version="1.0" encoding="utf-8"?>
<!-- Generator: Adobe Illustrator 16.0.0, SVG Export Plug-In . SVG Version: 6.00 Build 0)  -->
<!DOCTYPE svg PUBLIC "-//W3C//DTD SVG 1.1//EN" "http://www.w3.org/Graphics/SVG/1.1/DTD/svg11.dtd">
<svg version="1.1" id="Layer_1" xmlns="http://www.w3.org/2000/svg" xmlns:xlink="http://www.w3.org/1999/xlink" x="0px" y="0px"
	 width="30px" height="30px" viewBox="-6 -6 30 30" enable-background="new -6 -6 30 30" xml:space="preserve">
<g>
	<g>
		<path d="M16.153,7.221c-0.489,0-0.889,0.397-0.889,0.889v0.895c-0.001,2.336-0.912,4.532-2.565,6.185
			c-1.651,1.649-3.846,2.558-6.181,2.558c-0.001,0-0.003,0-0.005,0c-4.823-0.003-8.744-3.929-8.742-8.752
			c0.001-2.336,0.913-4.532,2.565-6.184c1.652-1.65,3.847-2.558,6.181-2.558c0.002,0,0.004,0,0.005,0
			c1.232,0,2.428,0.255,3.556,0.757c0.448,0.2,0.974-0.002,1.173-0.45c0.2-0.449-0.001-0.975-0.449-1.174
			C9.447-1.217,8.008-1.524,6.524-1.525c-0.001,0-0.003,0-0.006,0c-2.809,0-5.45,1.093-7.438,3.078
			C-2.909,3.54-4.005,6.183-4.007,8.994s1.092,5.454,3.079,7.444c1.986,1.989,4.629,3.085,7.44,3.086c0.002,0,0.004,0,0.006,0
			c2.808,0,5.451-1.093,7.438-3.078c1.989-1.985,3.086-4.629,3.087-7.441V8.11C17.043,7.618,16.646,7.221,16.153,7.221z"/>
	</g>
</g>
<g>
	<g>
		<path fill="#40C261" d="M17.746-0.295c-0.347-0.348-0.909-0.348-1.257,0l-9.971,9.97L4.256,7.414c-0.347-0.348-0.91-0.348-1.257,0
			c-0.347,0.347-0.347,0.91,0,1.257l2.891,2.89c0.174,0.175,0.401,0.262,0.629,0.262s0.456-0.087,0.629-0.262L17.746,0.962
			C18.093,0.615,18.093,0.052,17.746-0.295z"/>
	</g>
</g>
</svg>
