<?xml version="1.0" encoding="utf-8"?>
<!-- Generator: Adobe Illustrator 16.0.0, SVG Export Plug-In . SVG Version: 6.00 Build 0)  -->
<!DOCTYPE svg PUBLIC "-//W3C//DTD SVG 1.1//EN" "http://www.w3.org/Graphics/SVG/1.1/DTD/svg11.dtd">
<svg version="1.1" id="Capa_1" xmlns="http://www.w3.org/2000/svg" xmlns:xlink="http://www.w3.org/1999/xlink" x="0px" y="0px"
	 width="30px" height="43px" viewBox="185 178.5 30 43" enable-background="new 185 178.5 30 43" xml:space="preserve">
<g>
	<g>
		<g>
			<path fill="#41C363" d="M200,179.419c-7.977,0-14.444,6.467-14.444,14.444c0,0.611,0.049,1.206,0.124,1.796
				c1.234,11.283,13.383,24.287,13.383,24.287c0.216,0.242,0.425,0.392,0.625,0.5l0.011,0.005l0.405,0.129l0.404-0.129l0.01-0.005
				c0.201-0.108,0.41-0.266,0.626-0.5c0,0,11.974-13.027,13.18-24.313c0.072-0.583,0.121-1.173,0.121-1.773
				C214.441,185.886,207.978,179.419,200,179.419z"/>
		</g>
	</g>
</g>
<g>
	<g>
		<g>
			<path fill="#FFFFFF" d="M200.002,204.312c-5.761,0-10.449-4.688-10.449-10.448c0-5.761,4.688-10.449,10.449-10.449
				c5.76,0,10.444,4.688,10.444,10.449C210.446,199.624,205.762,204.312,200.002,204.312z"/>
		</g>
	</g>
</g>
<g>
	<g>
		<path fill="#41C363" d="M206.257,189.646l-5.658-3.217c-0.369-0.211-0.828-0.211-1.196,0l-5.66,3.218
			c-0.577,0.33-0.779,1.068-0.449,1.646c0.293,0.513,0.908,0.733,1.45,0.539v5.824c-0.468,0.166-0.805,0.613-0.805,1.138v0.805
			c0,0.222,0.18,0.402,0.402,0.402h11.318c0.222,0,0.402-0.18,0.402-0.402v-0.805c0-0.525-0.336-0.972-0.806-1.138v-5.825
			c0.561,0.199,1.167-0.042,1.45-0.539C207.037,190.714,206.836,189.976,206.257,189.646z M205.256,199.195h-10.512v-0.402
			c0-0.222,0.181-0.403,0.402-0.403h9.709c0.222,0,0.401,0.181,0.401,0.403V199.195L205.256,199.195z M206.008,190.894
			c-0.108,0.19-0.354,0.261-0.55,0.149c-0.021-0.012,0.084,0.048-5.259-2.99c-0.123-0.07-0.274-0.07-0.397,0
			c-0.305,0.173-5.021,2.854-5.262,2.991c-0.191,0.109-0.437,0.043-0.548-0.15c-0.11-0.193-0.042-0.439,0.149-0.548l5.66-3.219
			c0.062-0.035,0.131-0.053,0.2-0.053s0.138,0.018,0.2,0.053l5.658,3.218C206.052,190.455,206.118,190.7,206.008,190.894z"/>
	</g>
</g>
<path fill="#FFFFFF" d="M200.403,197.586v-1.636h0.402c1.553,0,2.815-1.263,2.815-2.816v-0.804c0-0.222-0.18-0.402-0.401-0.402
	h-0.805c-1.023,0-1.921,0.548-2.414,1.367c-0.493-0.818-1.39-1.367-2.414-1.367h-0.804c-0.222,0-0.403,0.18-0.403,0.402v0.804
	c0,1.553,1.264,2.816,2.817,2.816h0.401v1.636H200.403z M200.403,194.744c0-1.109,0.901-2.012,2.011-2.012h0.401v0.402
	c0,1.109-0.901,2.011-2.011,2.011h-0.402V194.744z M199.196,195.146c-1.109,0-2.012-0.902-2.012-2.011v-0.402h0.402
	c1.109,0,2.011,0.903,2.011,2.012v0.402H199.196z"/>
</svg>
