<?xml version="1.0" encoding="utf-8"?>
<!-- Generator: Adobe Illustrator 16.0.0, SVG Export Plug-In . SVG Version: 6.00 Build 0)  -->
<!DOCTYPE svg PUBLIC "-//W3C//DTD SVG 1.1//EN" "http://www.w3.org/Graphics/SVG/1.1/DTD/svg11.dtd">
<svg version="1.1" id="Layer_1" xmlns="http://www.w3.org/2000/svg" xmlns:xlink="http://www.w3.org/1999/xlink" x="0px" y="0px"
	 width="17px" height="17px" viewBox="0 12.5 17 17" enable-background="new 0 12.5 17 17" xml:space="preserve">
<g>
	<path fill="#FFFFFF" d="M7.625,18.083c0,1.104-0.896,2-2,2h-3.25c-1.104,0-2-0.896-2-2v-3.25c0-1.104,0.896-2,2-2h3.25
		c1.104,0,2,0.896,2,2V18.083z"/>
	<path fill="#FFFFFF" d="M16.625,18.083c0,1.104-0.896,2-2,2h-3.25c-1.104,0-2-0.896-2-2v-3.25c0-1.104,0.896-2,2-2h3.25
		c1.104,0,2,0.896,2,2V18.083z"/>
	<path fill="#FFFFFF" d="M7.625,27.166c0,1.105-0.896,2-2,2h-3.25c-1.104,0-2-0.895-2-2v-3.25c0-1.104,0.896-2,2-2h3.25
		c1.104,0,2,0.896,2,2V27.166z"/>
	<path fill="#FFFFFF" d="M16.625,27.166c0,1.105-0.896,2-2,2h-3.25c-1.104,0-2-0.895-2-2v-3.25c0-1.104,0.896-2,2-2h3.25
		c1.104,0,2,0.896,2,2V27.166z"/>
</g>
</svg>
