<?xml version="1.0" encoding="utf-8"?>
<!-- Generator: Adobe Illustrator 16.0.3, SVG Export Plug-In . SVG Version: 6.00 Build 0)  -->
<!DOCTYPE svg PUBLIC "-//W3C//DTD SVG 1.1//EN" "http://www.w3.org/Graphics/SVG/1.1/DTD/svg11.dtd">
<svg version="1.1" id="Layer_1" xmlns="http://www.w3.org/2000/svg" xmlns:xlink="http://www.w3.org/1999/xlink" x="0px" y="0px"
	 width="60px" height="60px" viewBox="0 0 60 60" enable-background="new 0 0 60 60" xml:space="preserve">
<path d="M36.297,22.53h-2.283c-0.42,0-0.758,0.339-0.758,0.758c0,0.418,0.338,0.758,0.758,0.758h1.523v11.797H23.74V24.046h7.34
	c0.42,0,0.76-0.34,0.76-0.758c0-0.419-0.34-0.758-0.76-0.758h-8.099c-0.418,0-0.758,0.339-0.758,0.758v13.315
	c0,0.418,0.34,0.758,0.758,0.758h13.315c0.418,0,0.758-0.34,0.758-0.758V23.288C37.055,22.869,36.715,22.53,36.297,22.53z"/>
<path d="M54.77,24.962c0.42,0,0.76-0.34,0.76-0.758c0-0.419-0.34-0.759-0.76-0.759h-6.563V19.22h6.563c0.42,0,0.76-0.339,0.76-0.759
	c0-0.418-0.34-0.758-0.76-0.758h-6.563v-5.566c0-0.418-0.34-0.758-0.76-0.758h-5.564V4.813c0-0.418-0.34-0.758-0.76-0.758
	c-0.418,0-0.758,0.34-0.758,0.758v6.565h-4.227V4.813c0-0.418-0.338-0.758-0.758-0.758c-0.418,0-0.758,0.34-0.758,0.758v6.565
	h-4.226V4.813c0-0.418-0.339-0.758-0.758-0.758s-0.758,0.34-0.758,0.758v6.565h-4.225V4.813c0-0.418-0.34-0.758-0.759-0.758
	s-0.759,0.34-0.759,0.758v6.565h-4.224V4.813c0-0.418-0.34-0.758-0.759-0.758s-0.758,0.34-0.758,0.758v6.565h-5.566
	c-0.418,0-0.758,0.34-0.758,0.758v5.566H4.508c-0.419,0-0.759,0.34-0.759,0.758c0,0.419,0.34,0.759,0.759,0.759h6.564v4.225H4.508
	c-0.419,0-0.759,0.34-0.759,0.759c0,0.418,0.34,0.758,0.759,0.758h6.564v4.225H4.508c-0.419,0-0.759,0.339-0.759,0.758
	s0.34,0.758,0.759,0.758h6.564v4.224H4.508c-0.419,0-0.759,0.34-0.759,0.76c0,0.418,0.34,0.758,0.759,0.758h6.564v4.227H4.508
	c-0.419,0-0.759,0.338-0.759,0.758c0,0.418,0.34,0.758,0.759,0.758h6.564v5.566c0,0.418,0.34,0.758,0.758,0.758h5.566v6.564
	c0,0.42,0.339,0.76,0.758,0.76s0.759-0.34,0.759-0.76v-6.564h4.224v6.564c0,0.42,0.34,0.76,0.759,0.76s0.759-0.34,0.759-0.76v-6.564
	h4.225v6.564c0,0.42,0.34,0.76,0.758,0.76s0.758-0.34,0.758-0.76v-6.564h4.226v6.564c0,0.42,0.34,0.76,0.758,0.76
	c0.42,0,0.758-0.34,0.758-0.76v-6.564h4.227v6.564c0,0.42,0.34,0.76,0.758,0.76c0.42,0,0.76-0.34,0.76-0.76v-6.564h5.564
	c0.42,0,0.76-0.34,0.76-0.758v-5.566h6.563c0.42,0,0.76-0.34,0.76-0.758c0-0.42-0.34-0.758-0.76-0.758h-6.563v-4.227h6.563
	c0.42,0,0.76-0.34,0.76-0.758c0-0.42-0.34-0.76-0.76-0.76h-6.563v-4.224h6.563c0.42,0,0.76-0.339,0.76-0.758s-0.34-0.758-0.76-0.758
	h-6.563v-4.225H54.77z M46.689,29.187h-1.572c-0.418,0-0.758,0.339-0.758,0.758s0.34,0.758,0.758,0.758h1.572v4.224h-1.572
	c-0.418,0-0.758,0.34-0.758,0.76c0,0.418,0.34,0.758,0.758,0.758h1.572v4.227h-1.572c-0.418,0-0.758,0.338-0.758,0.758
	c0,0.418,0.34,0.758,0.758,0.758h1.572v4.809h-4.807v-1.572c0-0.418-0.34-0.758-0.76-0.758c-0.418,0-0.758,0.34-0.758,0.758v1.572
	h-4.227v-1.572c0-0.418-0.338-0.758-0.758-0.758c-0.418,0-0.758,0.34-0.758,0.758v1.572h-4.226v-1.572
	c0-0.418-0.339-0.758-0.758-0.758s-0.758,0.34-0.758,0.758v1.572h-4.225v-1.572c0-0.418-0.34-0.758-0.759-0.758
	s-0.759,0.34-0.759,0.758v1.572h-4.224v-1.572c0-0.418-0.34-0.758-0.759-0.758s-0.758,0.34-0.758,0.758v1.572h-4.808v-4.809h1.571
	c0.419,0,0.758-0.34,0.758-0.758c0-0.42-0.339-0.758-0.758-0.758h-1.571v-4.227h1.571c0.419,0,0.758-0.34,0.758-0.758
	c0-0.42-0.339-0.76-0.758-0.76h-1.571v-4.224h1.571c0.419,0,0.758-0.339,0.758-0.758s-0.339-0.758-0.758-0.758h-1.571v-4.225h1.571
	c0.419,0,0.758-0.34,0.758-0.758c0-0.419-0.339-0.759-0.758-0.759h-1.571V19.22h1.571c0.419,0,0.758-0.339,0.758-0.759
	c0-0.418-0.339-0.758-0.758-0.758h-1.571v-4.807h4.808v1.571c0,0.419,0.339,0.759,0.758,0.759s0.759-0.339,0.759-0.759v-1.571h4.224
	v1.571c0,0.419,0.34,0.759,0.759,0.759s0.759-0.339,0.759-0.759v-1.571h4.225v1.571c0,0.419,0.34,0.759,0.758,0.759
	s0.758-0.339,0.758-0.759v-1.571h4.226v1.571c0,0.419,0.34,0.759,0.758,0.759c0.42,0,0.758-0.339,0.758-0.759v-1.571h4.227v1.571
	c0,0.419,0.34,0.759,0.758,0.759c0.42,0,0.76-0.339,0.76-0.759v-1.571h4.807v4.807h-1.572c-0.418,0-0.758,0.34-0.758,0.758
	c0,0.419,0.34,0.759,0.758,0.759h1.572v4.225h-1.572c-0.418,0-0.758,0.34-0.758,0.759c0,0.418,0.34,0.758,0.758,0.758h1.572V29.187z
	"/>
</svg>
