<svg id="Capa_1" data-name="Capa 1" xmlns="http://www.w3.org/2000/svg" viewBox="0 0 304.6 449.1" width="29px" height="42px" ><defs><style>.cls-1{fill:#fff;}</style></defs><title>hourglass</title><path class="cls-1" d="M107,378.49H233.15a9,9,0,0,0,0-18H116V292.24A68.33,68.33,0,0,1,184.25,224H212a68.32,68.32,0,0,1,68.25,68.25V304.1a9,9,0,0,0,18,0V292.24A86.34,86.34,0,0,0,250.36,215a86.35,86.35,0,0,0,47.9-77.25s0-24.3,0-24.39v-45a34.75,34.75,0,0,0-9-68.32H107a34.75,34.75,0,0,0-9,68.32v69.43A86.37,86.37,0,0,0,145.9,215,86.33,86.33,0,0,0,98,292.24v69.43A34.75,34.75,0,0,0,107,430H233.15a9,9,0,0,0,0-18H107a16.75,16.75,0,0,1,0-33.5ZM280.26,105.38c-40.89,3.74-123.28,3.74-164.26,0V69.5H280.26Zm-190-70.63A16.76,16.76,0,0,1,107,18H289.26a16.75,16.75,0,0,1,0,33.5H107A16.77,16.77,0,0,1,90.25,34.75Zm25.75,103v-14.3c42.37,3.69,122,3.69,164.26,0v14.3A68.32,68.32,0,0,1,212,206H184.25A68.32,68.32,0,0,1,116,137.75Zm91.13,111.46a9,9,0,0,1-18,0v-2a9,9,0,0,1,18,0ZM200,178.5a9,9,0,0,1,9-9c12.24,0,23.86-7.13,31.08-19.08a9,9,0,0,1,15.41,9.31C245,177.12,227.57,187.5,209,187.5A9,9,0,0,1,200,178.5Zm7.16,114.78v2a9,9,0,0,1-18,0v-2a9,9,0,0,1,18,0ZM310.62,404.86a9,9,0,0,1-9,9h-2a9,9,0,0,1,0-18h2A9,9,0,0,1,310.62,404.86Zm31.44-32.51a9,9,0,0,1-9,9h-2a9,9,0,0,1,0-18h2A9,9,0,0,1,342.06,372.35Zm15.73-44.24H274.91a19.07,19.07,0,0,0-19.06,19.05V430a19.08,19.08,0,0,0,19.06,19.06h82.88A19.08,19.08,0,0,0,376.85,430V347.16A19.07,19.07,0,0,0,357.79,328.11ZM358.85,430a1.08,1.08,0,0,1-1.06,1.06H274.91a1.09,1.09,0,0,1-1.06-1.06V347.16a1.09,1.09,0,0,1,1.06-1.06h82.88a1.09,1.09,0,0,1,1.06,1.06Zm-16.79-25.18a9,9,0,0,1-9,9h-2a9,9,0,0,1,0-18h2A9,9,0,0,1,342.06,404.86ZM245.93,269.49v2a9,9,0,0,1-18,0v-2a9,9,0,0,1,18,0Zm64.69,102.86a9,9,0,0,1-9,9h-2a9,9,0,0,1,0-18h2A9,9,0,0,1,310.62,372.35ZM159.33,260.49a9,9,0,0,1,9,9v2a9,9,0,0,1-18,0v-2A9,9,0,0,1,159.33,260.49Z" transform="translate(-72.25)"/></svg>