<?xml version="1.0" encoding="utf-8"?>
<!-- Generator: Adobe Illustrator 16.0.0, SVG Export Plug-In . SVG Version: 6.00 Build 0)  -->
<!DOCTYPE svg PUBLIC "-//W3C//DTD SVG 1.1//EN" "http://www.w3.org/Graphics/SVG/1.1/DTD/svg11.dtd">
<svg version="1.1" id="Layer_1" xmlns="http://www.w3.org/2000/svg" xmlns:xlink="http://www.w3.org/1999/xlink" x="0px" y="0px"
	 width="20px" height="20px" viewBox="0 0 20 20" enable-background="new 0 0 20 20" xml:space="preserve">
<g>
	<g>
		<path fill="#EB2525" d="M15.512,2.777h-2.958C12.406,1.498,11.318,0.5,10,0.5S7.593,1.498,7.446,2.777H4.488
			c-1.196,0-2.17,0.974-2.17,2.171v0.111c0,0.914,0.569,1.697,1.371,2.016v10.254c0,1.197,0.974,2.171,2.17,2.171h8.28
			c1.197,0,2.171-0.974,2.171-2.171V7.075c0.802-0.319,1.371-1.102,1.371-2.016V4.948C17.682,3.75,16.708,2.777,15.512,2.777z
			 M10,1.53c0.749,0,1.376,0.537,1.514,1.247H8.486C8.624,2.067,9.251,1.53,10,1.53z M15.28,17.329c0,0.63-0.512,1.142-1.141,1.142
			h-8.28c-0.628,0-1.141-0.512-1.141-1.142V7.23H15.28V17.329z M16.652,5.059c0,0.629-0.512,1.141-1.141,1.141H4.488
			c-0.629,0-1.142-0.512-1.142-1.141V4.948c0-0.629,0.513-1.142,1.142-1.142h11.023c0.629,0,1.141,0.513,1.141,1.142V5.059
			L16.652,5.059z"/>
		<path fill="#EB2525" d="M7.24,17.154c0.284,0,0.515-0.231,0.515-0.515v-5.795c0-0.284-0.23-0.515-0.515-0.515
			s-0.515,0.231-0.515,0.515v5.795C6.726,16.924,6.956,17.154,7.24,17.154z"/>
		<path fill="#EB2525" d="M10,17.154c0.284,0,0.515-0.231,0.515-0.515v-5.795c0-0.284-0.23-0.515-0.515-0.515
			s-0.515,0.231-0.515,0.515v5.795C9.485,16.924,9.716,17.154,10,17.154z"/>
		<path fill="#EB2525" d="M12.759,17.154c0.285,0,0.516-0.231,0.516-0.515v-5.795c0-0.284-0.23-0.515-0.516-0.515
			c-0.284,0-0.515,0.231-0.515,0.515v5.795C12.244,16.924,12.475,17.154,12.759,17.154z"/>
	</g>
</g>
</svg>
