<svg id="Layer_1" data-name="Layer 1" xmlns="http://www.w3.org/2000/svg" width="24" height="24" viewBox="0 0 24 24"><defs><style>.cls-1{fill:#2e333a;}</style></defs><title>icon-fullscreen</title><path class="cls-1" d="M30.334,9.334h-18a3.00376,3.00376,0,0,0-3,3v18a3.00376,3.00376,0,0,0,3,3h18a3.00376,3.00376,0,0,0,3-3v-18A3.00376,3.00376,0,0,0,30.334,9.334Zm1,21a1.00031,1.00031,0,0,1-1,1h-12V25.83386A1.50056,1.50056,0,0,0,16.83414,24.334H11.334v-12a1.00031,1.00031,0,0,1,1-1h18a1.00031,1.00031,0,0,1,1,1Z" transform="translate(-9.334 -9.334)"/><path class="cls-1" d="M28.334,13.334h-6a.99968.99968,0,0,0-.70693,1.707l2.293,2.29307-4.293,4.293A.99979.99979,0,1,0,21.041,23.041l4.293-4.29309L27.62705,21.041a.99927.99927,0,0,0,.70693.29305.98247.98247,0,0,0,.38288-.0761.99825.99825,0,0,0,.6171-.92388v-6A.99923.99923,0,0,0,28.334,13.334Z" transform="translate(-9.334 -9.334)"/></svg>