<svg id="Capa_1" data-name="Capa 1" xmlns="http://www.w3.org/2000/svg" width="36" height="33.51611" viewBox="0 0 36 33.51611"><defs><style>.cls-1{fill:#3082f1;}</style></defs><title>icon-generator</title><path class="cls-1" d="M31.127,12.877H26.8232a3.85362,3.85362,0,0,0-1.7373.4126V8.75a5.07641,5.07641,0,0,0-5.0703-5.0713h-.0088V1.3105A1.06824,1.06824,0,0,0,18.9375.2417H13.6416a1.06878,1.06878,0,0,0-1.0688,1.0688V3.6787H10.5747V1.3105a1.0686,1.0686,0,1,0-2.1372,0V3.6787H6.21631V1.3105a1.06836,1.06836,0,1,0-2.13672,0V3.6787H4.07178A5.07736,5.07736,0,0,0-1,8.75V28.68652a5.077,5.077,0,0,0,5.07178,5.07129H31.127A3.87808,3.87808,0,0,0,35,29.88379V16.751A3.8777,3.8777,0,0,0,31.127,12.877ZM15.5469,17.6572a1.0688,1.0688,0,0,1,.7558,1.8242L9.31006,26.47363a1.06843,1.06843,0,1,1-1.51123-1.51074l5.168-5.169H8.53906a1.06857,1.06857,0,0,1-.75537-1.8242l7.00781-7.0068a1.06858,1.06858,0,1,1,1.5112,1.5112l-5.1836,5.1831ZM17.8691,3.6787H14.7095V2.3789h3.1596ZM32.8623,29.88379a1.73813,1.73813,0,0,1-1.7353,1.7373H25.0859V19.7881h2.8194v5.916a1.06885,1.06885,0,1,0,2.1377,0v-5.916h2.8193Zm0-12.249H25.0859V16.751a1.7391,1.7391,0,0,1,1.7373-1.7368H31.127a1.738,1.738,0,0,1,1.7353,1.7368Z" transform="translate(1 -0.2417)"/></svg>