<svg id="Capa_1" data-name="Capa 1" xmlns="http://www.w3.org/2000/svg" width="50.34132" height="50" viewBox="0 0 50.34132 50"><defs><style>.cls-1{fill:#ed734c;}</style></defs><title>icon-fuel</title><path class="cls-1" d="M962.42578,1896.6611h-34.9473a2.98705,2.98705,0,0,0,0,5.9741l6.332.0074a1.6726,1.6726,0,1,1,0,3.3452h-5.3012v12.6865h-1.0308a2.98705,2.98705,0,0,0,0,5.9741l6.332.0088a1.67285,1.67285,0,1,1,0,3.3457h-5.3012v12.6846h-1.0308a2.9868,2.9868,0,1,0,0,5.9736H953.791a14.51716,14.51716,0,0,1-5.35152-11.2597c0-3.3467,2.081-7.7813,6.3632-13.5567a93.214,93.214,0,0,1,5.99032-7.2519l.60248-.6455v-11.3121h1.0303a2.98705,2.98705,0,1,0,0-5.9741Z" transform="translate(-924.49168 -1896.6611)"/><path class="cls-1" d="M969.44818,1924.2812c-2.61618-3.5283-5.2695-6.3828-5.2959-6.4111a.7148.7148,0,0,0-1.0459,0c-.0263.0283-2.6796,2.8828-5.2949,6.4111-3.5732,4.8194-5.3838,8.5596-5.3838,11.1192a11.20266,11.20266,0,0,0,22.40532,0C974.832,1932.8408,973.02048,1929.1006,969.44818,1924.2812Zm-4.70018,18.6963a7.82114,7.82114,0,0,1-9.61712-7.6093,8.10148,8.10148,0,0,1,1.0546-3.4258.40483.40483,0,0,1,.7647.2275,3.95464,3.95464,0,0,0-.0303.4727,9.75977,9.75977,0,0,0,7.8145,9.5439.4049.4049,0,0,1,.01362.791Z" transform="translate(-924.49168 -1896.6611)"/></svg>