<?xml version="1.0" encoding="utf-8"?>
<!-- Generator: Adobe Illustrator 16.0.0, SVG Export Plug-In . SVG Version: 6.00 Build 0)  -->
<!DOCTYPE svg PUBLIC "-//W3C//DTD SVG 1.1//EN" "http://www.w3.org/Graphics/SVG/1.1/DTD/svg11.dtd">
<svg version="1.1" id="Isolation_Mode" xmlns="http://www.w3.org/2000/svg" xmlns:xlink="http://www.w3.org/1999/xlink" x="0px"
	 y="0px" width="24px" height="24px" viewBox="0 0 24 24" enable-background="new 0 0 24 24" xml:space="preserve">
<g>
	<path d="M17.705,7.94c-0.493,0-0.956,0.004-1.42-0.006c-0.055-0.001-0.115-0.068-0.16-0.117c-0.995-1.093-2.211-1.781-3.679-2.018
		C8.95,5.235,5.701,7.63,5.219,11.133c-0.416,3.023,1.34,5.919,4.25,6.823c2.455,0.763,4.658,0.228,6.498-1.616
		c0.096-0.094,0.182-0.139,0.313-0.136c0.422,0.009,0.844,0.005,1.265,0.007c0.011,0,0.021,0.01,0.031,0.016
		c-1.142,1.914-4.06,3.682-7.174,3.191c-3.678-0.576-6.295-3.457-6.453-7.148c-0.137-3.22,1.896-6.532,5.621-7.525
		C13.003,3.83,16.279,5.6,17.705,7.94z"/>
	<path fill="#000" d="M9.52,12.886c0-0.547,0-1.067,0-1.614c0.082,0,0.156,0,0.229,0c2.226,0,4.448,0,6.673,0
		c0.269,0,0.284-0.017,0.284-0.28c0.001-0.444,0-0.89,0-1.38c1.132,0.842,2.232,1.658,3.352,2.49
		c-1.115,0.83-2.217,1.646-3.352,2.49c0-0.197,0-0.354,0-0.51c0-0.318-0.007-0.639,0.003-0.957c0.006-0.186-0.071-0.258-0.25-0.24
		c-0.03,0.004-0.063,0.001-0.095,0.001c-2.199,0-4.399,0-6.597,0C9.692,12.886,9.617,12.886,9.52,12.886z"/>
</g>
</svg>
