<svg id="Capa_1" data-name="Capa 1" xmlns="http://www.w3.org/2000/svg" width="42.4122" height="50" viewBox="0 0 42.4122 50"><defs><style>.cls-1{fill:#d6b33b;}</style></defs><title>icon-energy</title><path class="cls-1" d="M46.0323,25.794A21.2061,21.2061,0,1,1,9.8389,10.7935a3.11654,3.11654,0,1,1,4.4048,4.4101,14.97,14.97,0,1,0,21.1704.0039,3.11757,3.11757,0,1,1,4.41011-4.4077A21.07861,21.07861,0,0,1,46.0323,25.794Z" transform="translate(-3.6201 3.0029)"/><path class="cls-1" d="M19.1914,29.7237l9.5411-10.5899a.69747.69747,0,0,0-.4415-1.1709h-.7607a.694.694,0,0,1-.4873-1.1118l5.0596-7.0478a.69421.69421,0,0,0-.4883-1.1119h-2.543a.69335.69335,0,0,1-.498-1.0976l6.4648-9.49861a.6939.6939,0,0,0-.498-1.09809H24.3194a.61463.61463,0,0,0-.55619.3804L18.7666,8.5469a.68615.68615,0,0,0,.5552.9922H21.627a.68586.68586,0,0,1,.5556.9912l-3.416,7.6392a.68632.68632,0,0,0,.5552.9921h2.17141a.68482.68482,0,0,1,.55909.9849l-3.8574,8.7949C17.88721,29.6367,18.6978,30.2725,19.1914,29.7237Z" transform="translate(-3.6201 3.0029)"/></svg>