<?xml version="1.0" encoding="utf-8"?>
<!-- Generator: Adobe Illustrator 16.0.0, SVG Export Plug-In . SVG Version: 6.00 Build 0)  -->
<!DOCTYPE svg PUBLIC "-//W3C//DTD SVG 1.1//EN" "http://www.w3.org/Graphics/SVG/1.1/DTD/svg11.dtd">
<svg version="1.1" id="Isolation_Mode" xmlns="http://www.w3.org/2000/svg" xmlns:xlink="http://www.w3.org/1999/xlink" x="0px"
	 y="0px" width="24px" height="24px" viewBox="0 0 24 24" enable-background="new 0 0 24 24" xml:space="preserve">
<path fill="none" d="M16.231,16.697c-0.075-0.239-0.148-0.479-0.219-0.719c-0.016-0.055-0.042-0.075-0.098-0.078
	c-0.272-0.021-0.54-0.042-0.829-0.064c-0.104,0.198-0.223,0.422-0.339,0.641c-0.22,0.416-0.596,0.529-1.002,0.312
	c-0.223-0.116-0.439-0.234-0.658-0.35c-0.415-0.22-0.528-0.579-0.31-0.995c0.117-0.223,0.241-0.447,0.35-0.65
	c-0.181-0.229-0.35-0.441-0.518-0.657c-0.032-0.045-0.062-0.048-0.114-0.034c-0.239,0.076-0.479,0.148-0.717,0.221
	c-0.35,0.105-0.714-0.076-0.828-0.423c-0.098-0.296-0.188-0.591-0.271-0.891c-0.094-0.346,0.097-0.691,0.437-0.8
	c0.243-0.079,0.485-0.15,0.729-0.223c0.055-0.016,0.08-0.038,0.082-0.098c0.017-0.269,0.04-0.539,0.062-0.832
	c-0.213-0.112-0.451-0.233-0.688-0.36c-0.276-0.147-0.417-0.413-0.366-0.704c0.01-0.074,0.038-0.149,0.07-0.215
	c0.132-0.254,0.264-0.506,0.402-0.756c0.198-0.358,0.583-0.474,0.945-0.283c0.233,0.12,0.46,0.246,0.697,0.374
	c0.066-0.063,0.126-0.128,0.196-0.186c0.142-0.115,0.286-0.228,0.435-0.338c0.045-0.033,0.059-0.061,0.041-0.121
	C13.646,8.231,13.57,7.99,13.502,7.75c-0.058-0.192-0.025-0.381,0.067-0.535c-0.524-0.241-1.103-0.384-1.717-0.384
	c-2.282,0-4.139,1.856-4.139,4.139v1.729c0,1.188-0.324,2.354-0.935,3.371l-0.87,1.453h11.888l-0.308-0.512
	c-0.147,0.045-0.295,0.093-0.443,0.135C16.692,17.242,16.34,17.048,16.231,16.697z"/>
<path fill="none" d="M11.853,19.592c0.57,0,1.035-0.465,1.035-1.035c0-0.119-0.028-0.234-0.067-0.345h-1.935
	c-0.04,0.11-0.067,0.226-0.067,0.345C10.818,19.127,11.282,19.592,11.853,19.592z"/>
<path fill="none" d="M15.322,7.627c-0.037-0.124-0.075-0.248-0.113-0.372c-0.049-0.156-0.16-0.218-0.313-0.173
	c-0.051,0.015-0.101,0.031-0.15,0.046C14.949,7.282,15.146,7.443,15.322,7.627z"/>
<path fill="none" d="M18.054,11.251c0.331,1.084-0.222,2.227-1.23,2.671c0.134,0.629,0.359,1.236,0.693,1.791l0.386,0.644
	c0.034-0.057,0.046-0.125,0.021-0.21c-0.088-0.293-0.178-0.585-0.267-0.877c-0.049-0.161-0.022-0.243,0.115-0.327
	c0.298-0.18,0.558-0.396,0.793-0.652c0.11-0.121,0.184-0.132,0.331-0.056c0.267,0.142,0.534,0.285,0.8,0.425
	c0.168,0.089,0.282,0.057,0.371-0.112c0.127-0.23,0.252-0.466,0.373-0.701c0.09-0.169,0.058-0.277-0.112-0.367
	c-0.271-0.146-0.541-0.289-0.811-0.435c-0.132-0.07-0.168-0.14-0.134-0.28c0.081-0.347,0.115-0.697,0.103-1.053
	c-0.005-0.153,0.047-0.219,0.192-0.264c0.296-0.09,0.588-0.18,0.878-0.269c0.169-0.051,0.227-0.16,0.179-0.323
	c-0.077-0.262-0.156-0.521-0.238-0.78c-0.051-0.168-0.16-0.225-0.326-0.175c-0.294,0.088-0.586,0.178-0.881,0.269
	c-0.147,0.045-0.233,0.017-0.313-0.117c-0.185-0.298-0.402-0.563-0.66-0.8c-0.115-0.104-0.127-0.183-0.05-0.325
	c0.141-0.267,0.284-0.533,0.426-0.799c0.092-0.172,0.061-0.282-0.109-0.374c-0.235-0.126-0.473-0.252-0.709-0.376
	c-0.162-0.085-0.276-0.048-0.363,0.114c-0.141,0.264-0.28,0.527-0.421,0.792c-0.088,0.162-0.15,0.192-0.332,0.148
	c-0.284-0.069-0.573-0.096-0.864-0.092c0.28,0.429,0.482,0.909,0.615,1.417C17.22,9.953,17.82,10.492,18.054,11.251z"/>
<path fill="none" d="M16.158,14.107c-1.041,0.11-2.037-0.519-2.358-1.557c-0.363-1.17,0.298-2.417,1.474-2.779
	c0.164-0.05,0.328-0.076,0.492-0.088c-0.314-0.954-0.957-1.75-1.805-2.256c-0.041,0.057-0.059,0.126-0.032,0.213
	c0.089,0.295,0.182,0.59,0.271,0.889c0.044,0.15,0.018,0.236-0.115,0.318c-0.301,0.183-0.566,0.404-0.803,0.66
	c-0.104,0.117-0.182,0.126-0.324,0.053c-0.266-0.143-0.533-0.286-0.798-0.428c-0.17-0.089-0.285-0.057-0.374,0.109
	c-0.128,0.236-0.252,0.472-0.377,0.709c-0.086,0.167-0.052,0.275,0.114,0.362c0.27,0.144,0.54,0.288,0.81,0.432
	c0.139,0.073,0.172,0.146,0.136,0.299c-0.084,0.336-0.119,0.676-0.101,1.021c0.009,0.162-0.045,0.234-0.203,0.283
	c-0.297,0.091-0.6,0.182-0.897,0.273c-0.132,0.041-0.198,0.151-0.16,0.284c0.08,0.282,0.167,0.566,0.26,0.848
	c0.042,0.131,0.159,0.187,0.289,0.146c0.155-0.047,0.306-0.093,0.46-0.138c0.147-0.046,0.294-0.092,0.44-0.135
	c0.158-0.048,0.24-0.021,0.326,0.12c0.177,0.293,0.394,0.552,0.644,0.781c0.127,0.117,0.137,0.189,0.06,0.339
	c-0.146,0.271-0.289,0.541-0.432,0.812c-0.082,0.154-0.047,0.269,0.105,0.351c0.236,0.131,0.476,0.258,0.718,0.386
	c0.168,0.086,0.278,0.051,0.369-0.12c0.145-0.27,0.285-0.541,0.431-0.811c0.07-0.129,0.145-0.163,0.285-0.131
	c0.34,0.08,0.687,0.118,1.038,0.104c0.157-0.01,0.228,0.044,0.273,0.198c0.092,0.291,0.179,0.582,0.271,0.877
	c0.048,0.16,0.157,0.225,0.315,0.177c0.099-0.028,0.196-0.06,0.295-0.09l-0.331-0.551C16.559,15.461,16.31,14.796,16.158,14.107z"/>
<path fill="none" d="M11.853,4.416c-0.381,0-0.69,0.309-0.69,0.69v1.105c0.228-0.033,0.454-0.07,0.69-0.07s0.462,0.037,0.689,0.07
	V5.106C12.542,4.725,12.233,4.416,11.853,4.416z"/>
<path fill="none" d="M16.681,12.698c0,0.263,0.019,0.524,0.053,0.783c0.758-0.386,1.152-1.261,0.896-2.102
	c-0.158-0.53-0.546-0.922-1.02-1.119c0.034,0.233,0.071,0.466,0.071,0.709V12.698z"/>
<path fill="none" d="M15.99,10.969c0-0.29-0.031-0.572-0.088-0.845c-0.164,0.002-0.329,0.019-0.494,0.069
	c-0.945,0.289-1.481,1.287-1.187,2.229c0.252,0.815,1.032,1.321,1.848,1.251c-0.049-0.322-0.079-0.647-0.079-0.976V10.969z"/>
<path d="M17.489,17.011l0.308,0.512H5.909l0.87-1.453c0.611-1.017,0.935-2.183,0.935-3.371v-1.729c0-2.283,1.856-4.139,4.139-4.139
	c0.614,0,1.192,0.143,1.717,0.384c0.079-0.133,0.202-0.242,0.366-0.295c0.112-0.036,0.226-0.068,0.339-0.103
	c-0.326-0.191-0.675-0.34-1.043-0.451v0.119c0,0.19-0.154,0.345-0.345,0.345s-0.345-0.155-0.345-0.345V6.211
	c-0.227-0.033-0.453-0.07-0.689-0.07s-0.463,0.037-0.69,0.07v0.274c0,0.19-0.154,0.345-0.345,0.345c-0.19,0-0.345-0.155-0.345-0.345
	V6.366C8.485,6.965,7.023,8.79,7.023,10.969v1.729c0,1.063-0.289,2.106-0.835,3.016l-1.186,1.976
	c-0.064,0.106-0.065,0.239-0.004,0.347c0.062,0.109,0.176,0.176,0.3,0.176h4.875c0.037-0.182,0.093-0.358,0.187-0.519
	c0.097-0.164,0.306-0.219,0.472-0.126c0.165,0.097,0.22,0.311,0.124,0.474c-0.031,0.053-0.05,0.112-0.071,0.171h1.935
	c-0.021-0.059-0.041-0.118-0.071-0.171c-0.096-0.163-0.042-0.377,0.123-0.474c0.165-0.093,0.376-0.038,0.473,0.126
	c0.094,0.16,0.15,0.337,0.188,0.519h4.872c0.124,0,0.239-0.066,0.301-0.176c0.061-0.107,0.059-0.24-0.006-0.347l-0.56-0.934
	c-0.062,0.052-0.133,0.095-0.216,0.122C17.78,16.925,17.635,16.966,17.489,17.011z"/>
<path d="M11.162,5.106c0-0.381,0.31-0.69,0.69-0.69c0.38,0,0.689,0.309,0.689,0.69v1.105c0.237,0.034,0.465,0.087,0.689,0.155v-1.26
	c0-0.761-0.618-1.379-1.379-1.379c-0.761,0-1.38,0.619-1.38,1.379v1.26c0.225-0.067,0.453-0.121,0.69-0.155V5.106z"/>
<path d="M12.542,6.485c0,0.19,0.154,0.345,0.345,0.345s0.345-0.155,0.345-0.345V6.366c-0.225-0.068-0.452-0.121-0.689-0.155V6.485z"
	/>
<path d="M10.817,6.831c0.191,0,0.345-0.155,0.345-0.345V6.211c-0.237,0.034-0.465,0.088-0.69,0.155v0.119
	C10.472,6.675,10.627,6.831,10.817,6.831z"/>
<path d="M12.888,18.557c0,0.57-0.464,1.035-1.035,1.035c-0.571,0-1.035-0.465-1.035-1.035c0-0.119,0.028-0.234,0.067-0.345h-0.712
	c-0.023,0.113-0.046,0.228-0.046,0.345c0,0.952,0.773,1.724,1.725,1.724s1.724-0.771,1.727-1.724c0-0.117-0.022-0.231-0.046-0.345
	H12.82C12.859,18.322,12.888,18.438,12.888,18.557z"/>
<path d="M10.957,18.041c0.096-0.163,0.041-0.377-0.124-0.474c-0.166-0.093-0.375-0.038-0.472,0.126
	c-0.094,0.16-0.15,0.337-0.187,0.519h0.712C10.907,18.153,10.926,18.094,10.957,18.041z"/>
<path d="M12.872,17.567c-0.165,0.097-0.219,0.311-0.123,0.474c0.03,0.053,0.05,0.112,0.071,0.171h0.713
	c-0.038-0.182-0.095-0.358-0.188-0.519C13.248,17.529,13.037,17.475,12.872,17.567z"/>
<path stroke="#000000" stroke-width="0.1" stroke-miterlimit="10" d="M16.645,16.533c-0.093-0.295-0.18-0.586-0.271-0.877
	c-0.046-0.154-0.116-0.208-0.273-0.198c-0.352,0.014-0.698-0.024-1.038-0.104c-0.141-0.032-0.215,0.002-0.285,0.131
	c-0.146,0.27-0.286,0.541-0.431,0.811c-0.091,0.171-0.201,0.206-0.369,0.12c-0.242-0.128-0.481-0.255-0.718-0.386
	c-0.152-0.082-0.188-0.196-0.105-0.351c0.143-0.271,0.286-0.54,0.432-0.812c0.077-0.149,0.067-0.222-0.06-0.339
	c-0.25-0.229-0.467-0.488-0.644-0.781c-0.086-0.141-0.168-0.168-0.326-0.12c-0.146,0.043-0.293,0.089-0.44,0.135
	c-0.154,0.045-0.305,0.091-0.46,0.138c-0.13,0.04-0.247-0.016-0.289-0.146c-0.092-0.281-0.18-0.565-0.26-0.848
	c-0.038-0.133,0.028-0.243,0.16-0.284c0.297-0.092,0.6-0.182,0.897-0.273c0.157-0.049,0.212-0.121,0.203-0.283
	c-0.018-0.345,0.017-0.685,0.101-1.021c0.036-0.153,0.002-0.226-0.136-0.299c-0.27-0.145-0.54-0.289-0.81-0.432
	c-0.166-0.087-0.2-0.195-0.114-0.362c0.125-0.237,0.249-0.473,0.377-0.709c0.089-0.166,0.204-0.198,0.374-0.109
	c0.266,0.142,0.533,0.286,0.798,0.428c0.143,0.073,0.221,0.063,0.324-0.053c0.236-0.255,0.502-0.477,0.803-0.66
	c0.133-0.082,0.159-0.167,0.115-0.318c-0.09-0.298-0.183-0.594-0.271-0.889c-0.026-0.087-0.009-0.157,0.032-0.213
	c-0.128-0.076-0.256-0.15-0.392-0.212c-0.093,0.154-0.125,0.343-0.067,0.535c0.068,0.24,0.145,0.481,0.221,0.718
	c0.018,0.06,0.004,0.087-0.041,0.121c-0.148,0.11-0.293,0.223-0.435,0.338c-0.07,0.058-0.13,0.122-0.196,0.186
	c-0.237-0.128-0.464-0.254-0.697-0.374c-0.363-0.191-0.747-0.076-0.945,0.283c-0.138,0.25-0.27,0.502-0.402,0.756
	c-0.032,0.066-0.061,0.142-0.07,0.215c-0.051,0.292,0.089,0.557,0.366,0.704c0.237,0.127,0.475,0.249,0.688,0.36
	c-0.022,0.293-0.045,0.563-0.062,0.832c-0.002,0.06-0.027,0.082-0.082,0.098c-0.244,0.073-0.486,0.145-0.729,0.223
	c-0.339,0.109-0.531,0.455-0.437,0.8c0.083,0.3,0.172,0.595,0.271,0.891c0.114,0.347,0.478,0.528,0.828,0.423
	c0.238-0.072,0.479-0.145,0.717-0.221c0.052-0.014,0.082-0.011,0.114,0.034c0.168,0.216,0.337,0.428,0.518,0.657
	c-0.108,0.203-0.232,0.428-0.35,0.65c-0.219,0.416-0.105,0.775,0.31,0.995c0.219,0.115,0.436,0.233,0.658,0.35
	c0.406,0.218,0.782,0.104,1.002-0.312c0.116-0.219,0.234-0.442,0.339-0.641c0.289,0.022,0.557,0.044,0.829,0.064
	c0.056,0.003,0.082,0.023,0.098,0.078c0.07,0.24,0.144,0.479,0.219,0.719c0.108,0.351,0.461,0.545,0.814,0.448
	c0.148-0.042,0.296-0.09,0.443-0.135l-0.234-0.391c-0.099,0.03-0.196,0.062-0.295,0.09C16.802,16.758,16.692,16.693,16.645,16.533z"
	/>
<path stroke="#000000" stroke-width="0.1" stroke-miterlimit="10" d="M20.004,11.813c0.228-0.066,0.458-0.14,0.687-0.21
	c0.397-0.123,0.586-0.475,0.463-0.873c-0.075-0.261-0.156-0.52-0.236-0.779c-0.123-0.4-0.47-0.587-0.875-0.467
	c-0.228,0.068-0.457,0.138-0.687,0.21c-0.049,0.016-0.079,0.012-0.115-0.032C19.072,9.446,18.903,9.232,18.719,9
	c0.116-0.209,0.244-0.441,0.367-0.674c0.197-0.371,0.083-0.748-0.285-0.947c-0.24-0.129-0.479-0.258-0.72-0.382
	c-0.075-0.038-0.16-0.072-0.244-0.085c-0.289-0.046-0.56,0.091-0.704,0.356c-0.128,0.238-0.25,0.479-0.372,0.712
	c-0.152-0.022-0.286-0.046-0.418-0.059c-0.136-0.013-0.272-0.017-0.406-0.019C15.878,7.9,15.855,7.874,15.84,7.82
	c-0.071-0.241-0.145-0.48-0.22-0.72c-0.11-0.351-0.462-0.544-0.816-0.445c-0.178,0.05-0.354,0.106-0.529,0.161
	c0.163,0.096,0.32,0.198,0.472,0.312c0.05-0.015,0.1-0.032,0.15-0.046c0.152-0.044,0.264,0.018,0.313,0.173
	c0.038,0.124,0.076,0.248,0.113,0.372c0.212,0.22,0.403,0.458,0.57,0.714c0.291-0.004,0.58,0.023,0.864,0.092
	c0.182,0.044,0.244,0.013,0.332-0.148c0.141-0.266,0.28-0.529,0.421-0.792c0.087-0.163,0.201-0.199,0.363-0.114
	c0.236,0.124,0.474,0.25,0.709,0.376c0.17,0.092,0.201,0.202,0.109,0.374c-0.142,0.266-0.285,0.533-0.426,0.799
	c-0.077,0.143-0.065,0.221,0.05,0.325c0.258,0.236,0.476,0.502,0.66,0.8c0.08,0.134,0.166,0.162,0.313,0.117
	c0.295-0.09,0.587-0.18,0.881-0.269c0.166-0.05,0.275,0.007,0.326,0.175c0.082,0.259,0.161,0.518,0.238,0.78
	c0.048,0.163-0.01,0.272-0.179,0.323c-0.29,0.089-0.582,0.179-0.878,0.269c-0.146,0.045-0.197,0.111-0.192,0.264
	c0.013,0.356-0.021,0.706-0.103,1.053c-0.034,0.141,0.002,0.21,0.134,0.28c0.27,0.146,0.539,0.288,0.811,0.435
	c0.17,0.09,0.202,0.198,0.112,0.367c-0.121,0.235-0.246,0.471-0.373,0.701c-0.089,0.169-0.203,0.201-0.371,0.112
	c-0.266-0.14-0.533-0.283-0.8-0.425c-0.147-0.076-0.221-0.065-0.331,0.056c-0.235,0.256-0.495,0.473-0.793,0.652
	c-0.138,0.084-0.164,0.166-0.115,0.327c0.089,0.292,0.179,0.584,0.267,0.877c0.025,0.085,0.014,0.153-0.021,0.21l0.238,0.398
	c0.2-0.166,0.288-0.438,0.208-0.706c-0.052-0.184-0.108-0.367-0.165-0.549c-0.072-0.236-0.069-0.232,0.122-0.386
	c0.172-0.134,0.334-0.277,0.51-0.425c0.231,0.126,0.464,0.255,0.7,0.382c0.341,0.179,0.738,0.055,0.921-0.283
	c0.13-0.238,0.256-0.479,0.384-0.719c0.216-0.403,0.103-0.769-0.299-0.983c-0.223-0.12-0.447-0.237-0.658-0.35
	c0.022-0.293,0.042-0.564,0.061-0.836C19.927,11.842,19.954,11.826,20.004,11.813z"/>
<path stroke="#000000" stroke-width="0.1" stroke-miterlimit="10" d="M15.769,8.338c0.042-0.002,0.082,0.003,0.124,0.003
	c-0.167-0.256-0.358-0.494-0.57-0.714c0.051,0.166,0.102,0.331,0.152,0.496C15.526,8.292,15.597,8.348,15.769,8.338z"/>
<path stroke="#000000" stroke-width="0.1" stroke-miterlimit="10" d="M13.569,7.215c0.136,0.062,0.264,0.136,0.392,0.212
	c0.029-0.041,0.065-0.078,0.127-0.097c0.219-0.071,0.438-0.136,0.658-0.202c-0.151-0.114-0.309-0.216-0.472-0.312
	c-0.113,0.035-0.227,0.067-0.339,0.103C13.771,6.973,13.648,7.082,13.569,7.215z"/>
<path stroke="#000000" stroke-width="0.1" stroke-miterlimit="10" d="M17.761,16.466c-0.168,0.053-0.337,0.103-0.506,0.154
	l0.234,0.391c0.146-0.045,0.291-0.086,0.436-0.133c0.083-0.027,0.154-0.07,0.216-0.122l-0.238-0.398
	C17.873,16.404,17.829,16.443,17.761,16.466z"/>
<path fill="#41C362" stroke="#41C362" stroke-width="0.1" stroke-miterlimit="10" d="M15.273,9.771
	c-1.176,0.362-1.837,1.609-1.474,2.779c0.321,1.038,1.317,1.667,2.358,1.557c-0.032-0.145-0.067-0.287-0.089-0.434
	c-0.815,0.069-1.596-0.437-1.848-1.251c-0.295-0.942,0.241-1.94,1.187-2.229c0.165-0.05,0.33-0.067,0.494-0.069
	c-0.031-0.153-0.089-0.295-0.137-0.441C15.602,9.696,15.438,9.721,15.273,9.771z"/>
<path fill="#41C362" stroke="#41C362" stroke-width="0.1" stroke-miterlimit="10" d="M17.629,11.379
	c0.257,0.841-0.138,1.716-0.896,2.102c0.021,0.149,0.059,0.294,0.09,0.441c1.009-0.444,1.562-1.587,1.23-2.671
	c-0.233-0.759-0.834-1.298-1.546-1.494c0.043,0.165,0.076,0.332,0.102,0.502C17.083,10.458,17.471,10.849,17.629,11.379z"/>
<path fill="#41C362" stroke="#41C362" stroke-width="0.1" stroke-miterlimit="10" d="M16.437,13.604
	c-0.122,0.037-0.245,0.059-0.367,0.069c0.021,0.146,0.057,0.289,0.089,0.434c0.138-0.015,0.276-0.04,0.414-0.081
	c0.089-0.026,0.168-0.067,0.251-0.104c-0.031-0.147-0.069-0.292-0.09-0.441C16.64,13.529,16.542,13.573,16.437,13.604z"/>
<path fill="#41C362" stroke="#41C362" stroke-width="0.1" stroke-miterlimit="10" d="M16.609,10.26
	c-0.025-0.171-0.059-0.337-0.102-0.502c-0.238-0.065-0.488-0.092-0.742-0.074c0.048,0.146,0.105,0.288,0.137,0.441
	C16.148,10.121,16.388,10.168,16.609,10.26z"/>
</svg>
