<svg id="Capa_1" data-name="Capa 1" xmlns="http://www.w3.org/2000/svg" width="25.2656" height="36" viewBox="0 0 25.2656 36"><defs><style>.cls-1{fill:#3ba855;}.cls-2{fill:#fff;}.cls-3{fill:#41c363;}</style></defs><title>icon-location</title><path class="cls-1" d="M200,182a12.63288,12.63288,0,0,0-12.6328,12.63281,12.44092,12.44092,0,0,0,.1079,1.5708c1.0791,9.86869,11.70459,21.24169,11.70459,21.24169a1.9492,1.9492,0,0,0,.5478.4365l.0088.0049.354.1133.3535-.1133.0093-.0049A2.06245,2.06245,0,0,0,201,217.4453s10.47269-11.3945,11.52729-21.26409A12.55551,12.55551,0,0,0,200,182Z" transform="translate(-187.3672 -182)"/><path class="cls-2" d="M200.00149,203.7715a9.13845,9.13845,0,1,1,9.1352-9.13819A9.15011,9.15011,0,0,1,200.00149,203.7715Z" transform="translate(-187.3672 -182)"/><path class="cls-3" d="M205.53419,193.35211a5.61786,5.61786,0,0,0-.7149-1.72811l.4805-.80119-1.4902-1.48981-.8008.48051a5.62714,5.62714,0,0,0-1.7285-.7154l-.2266-.9326h-2.1074l-.2271.9326a5.61658,5.61658,0,0,0-1.72749.7154l-.8018-.48051-1.4897,1.48981.4805.80119a5.6436,5.6436,0,0,0-.7154,1.72811l-.9321.2265v2.1079l.9321.2266a5.64391,5.64391,0,0,0,.7154,1.728l-.4805.8013,1.4897,1.4902.8018-.4809a5.63222,5.63222,0,0,0,1.72749.7158l.2271.9321h2.1074l.2266-.9321a5.64282,5.64282,0,0,0,1.7285-.7158l.8008.4809,1.4902-1.4902-.4805-.8013a5.61817,5.61817,0,0,0,.7149-1.728l.9326-.2266v-2.1079ZM200,198.80081a4.1682,4.1682,0,1,1,4.168-4.168A4.17333,4.17333,0,0,1,200,198.80081Z" transform="translate(-187.3672 -182)"/><path class="cls-3" d="M200.37889,191.24561l-2.97659,4.5239h2.21879v2.25l2.9756-4.5239h-2.2178Z" transform="translate(-187.3672 -182)"/></svg>