<?xml version="1.0" encoding="utf-8"?>
<!-- Generator: Adobe Illustrator 16.0.0, SVG Export Plug-In . SVG Version: 6.00 Build 0)  -->
<!DOCTYPE svg PUBLIC "-//W3C//DTD SVG 1.1//EN" "http://www.w3.org/Graphics/SVG/1.1/DTD/svg11.dtd">
<svg version="1.1" id="Capa_1" xmlns="http://www.w3.org/2000/svg" xmlns:xlink="http://www.w3.org/1999/xlink" x="0px" y="0px"
	 width="20px" height="20px" viewBox="0 0 20 20" enable-background="new 0 0 20 20" xml:space="preserve">
<g>
	<path fill="#40C261" d="M18.483,1.517c-1.68-1.683-4.407-1.683-6.084,0L1.243,12.668c-0.087,0.087-0.142,0.199-0.158,0.32
		l-0.827,6.121c-0.024,0.175,0.038,0.35,0.158,0.47c0.104,0.104,0.249,0.166,0.396,0.166c0.024,0,0.05,0,0.075-0.004l3.688-0.499
		c0.307-0.041,0.522-0.324,0.481-0.631c-0.041-0.309-0.324-0.523-0.632-0.482l-2.957,0.398l0.578-4.269l4.494,4.492
		c0.104,0.104,0.249,0.166,0.396,0.166c0.146,0,0.291-0.058,0.395-0.166L18.485,7.599c0.813-0.813,1.262-1.894,1.262-3.043
		C19.747,3.406,19.296,2.327,18.483,1.517z M12.614,2.886l1.873,1.874L4.308,14.939l-1.873-1.873L12.614,2.886z M6.937,17.564
		l-1.832-1.832l10.18-10.18l1.832,1.832L6.937,17.564z M17.896,6.583l-4.48-4.481c0.57-0.469,1.279-0.727,2.025-0.727
		c0.853,0,1.649,0.333,2.252,0.932c0.604,0.598,0.932,1.398,0.932,2.25C18.624,5.308,18.367,6.015,17.896,6.583z"/>
</g>
</svg>
