<?xml version="1.0" encoding="utf-8"?>
<!-- Generator: Adobe Illustrator 16.0.0, SVG Export Plug-In . SVG Version: 6.00 Build 0)  -->
<!DOCTYPE svg PUBLIC "-//W3C//DTD SVG 1.1//EN" "http://www.w3.org/Graphics/SVG/1.1/DTD/svg11.dtd">
<svg version="1.1" id="Capa_1" xmlns="http://www.w3.org/2000/svg" xmlns:xlink="http://www.w3.org/1999/xlink" x="0px" y="0px"
	 width="20px" height="20px" viewBox="0 0 20 20" enable-background="new 0 0 20 20" xml:space="preserve">
<g>
	<g>
		<path fill="#000000" d="M15.686,2.547h-3.051c-0.152-1.32-1.274-2.348-2.636-2.348c-1.36,0-2.481,1.027-2.635,2.348H4.313
			c-1.234,0-2.238,1.006-2.238,2.24v0.115c0,0.943,0.588,1.751,1.416,2.08v10.578c0,1.234,1.004,2.24,2.238,2.24h8.543
			c1.234,0,2.238-1.006,2.238-2.24V6.982c0.828-0.33,1.416-1.137,1.416-2.081V4.786C17.926,3.553,16.922,2.547,15.686,2.547z
			 M9.999,1.262c0.774,0,1.419,0.553,1.563,1.285H8.438C8.581,1.814,9.227,1.262,9.999,1.262z M15.447,17.561
			c0,0.649-0.527,1.179-1.178,1.179H5.729c-0.649,0-1.178-0.528-1.178-1.179V7.143h10.896V17.561z M16.863,4.902
			c0,0.648-0.528,1.178-1.178,1.178H4.313c-0.648,0-1.176-0.527-1.176-1.178V4.787c0-0.648,0.527-1.178,1.176-1.178h11.373
			c0.648,0,1.178,0.527,1.178,1.178V4.902L16.863,4.902z"/>
		<path fill="#000000" d="M7.153,17.381c0.293,0,0.53-0.238,0.53-0.531V10.87c0-0.293-0.237-0.532-0.53-0.532
			s-0.531,0.239-0.531,0.532v5.979C6.621,17.143,6.859,17.381,7.153,17.381z"/>
		<path fill="#000000" d="M9.999,17.381c0.293,0,0.531-0.238,0.531-0.531V10.87c0-0.293-0.237-0.532-0.531-0.532
			c-0.293,0-0.53,0.239-0.53,0.532v5.979C9.469,17.143,9.706,17.381,9.999,17.381z"/>
		<path fill="#000000" d="M12.848,17.381c0.293,0,0.53-0.238,0.53-0.531V10.87c0-0.293-0.237-0.532-0.53-0.532
			s-0.531,0.239-0.531,0.532v5.979C12.314,17.143,12.555,17.381,12.848,17.381z"/>
	</g>
</g>
</svg>
