<?xml version="1.0" encoding="utf-8"?>
<!-- Generator: Adobe Illustrator 16.0.0, SVG Export Plug-In . SVG Version: 6.00 Build 0)  -->
<!DOCTYPE svg PUBLIC "-//W3C//DTD SVG 1.1//EN" "http://www.w3.org/Graphics/SVG/1.1/DTD/svg11.dtd">
<svg version="1.1" id="Layer_1" xmlns="http://www.w3.org/2000/svg" xmlns:xlink="http://www.w3.org/1999/xlink" x="0px" y="0px"
	 width="30px" height="30px" viewBox="0 0 30 30" enable-background="new 0 0 30 30" xml:space="preserve">
<g>
	<path fill="#3393BD" d="M4.274,10.895c-0.147-0.298-0.248-0.579-0.412-0.817c-0.257-0.37-0.29-0.696-0.031-0.953
		c0.259-0.26,0.59-0.244,0.949,0.041c0.544,0.435,1.229,0.416,1.69-0.043c0.463-0.462,0.483-1.147,0.05-1.69
		c-0.287-0.36-0.302-0.69-0.049-0.95c0.257-0.261,0.598-0.25,0.95,0.033c0.547,0.437,1.229,0.421,1.691-0.035
		C9.586,6.015,9.6,5.332,9.15,4.768C8.881,4.429,8.868,4.1,9.115,3.843c0.252-0.264,0.6-0.255,0.949,0.022
		c0.552,0.44,1.227,0.429,1.691-0.025c0.467-0.459,0.494-1.15,0.065-1.691c-0.299-0.377-0.314-0.714-0.043-0.972
		c0.288-0.271,0.66-0.225,1.018,0.132c4.324,4.324,8.646,8.648,12.973,12.972c0.994,0.995,1.994,1.987,2.984,2.988
		c0.408,0.411,0.297,0.974-0.213,1.129c-0.281,0.087-0.488-0.052-0.699-0.221c-0.529-0.433-1.227-0.393-1.686,0.08
		c-0.449,0.467-0.455,1.14-0.014,1.693c0.348,0.43,0.236,0.932-0.236,1.088c-0.281,0.092-0.49-0.036-0.701-0.209
		c-0.51-0.419-1.188-0.405-1.641,0.019c-0.49,0.461-0.537,1.171-0.092,1.711c0.166,0.2,0.291,0.403,0.223,0.669
		c-0.123,0.469-0.635,0.602-1.057,0.324c-0.26-0.171-0.564-0.328-0.863-0.364c-0.486-0.059-0.871,0.193-1.102,0.629
		c-0.236,0.447-0.205,0.888,0.084,1.304c0.051,0.069,0.113,0.133,0.164,0.202c0.207,0.28,0.191,0.614-0.039,0.847
		c-0.232,0.232-0.578,0.264-0.848,0.041c-0.273-0.225-0.557-0.399-0.922-0.395c-0.496,0.006-0.873,0.226-1.096,0.662
		c-0.229,0.448-0.188,0.893,0.111,1.304c0.057,0.076,0.123,0.145,0.178,0.228c0.176,0.259,0.15,0.575-0.063,0.797
		c-0.217,0.224-0.555,0.257-0.818,0.072c-0.088-0.059-0.164-0.138-0.24-0.214C11.909,23.392,6.635,18.115,1.361,12.842
		c-0.046-0.046-0.094-0.09-0.137-0.138c-0.277-0.3-0.298-0.657-0.058-0.923c0.243-0.264,0.597-0.271,0.922-0.014
		c0.621,0.488,1.325,0.482,1.776-0.062C4.046,11.493,4.129,11.194,4.274,10.895z M26.271,16.703
		c-4.326-4.323-8.652-8.65-12.976-12.973c-0.426,1.134-1.281,1.73-2.539,1.752c0.009,0.754-0.224,1.391-0.749,1.91
		c-0.52,0.519-1.167,0.729-1.896,0.73c0.006,0.763-0.227,1.399-0.75,1.918c-0.522,0.519-1.169,0.724-1.888,0.73
		c-0.022,1.275-0.637,2.104-1.736,2.527c4.323,4.323,8.649,8.649,12.97,12.969c0.426-1.128,1.281-1.721,2.535-1.741
		c-0.01-0.759,0.227-1.394,0.75-1.913c0.521-0.52,1.166-0.726,1.896-0.729c-0.012-0.763,0.227-1.397,0.748-1.918
		c0.523-0.521,1.168-0.724,1.891-0.729C24.545,17.961,25.162,17.137,26.271,16.703z"/>
	<path fill="#3393BD" stroke="#3393BD" stroke-width="0.3" d="M21.154,16.377c0.012,0.26-0.107,0.471-0.297,0.657
		c-1.27,1.266-2.535,2.535-3.803,3.803c-0.406,0.405-0.914,0.439-1.367,0.09c-0.08-0.059-0.155-0.136-0.228-0.208
		c-2.07-2.07-4.14-4.14-6.21-6.209c-0.252-0.25-0.447-0.534-0.396-0.899c0.029-0.198,0.104-0.43,0.239-0.568
		c1.301-1.324,2.618-2.632,3.933-3.943c0.296-0.297,0.753-0.341,1.14-0.114c0.121,0.072,0.233,0.165,0.333,0.265
		c2.086,2.085,4.174,4.173,6.26,6.258C20.998,15.745,21.166,16.012,21.154,16.377z M16.316,20.17
		c1.277-1.278,2.572-2.569,3.846-3.845c-0.957-0.955-1.928-1.926-2.912-2.908c0.027-0.011,0.02-0.009,0.014-0.004
		c-0.129,0.127-0.258,0.256-0.391,0.382c-0.227,0.216-0.506,0.23-0.699,0.042c-0.199-0.194-0.185-0.483,0.043-0.714
		c0.135-0.136,0.275-0.26,0.365-0.348c-0.995-0.998-1.966-1.971-2.905-2.913c-1.269,1.269-2.561,2.563-3.841,3.844
		c0.947,0.946,1.916,1.914,2.915,2.913c0.105-0.113,0.223-0.253,0.352-0.377c0.245-0.249,0.529-0.266,0.73-0.062
		c0.2,0.207,0.175,0.486-0.076,0.729c-0.129,0.127-0.276,0.233-0.376,0.317C14.399,18.246,15.368,19.218,16.316,20.17z"/>
	<path fill="#3393BD" stroke="#3393BD" stroke-width="0.3" d="M14.281,16.308c-0.153-0.127-0.38-0.225-0.443-0.388
		c-0.07-0.178-0.067-0.488,0.046-0.619c0.433-0.499,0.914-0.96,1.394-1.416c0.215-0.203,0.571-0.166,0.781,0.035
		c0.221,0.212,0.27,0.575,0.055,0.802c-0.446,0.477-0.913,0.936-1.384,1.384C14.636,16.199,14.479,16.226,14.281,16.308z"/>
</g>
</svg>
