<svg id="Layer_1" data-name="Layer 1" xmlns="http://www.w3.org/2000/svg" width="36" height="39.27292" viewBox="0 0 36 39.27292"><defs><style>.cls-1{fill:#5496cf;}</style></defs><title>icon-alert</title><path class="cls-1" d="M251.0298,254.1704a1.63669,1.63669,0,0,1-1.63625-1.6362,17.07431,17.07431,0,0,0-5.03222-12.1504,1.63605,1.63605,0,1,1,2.314-2.3135,20.3187,20.3187,0,0,1,5.99071,14.4639A1.63665,1.63665,0,0,1,251.0298,254.1704Z" transform="translate(-216.666 -236.3638)"/><path class="cls-1" d="M218.3022,254.1704a1.637,1.637,0,0,1-1.6362-1.6362,20.32121,20.32121,0,0,1,5.9907-14.4639,1.63607,1.63607,0,0,1,2.314,2.3135,17.07047,17.07047,0,0,0-5.0317,12.1504A1.63709,1.63709,0,0,1,218.3022,254.1704Z" transform="translate(-216.666 -236.3638)"/><path class="cls-1" d="M250.0137,264.04a10.96232,10.96232,0,0,1-3.89309-8.38724v-4.562a11.46307,11.46307,0,0,0-9.81836-11.3232V238a1.63623,1.63623,0,0,0-3.27246,0v1.7676a11.4618,11.4618,0,0,0-9.81839,11.3232v4.562a10.97334,10.97334,0,0,1-3.9077,8.39993,2.86291,2.86291,0,0,0,1.8623,5.03809h27A2.8631,2.8631,0,0,0,250.0137,264.04Z" transform="translate(-216.666 -236.3638)"/><path class="cls-1" d="M234.666,275.63672a6.14746,6.14746,0,0,0,6.0122-4.90918H228.6543A6.1465,6.1465,0,0,0,234.666,275.63672Z" transform="translate(-216.666 -236.3638)"/></svg>