<?xml version="1.0" encoding="utf-8"?>
<!-- Generator: Adobe Illustrator 16.0.0, SVG Export Plug-In . SVG Version: 6.00 Build 0)  -->
<!DOCTYPE svg PUBLIC "-//W3C//DTD SVG 1.1//EN" "http://www.w3.org/Graphics/SVG/1.1/DTD/svg11.dtd">
<svg version="1.1" id="Layer_1" xmlns="http://www.w3.org/2000/svg" xmlns:xlink="http://www.w3.org/1999/xlink" x="0px" y="0px"
	 width="20px" height="20px" viewBox="0 0 20 20" enable-background="new 0 0 20 20" xml:space="preserve">
<g>
	<path d="M10,1.292c-4.802,0-8.708,3.906-8.708,8.708c0,4.801,3.906,8.708,8.708,8.708c4.801,0,8.708-3.907,8.708-8.708
		C18.708,5.198,14.801,1.292,10,1.292z M10,17.637c-4.21,0-7.637-3.426-7.637-7.637c0-4.21,3.426-7.637,7.637-7.637
		S17.637,5.789,17.637,10S14.211,17.637,10,17.637z"/>
	<path d="M10,18.958c-4.939,0-8.958-4.019-8.958-8.958S5.061,1.042,10,1.042S18.958,5.061,18.958,10S14.939,18.958,10,18.958z
		 M10,1.542c-4.664,0-8.458,3.794-8.458,8.458c0,4.664,3.794,8.458,8.458,8.458c4.664,0,8.458-3.794,8.458-8.458
		C18.458,5.336,14.664,1.542,10,1.542z M10,17.887c-4.349,0-7.887-3.538-7.887-7.887c0-4.349,3.538-7.887,7.887-7.887
		c4.349,0,7.887,3.538,7.887,7.887C17.887,14.349,14.349,17.887,10,17.887z M10,2.613c-4.073,0-7.387,3.314-7.387,7.387
		S5.927,17.387,10,17.387s7.387-3.313,7.387-7.387S14.073,2.613,10,2.613z"/>
</g>
<g>
	<circle cx="10" cy="6.528" r="0.896"/>
	<path d="M10,7.674c-0.632,0-1.146-0.514-1.146-1.146S9.368,5.382,10,5.382s1.146,0.514,1.146,1.146S10.632,7.674,10,7.674z
		 M10,5.882c-0.356,0-0.646,0.29-0.646,0.646S9.644,7.174,10,7.174s0.646-0.29,0.646-0.646S10.356,5.882,10,5.882z"/>
</g>
<g>
	<path d="M10,8.886c-0.295,0-0.536,0.24-0.536,0.536v4.557c0,0.295,0.24,0.535,0.536,0.535s0.536-0.24,0.536-0.535V9.422
		C10.535,9.126,10.295,8.886,10,8.886z"/>
	<path d="M10,14.764c-0.434,0-0.786-0.353-0.786-0.785V9.422c0-0.434,0.353-0.786,0.786-0.786c0.432,0,0.785,0.352,0.786,0.785
		v4.558C10.786,14.411,10.434,14.764,10,14.764z M10,9.136c-0.158,0-0.286,0.128-0.286,0.286v4.557c0,0.157,0.128,0.285,0.286,0.285
		s0.286-0.128,0.286-0.285V9.422C10.286,9.265,10.157,9.136,10,9.136z"/>
</g>
</svg>
