<?xml version="1.0" encoding="utf-8"?>
<!-- Generator: Adobe Illustrator 16.0.0, SVG Export Plug-In . SVG Version: 6.00 Build 0)  -->
<!DOCTYPE svg PUBLIC "-//W3C//DTD SVG 1.1//EN" "http://www.w3.org/Graphics/SVG/1.1/DTD/svg11.dtd">
<svg version="1.1" id="Layer_1" xmlns="http://www.w3.org/2000/svg" xmlns:xlink="http://www.w3.org/1999/xlink" x="0px" y="0px"
	 width="30px" height="30px" viewBox="0 0 30 30" enable-background="new 0 0 30 30" xml:space="preserve">
<g>
	<path fill="none" stroke="#000000" stroke-width="1.5" stroke-miterlimit="10" d="M15,16.555c-2.762,0-5.008-2.246-5.008-5.007
		c0-2.762,2.246-5.008,5.008-5.008c2.761,0,5.008,2.246,5.008,5.008C20.008,14.309,17.761,16.555,15,16.555z"/>
	<path fill="none" stroke="#000000" stroke-width="1.5" stroke-miterlimit="10" d="M15,1.907c-5.316,0-9.641,4.325-9.641,9.641
		c0,1.387,0.284,2.71,0.843,3.936c2.41,5.273,7.032,10.842,8.391,12.423c0.102,0.118,0.25,0.187,0.407,0.187
		s0.305-0.068,0.406-0.187c1.358-1.58,5.98-7.148,8.392-12.423c0.56-1.226,0.843-2.549,0.843-3.936
		C24.641,6.232,20.315,1.907,15,1.907z"/>
	<path fill="none" stroke="#41C363" stroke-width="1.5" stroke-miterlimit="10" d="M16.9,26.104
		c1.984-2.473,5.073-6.631,6.897-10.62c0.56-1.226,0.843-2.549,0.843-3.936"/>
</g>
</svg>
