<?xml version="1.0" encoding="utf-8"?>
<!-- Generator: Adobe Illustrator 16.0.0, SVG Export Plug-In . SVG Version: 6.00 Build 0)  -->
<!DOCTYPE svg PUBLIC "-//W3C//DTD SVG 1.1//EN" "http://www.w3.org/Graphics/SVG/1.1/DTD/svg11.dtd">
<svg version="1.1" id="Layer_1" xmlns="http://www.w3.org/2000/svg" xmlns:xlink="http://www.w3.org/1999/xlink" x="0px" y="0px"
	 width="528.667px" height="45px" viewBox="0 0 528.667 45" enable-background="new 0 0 528.667 45" xml:space="preserve">
<g>
	<path fill="#40C262" d="M256.38,29.023v11.595h-2.438V14.77h8.788c4.616,0,7.46,2.659,7.46,7.127c0,4.468-2.844,7.127-7.46,7.127
		H256.38z M267.643,21.896c0-2.732-1.33-4.837-4.875-4.837h-6.388v9.675h6.388C266.313,26.734,267.643,24.629,267.643,21.896z"/>
	<path fill="#40C262" d="M281.234,14.77l9.342,25.849h-2.511l-2.585-7.349h-10.635l-2.585,7.349h-2.511l9.343-25.849H281.234z
		 M275.621,30.98h9.084l-4.542-12.887L275.621,30.98z"/>
	<path fill="#40C262" d="M301.475,27.842h-4.837v12.776H294.2V14.77h8.309c4.579,0,7.385,2.142,7.385,6.536
		c0,3.804-2.104,5.945-5.649,6.425l8.05,12.887h-2.732L301.475,27.842z M296.638,17.059v8.493h5.724
		c3.323,0,5.059-1.292,5.059-4.247s-1.735-4.247-5.059-4.247H296.638z"/>
	<path fill="#40C262" d="M313.664,14.77h17.872v2.29h-7.718v23.559h-2.437V17.059h-7.718V14.77z"/>
	<path fill="#40C262" d="M353.88,14.77v25.849H351l-12.813-21.897v21.897h-2.438V14.77h2.88l12.813,21.972V14.77H353.88z"/>
	<path fill="#40C262" d="M374.711,14.77v2.29h-12.148V25.7h9.933v2.289h-9.933v10.34h12.518v2.289h-14.955V14.77H374.711z"/>
	<path fill="#40C262" d="M387.307,27.842h-4.837v12.776h-2.438V14.77h8.309c4.579,0,7.385,2.142,7.385,6.536
		c0,3.804-2.104,5.945-5.649,6.425l8.05,12.887h-2.732L387.307,27.842z M382.47,17.059v8.493h5.724c3.323,0,5.059-1.292,5.059-4.247
		s-1.735-4.247-5.059-4.247H382.47z"/>
	<path d="M404.334,29.023v11.595h-2.438V14.77h8.788c4.616,0,7.46,2.659,7.46,7.127c0,4.468-2.844,7.127-7.46,7.127H404.334z
		 M415.596,21.896c0-2.732-1.329-4.837-4.874-4.837h-6.388v9.675h6.388C414.267,26.734,415.596,24.629,415.596,21.896z"/>
	<path d="M444.476,27.694c0,8.198-5.28,13.22-11.337,13.22c-6.056,0-11.336-5.022-11.336-13.22s5.28-13.219,11.336-13.219
		C439.195,14.475,444.476,19.496,444.476,27.694z M424.351,27.694c0,7.238,3.951,10.93,8.788,10.93c4.838,0,8.789-3.692,8.789-10.93
		c0-7.237-3.951-10.93-8.789-10.93C428.302,16.764,424.351,20.457,424.351,27.694z"/>
	<path d="M456.629,27.842h-4.837v12.776h-2.438V14.77h8.309c4.579,0,7.385,2.142,7.385,6.536c0,3.804-2.104,5.945-5.649,6.425
		l8.05,12.887h-2.732L456.629,27.842z M451.792,17.059v8.493h5.724c3.323,0,5.059-1.292,5.059-4.247s-1.735-4.247-5.059-4.247
		H451.792z"/>
	<path d="M468.818,14.77h17.872v2.29h-7.718v23.559h-2.437V17.059h-7.718V14.77z"/>
	<path d="M496.664,14.77l9.342,25.849h-2.511l-2.585-7.349h-10.635l-2.585,7.349h-2.511l9.343-25.849H496.664z M491.051,30.98h9.084
		l-4.542-12.887L491.051,30.98z"/>
	<path d="M512.067,14.77v23.56h12.111v2.289H509.63V14.77H512.067z"/>
</g>
<g>
	<g>
		<g>
			<path fill="#52BA64" d="M56.664,2.234h28.352v4.853H73.39v35.481h-5.073V7.06H56.69V2.234H56.664z"/>
		</g>
		<g>
			<path fill="#52BA64" d="M92.172,2.234h5.072v26.954c0,5.127,3.181,8.994,9.049,8.994c5.868,0,9.048-3.867,9.048-8.994V2.234
				h5.073v26.625c0,9.214-6.334,14.177-14.122,14.177s-14.121-4.963-14.121-14.177V2.234z"/>
		</g>
		<g>
			<path fill="#52BA64" d="M158.474,2.234v40.334h-5.922l-18.208-32.081v32.081h-5.073V2.234h5.924l18.207,32.081V2.234H158.474z"/>
		</g>
		<g>
			<path fill="#52BA64" d="M191.158,2.234v4.853h-18.098v11.572h14.644v4.853h-14.644v14.23h18.674v4.854h-23.745V2.234H191.158z"/>
		</g>
		<g>
			<path fill="#52BA64" d="M215.645,10.872c-1.947-3.51-3.977-4.278-6.39-4.278c-2.879,0-4.853,2.413-4.853,5.018
				c0,3.976,3.51,5.649,7.787,7.788c4.552,2.303,9.624,5.073,9.624,11.571c0,3.291-1.151,6.114-3.098,8.227
				c-2.194,2.413-5.429,3.812-8.994,3.812c-6.691,0-11.709-4.607-13.024-10.886l4.387-2.66c1.315,4.771,3.456,8.692,8.638,8.692
				c2.084,0,4.194-0.795,5.483-2.303c0.988-1.207,1.563-2.935,1.563-4.772c0-3.921-3.674-6.005-7.596-7.842
				c-5.237-2.467-9.789-5.018-9.789-11.242c0-6.004,4.607-10.255,9.899-10.255c5.703,0,8.527,2.66,10.474,6.443L215.645,10.872z"/>
		</g>
	</g>
	<g id="XMLID_6_">
		<polygon fill="#52BA64" points="30.066,38.182 15.259,38.182 13.696,43.035 31.629,43.035 		"/>
	</g>
	<g id="XMLID_5_">
		<polygon points="23.924,1.768 30.999,1.768 43.639,40.595 36.537,40.595 		"/>
	</g>
	<g id="XMLID_4_">
		<polygon points="21.401,1.768 14.3,1.768 1.686,40.595 8.788,40.595 		"/>
	</g>
</g>
<g>
	<polygon points="234.218,42 230.953,42 247.2,12.375 250.465,12.375 	"/>
</g>
</svg>
