<?xml version="1.0" encoding="utf-8"?>
<!-- Generator: Adobe Illustrator 16.0.0, SVG Export Plug-In . SVG Version: 6.00 Build 0)  -->
<!DOCTYPE svg PUBLIC "-//W3C//DTD SVG 1.1//EN" "http://www.w3.org/Graphics/SVG/1.1/DTD/svg11.dtd">
<svg version="1.1" id="Layer_1" xmlns="http://www.w3.org/2000/svg" xmlns:xlink="http://www.w3.org/1999/xlink" x="0px" y="0px"
	 width="1060px" height="460px" viewBox="0 0 1060 460" enable-background="new 0 0 1060 460" xml:space="preserve">
<g>
	<g>
		<path fill="#FFFFFF" d="M96.478,213.89c-1.191,4.389-3.232,8.296-6.131,11.721c-2.896,3.422-6.798,6.213-11.701,8.374
			c-4.904,2.154-11.072,3.236-18.5,3.236c-7.729,0-14.639-1.451-20.729-4.354c-6.095-2.903-11.74-7.183-16.94-12.838L8.88,236.997
			c7.578,6.994,15.564,11.905,23.961,14.735c8.393,2.824,17.643,4.242,27.75,4.242c8.616,0,16.494-1.341,23.627-4.02
			c7.133-2.68,13.224-6.439,18.277-11.275c5.05-4.838,8.95-10.569,11.701-17.189c2.748-6.625,4.124-13.954,4.124-21.991V96.567
			H98.26v15.182h-0.446c-3.866-5.655-9.177-10.046-15.937-13.172c-6.764-3.125-13.709-4.688-20.842-4.688
			c-8.174,0-15.567,1.417-22.178,4.242c-6.613,2.829-12.259,6.774-16.939,11.833c-4.681,5.062-8.285,10.978-10.811,17.749
			c-2.528,6.775-3.789,14.031-3.789,21.768c0,7.741,1.338,14.923,4.012,21.544c2.675,6.625,6.388,12.356,11.145,17.191
			c4.754,4.838,10.438,8.634,17.052,11.386c6.61,2.756,13.781,4.13,21.509,4.13c7.279,0,14.228-1.524,20.842-4.577
			c6.609-3.049,11.848-7.776,15.713-14.177h0.67v15.628C98.261,205.071,97.666,209.498,96.478,213.89z M88.899,175.266
			c-6.241,6.474-14.711,9.711-25.409,9.711c-10.699,0-19.17-3.237-25.41-9.711c-6.241-6.475-9.361-15.07-9.361-25.787
			c0-5.358,0.814-10.305,2.451-14.847c1.633-4.539,3.936-8.407,6.91-11.61c2.971-3.199,6.609-5.728,10.922-7.591
			c4.308-1.859,9.139-2.791,14.488-2.791c5.349,0,10.176,0.932,14.487,2.791c4.308,1.863,7.948,4.392,10.922,7.591
			c2.971,3.203,5.272,7.071,6.909,11.61c1.634,4.542,2.453,9.488,2.453,14.847C98.261,160.196,95.14,168.792,88.899,175.266z
			 M239.128,183.415l-15.157-11.609c-3.866,4.765-8.101,8.595-12.705,11.498c-4.607,2.902-10.03,4.354-16.271,4.354
			c-4.607,0-9.065-0.743-13.374-2.232c-4.311-1.486-8.1-3.572-11.367-6.251c-3.27-2.679-5.906-5.916-7.912-9.712
			c-2.006-3.795-3.01-7.999-3.01-12.614h84.699v-7.145c0-6.844-0.93-13.581-2.785-20.205c-1.859-6.621-4.869-12.576-9.027-17.861
			c-4.162-5.281-9.473-9.562-15.938-12.837c-6.463-3.272-14.376-4.912-23.738-4.912c-7.877,0-15.156,1.417-21.844,4.242
			c-6.686,2.829-12.447,6.736-17.273,11.721c-4.83,4.989-8.62,10.867-11.367,17.638c-2.752,6.774-4.124,14.104-4.124,21.991
			c0,7.891,1.261,15.22,3.789,21.991c2.524,6.774,6.13,12.652,10.811,17.637c4.681,4.989,10.399,8.896,17.163,11.721
			c6.76,2.826,14.3,4.242,22.623,4.242C212.38,205.071,227.983,197.854,239.128,183.415z M161.672,129.944
			c1.56-3.646,3.751-6.956,6.575-9.935c2.82-2.976,6.275-5.393,10.365-7.256c4.084-1.859,8.58-2.791,13.484-2.791
			c5.05,0,9.473,0.782,13.262,2.344c3.789,1.563,6.945,3.722,9.474,6.475c2.524,2.756,4.419,5.993,5.684,9.712
			c1.261,3.722,1.968,7.814,2.118,12.279h-63.303C159.332,137.2,160.112,133.593,161.672,129.944z M335.195,127.265
			c1.338,3.499,2.006,7.703,2.006,12.614v62.513h20.061v-68.094c0-6.994-1.041-13.061-3.12-18.196
			c-2.083-5.135-4.868-9.338-8.357-12.614c-3.493-3.272-7.578-5.693-12.26-7.256s-9.55-2.344-14.601-2.344
			c-8.174,0-15.379,1.751-21.62,5.247c-6.241,3.499-10.626,8.076-13.151,13.73h-0.445V96.567h-20.061v105.825h20.061v-54.476
			c0-6.101,0.742-11.386,2.229-15.851c1.484-4.465,3.566-8.149,6.242-11.052c2.674-2.902,5.795-5.023,9.361-6.363
			c3.566-1.339,7.428-2.009,11.59-2.009c3.121,0,6.13,0.485,9.027,1.451c2.896,0.97,5.461,2.533,7.688,4.688
			C332.075,120.94,333.858,123.77,335.195,127.265z M453.998,187.099c2.525-4.242,3.789-9.338,3.789-15.293
			c0-4.912-0.78-9.077-2.34-12.503c-1.562-3.422-3.717-6.324-6.465-8.707c-2.751-2.379-6.019-4.315-9.808-5.805
			c-3.789-1.486-7.84-2.752-12.147-3.795c-2.229-0.447-4.903-0.966-8.023-1.563c-3.121-0.593-6.057-1.486-8.805-2.679
			c-2.752-1.189-5.127-2.752-7.133-4.688c-2.007-1.933-3.01-4.465-3.01-7.591c0-3.868,1.745-6.809,5.238-8.818
			c3.489-2.009,7.612-3.014,12.37-3.014c5.051,0,9.323,1.005,12.816,3.014c3.489,2.009,6.426,4.503,8.805,7.479l15.603-11.833
			c-3.865-6.251-9.064-10.717-15.603-13.396c-6.541-2.679-13.374-4.019-20.506-4.019c-4.904,0-9.773,0.67-14.601,2.009
			c-4.831,1.34-9.139,3.349-12.928,6.028c-3.79,2.679-6.837,6.066-9.139,10.158c-2.308,4.095-3.455,8.896-3.455,14.4
			c0,5.062,0.891,9.303,2.674,12.726c1.783,3.426,4.158,6.251,7.133,8.484c2.971,2.232,6.388,4.019,10.254,5.358
			c3.861,1.339,7.947,2.532,12.259,3.572c2.229,0.447,4.792,1.005,7.69,1.675c2.896,0.669,5.645,1.563,8.246,2.679
			c2.599,1.116,4.827,2.644,6.688,4.577c1.855,1.936,2.785,4.392,2.785,7.368c0,2.232-0.633,4.207-1.895,5.916
			c-1.265,1.713-2.896,3.126-4.903,4.242c-2.006,1.116-4.312,1.936-6.909,2.456c-2.602,0.523-5.165,0.782-7.688,0.782
			c-5.796,0-10.699-1.263-14.712-3.795c-4.013-2.529-7.655-5.432-10.922-8.707l-15.156,12.502
			c5.199,7.144,11.105,12.056,17.72,14.735c6.61,2.679,14.301,4.019,23.07,4.019c5.199,0,10.362-0.597,15.49-1.786
			c5.127-1.19,9.694-3.126,13.708-5.805C448.203,194.801,451.468,191.341,453.998,187.099z M503.142,200.829
			c6.761,2.826,14.302,4.242,22.624,4.242c20.061,0,35.664-7.218,46.809-21.656l-15.158-11.609
			c-3.865,4.765-8.1,8.595-12.705,11.498c-4.607,2.902-10.029,4.354-16.27,4.354c-4.607,0-9.066-0.743-13.375-2.232
			c-4.312-1.486-8.101-3.572-11.366-6.251c-3.271-2.679-5.907-5.916-7.913-9.712c-2.006-3.795-3.009-7.999-3.009-12.614h84.698
			v-7.145c0-6.844-0.93-13.581-2.785-20.205c-1.858-6.621-4.868-12.576-9.026-17.861c-4.162-5.281-9.474-9.562-15.938-12.837
			c-6.463-3.272-14.377-4.912-23.737-4.912c-7.878,0-15.157,1.417-21.845,4.242c-6.687,2.829-12.446,6.736-17.273,11.721
			c-4.83,4.989-8.619,10.867-11.367,17.638c-2.752,6.774-4.123,14.104-4.123,21.991c0,7.891,1.26,15.22,3.789,21.991
			c2.524,6.774,6.129,12.652,10.812,17.637C490.66,194.097,496.378,198.003,503.142,200.829z M495.119,129.944
			c1.56-3.646,3.75-6.956,6.574-9.935c2.82-2.976,6.275-5.393,10.364-7.256c4.085-1.859,8.581-2.791,13.484-2.791
			c5.051,0,9.473,0.782,13.262,2.344c3.789,1.563,6.945,3.722,9.474,6.475c2.524,2.756,4.42,5.993,5.686,9.712
			c1.26,3.722,1.967,7.814,2.117,12.279h-63.302C492.778,137.2,493.558,133.593,495.119,129.944z M604.893,169.126
			c0,4.318,0.187,8.595,0.56,12.837c0.369,4.242,1.559,8.076,3.565,11.498c2.007,3.426,5.125,6.216,9.361,8.373
			c4.234,2.156,10.215,3.237,17.941,3.237c2.08,0,5.016-0.262,8.805-0.782c3.789-0.523,6.871-1.451,9.25-2.791V183.19
			c-2.082,1.193-4.385,2.01-6.908,2.456c-2.529,0.447-4.979,0.67-7.354,0.67c-3.867,0-6.8-0.705-8.806-2.121
			c-2.006-1.413-3.494-3.272-4.459-5.582c-0.967-2.306-1.524-4.912-1.672-7.814c-0.147-2.902-0.223-5.84-0.223-8.819v-48.001h28.754
			V96.567h-28.754V66.874h-20.062v29.693h-23.18v17.414h23.18L604.893,169.126L604.893,169.126z M164.238,306.564
			c-2.975-4.39-7.061-7.926-12.26-10.605c-5.203-2.68-11.891-4.02-20.061-4.02c-6.391,0-12.705,1.641-18.945,4.912
			c-6.242,3.275-11.072,8.188-14.488,14.735c-3.42-6.548-7.802-11.46-13.151-14.735c-5.349-3.271-11.963-4.912-19.837-4.912
			c-4.758,0-9.104,0.709-13.039,2.121c-3.939,1.416-7.356,3.127-10.254,5.135c-2.897,2.011-5.276,4.132-7.133,6.363
			c-1.859,2.232-3.009,4.096-3.455,5.582H31.17V294.62H12.447v105.825h20.061v-54.924c0-5.951,0.741-11.123,2.229-15.516
			c1.483-4.389,3.49-7.999,6.018-10.828c2.525-2.826,5.461-4.947,8.805-6.363c3.344-1.412,6.799-2.121,10.365-2.121
			c4.903,0,8.804,0.858,11.701,2.567c2.898,1.714,5.127,4.097,6.688,7.146c1.56,3.053,2.598,6.662,3.12,10.828
			c0.519,4.168,0.78,8.783,0.78,13.842v55.369h20.061v-57.824c0-9.377,2.078-17.041,6.24-22.996
			c4.158-5.951,11.068-8.932,20.729-8.932c4.903,0,8.839,0.858,11.813,2.567c2.971,1.714,5.273,3.984,6.91,6.81
			c1.633,2.83,2.709,6.104,3.231,9.824c0.519,3.723,0.78,7.59,0.78,11.608v58.941h20.061v-61.62c0-5.951-0.558-11.721-1.672-17.303
			C169.252,315.941,167.208,310.956,164.238,306.564z M288.833,308.238c-5.054-5.059-10.999-9.043-17.831-11.944
			c-6.837-2.901-14.192-4.354-22.066-4.354c-7.879,0-15.234,1.451-22.066,4.354c-6.838,2.901-12.782,6.888-17.832,11.944
			c-5.054,5.063-9.027,10.939-11.925,17.638c-2.897,6.698-4.347,13.919-4.347,21.656c0,7.741,1.449,14.997,4.347,21.768
			c2.897,6.774,6.871,12.652,11.925,17.638c5.05,4.988,10.994,8.932,17.832,11.834c6.832,2.901,14.188,4.354,22.066,4.354
			c7.874,0,15.229-1.451,22.066-4.354c6.832-2.902,12.777-6.846,17.831-11.834c5.05-4.984,9.027-10.862,11.925-17.638
			c2.897-6.771,4.347-14.026,4.347-21.768c0-7.737-1.449-14.958-4.347-21.656C297.86,319.18,293.882,313.301,288.833,308.238z
			 M281.254,362.379c-1.638,4.542-3.938,8.411-6.91,11.609c-2.974,3.203-6.613,5.73-10.921,7.591
			c-4.313,1.862-9.14,2.791-14.488,2.791c-5.35,0-10.181-0.929-14.488-2.791c-4.313-1.858-7.951-4.388-10.922-7.591
			c-2.975-3.198-5.276-7.067-6.91-11.609c-1.637-4.538-2.451-9.488-2.451-14.847c0-5.359,0.814-10.306,2.451-14.847
			c1.634-4.539,3.936-8.408,6.91-11.609c2.971-3.199,6.609-5.729,10.922-7.592c4.308-1.858,9.139-2.791,14.488-2.791
			s10.176,0.933,14.488,2.791c4.308,1.863,7.947,4.393,10.921,7.592c2.972,3.201,5.272,7.07,6.91,11.609
			c1.634,4.541,2.452,9.487,2.452,14.847C283.706,352.891,282.888,357.841,281.254,362.379z M407.968,301.541
			c-3.493-3.271-7.578-5.693-12.26-7.256c-4.68-1.563-9.549-2.346-14.6-2.346c-8.175,0-15.38,1.752-21.62,5.248
			c-6.241,3.498-10.626,8.074-13.151,13.729h-0.445V294.62h-20.061v105.825h20.061v-54.475c0-6.103,0.742-11.388,2.229-15.853
			c1.484-4.466,3.565-8.149,6.241-11.052c2.675-2.903,5.796-5.023,9.361-6.362c3.566-1.34,7.429-2.011,11.591-2.011
			c3.12,0,6.13,0.486,9.026,1.451c2.897,0.971,5.461,2.532,7.689,4.688c2.229,2.159,4.013,4.987,5.35,8.483
			c1.338,3.498,2.006,7.703,2.006,12.613v62.515h20.062V332.35c0-6.994-1.041-13.062-3.12-18.195
			C414.244,309.021,411.458,304.816,407.968,301.541z M456.893,241.932c-4.012,0-7.467,1.45-10.363,4.354
			c-2.898,2.902-4.348,6.361-4.348,10.382c0,4.019,1.448,7.479,4.348,10.381c2.896,2.902,6.353,4.354,10.363,4.354
			c4.014,0,7.468-1.451,10.364-4.354c2.898-2.901,4.347-6.362,4.347-10.381c0-4.021-1.447-7.479-4.347-10.382
			C464.36,243.382,460.906,241.932,456.893,241.932z M446.863,400.445h20.061V294.62h-20.061V400.445z M537.355,384.37
			c-3.865,0-6.798-0.705-8.805-2.121c-2.006-1.413-3.493-3.272-4.458-5.581c-0.968-2.307-1.524-4.912-1.672-7.814
			c-0.149-2.901-0.223-5.84-0.223-8.817v-48.001h28.754V294.62h-28.754v-29.694h-20.062v29.694h-23.181v17.414h23.181v55.146
			c0,4.318,0.187,8.596,0.559,12.838c0.368,4.241,1.56,8.075,3.565,11.498c2.006,3.426,5.126,6.216,9.361,8.371
			c4.235,2.156,10.215,3.237,17.942,3.237c2.08,0,5.017-0.262,8.806-0.781c3.789-0.522,6.871-1.451,9.25-2.791v-18.308
			c-2.082,1.193-4.385,2.01-6.91,2.456C542.184,384.146,539.73,384.37,537.355,384.37z M663.289,308.238
			c-5.053-5.059-10.998-9.043-17.83-11.944c-6.838-2.901-14.193-4.354-22.066-4.354c-7.879,0-15.233,1.451-22.065,4.354
			c-6.838,2.901-12.783,6.888-17.832,11.944c-5.055,5.063-9.027,10.939-11.926,17.638c-2.896,6.698-4.347,13.919-4.347,21.656
			c0,7.741,1.449,14.997,4.347,21.768c2.897,6.774,6.87,12.652,11.926,17.638c5.049,4.988,10.994,8.932,17.832,11.834
			c6.832,2.901,14.188,4.354,22.065,4.354c7.873,0,15.229-1.451,22.066-4.354c6.832-2.902,12.777-6.846,17.83-11.834
			c5.051-4.984,9.027-10.862,11.926-17.638c2.896-6.771,4.346-14.026,4.346-21.768c0-7.737-1.448-14.958-4.346-21.656
			C672.316,319.18,668.34,313.301,663.289,308.238z M655.711,362.379c-1.637,4.542-3.939,8.411-6.91,11.609
			c-2.973,3.203-6.612,5.73-10.922,7.591c-4.311,1.862-9.139,2.791-14.486,2.791c-5.35,0-10.182-0.929-14.487-2.791
			c-4.313-1.858-7.951-4.388-10.922-7.591c-2.976-3.198-5.277-7.067-6.91-11.609c-1.638-4.538-2.451-9.488-2.451-14.847
			c0-5.359,0.814-10.306,2.451-14.847c1.633-4.539,3.936-8.408,6.91-11.609c2.971-3.199,6.608-5.729,10.922-7.592
			c4.307-1.858,9.139-2.791,14.487-2.791s10.177,0.933,14.486,2.791c4.31,1.863,7.949,4.393,10.922,7.592
			c2.972,3.201,5.273,7.07,6.91,11.609c1.633,4.541,2.453,9.487,2.453,14.847C658.164,352.891,657.344,357.841,655.711,362.379z
			 M742.639,293.393c-3.27,0.969-6.278,2.271-9.026,3.906c-2.752,1.641-5.238,3.61-7.468,5.916c-2.229,2.311-4.012,4.877-5.35,7.703
			h-0.445V294.62h-20.061v105.825h20.061v-53.137c0-11.609,2.599-20.166,7.802-25.676c5.198-5.504,12.705-8.26,22.512-8.26
			c1.635,0,3.268,0.148,4.904,0.445c1.633,0.301,3.268,0.671,4.903,1.117l0.892-21.656c-2.674-0.893-5.648-1.34-8.916-1.34
			C749.176,291.939,745.906,292.426,742.639,293.393z M789.891,241.932c-4.012,0-7.467,1.45-10.362,4.354
			c-2.898,2.902-4.349,6.361-4.349,10.382c0,4.019,1.449,7.479,4.349,10.381c2.896,2.902,6.352,4.354,10.362,4.354
			c4.012,0,7.468-1.451,10.365-4.354c2.896-2.901,4.346-6.362,4.346-10.381c0-4.021-1.448-7.479-4.346-10.382
			C797.357,243.382,793.902,241.932,789.891,241.932z M779.861,400.445h20.061V294.62h-20.061V400.445z M909.471,301.541
			c-3.492-3.271-7.578-5.693-12.258-7.256c-4.682-1.563-9.551-2.346-14.6-2.346c-8.174,0-15.381,1.752-21.621,5.248
			c-6.242,3.498-10.627,8.074-13.15,13.729h-0.447V294.62h-20.059v105.825h20.059v-54.475c0-6.103,0.742-11.388,2.23-15.853
			c1.482-4.466,3.566-8.149,6.24-11.052c2.676-2.902,5.795-5.023,9.36-6.362c3.566-1.34,7.431-2.011,11.593-2.011
			c3.119,0,6.129,0.486,9.024,1.451c2.898,0.971,5.461,2.532,7.691,4.688c2.229,2.159,4.012,4.987,5.35,8.483
			c1.336,3.498,2.006,7.703,2.006,12.613v62.515h20.062V332.35c0-6.994-1.043-13.062-3.121-18.195
			C915.748,309.021,912.961,304.816,909.471,301.541z M1032.621,294.62v15.182h-0.447c-3.865-5.655-9.176-10.047-15.936-13.173
			c-6.765-3.125-13.709-4.688-20.842-4.688c-8.175,0-15.566,1.416-22.179,4.242c-6.612,2.828-12.26,6.773-16.938,11.832
			c-4.683,5.063-8.285,10.979-10.812,17.75c-2.528,6.773-3.789,14.029-3.789,21.768c0,7.74,1.338,14.924,4.013,21.545
			c2.676,6.624,6.387,12.355,11.145,17.189c4.754,4.84,10.438,8.635,17.051,11.388c6.611,2.756,13.781,4.13,21.511,4.13
			c7.278,0,14.227-1.524,20.842-4.577c6.608-3.049,11.848-7.774,15.713-14.177h0.67v15.629c0,4.465-0.596,8.892-1.783,13.283
			c-1.19,4.389-3.231,8.296-6.131,11.722c-2.896,3.422-6.799,6.213-11.701,8.372c-4.903,2.156-11.071,3.237-18.5,3.237
			c-7.729,0-14.639-1.451-20.729-4.354c-6.094-2.902-11.74-7.183-16.939-12.838L943.24,435.05
			c7.578,6.994,15.563,11.906,23.961,14.735c8.393,2.825,17.643,4.242,27.75,4.242c8.615,0,16.494-1.341,23.627-4.02
			c7.133-2.68,13.225-6.439,18.277-11.274c5.049-4.839,8.95-10.569,11.7-17.19c2.748-6.625,4.123-13.954,4.123-21.991V294.62
			H1032.621z M1023.258,373.318c-6.24,6.475-14.711,9.711-25.408,9.711c-10.698,0-19.17-3.236-25.409-9.711
			c-6.242-6.476-9.361-15.069-9.361-25.786c0-5.358,0.813-10.306,2.451-14.847c1.633-4.539,3.936-8.408,6.909-11.609
			c2.972-3.199,6.609-5.729,10.923-7.592c4.307-1.858,9.139-2.791,14.487-2.791c5.35,0,10.177,0.933,14.486,2.791
			c4.309,1.863,7.949,4.393,10.922,7.592c2.971,3.201,5.273,7.07,6.91,11.609c1.635,4.541,2.453,9.487,2.453,14.847
			C1032.621,358.249,1029.5,366.844,1023.258,373.318z"/>
	</g>
</g>
<g>
	<g>
		<g>
			<path fill="#41C363" d="M872.809,5.973l-8.315,12.731l10.979,6.852c-48.514,14.131-83.11,58.111-83.11,109.101
				c0,21.711,6.278,42.825,18.157,61.057c11.556,17.739,27.859,31.998,47.15,41.231l6.801-13.562
				c-16.737-8.014-30.885-20.388-40.914-35.782c-10.297-15.805-15.739-34.113-15.739-52.945c0-43.973,29.662-81.932,71.352-94.412
				l-7.293,11.162l13.027,8.127l21.356-32.689L872.809,5.973z"/>
		</g>
	</g>
</g>
<g>
	<g>
		<path fill="#41C363" d="M1025.369,134.956c0-21.711-6.279-42.824-18.158-61.057c-11.555-17.739-27.859-31.998-47.15-41.233
			l-6.801,13.563c16.736,8.015,30.885,20.388,40.914,35.782c10.295,15.805,15.738,34.113,15.738,52.945
			c0,43.974-29.66,81.932-71.353,94.412l7.293-11.162l-13.024-8.129l-21.359,32.69l33.451,20.871l8.318-12.73l-10.982-6.852
			C990.77,229.925,1025.369,185.946,1025.369,134.956z"/>
	</g>
</g>
<g>
	<g>
		<polygon fill="#FFFFFF" points="966.098,119.373 913.877,119.373 921.672,39.447 851.631,151.63 903.396,151.63 894.273,230.166 
					"/>
	</g>
</g>
</svg>
