<?xml version="1.0" encoding="utf-8"?>
<!-- Generator: Adobe Illustrator 16.0.3, SVG Export Plug-In . SVG Version: 6.00 Build 0)  -->
<!DOCTYPE svg PUBLIC "-//W3C//DTD SVG 1.1//EN" "http://www.w3.org/Graphics/SVG/1.1/DTD/svg11.dtd">
<svg version="1.1" id="Layer_1" xmlns="http://www.w3.org/2000/svg" xmlns:xlink="http://www.w3.org/1999/xlink" x="0px" y="0px"
	 width="155.75px" height="50.083px" viewBox="0 0 155.75 50.083" enable-background="new 0 0 155.75 50.083" xml:space="preserve">
<circle fill="#2AA74A" cx="137.708" cy="18.241" r="17.499"/>
<circle fill="#41C363" cx="137.708" cy="18.241" r="13.933"/>
<g>
	<path fill-rule="evenodd" clip-rule="evenodd" fill="#FFFFFF" d="M134.712,18.893c-1.202,0-2.348,0-3.493,0
		c-0.793-6.257,2.886-10.492,7.845-11.24c4.993-0.754,9.749,2.917,10.331,7.931c0.049,0.424,0.077,0.854,0.077,1.282
		c0.006,4.718,0,9.437,0.012,14.155c0,0.327-0.079,0.562-0.349,0.75c-0.896,0.627-1.783,1.267-2.677,1.894
		c-0.14,0.1-0.304,0.165-0.533,0.286c0-0.241,0-0.411,0-0.581c0-5.531,0.006-11.063-0.003-16.595
		c-0.005-2.743-1.836-4.976-4.516-5.551c-3.249-0.696-6.523,1.814-6.676,5.131c-0.031,0.679-0.014,1.361-0.019,2.041
		C134.711,18.554,134.712,18.712,134.712,18.893z"/>
</g>
<circle fill-rule="evenodd" clip-rule="evenodd" fill="#646464" cx="127.868" cy="5.995" r="5.509"/>
<path fill="#FFFFFF" d="M131.84,4.853c-2.187-2.185-5.744-2.185-7.931,0c-0.171,0.171-0.171,0.449,0,0.621
	c0.171,0.17,0.448,0.17,0.621,0c1.844-1.846,4.845-1.846,6.691,0c0.085,0.085,0.197,0.129,0.31,0.129
	c0.112,0,0.223-0.044,0.309-0.129C132.011,5.303,132.011,5.025,131.84,4.853L131.84,4.853z M131.84,4.853"/>
<path fill="#FFFFFF" d="M125.112,6.476c-0.171,0.171-0.171,0.449,0,0.622c0.17,0.17,0.448,0.17,0.62,0
	c1.182-1.182,3.104-1.182,4.285,0c0.086,0.085,0.197,0.129,0.31,0.129s0.224-0.044,0.31-0.129c0.171-0.171,0.171-0.448,0-0.621
	C129.114,4.952,126.635,4.952,125.112,6.476L125.112,6.476z M125.112,6.476"/>
<path fill="#FFFFFF" d="M126.296,8.079c-0.17,0.17-0.17,0.448,0,0.621c0.171,0.17,0.448,0.17,0.622,0
	c0.526-0.529,1.386-0.529,1.913,0c0.085,0.085,0.198,0.129,0.31,0.129s0.225-0.043,0.309-0.129c0.171-0.17,0.171-0.449,0-0.619
	C128.582,7.209,127.167,7.209,126.296,8.079L126.296,8.079z M126.296,8.079"/>
<g>
	<path fill-rule="evenodd" clip-rule="evenodd" fill="#FFFFFF" d="M133.055,20.158c0.694,1.022,1.426,2.021,2.068,3.077
		c0.494,0.813,0.241,1.91-0.477,2.591c-0.722,0.686-1.893,0.808-2.801,0.293c-0.816-0.461-1.201-1.42-0.975-2.456
		c0.043-0.201,0.09-0.415,0.194-0.586c0.595-0.981,1.208-1.951,1.815-2.924C132.938,20.154,132.996,20.156,133.055,20.158z
		 M132.98,21.584c-0.404,0.67-0.781,1.233-1.089,1.831c-0.135,0.261-0.176,0.592-0.183,0.894c-0.012,0.58,0.293,0.963,0.843,1.158
		c0.59,0.21,1.219,0.05,1.605-0.412c0.365-0.436,0.448-1.015,0.157-1.478C133.908,22.93,133.466,22.307,132.98,21.584z"/>
	<path fill-rule="evenodd" clip-rule="evenodd" fill="none" stroke="#FFFFFF" stroke-miterlimit="10" d="M136.42,26.026
		c0,0,0.749-1.228,1.731-0.219c0,0,0.705-1.012,1.549,0c0,0,0.8-0.989,1.71,0.073"/>
	<path fill-rule="evenodd" clip-rule="evenodd" fill="none" stroke="#FFFFFF" stroke-miterlimit="10" d="M142.808,25.808
		c0,0,0.676-1.009,1.658,0"/>
	<path fill-rule="evenodd" clip-rule="evenodd" fill="none" stroke="#FFFFFF" stroke-miterlimit="10" d="M133.516,28.725
		c0,0-0.749-1.227-1.731-0.219c0,0-0.705-1.01-1.549,0c0,0-0.799-0.989-1.71,0.073"/>
	<path fill-rule="evenodd" clip-rule="evenodd" fill="none" stroke="#FFFFFF" stroke-miterlimit="10" d="M127.128,28.506
		c0,0-0.675-1.008-1.657,0"/>
</g>
<g>
	<path d="M5.012,16.478c1.396,0,2.505,0.584,3.325,1.753l-1.298,1.116c-0.379-0.41-0.725-0.702-1.036-0.877
		c-0.312-0.174-0.665-0.262-1.059-0.262c-0.395,0-0.725,0.125-0.991,0.375s-0.398,0.611-0.398,1.082
		c0,0.349,0.133,0.634,0.398,0.854c0.266,0.221,0.596,0.426,0.991,0.615c0.395,0.189,0.82,0.376,1.275,0.558
		c0.455,0.183,0.88,0.398,1.275,0.649c0.395,0.25,0.725,0.562,0.991,0.934c0.265,0.372,0.398,0.839,0.398,1.4
		c0,1.153-0.342,2.049-1.025,2.687s-1.609,0.957-2.778,0.957c-0.592,0-1.12-0.088-1.583-0.263c-0.463-0.174-0.869-0.409-1.218-0.705
		c-0.35-0.297-0.646-0.627-0.888-0.991c-0.243-0.364-0.44-0.743-0.592-1.139l1.617-0.888c0.258,0.623,0.607,1.153,1.047,1.594
		c0.44,0.44,0.979,0.66,1.617,0.66c0.577,0,1.028-0.147,1.355-0.443c0.326-0.296,0.489-0.748,0.489-1.355
		c0-0.349-0.129-0.634-0.387-0.854s-0.584-0.418-0.979-0.592c-0.395-0.175-0.82-0.35-1.275-0.524
		c-0.456-0.174-0.881-0.395-1.275-0.66c-0.395-0.266-0.721-0.596-0.979-0.99c-0.258-0.396-0.387-0.903-0.387-1.526
		c0-0.44,0.08-0.854,0.239-1.241c0.159-0.387,0.383-0.721,0.671-1.002c0.289-0.281,0.641-0.504,1.059-0.671
		C4.029,16.562,4.496,16.478,5.012,16.478z"/>
	<path d="M27.305,28.137h-1.913v-7.674c0-1.503-0.615-2.254-1.844-2.254c-0.41,0-0.801,0.114-1.173,0.341
		c-0.372,0.228-0.698,0.566-0.979,1.014c-0.281,0.448-0.501,0.994-0.661,1.64c-0.159,0.646-0.239,1.385-0.239,2.22v4.714h-1.913
		v-7.674c0-1.503-0.615-2.254-1.844-2.254c-0.41,0-0.801,0.114-1.173,0.341c-0.372,0.228-0.698,0.566-0.979,1.014
		c-0.281,0.448-0.501,0.994-0.661,1.64c-0.159,0.646-0.239,1.385-0.239,2.22v4.714h-1.913V16.66h1.913v2.118
		c0.364-0.729,0.85-1.294,1.457-1.697c0.607-0.402,1.313-0.603,2.118-0.603c0.804,0,1.472,0.208,2.003,0.626
		c0.531,0.418,0.888,1.006,1.07,1.765c0.395-0.759,0.911-1.347,1.549-1.765c0.637-0.417,1.366-0.626,2.186-0.626
		c1.047,0,1.848,0.318,2.402,0.956c0.554,0.638,0.831,1.511,0.831,2.619V28.137z"/>
	<path d="M38.964,28.137h-1.503l-0.319-1.617c-0.364,0.532-0.839,0.965-1.423,1.299c-0.584,0.333-1.309,0.501-2.174,0.501
		c-0.486,0-0.941-0.065-1.366-0.194c-0.425-0.129-0.801-0.337-1.127-0.626c-0.327-0.288-0.584-0.648-0.774-1.081
		c-0.19-0.434-0.285-0.96-0.285-1.583c0-0.607,0.121-1.146,0.364-1.617c0.243-0.47,0.592-0.865,1.047-1.184
		c0.456-0.319,1.002-0.558,1.64-0.718c0.637-0.159,1.351-0.238,2.14-0.238h1.868v-0.502c0-0.88-0.243-1.495-0.729-1.844
		s-1.078-0.524-1.776-0.524c-0.592,0-1.108,0.156-1.549,0.467c-0.44,0.312-0.721,0.755-0.842,1.332L30.47,19.62
		c0.167-0.971,0.615-1.738,1.343-2.3c0.729-0.562,1.64-0.842,2.733-0.842c0.637,0,1.226,0.083,1.765,0.25
		c0.539,0.167,1.005,0.425,1.4,0.774c0.395,0.35,0.702,0.797,0.922,1.344c0.22,0.546,0.33,1.199,0.33,1.958V28.137z M31.95,24.835
		c0,0.547,0.163,0.976,0.49,1.286c0.326,0.312,0.793,0.467,1.4,0.467c0.364,0,0.74-0.061,1.127-0.182
		c0.387-0.121,0.732-0.319,1.036-0.592c0.304-0.273,0.554-0.634,0.751-1.082c0.197-0.447,0.296-0.998,0.296-1.651v-0.272h-2.05
		c-0.987,0-1.742,0.175-2.266,0.523C32.212,23.682,31.95,24.183,31.95,24.835z"/>
	<path d="M48.209,18.527c-0.425-0.212-0.873-0.319-1.344-0.319c-0.395,0-0.782,0.114-1.161,0.341
		c-0.38,0.228-0.721,0.577-1.025,1.048s-0.55,1.055-0.74,1.753c-0.19,0.698-0.285,1.511-0.285,2.437v4.35h-1.913V16.66h1.913v1.958
		c0.167-0.319,0.379-0.611,0.638-0.876c0.258-0.266,0.535-0.49,0.831-0.672s0.607-0.326,0.934-0.433
		c0.326-0.106,0.649-0.159,0.968-0.159s0.618,0.034,0.899,0.102c0.281,0.068,0.504,0.148,0.672,0.239L48.209,18.527z"/>
	<path d="M49.507,16.66h1.981v-3.438l1.913-1.207v4.646h3.005v1.73h-3.005v6.308c0,0.623,0.132,1.093,0.398,1.412
		c0.265,0.318,0.641,0.478,1.127,0.478c0.258,0,0.486-0.026,0.683-0.079c0.197-0.054,0.402-0.148,0.615-0.285l0.456,1.663
		c-0.273,0.167-0.569,0.28-0.888,0.341s-0.646,0.092-0.979,0.092c-0.972,0-1.769-0.304-2.391-0.911s-0.934-1.563-0.934-2.869v-6.148
		h-1.981V16.66z"/>
	<path d="M78.699,16.66l-3.484,11.477h-1.822l-2.254-8.721l-2.254,8.721h-1.822L63.579,16.66h2.003l2.346,8.813l2.254-8.813h1.913
		l2.254,8.813l2.345-8.813H78.699z"/>
	<path d="M88.741,28.137h-1.503l-0.319-1.617c-0.364,0.532-0.839,0.965-1.423,1.299c-0.584,0.333-1.309,0.501-2.174,0.501
		c-0.486,0-0.941-0.065-1.366-0.194c-0.425-0.129-0.801-0.337-1.127-0.626c-0.327-0.288-0.584-0.648-0.774-1.081
		c-0.19-0.434-0.285-0.96-0.285-1.583c0-0.607,0.121-1.146,0.364-1.617c0.243-0.47,0.592-0.865,1.047-1.184
		c0.456-0.319,1.002-0.558,1.64-0.718c0.637-0.159,1.351-0.238,2.14-0.238h1.868v-0.502c0-0.88-0.243-1.495-0.729-1.844
		s-1.078-0.524-1.776-0.524c-0.592,0-1.108,0.156-1.549,0.467c-0.44,0.312-0.721,0.755-0.842,1.332l-1.685-0.387
		c0.167-0.971,0.615-1.738,1.343-2.3c0.729-0.562,1.64-0.842,2.733-0.842c0.637,0,1.226,0.083,1.765,0.25
		c0.539,0.167,1.005,0.425,1.4,0.774c0.395,0.35,0.702,0.797,0.922,1.344c0.22,0.546,0.33,1.199,0.33,1.958V28.137z M81.728,24.835
		c0,0.547,0.163,0.976,0.49,1.286c0.326,0.312,0.793,0.467,1.4,0.467c0.364,0,0.74-0.061,1.127-0.182
		c0.387-0.121,0.732-0.319,1.036-0.592c0.304-0.273,0.554-0.634,0.751-1.082c0.197-0.447,0.296-0.998,0.296-1.651v-0.272h-2.05
		c-0.987,0-1.742,0.175-2.266,0.523C81.99,23.682,81.728,24.183,81.728,24.835z"/>
	<path d="M90.585,16.66h1.981v-3.438l1.913-1.207v4.646h3.005v1.73h-3.005v6.308c0,0.623,0.132,1.093,0.398,1.412
		c0.265,0.318,0.641,0.478,1.127,0.478c0.258,0,0.486-0.026,0.683-0.079c0.197-0.054,0.402-0.148,0.615-0.285l0.456,1.663
		c-0.273,0.167-0.569,0.28-0.888,0.341s-0.646,0.092-0.979,0.092c-0.972,0-1.769-0.304-2.391-0.911s-0.934-1.563-0.934-2.869v-6.148
		h-1.981V16.66z"/>
	<path d="M109.577,22.809h-8.425c0.03,0.531,0.117,1.024,0.262,1.479c0.144,0.456,0.349,0.854,0.615,1.195
		c0.266,0.342,0.596,0.611,0.991,0.809c0.395,0.197,0.85,0.296,1.366,0.296c0.85,0,1.514-0.186,1.993-0.558
		c0.478-0.372,0.876-0.914,1.195-1.628l1.685,0.729c-0.532,1.124-1.181,1.936-1.947,2.437c-0.767,0.501-1.742,0.752-2.926,0.752
		c-0.865,0-1.625-0.164-2.277-0.49c-0.653-0.326-1.196-0.763-1.628-1.31c-0.433-0.546-0.755-1.176-0.968-1.89
		c-0.213-0.713-0.319-1.457-0.319-2.231s0.106-1.518,0.319-2.231c0.212-0.713,0.535-1.344,0.968-1.89s0.976-0.983,1.628-1.31
		c0.652-0.326,1.412-0.489,2.277-0.489c0.85,0,1.598,0.152,2.243,0.455c0.645,0.304,1.188,0.706,1.628,1.207s0.771,1.078,0.991,1.73
		c0.22,0.653,0.33,1.336,0.33,2.049V22.809z M104.385,18.208c-0.896,0-1.598,0.27-2.106,0.808c-0.509,0.539-0.846,1.226-1.013,2.062
		h6.308c-0.167-0.82-0.509-1.503-1.024-2.05C106.032,18.482,105.311,18.208,104.385,18.208z"/>
	<path d="M118.503,18.527c-0.425-0.212-0.873-0.319-1.344-0.319c-0.395,0-0.782,0.114-1.161,0.341
		c-0.38,0.228-0.721,0.577-1.025,1.048s-0.55,1.055-0.74,1.753c-0.19,0.698-0.285,1.511-0.285,2.437v4.35h-1.913V16.66h1.913v1.958
		c0.167-0.319,0.379-0.611,0.638-0.876c0.258-0.266,0.535-0.49,0.831-0.672s0.607-0.326,0.934-0.433
		c0.326-0.106,0.649-0.159,0.968-0.159s0.618,0.034,0.899,0.102c0.281,0.068,0.504,0.148,0.672,0.239L118.503,18.527z"/>
	<path d="M5.012,37.352c1.396,0,2.505,0.585,3.325,1.754l-1.298,1.115c-0.379-0.409-0.725-0.702-1.036-0.876
		c-0.312-0.175-0.665-0.263-1.059-0.263c-0.395,0-0.725,0.126-0.991,0.376c-0.266,0.251-0.398,0.611-0.398,1.082
		c0,0.35,0.133,0.634,0.398,0.854c0.266,0.221,0.596,0.426,0.991,0.615c0.395,0.189,0.82,0.376,1.275,0.558
		c0.455,0.183,0.88,0.398,1.275,0.649c0.395,0.25,0.725,0.562,0.991,0.934c0.265,0.372,0.398,0.839,0.398,1.4
		c0,1.153-0.342,2.049-1.025,2.687s-1.609,0.957-2.778,0.957c-0.592,0-1.12-0.088-1.583-0.263c-0.463-0.174-0.869-0.409-1.218-0.705
		c-0.35-0.297-0.646-0.627-0.888-0.991c-0.243-0.364-0.44-0.743-0.592-1.139l1.617-0.888c0.258,0.623,0.607,1.153,1.047,1.594
		c0.44,0.44,0.979,0.66,1.617,0.66c0.577,0,1.028-0.147,1.355-0.443c0.326-0.296,0.489-0.748,0.489-1.355
		c0-0.349-0.129-0.634-0.387-0.854s-0.584-0.418-0.979-0.592c-0.395-0.175-0.82-0.35-1.275-0.524
		c-0.456-0.174-0.881-0.395-1.275-0.66c-0.395-0.266-0.721-0.596-0.979-0.99c-0.258-0.395-0.387-0.903-0.387-1.526
		c0-0.439,0.08-0.854,0.239-1.24c0.159-0.388,0.383-0.722,0.671-1.002c0.289-0.281,0.641-0.505,1.059-0.672
		C4.029,37.436,4.496,37.352,5.012,37.352z"/>
	<path d="M10.842,43.272c0-0.774,0.125-1.518,0.376-2.231s0.615-1.344,1.093-1.891c0.479-0.546,1.055-0.982,1.731-1.309
		c0.675-0.326,1.446-0.49,2.311-0.49s1.636,0.164,2.312,0.49c0.675,0.326,1.252,0.763,1.73,1.309
		c0.478,0.547,0.842,1.177,1.093,1.891s0.376,1.457,0.376,2.231s-0.125,1.519-0.376,2.231c-0.25,0.714-0.615,1.344-1.093,1.89
		c-0.479,0.547-1.055,0.983-1.73,1.31c-0.676,0.326-1.446,0.49-2.312,0.49s-1.636-0.164-2.311-0.49
		c-0.676-0.326-1.252-0.763-1.731-1.31c-0.478-0.546-0.842-1.176-1.093-1.89C10.967,44.791,10.842,44.047,10.842,43.272z
		 M12.8,43.272c0,0.531,0.076,1.048,0.228,1.549s0.376,0.948,0.672,1.343c0.296,0.396,0.664,0.71,1.104,0.945
		c0.44,0.235,0.957,0.353,1.548,0.353c0.592,0,1.108-0.117,1.548-0.353s0.809-0.55,1.104-0.945c0.296-0.395,0.52-0.842,0.672-1.343
		c0.151-0.501,0.228-1.018,0.228-1.549s-0.076-1.048-0.228-1.549c-0.152-0.501-0.376-0.948-0.672-1.343s-0.664-0.71-1.104-0.945
		s-0.956-0.354-1.548-0.354c-0.592,0-1.108,0.118-1.548,0.354c-0.44,0.235-0.809,0.551-1.104,0.945s-0.52,0.842-0.672,1.343
		S12.8,42.741,12.8,43.272z"/>
	<path d="M26.304,32.889v16.122h-1.913V32.889H26.304z"/>
	<path d="M29.31,37.534h1.913v7.583c0,0.789,0.171,1.377,0.512,1.765c0.342,0.387,0.831,0.58,1.469,0.58
		c0.425,0,0.835-0.117,1.23-0.353c0.395-0.235,0.744-0.573,1.047-1.014c0.303-0.439,0.546-0.975,0.729-1.605
		c0.182-0.629,0.273-1.347,0.273-2.151v-4.805h1.913v11.477h-1.913v-2.118c-0.425,0.744-0.964,1.313-1.617,1.708
		c-0.653,0.396-1.382,0.593-2.186,0.593c-1.048,0-1.871-0.312-2.471-0.934c-0.6-0.623-0.899-1.503-0.899-2.642V37.534z"/>
	<path d="M40.672,37.534h1.981v-3.438l1.913-1.207v4.646h3.005v1.73h-3.005v6.308c0,0.623,0.132,1.093,0.398,1.412
		c0.265,0.318,0.641,0.478,1.127,0.478c0.258,0,0.486-0.026,0.683-0.079c0.197-0.054,0.402-0.148,0.615-0.285l0.456,1.663
		c-0.273,0.167-0.569,0.28-0.888,0.341s-0.646,0.092-0.979,0.092c-0.972,0-1.769-0.304-2.391-0.911s-0.934-1.563-0.934-2.869v-6.148
		h-1.981V37.534z"/>
	<path d="M49.849,34.346c0-0.409,0.137-0.755,0.41-1.036c0.273-0.28,0.615-0.421,1.025-0.421c0.41,0,0.751,0.141,1.024,0.421
		c0.273,0.281,0.41,0.627,0.41,1.036c0,0.396-0.137,0.729-0.41,1.002c-0.273,0.273-0.615,0.41-1.024,0.41
		c-0.41,0-0.751-0.137-1.025-0.41C49.985,35.075,49.849,34.741,49.849,34.346z M52.239,37.534v11.477h-1.913V37.534H52.239z"/>
	<path d="M54.813,43.272c0-0.774,0.125-1.518,0.376-2.231s0.615-1.344,1.093-1.891c0.479-0.546,1.055-0.982,1.731-1.309
		c0.675-0.326,1.446-0.49,2.311-0.49s1.636,0.164,2.312,0.49c0.675,0.326,1.252,0.763,1.73,1.309
		c0.478,0.547,0.842,1.177,1.093,1.891s0.376,1.457,0.376,2.231s-0.125,1.519-0.376,2.231c-0.25,0.714-0.615,1.344-1.093,1.89
		c-0.479,0.547-1.055,0.983-1.73,1.31c-0.676,0.326-1.446,0.49-2.312,0.49s-1.636-0.164-2.311-0.49
		c-0.676-0.326-1.252-0.763-1.731-1.31c-0.478-0.546-0.842-1.176-1.093-1.89C54.938,44.791,54.813,44.047,54.813,43.272z
		 M56.771,43.272c0,0.531,0.076,1.048,0.228,1.549s0.376,0.948,0.672,1.343c0.296,0.396,0.664,0.71,1.104,0.945
		c0.44,0.235,0.957,0.353,1.548,0.353c0.592,0,1.108-0.117,1.548-0.353s0.809-0.55,1.104-0.945c0.296-0.395,0.52-0.842,0.672-1.343
		c0.151-0.501,0.228-1.018,0.228-1.549s-0.076-1.048-0.228-1.549c-0.152-0.501-0.376-0.948-0.672-1.343s-0.664-0.71-1.104-0.945
		s-0.956-0.354-1.548-0.354c-0.592,0-1.108,0.118-1.548,0.354c-0.44,0.235-0.809,0.551-1.104,0.945s-0.52,0.842-0.672,1.343
		S56.771,42.741,56.771,43.272z"/>
	<path d="M77.629,49.011h-1.913v-7.583c0-0.789-0.171-1.378-0.513-1.765c-0.341-0.387-0.831-0.581-1.469-0.581
		c-0.425,0-0.835,0.118-1.229,0.354c-0.395,0.235-0.744,0.573-1.047,1.014c-0.304,0.44-0.546,0.979-0.729,1.616
		c-0.182,0.638-0.273,1.352-0.273,2.141v4.805h-1.913V37.534h1.913v2.117c0.425-0.743,0.964-1.313,1.617-1.707
		c0.652-0.395,1.381-0.593,2.186-0.593c1.047,0,1.871,0.312,2.471,0.934c0.6,0.623,0.899,1.503,0.899,2.642V49.011z"/>
</g>
<text transform="matrix(1 0 0 1 -0.3618 28.1367)" display="none"><tspan x="0" y="0" display="inline" font-family="'ApercuPro-Regular'" font-size="22.7713">smart water</tspan><tspan x="0" y="20.874" display="inline" font-family="'ApercuPro-Regular'" font-size="22.7713">solution</tspan></text>
</svg>
