<?xml version="1.0" encoding="utf-8"?>
<!-- Generator: Adobe Illustrator 16.0.0, SVG Export Plug-In . SVG Version: 6.00 Build 0)  -->
<!DOCTYPE svg PUBLIC "-//W3C//DTD SVG 1.1//EN" "http://www.w3.org/Graphics/SVG/1.1/DTD/svg11.dtd">
<svg version="1.1" id="Layer_1" xmlns="http://www.w3.org/2000/svg" xmlns:xlink="http://www.w3.org/1999/xlink" x="0px" y="0px"
	 width="176px" height="30px" viewBox="0 0 176 30" enable-background="new 0 0 176 30" xml:space="preserve">
<g>
	<path fill="#40C262" d="M6.038,13.823h1.848l5.324,15.399h-1.936L9.91,25.109H4.014L2.65,29.223H0.714L6.038,13.823z M9.294,23.261
		l-2.332-6.93l-2.332,6.93H9.294z"/>
	<path fill="#40C262" d="M19.59,13.823c0.938,0,1.837,0.168,2.695,0.506c0.858,0.337,1.613,0.829,2.266,1.474
		c0.653,0.646,1.169,1.448,1.551,2.409c0.381,0.961,0.572,2.065,0.572,3.312s-0.191,2.351-0.572,3.311
		c-0.382,0.961-0.898,1.764-1.551,2.409c-0.653,0.646-1.408,1.137-2.266,1.474c-0.858,0.338-1.757,0.506-2.695,0.506h-4.224V13.823
		H19.59z M17.302,15.671v11.704h1.958c0.704,0,1.378-0.102,2.024-0.309c0.646-0.205,1.214-0.539,1.705-1
		c0.491-0.463,0.884-1.063,1.177-1.805c0.293-0.74,0.44-1.652,0.44-2.738c0-1.07-0.147-1.98-0.44-2.729s-0.686-1.354-1.177-1.814
		c-0.491-0.463-1.06-0.795-1.705-1.002c-0.646-0.205-1.32-0.308-2.024-0.308H17.302z"/>
	<path fill="#40C262" d="M32.086,13.823L36.2,24.669l4.114-10.846h2.376v15.399h-1.936v-11.22l-3.872,9.812h-1.364l-3.872-9.812
		v11.22H29.71V13.823H32.086z"/>
	<path fill="#40C262" d="M48.322,13.823v15.399h-1.936V13.823H48.322z"/>
	<path fill="#40C262" d="M63.128,13.823v15.399h-2.266L53.91,16.969v12.254h-1.936V13.823h2.266l6.952,12.254V13.823H63.128z"/>
	<path d="M68.694,22.623v6.6h-1.936V13.823h5.368c1.452,0,2.578,0.396,3.377,1.188c0.799,0.792,1.199,1.863,1.199,3.212
		c0,1.351-0.4,2.42-1.199,3.213c-0.799,0.791-1.925,1.188-3.377,1.188H68.694z M72.236,20.775c0.792,0,1.4-0.221,1.826-0.66
		c0.425-0.44,0.638-1.07,0.638-1.893c0-0.82-0.213-1.451-0.638-1.892c-0.426-0.44-1.034-0.66-1.826-0.66h-3.542v5.104H72.236z"/>
	<path d="M85.854,13.647c0.924,0,1.8,0.169,2.629,0.506c0.828,0.337,1.562,0.84,2.201,1.507c0.637,0.667,1.144,1.492,1.518,2.475
		c0.374,0.983,0.561,2.112,0.561,3.389c0,1.275-0.187,2.406-0.561,3.388c-0.374,0.983-0.881,1.808-1.518,2.475
		c-0.639,0.667-1.373,1.171-2.201,1.507c-0.829,0.338-1.705,0.506-2.629,0.506s-1.801-0.168-2.629-0.506
		c-0.829-0.336-1.562-0.838-2.2-1.507c-0.638-0.667-1.144-1.491-1.518-2.475c-0.374-0.981-0.561-2.112-0.561-3.388
		c0-1.276,0.187-2.405,0.561-3.389c0.374-0.982,0.88-1.808,1.518-2.475c0.638-0.667,1.371-1.169,2.2-1.507
		C84.054,13.815,84.93,13.647,85.854,13.647z M85.854,15.495c-0.69,0-1.331,0.125-1.925,0.374c-0.594,0.25-1.111,0.627-1.551,1.133
		s-0.789,1.133-1.045,1.881c-0.257,0.748-0.385,1.628-0.385,2.641c0,1.012,0.128,1.892,0.385,2.64
		c0.256,0.748,0.605,1.375,1.045,1.881s0.957,0.884,1.551,1.133c0.594,0.25,1.235,0.374,1.925,0.374
		c0.674,0,1.313-0.125,1.914-0.374c0.601-0.25,1.123-0.627,1.562-1.133s0.788-1.133,1.045-1.881c0.256-0.748,0.385-1.628,0.385-2.64
		c0-1.013-0.128-1.893-0.385-2.641s-0.605-1.375-1.045-1.881s-0.961-0.883-1.562-1.133C87.167,15.62,86.529,15.495,85.854,15.495z"
		/>
	<path d="M99.869,21.963h-2.311v7.26h-1.936V13.823h5.126c0.675,0,1.291,0.092,1.849,0.275c0.557,0.184,1.033,0.448,1.43,0.792
		c0.396,0.345,0.703,0.77,0.924,1.276c0.22,0.506,0.33,1.082,0.33,1.727c0,1.071-0.283,1.944-0.848,2.618
		c-0.563,0.675-1.353,1.115-2.365,1.32l4.599,7.392h-2.288L99.869,21.963z M97.559,15.671v4.444h3.234
		c0.807,0,1.422-0.176,1.848-0.528s0.639-0.916,0.639-1.694c0-0.776-0.213-1.342-0.639-1.693c-0.425-0.352-1.041-0.528-1.848-0.528
		H97.559z"/>
	<path d="M107.613,13.823h10.824v1.848h-4.444v13.552h-1.937V15.671h-4.443V13.823z"/>
	<path d="M122.902,13.823h1.849l5.324,15.399h-1.937l-1.363-4.113h-5.896l-1.363,4.113h-1.937L122.902,13.823z M126.159,23.261
		l-2.332-6.93l-2.332,6.93H126.159z"/>
	<path d="M134.167,13.823v13.552h6.996v1.848h-8.933V13.823H134.167z"/>
</g>
<path fill="#40C262" d="M146,0.777h23c3.866,0,7,3.134,7,7c0,3.866-3.134,7-7,7h-23c-3.866,0-7-3.134-7-7
	C139,3.911,142.134,0.777,146,0.777z"/>
<g enable-background="new    ">
	<path fill="#FFFFFF" d="M146.275,4.172h2.46c0.307,0,0.591,0.037,0.854,0.11s0.49,0.182,0.68,0.325
		c0.191,0.143,0.341,0.326,0.451,0.55c0.109,0.224,0.164,0.484,0.164,0.785c0,0.406-0.113,0.738-0.34,0.994
		c-0.227,0.257-0.52,0.445-0.88,0.565v0.02c0.214,0.014,0.413,0.069,0.601,0.165c0.186,0.097,0.348,0.224,0.484,0.381
		c0.137,0.156,0.245,0.338,0.325,0.545c0.08,0.206,0.12,0.43,0.12,0.67c0,0.319-0.064,0.602-0.195,0.845
		c-0.13,0.243-0.309,0.448-0.535,0.615c-0.227,0.166-0.49,0.293-0.789,0.38c-0.301,0.087-0.624,0.13-0.971,0.13h-2.43V4.172z
		 M147.235,7.112h1.31c0.18,0,0.35-0.019,0.51-0.056c0.16-0.036,0.301-0.098,0.42-0.185c0.121-0.087,0.216-0.196,0.285-0.33
		c0.07-0.134,0.105-0.297,0.105-0.49c0-0.28-0.09-0.523-0.27-0.729c-0.181-0.207-0.464-0.311-0.851-0.311h-1.51V7.112z
		 M147.235,10.412h1.409c0.147,0,0.309-0.016,0.486-0.045c0.176-0.03,0.341-0.09,0.494-0.181c0.153-0.09,0.283-0.211,0.391-0.364
		c0.105-0.153,0.16-0.356,0.16-0.61c0-0.42-0.137-0.735-0.41-0.945s-0.645-0.314-1.11-0.314h-1.42V10.412z"/>
	<path fill="#FFFFFF" d="M152.575,4.172h4.569v0.9h-3.609v2.109h3.359v0.9h-3.359v2.27h3.79v0.9h-4.75V4.172z"/>
	<path fill="#FFFFFF" d="M160.165,5.072h-2.28v-0.9h5.52v0.9h-2.279v6.18h-0.96V5.072z"/>
	<path fill="#FFFFFF" d="M165.725,4.172h0.871l3.029,7.08h-1.119l-0.711-1.75h-3.369l-0.701,1.75h-1.119L165.725,4.172z
		 M167.445,8.662l-1.32-3.25h-0.02l-1.34,3.25H167.445z"/>
</g>
</svg>
