<?xml version="1.0" encoding="utf-8"?>
<!-- Generator: Adobe Illustrator 16.0.0, SVG Export Plug-In . SVG Version: 6.00 Build 0)  -->
<!DOCTYPE svg PUBLIC "-//W3C//DTD SVG 1.1//EN" "http://www.w3.org/Graphics/SVG/1.1/DTD/svg11.dtd">
<svg version="1.1" id="Layer_1" xmlns="http://www.w3.org/2000/svg" xmlns:xlink="http://www.w3.org/1999/xlink" x="0px" y="0px"
	 width="24px" height="24px" viewBox="0 0 24 24" enable-background="new 0 0 24 24" xml:space="preserve">
<g>
	<path fill-rule="evenodd" clip-rule="evenodd" d="M18.499,8.119c-0.493,0-0.956,0.003-1.42-0.006
		c-0.055-0.001-0.115-0.068-0.16-0.117c-0.995-1.093-2.211-1.781-3.679-2.018c-3.497-0.564-6.746,1.831-7.227,5.334
		c-0.416,3.023,1.34,5.92,4.25,6.823c2.455,0.763,4.658,0.227,6.498-1.616c0.095-0.094,0.182-0.139,0.313-0.136
		c0.421,0.009,0.843,0.005,1.264,0.007c0.01,0,0.021,0.01,0.031,0.016c-1.142,1.913-4.059,3.681-7.175,3.191
		c-3.678-0.576-6.295-3.457-6.452-7.149c-0.138-3.22,1.896-6.532,5.621-7.525C13.797,4.008,17.073,5.778,18.499,8.119z"/>
	<path fill-rule="evenodd" clip-rule="evenodd" fill="#41C362" d="M10.313,13.064c0-0.548,0-1.068,0-1.616c0.082,0,0.156,0,0.229,0
		c2.225,0,4.449,0,6.674,0c0.268,0,0.284-0.016,0.284-0.28c0.001-0.444,0-0.889,0-1.379c1.132,0.841,2.232,1.658,3.351,2.489
		c-1.115,0.831-2.216,1.648-3.351,2.492c0-0.197,0-0.354,0-0.51c0-0.318-0.007-0.638,0.003-0.957c0.006-0.186-0.071-0.258-0.25-0.24
		c-0.031,0.004-0.063,0.001-0.095,0.001c-2.199,0-4.399,0-6.598,0C10.486,13.064,10.41,13.064,10.313,13.064z"/>
</g>
</svg>
