<?xml version="1.0" encoding="utf-8"?>
<!-- Generator: Adobe Illustrator 16.0.0, SVG Export Plug-In . SVG Version: 6.00 Build 0)  -->
<!DOCTYPE svg PUBLIC "-//W3C//DTD SVG 1.1//EN" "http://www.w3.org/Graphics/SVG/1.1/DTD/svg11.dtd">
<svg version="1.1" id="Layer_1" xmlns="http://www.w3.org/2000/svg" xmlns:xlink="http://www.w3.org/1999/xlink" x="0px" y="0px"
	 width="195px" height="28px" viewBox="0 0 195 28" enable-background="new 0 0 195 28" xml:space="preserve">
<g>
	<path fill="#41C362" d="M195,7.006c0,3.869-3.137,7.006-7.006,7.006h-22.953c-3.869,0-7.006-3.137-7.006-7.006l0,0
		c0-3.869,3.137-7.006,7.006-7.006h22.953C191.863,0,195,3.137,195,7.006L195,7.006z"/>
	<g>
		<path fill="#FFFFFF" d="M164.843,3.466h2.46c0.307,0,0.592,0.037,0.854,0.11c0.264,0.074,0.49,0.182,0.681,0.325
			c0.189,0.144,0.34,0.327,0.45,0.55c0.109,0.224,0.164,0.485,0.164,0.785c0,0.407-0.113,0.738-0.34,0.995s-0.52,0.445-0.88,0.565
			v0.02c0.214,0.013,0.413,0.068,0.601,0.165c0.187,0.097,0.348,0.223,0.484,0.38s0.245,0.338,0.325,0.545
			c0.08,0.208,0.12,0.43,0.12,0.67c0,0.32-0.065,0.602-0.195,0.845s-0.309,0.448-0.535,0.615s-0.489,0.293-0.79,0.38
			c-0.3,0.086-0.623,0.13-0.97,0.13h-2.43V3.466z M165.803,6.406h1.31c0.181,0,0.351-0.018,0.511-0.055
			c0.159-0.037,0.3-0.099,0.42-0.185c0.12-0.087,0.215-0.197,0.284-0.33c0.07-0.133,0.105-0.296,0.105-0.49
			c0-0.28-0.09-0.523-0.27-0.73c-0.181-0.207-0.464-0.31-0.851-0.31h-1.51V6.406z M165.803,9.706h1.41
			c0.146,0,0.308-0.015,0.484-0.045s0.342-0.091,0.495-0.181s0.283-0.211,0.391-0.365c0.106-0.152,0.159-0.355,0.159-0.609
			c0-0.42-0.137-0.735-0.409-0.945c-0.273-0.21-0.644-0.315-1.11-0.315h-1.42V9.706z"/>
		<path fill="#FFFFFF" d="M171.143,3.466h4.57v0.9h-3.61v2.11h3.36v0.9h-3.36v2.271h3.79v0.899h-4.75V3.466z"/>
		<path fill="#FFFFFF" d="M178.732,4.366h-2.279v-0.9h5.52v0.9h-2.28v6.18h-0.96V4.366z"/>
		<path fill="#FFFFFF" d="M184.292,3.466h0.87l3.03,7.08h-1.12l-0.71-1.75h-3.37l-0.7,1.75h-1.12L184.292,3.466z M186.012,7.956
			l-1.319-3.25h-0.021l-1.34,3.25H186.012z"/>
	</g>
</g>
<g>
	<path fill="#40C262" d="M2.069,21.4V28H0.133V12.601h5.368c1.452,0,2.578,0.396,3.377,1.188s1.199,1.863,1.199,3.211
		c0,1.35-0.4,2.42-1.199,3.213C8.079,21.004,6.954,21.4,5.501,21.4H2.069z M5.611,19.553c0.792,0,1.4-0.221,1.826-0.66
		c0.425-0.439,0.638-1.07,0.638-1.893c0-0.82-0.213-1.451-0.638-1.892c-0.426-0.44-1.034-0.66-1.826-0.66H2.069v5.104H5.611z"/>
	<path fill="#40C262" d="M15.072,12.601h1.848L22.244,28h-1.937l-1.363-4.113h-5.896L11.683,28H9.748L15.072,12.601z M18.328,22.039
		l-2.332-6.931l-2.332,6.931H18.328z"/>
	<path fill="#40C262" d="M28.646,20.74h-2.31V28H24.4V12.601h5.126c0.675,0,1.291,0.092,1.849,0.275
		c0.557,0.184,1.033,0.448,1.43,0.792c0.396,0.345,0.704,0.77,0.924,1.276s0.33,1.082,0.33,1.727c0,1.071-0.282,1.944-0.847,2.619
		c-0.565,0.674-1.354,1.114-2.365,1.319L35.444,28h-2.288L28.646,20.74z M26.336,14.449v4.444h3.233
		c0.807,0,1.423-0.176,1.849-0.528c0.425-0.352,0.638-0.916,0.638-1.694c0-0.777-0.213-1.342-0.638-1.693
		c-0.426-0.352-1.042-0.528-1.849-0.528H26.336z"/>
	<path fill="#40C262" d="M36.39,12.601h10.824v1.848H42.77V28h-1.936V14.449H36.39V12.601z"/>
	<path fill="#40C262" d="M60.875,12.601V28H58.61l-6.952-12.254V28h-1.937V12.601h2.267l6.951,12.254V12.601H60.875z"/>
	<path fill="#40C262" d="M73.349,12.601v1.848h-6.907v4.422h5.588v1.848h-5.588v5.434h7.128V28h-9.064V12.601H73.349z"/>
	<path fill="#40C262" d="M80.609,20.74h-2.31V28h-1.937V12.601h5.126c0.675,0,1.291,0.092,1.849,0.275
		c0.557,0.184,1.033,0.448,1.43,0.792c0.396,0.345,0.704,0.77,0.924,1.276s0.33,1.082,0.33,1.727c0,1.071-0.282,1.944-0.847,2.619
		c-0.565,0.674-1.354,1.114-2.365,1.319L87.407,28h-2.288L80.609,20.74z M78.299,14.449v4.444h3.233
		c0.807,0,1.423-0.176,1.849-0.528c0.425-0.352,0.638-0.916,0.638-1.694c0-0.777-0.213-1.342-0.638-1.693
		c-0.426-0.352-1.042-0.528-1.849-0.528H78.299z"/>
	<path d="M91.346,21.4V28H89.41V12.601h5.368c1.452,0,2.577,0.396,3.377,1.188c0.798,0.792,1.199,1.863,1.199,3.211
		c0,1.35-0.4,2.42-1.199,3.213c-0.8,0.791-1.925,1.188-3.377,1.188H91.346z M94.888,19.553c0.792,0,1.4-0.221,1.826-0.66
		c0.425-0.439,0.638-1.07,0.638-1.893c0-0.82-0.213-1.451-0.638-1.892c-0.426-0.44-1.034-0.66-1.826-0.66h-3.542v5.104H94.888z"/>
	<path d="M108.506,12.424c0.924,0,1.799,0.169,2.629,0.506c0.828,0.337,1.561,0.84,2.199,1.507c0.639,0.668,1.145,1.492,1.518,2.475
		c0.375,0.983,0.563,2.112,0.563,3.389c0,1.275-0.188,2.405-0.563,3.388c-0.373,0.983-0.879,1.808-1.518,2.476
		c-0.639,0.667-1.371,1.17-2.199,1.506c-0.83,0.338-1.705,0.506-2.629,0.506s-1.801-0.168-2.629-0.506
		c-0.83-0.336-1.563-0.839-2.201-1.506c-0.637-0.668-1.145-1.492-1.518-2.476c-0.373-0.982-0.561-2.112-0.561-3.388
		c0-1.276,0.188-2.405,0.561-3.389c0.373-0.982,0.881-1.807,1.518-2.475c0.639-0.667,1.371-1.169,2.201-1.507
		C106.705,12.593,107.582,12.424,108.506,12.424z M108.506,14.272c-0.689,0-1.332,0.125-1.926,0.374
		c-0.594,0.25-1.111,0.627-1.551,1.133s-0.789,1.133-1.045,1.881c-0.258,0.748-0.385,1.629-0.385,2.641s0.127,1.892,0.385,2.64
		c0.256,0.748,0.605,1.375,1.045,1.881c0.439,0.507,0.957,0.884,1.551,1.134c0.594,0.249,1.236,0.373,1.926,0.373
		c0.674,0,1.313-0.124,1.914-0.373c0.6-0.25,1.121-0.627,1.561-1.134c0.441-0.506,0.789-1.133,1.045-1.881
		c0.258-0.748,0.387-1.628,0.387-2.64s-0.129-1.893-0.387-2.641c-0.256-0.748-0.604-1.375-1.045-1.881
		c-0.439-0.506-0.961-0.883-1.561-1.133C109.818,14.397,109.18,14.272,108.506,14.272z"/>
	<path d="M122.52,20.74h-2.311V28h-1.936V12.601h5.125c0.676,0,1.291,0.092,1.85,0.275c0.557,0.184,1.033,0.448,1.43,0.792
		c0.395,0.345,0.703,0.77,0.924,1.276c0.219,0.506,0.33,1.082,0.33,1.727c0,1.071-0.283,1.944-0.848,2.619
		c-0.564,0.674-1.354,1.114-2.365,1.319L129.316,28h-2.287L122.52,20.74z M120.209,14.449v4.444h3.234
		c0.807,0,1.422-0.176,1.848-0.528c0.426-0.352,0.639-0.916,0.639-1.694c0-0.777-0.213-1.342-0.639-1.693
		c-0.426-0.352-1.041-0.528-1.848-0.528H120.209z"/>
	<path d="M130.264,12.601h10.824v1.848h-4.445V28h-1.936V14.449h-4.443V12.601z"/>
	<path d="M145.553,12.601h1.848L152.725,28h-1.936l-1.363-4.113h-5.896L142.166,28h-1.938L145.553,12.601z M148.809,22.039
		l-2.332-6.931l-2.332,6.931H148.809z"/>
	<path d="M156.818,12.601v13.552h6.996V28h-8.934V12.601H156.818z"/>
</g>
</svg>
