<?xml version="1.0" encoding="utf-8"?>
<!-- Generator: Adobe Illustrator 16.0.0, SVG Export Plug-In . SVG Version: 6.00 Build 0)  -->
<!DOCTYPE svg PUBLIC "-//W3C//DTD SVG 1.1//EN" "http://www.w3.org/Graphics/SVG/1.1/DTD/svg11.dtd">
<svg version="1.1" id="Layer_1" xmlns="http://www.w3.org/2000/svg" xmlns:xlink="http://www.w3.org/1999/xlink" x="0px" y="0px"
	 width="200px" height="42.5px" viewBox="0 0 200 42.5" enable-background="new 0 0 200 42.5" xml:space="preserve">
<text transform="matrix(1 0 0 1 156.1855 42.4082)" display="none" enable-background="new    " font-family="'ArialMT'" font-size="12">Admin</text>
<g>
	<path fill="#41C363" d="M14.153,21.999v6.616h-1.941V13.177h5.381c1.456,0,2.583,0.396,3.385,1.189
		c0.801,0.793,1.202,1.867,1.202,3.219c0,1.354-0.4,2.426-1.202,3.221c-0.802,0.793-1.93,1.19-3.385,1.19L14.153,21.999
		L14.153,21.999z M17.704,20.146c0.794,0,1.404-0.221,1.83-0.662c0.426-0.44,0.64-1.072,0.64-1.896c0-0.822-0.213-1.455-0.64-1.896
		c-0.427-0.441-1.036-0.661-1.83-0.661h-3.551v5.116L17.704,20.146L17.704,20.146z"/>
	<path fill="#41C363" d="M26.746,13.177h1.853l5.337,15.438h-1.94l-1.367-4.125h-5.911l-1.367,4.125H21.41L26.746,13.177z
		 M30.01,22.639l-2.338-6.948l-2.337,6.948H30.01z"/>
	<path fill="#41C363" d="M39.912,21.337h-2.315v7.276h-1.941V13.177h5.139c0.676,0,1.293,0.092,1.853,0.273
		c0.559,0.186,1.037,0.449,1.434,0.794c0.397,0.346,0.706,0.772,0.926,1.279c0.22,0.507,0.331,1.085,0.331,1.731
		c0,1.073-0.283,1.946-0.849,2.624c-0.566,0.677-1.358,1.12-2.372,1.325l4.609,7.409h-2.294L39.912,21.337z M37.597,15.03v4.454
		h3.242c0.809,0,1.426-0.176,1.853-0.529c0.426-0.353,0.64-0.918,0.64-1.697c0-0.779-0.213-1.346-0.64-1.698
		c-0.427-0.352-1.044-0.529-1.853-0.529L37.597,15.03L37.597,15.03z"/>
	<path fill="#41C363" d="M47.234,13.177h10.851v1.853H53.63v13.585h-1.941V15.03h-4.455V13.177z"/>
	<path fill="#41C363" d="M71.339,13.177v15.438h-2.271l-6.969-12.284v12.284h-1.941V13.177h2.271l6.969,12.283V13.177H71.339z"/>
	<path fill="#41C363" d="M83.402,13.177v1.853h-6.925v4.433h5.602v1.853h-5.602v5.448h7.146v1.852h-9.086V13.177H83.402z"/>
	<path fill="#41C363" d="M90.239,21.337h-2.316v7.276h-1.941V13.177h5.138c0.678,0,1.295,0.092,1.854,0.273
		c0.559,0.185,1.037,0.449,1.434,0.794c0.396,0.346,0.705,0.772,0.926,1.279s0.332,1.085,0.332,1.731
		c0,1.073-0.283,1.946-0.85,2.624s-1.358,1.12-2.372,1.325l4.609,7.409H94.76L90.239,21.337z M87.923,15.03v4.454h3.242
		c0.809,0,1.426-0.176,1.854-0.529c0.426-0.353,0.639-0.918,0.639-1.697c0-0.779-0.213-1.346-0.639-1.698
		c-0.428-0.353-1.045-0.529-1.854-0.529L87.923,15.03L87.923,15.03z"/>
	<path fill="#FFFFFF" d="M115.468,24.115c-0.177,0.678-0.438,1.303-0.782,1.875c-0.346,0.574-0.775,1.066-1.291,1.479
		c-0.515,0.414-1.103,0.734-1.764,0.971c-0.662,0.234-1.396,0.354-2.206,0.354c-0.896,0-1.764-0.164-2.602-0.496
		c-0.839-0.328-1.581-0.82-2.228-1.479c-0.647-0.652-1.166-1.475-1.556-2.459c-0.392-0.983-0.585-2.139-0.585-3.461
		c0-1.323,0.193-2.478,0.585-3.463c0.39-0.984,0.907-1.805,1.556-2.459c0.646-0.654,1.389-1.146,2.228-1.478
		c0.838-0.331,1.704-0.496,2.602-0.496c0.81,0,1.544,0.118,2.206,0.353c0.661,0.236,1.249,0.56,1.764,0.971
		c0.516,0.412,0.945,0.904,1.291,1.479c0.346,0.573,0.605,1.198,0.782,1.874l-1.874,0.553c-0.354-1.088-0.883-1.923-1.588-2.504
		c-0.706-0.58-1.566-0.871-2.581-0.871c-0.705,0-1.362,0.129-1.974,0.387c-0.61,0.257-1.137,0.641-1.577,1.146
		c-0.44,0.507-0.786,1.135-1.036,1.885s-0.375,1.625-0.375,2.625c0,1,0.125,1.875,0.375,2.625c0.25,0.748,0.596,1.377,1.036,1.885
		s0.967,0.891,1.577,1.146c0.609,0.258,1.269,0.387,1.974,0.387c1.015,0,1.875-0.291,2.581-0.871
		c0.705-0.582,1.234-1.416,1.588-2.504L115.468,24.115z"/>
	<path fill="#FFFFFF" d="M124.377,13c0.928,0,1.805,0.169,2.637,0.507c0.828,0.339,1.564,0.842,2.203,1.512
		c0.641,0.668,1.148,1.496,1.521,2.48c0.375,0.985,0.563,2.117,0.563,3.396c0,1.279-0.188,2.412-0.563,3.396
		c-0.373,0.984-0.883,1.813-1.521,2.48c-0.639,0.67-1.375,1.172-2.203,1.512c-0.832,0.338-1.709,0.506-2.637,0.506
		c-0.926,0-1.805-0.168-2.635-0.506c-0.832-0.34-1.566-0.842-2.207-1.512c-0.641-0.668-1.146-1.496-1.521-2.48
		s-0.563-2.117-0.563-3.396c0-1.279,0.188-2.411,0.563-3.396c0.375-0.984,0.883-1.813,1.521-2.48
		c0.641-0.67,1.375-1.173,2.207-1.512C122.573,13.169,123.452,13,124.377,13z M124.377,14.853c-0.691,0-1.334,0.125-1.93,0.375
		c-0.598,0.25-1.113,0.629-1.557,1.136c-0.441,0.507-0.789,1.136-1.048,1.886c-0.258,0.75-0.387,1.632-0.387,2.646
		c0,1.014,0.129,1.896,0.387,2.646c0.259,0.75,0.605,1.379,1.048,1.886c0.44,0.508,0.959,0.887,1.557,1.137
		c0.596,0.25,1.236,0.375,1.93,0.375c0.678,0,1.314-0.125,1.918-0.375s1.125-0.629,1.564-1.137c0.44-0.507,0.791-1.136,1.049-1.886
		s0.387-1.634,0.387-2.646c0-1.015-0.129-1.896-0.387-2.646s-0.605-1.379-1.049-1.886c-0.439-0.507-0.963-0.886-1.564-1.136
		C125.691,14.978,125.055,14.853,124.377,14.853z"/>
	<path fill="#FFFFFF" d="M144.909,13.177v15.438h-2.271l-6.971-12.284v12.284h-1.939V13.177H136l6.969,12.283V13.177H144.909z"/>
	<path fill="#FFFFFF" d="M159.29,13.177v15.438h-2.271l-6.97-12.284v12.284h-1.94V13.177h2.271l6.971,12.283V13.177H159.29z"/>
	<path fill="#FFFFFF" d="M171.354,13.177v1.853h-6.926v4.433h5.603v1.853h-5.603v5.448h7.146v1.852h-9.088V13.177H171.354z"/>
	<path fill="#FFFFFF" d="M186.26,24.115c-0.176,0.678-0.438,1.303-0.781,1.875c-0.346,0.574-0.774,1.066-1.291,1.479
		c-0.516,0.414-1.104,0.734-1.764,0.971c-0.662,0.234-1.396,0.354-2.207,0.354c-0.895,0-1.764-0.164-2.602-0.496
		c-0.84-0.328-1.58-0.82-2.229-1.479c-0.646-0.652-1.166-1.475-1.556-2.459c-0.392-0.983-0.584-2.139-0.584-3.461
		c0-1.323,0.192-2.478,0.584-3.463c0.39-0.984,0.908-1.805,1.556-2.459c0.646-0.654,1.389-1.146,2.229-1.478
		c0.838-0.331,1.705-0.496,2.602-0.496c0.811,0,1.545,0.118,2.207,0.353c0.66,0.236,1.248,0.56,1.764,0.971
		c0.517,0.412,0.945,0.904,1.291,1.479c0.347,0.573,0.605,1.198,0.781,1.874l-1.873,0.553c-0.354-1.088-0.883-1.923-1.588-2.504
		c-0.707-0.58-1.566-0.871-2.582-0.871c-0.703,0-1.361,0.129-1.973,0.387c-0.611,0.257-1.137,0.641-1.578,1.146
		c-0.439,0.507-0.785,1.135-1.035,1.885s-0.375,1.625-0.375,2.625c0,1,0.125,1.875,0.375,2.625c0.25,0.748,0.596,1.377,1.035,1.885
		c0.441,0.508,0.967,0.891,1.578,1.146c0.609,0.258,1.27,0.387,1.973,0.387c1.016,0,1.875-0.291,2.582-0.871
		c0.705-0.582,1.234-1.416,1.588-2.504L186.26,24.115z"/>
	<path fill="#FFFFFF" d="M187.407,13.177h10.852v1.853h-4.454v13.585h-1.94V15.03h-4.454v-1.853H187.407z"/>
</g>
<g>
	<path fill="#FFFFFF" d="M156.168,42.408l3.299-8.59h1.225l3.517,8.59h-1.295l-1.002-2.602h-3.593l-0.942,2.602H156.168z
		 M158.646,38.88h2.912l-0.896-2.379c-0.273-0.724-0.479-1.315-0.609-1.78c-0.109,0.551-0.264,1.098-0.463,1.641L158.646,38.88z"/>
	<path fill="#FFFFFF" d="M165.116,42.408v-8.59h2.959c0.668,0,1.178,0.041,1.528,0.123c0.491,0.113,0.912,0.318,1.261,0.615
		c0.452,0.383,0.791,0.871,1.016,1.467c0.226,0.597,0.338,1.277,0.338,2.043c0,0.652-0.075,1.229-0.229,1.734
		c-0.154,0.504-0.349,0.92-0.587,1.25c-0.237,0.329-0.5,0.59-0.782,0.778c-0.283,0.188-0.625,0.333-1.024,0.433
		c-0.4,0.098-0.859,0.145-1.38,0.145h-3.1V42.408z M166.252,41.395h1.834c0.564,0,1.012-0.053,1.332-0.158
		c0.322-0.104,0.58-0.254,0.771-0.444c0.27-0.271,0.479-0.634,0.629-1.087c0.151-0.455,0.227-1.008,0.227-1.654
		c0-0.898-0.146-1.59-0.441-2.07c-0.295-0.482-0.651-0.807-1.074-0.971c-0.305-0.117-0.795-0.177-1.471-0.177h-1.807V41.395
		L166.252,41.395z"/>
	<path fill="#FFFFFF" d="M173.747,42.408v-8.59h1.711l2.033,6.082c0.188,0.566,0.323,0.99,0.409,1.271
		c0.099-0.313,0.25-0.771,0.457-1.377l2.058-5.978h1.528v8.59h-1.096v-7.188l-2.496,7.188h-1.024l-2.484-7.313v7.313h-1.096V42.408z
		"/>
	<path fill="#FFFFFF" d="M183.971,42.408v-8.59h1.137v8.59H183.971z"/>
	<path fill="#FFFFFF" d="M187.1,42.408v-8.59h1.166l4.512,6.744v-6.744h1.091v8.59h-1.166l-4.513-6.75v6.75H187.1z"/>
</g>
<text transform="matrix(1 0 0 1 100.6465 28.2754)" font-family="'ApercuPro-Regular'" font-size="22.0539"> </text>
<polygon fill="#FFFFFF" points="5.392,12.939 0.126,28.171 2.069,28.171 7.249,12.939 "/>
</svg>
