<svg id="Layer_1" data-name="Layer 1" xmlns="http://www.w3.org/2000/svg" width="17.69921" height="23.5" viewBox="0 0 17.69921 23.5"><defs><style>.cls-1{fill:none;stroke:#fff;stroke-miterlimit:10;stroke-width:1.5px;}</style></defs><title>map-icon</title><path class="cls-1" d="M8.1132,12.056a4.20686,4.20686,0,1,1,4.20728-4.20644v0A4.21124,4.21124,0,0,1,8.1132,12.056Z" transform="translate(0.7364 1)"/><path class="cls-1" d="M8.1132-.25A8.10876,8.10876,0,0,0,.01368,7.84951,7.90975,7.90975,0,0,0,.7219,11.1562,51.089,51.089,0,0,0,7.77127,21.5929a.45215.45215,0,0,0,.34193.1571.44619.44619,0,0,0,.34109-.1571A51.11543,51.11543,0,0,0,15.5045,11.1562a7.89681,7.89681,0,0,0,.70822-3.30669A8.1093,8.1093,0,0,0,8.1132-.25Z" transform="translate(0.7364 1)"/><path class="cls-1" d="M9.70941,20.07817a46.70374,46.70374,0,0,0,5.79425-8.922,7.89694,7.89694,0,0,0,.70821-3.30668" transform="translate(0.7364 1)"/></svg>