<?xml version="1.0" encoding="utf-8"?>
<!-- Generator: Adobe Illustrator 16.0.3, SVG Export Plug-In . SVG Version: 6.00 Build 0)  -->
<!DOCTYPE svg PUBLIC "-//W3C//DTD SVG 1.1//EN" "http://www.w3.org/Graphics/SVG/1.1/DTD/svg11.dtd">
<svg version="1.1" id="Layer_1" xmlns="http://www.w3.org/2000/svg" xmlns:xlink="http://www.w3.org/1999/xlink" x="0px" y="0px"
	 width="36px" height="36px" viewBox="0 0 36 36" enable-background="new 0 0 36 36" xml:space="preserve">
<g>
	<path fill-rule="evenodd" clip-rule="evenodd" d="M29.165,25.69c-1.385,0-2.743,0-4.103,0c-3.929,0-7.857,0.002-11.786-0.007
		c-0.299-0.001-0.503,0.088-0.702,0.31c-1.884,2.104-3.778,4.198-5.671,6.294c-0.347,0.384-0.727,0.491-0.999,0.212
		c-0.167-0.172-0.278-0.471-0.28-0.714c-0.023-1.85-0.013-3.699-0.013-5.549c0-0.156,0-0.313,0-0.532c-1.863,0-3.701,0-5.56,0
		c0-7.639,0-15.215,0-22.814c9.708,0,19.395,0,29.113,0C29.165,10.47,29.165,18.045,29.165,25.69z M27.812,4.268
		c-8.829,0-17.606,0-26.375,0c0,6.709,0,13.381,0,20.092c0.188,0,0.343,0,0.499,0c1.376,0,2.752-0.002,4.129,0.001
		c0.689,0.001,0.918,0.235,0.918,0.936c0.002,1.463,0,2.925,0.001,4.387c0,0.127,0,0.255,0,0.492
		c1.661-1.839,3.236-3.564,4.784-5.313c0.326-0.368,0.67-0.512,1.154-0.51c4.774,0.013,9.548,0.008,14.321,0.008
		c0.183,0,0.364,0,0.569,0C27.812,17.631,27.812,10.958,27.812,4.268z"/>
	<path fill-rule="evenodd" clip-rule="evenodd" d="M21.531,28.521c0.479,0,0.892,0,1.306,0c2.121,0,4.242-0.012,6.363,0.015
		c0.266,0.003,0.59,0.141,0.782,0.325c0.67,0.642,1.293,1.331,2.045,1.977c0-0.477,0-0.952,0-1.428
		c0.001-0.674,0.219-0.888,0.903-0.89c0.6,0,1.199,0,1.829,0c0-3.492,0-6.951,0-10.465c-0.732,0-1.459,0-2.186,0
		c-0.415,0-0.832,0.012-1.247-0.004c-0.43-0.017-0.666-0.244-0.677-0.616c-0.012-0.395,0.226-0.678,0.659-0.683
		c1.376-0.017,2.752-0.017,4.128,0c0.482,0.005,0.709,0.294,0.711,0.833c0.004,1.232,0.001,2.465,0.001,3.698
		c0,2.552,0,5.103-0.001,7.653c0,0.697-0.224,0.919-0.93,0.924c-0.473,0.004-0.948,0.027-1.418-0.007
		c-0.399-0.029-0.483,0.131-0.471,0.493c0.024,0.73-0.002,1.463,0.011,2.192c0.006,0.353-0.1,0.624-0.44,0.753
		c-0.329,0.124-0.574-0.036-0.793-0.269c-0.902-0.961-1.798-1.929-2.721-2.869c-0.156-0.159-0.435-0.277-0.658-0.279
		c-2.508-0.02-5.017-0.013-7.524-0.014c-0.811,0-0.986-0.174-0.986-0.977c0-0.572-0.008-1.146,0.005-1.719
		c0.011-0.443,0.294-0.728,0.681-0.712c0.369,0.014,0.622,0.301,0.627,0.722C21.534,27.601,21.531,28.028,21.531,28.521z"/>
	<path fill-rule="evenodd" clip-rule="evenodd" d="M14.949,13.275c2.564,0,5.128,0,7.692,0c0.129,0,0.277-0.03,0.381,0.022
		c0.107,0.055,0.237,0.194,0.237,0.296c0,0.101-0.132,0.232-0.239,0.294c-0.087,0.051-0.223,0.026-0.336,0.026
		c-5.115,0-10.229,0.002-15.342-0.003c-0.266,0-0.668,0.104-0.667-0.319c0.001-0.426,0.402-0.313,0.668-0.313
		C9.878,13.273,12.413,13.275,14.949,13.275z"/>
	<path fill-rule="evenodd" clip-rule="evenodd" d="M14.99,10.513c2.535,0,5.07,0,7.605,0c0.129,0,0.275-0.035,0.381,0.015
		c0.12,0.056,0.283,0.194,0.279,0.291c-0.004,0.108-0.157,0.238-0.276,0.306c-0.087,0.049-0.223,0.017-0.338,0.017
		c-5.113,0-10.226,0-15.338,0c-0.071,0-0.159,0.026-0.212-0.006c-0.152-0.091-0.291-0.206-0.435-0.312
		c0.143-0.104,0.283-0.292,0.429-0.297c0.887-0.028,1.775-0.015,2.664-0.015C11.496,10.512,13.243,10.513,14.99,10.513z"/>
	<path fill-rule="evenodd" clip-rule="evenodd" d="M14.963,16.648c-2.509,0-5.018,0-7.527,0c-0.057,0-0.115,0.002-0.171,0
		c-0.246-0.012-0.603,0.07-0.586-0.305c0.016-0.34,0.36-0.297,0.616-0.297c1.577-0.001,3.154-0.001,4.731-0.001
		c3.542,0,7.083,0.001,10.625,0.001c0.086,0,0.196-0.033,0.253,0.008c0.13,0.096,0.233,0.228,0.349,0.344
		c-0.125,0.083-0.248,0.235-0.374,0.238c-0.859,0.022-1.72,0.013-2.58,0.013C18.519,16.649,16.741,16.649,14.963,16.648z"/>
</g>
</svg>
