<?xml version="1.0" encoding="utf-8"?>
<!-- Generator: Adobe Illustrator 16.0.3, SVG Export Plug-In . SVG Version: 6.00 Build 0)  -->
<!DOCTYPE svg PUBLIC "-//W3C//DTD SVG 1.1//EN" "http://www.w3.org/Graphics/SVG/1.1/DTD/svg11.dtd">
<svg version="1.1" id="Layer_1" xmlns="http://www.w3.org/2000/svg" xmlns:xlink="http://www.w3.org/1999/xlink" x="0px" y="0px"
	 width="315.183px" height="68px" viewBox="0 0 315.183 68" enable-background="new 0 0 315.183 68" xml:space="preserve">
<g>
	<g>
		<path fill="none" stroke="#FFFFFF" stroke-width="1.5" d="M12.621,26.559c-1.753,0.006-3.506,0.01-5.26,0.017
			c-0.73,0.006-0.882-0.146-0.94-0.87c-0.2-2.403,0.187-4.715,1.244-6.881c2.046-4.182,5.364-6.794,9.952-7.614
			c2.798-0.498,5.532-0.137,7.938,0.938"/>
		<path fill="none" stroke="#FFFFFF" stroke-width="1.5" d="M20.517,29.174c-1.439-0.032-2.621-0.804-3.171-2.13
			c-0.625-1.5-0.991-3.079-1.297-4.669c-0.215-1.113-0.386-2.236-0.562-3.354c-0.025-0.171-0.011-0.369,0.047-0.533
			c0.101-0.29,0.456-0.438,0.757-0.341c0.133,0.044,0.265,0.109,0.377,0.192c1.942,1.431,3.843,2.914,5.551,4.627
			c0.293,0.292,0.567,0.608,0.845,0.919c1.575,1.761,0.727,4.457-1.596,5.122C21.159,29.091,20.833,29.12,20.517,29.174z"/>
		<path fill="none" stroke="#41C363" stroke-width="1.5" d="M25.479,12.113c2.834,1.246,5.224,3.476,6.724,6.454
			c1.114,2.21,1.563,4.563,1.372,7.037c-0.01,0.111-0.01,0.223-0.018,0.334c-0.029,0.371-0.273,0.632-0.646,0.632
			c-1.914,0.001-3.229-0.005-5.145-0.015"/>
	</g>
</g>
<g>
	<g>
		<path fill="none" stroke="#FFFFFF" stroke-width="1.5" d="M12.621,57.141c-1.753,0.006-3.506,0.01-5.26,0.018
			c-0.73,0.007-0.882-0.146-0.94-0.869c-0.2-2.402,0.187-4.719,1.244-6.885c2.046-4.182,5.364-6.795,9.952-7.611
			c2.798-0.498,5.532-0.139,7.938,0.938"/>
		<path fill="none" stroke="#FFFFFF" stroke-width="1.5" d="M20.517,59.754c-1.439-0.031-2.621-0.804-3.171-2.13
			c-0.625-1.5-0.991-3.079-1.297-4.67c-0.215-1.113-0.386-2.236-0.562-3.354c-0.025-0.172-0.011-0.369,0.047-0.533
			c0.101-0.289,0.456-0.438,0.757-0.342c0.133,0.045,0.265,0.109,0.377,0.192c1.942,1.431,3.843,2.914,5.551,4.627
			c0.293,0.293,0.567,0.608,0.845,0.921c1.575,1.76,0.727,4.456-1.596,5.121C21.159,59.671,20.833,59.699,20.517,59.754z"/>
		<path fill="none" stroke="#000000" stroke-width="1.5" d="M25.479,42.691c2.834,1.246,5.224,3.478,6.724,6.455
			c1.114,2.209,1.563,4.563,1.372,7.035c-0.01,0.109-0.01,0.225-0.018,0.334c-0.029,0.37-0.273,0.633-0.646,0.633
			c-1.914,0.002-3.229-0.004-5.145-0.017"/>
	</g>
</g>
<rect x="60.007" y="21.883" fill="none" stroke="#FFFFFF" stroke-width="1.5" stroke-miterlimit="10" width="4.79" height="7.565"/>
<rect x="56.014" y="9.149" fill="none" stroke="#FFFFFF" stroke-width="1.5" stroke-miterlimit="10" width="12.776" height="20.299"/>
<polyline fill="none" stroke="#FFFFFF" stroke-width="1.5" stroke-miterlimit="10" points="72.858,29.448 68.791,29.448 
	68.791,16.885 79.284,16.885 79.284,20.754 "/>
<polyline fill="none" stroke="#41C363" stroke-width="1.5" stroke-miterlimit="10" points="79.284,20.689 79.284,29.448 
	72.838,29.448 "/>
<line fill="none" stroke="#41C363" stroke-width="1.5" stroke-miterlimit="10" x1="64.761" y1="13.366" x2="60.011" y2="13.366"/>
<line fill="none" stroke="#FFFFFF" stroke-width="1.5" stroke-miterlimit="10" x1="64.761" y1="17.723" x2="60.011" y2="17.723"/>
<line fill="none" stroke="#FFFFFF" stroke-width="1.5" stroke-miterlimit="10" x1="75.798" y1="21.331" x2="72.214" y2="21.331"/>
<line fill="none" stroke="#FFFFFF" stroke-width="1.5" stroke-miterlimit="10" x1="75.798" y1="25.687" x2="72.214" y2="25.687"/>
<rect x="60.007" y="51.883" fill="none" stroke="#FFFFFF" stroke-width="1.5" stroke-miterlimit="10" width="4.79" height="7.565"/>
<rect x="56.014" y="39.148" fill="none" stroke="#FFFFFF" stroke-width="1.5" stroke-miterlimit="10" width="12.776" height="20.3"/>
<polyline fill="none" stroke="#FFFFFF" stroke-width="1.5" stroke-miterlimit="10" points="72.858,59.448 68.791,59.448 
	68.791,46.885 79.284,46.885 79.284,50.754 "/>
<polyline fill="none" stroke="#000000" stroke-width="1.5" stroke-miterlimit="10" points="79.284,50.689 79.284,59.448 
	72.838,59.448 "/>
<line fill="none" stroke="#000000" stroke-width="1.5" stroke-miterlimit="10" x1="64.761" y1="43.366" x2="60.011" y2="43.366"/>
<line fill="none" stroke="#FFFFFF" stroke-width="1.5" stroke-miterlimit="10" x1="64.761" y1="47.723" x2="60.011" y2="47.723"/>
<line fill="none" stroke="#FFFFFF" stroke-width="1.5" stroke-miterlimit="10" x1="75.798" y1="51.331" x2="72.214" y2="51.331"/>
<line fill="none" stroke="#FFFFFF" stroke-width="1.5" stroke-miterlimit="10" x1="75.798" y1="55.688" x2="72.214" y2="55.688"/>
<g>
	
		<line fill="none" stroke="#FFFFFF" stroke-width="1.5" stroke-miterlimit="10" x1="110.478" y1="27.822" x2="110.478" y2="30.099"/>
	<line fill="none" stroke="#FFFFFF" stroke-width="1.5" stroke-miterlimit="10" x1="108.499" y1="27.86" x2="116.593" y2="27.86"/>
	<g>
		<path fill="none" stroke="#FFFFFF" stroke-width="1.5" stroke-miterlimit="10" d="M119.89,29.896
			c-0.302,0.148-0.642,0.232-0.999,0.232c-1.248,0-2.259-1.015-2.259-2.263c0-1.248,1.013-2.261,2.259-2.261c0.018,0,0.033,0,0.05,0
			"/>
	</g>
	
		<line fill="none" stroke="#FFFFFF" stroke-width="1.5" stroke-miterlimit="10" x1="113.994" y1="27.822" x2="113.994" y2="31.857"/>
	<g>
		<path fill="none" stroke="#41C363" stroke-width="1.5" stroke-miterlimit="10" d="M118.891,25.603
			c1.247,0,2.262,1.014,2.262,2.261c0,0.901-0.53,1.682-1.296,2.045"/>
	</g>
</g>
<g>
	<path fill="none" stroke="#FFFFFF" stroke-width="1.5" stroke-miterlimit="10" d="M113.943,25.66c0-0.172-0.009-0.341-0.023-0.509
		c-0.256-2.753-2.575-4.907-5.391-4.907"/>
	<circle fill="none" stroke="#FFFFFF" stroke-width="1.5" stroke-miterlimit="10" cx="108.531" cy="12.159" r="5.414"/>
	<path fill="none" stroke="#41C363" stroke-width="1.5" stroke-miterlimit="10" d="M108.531,20.244
		c-2.988,0-5.416,2.423-5.416,5.416"/>
	<path fill="none" stroke="#FFFFFF" stroke-width="1.5" stroke-miterlimit="10" d="M103.115,25.66v5.653h4.469"/>
	<path fill="none" stroke="#FFFFFF" stroke-width="1.5" stroke-miterlimit="10" d="M113.943,25.66"/>
	<path fill="none" stroke="#FFFFFF" stroke-width="1.5" stroke-miterlimit="10" d="M105.078,31.312"/>
</g>
<g>
	
		<line fill="none" stroke="#FFFFFF" stroke-width="1.5" stroke-miterlimit="10" x1="110.478" y1="58.221" x2="110.478" y2="60.496"/>
	
		<line fill="none" stroke="#FFFFFF" stroke-width="1.5" stroke-miterlimit="10" x1="108.499" y1="58.258" x2="116.593" y2="58.258"/>
	<g>
		<path fill="none" stroke="#FFFFFF" stroke-width="1.5" stroke-miterlimit="10" d="M119.888,60.294
			c-0.302,0.147-0.64,0.231-0.997,0.231c-1.248,0-2.259-1.015-2.259-2.262c0-1.248,1.013-2.261,2.259-2.261c0.018,0,0.033,0,0.05,0"
			/>
	</g>
	
		<line fill="none" stroke="#FFFFFF" stroke-width="1.5" stroke-miterlimit="10" x1="113.994" y1="58.221" x2="113.994" y2="62.255"/>
	<g>
		<path fill="none" stroke="#000000" stroke-width="1.5" stroke-miterlimit="10" d="M118.891,56.001
			c1.247,0,2.262,1.015,2.262,2.261c0,0.902-0.53,1.684-1.296,2.047"/>
	</g>
</g>
<g>
	<path fill="none" stroke="#FFFFFF" stroke-width="1.5" stroke-miterlimit="10" d="M113.943,56.059c0-0.173-0.009-0.343-0.023-0.51
		c-0.256-2.754-2.575-4.906-5.391-4.906"/>
	<circle fill="none" stroke="#FFFFFF" stroke-width="1.5" stroke-miterlimit="10" cx="108.531" cy="42.558" r="5.415"/>
	<path fill="none" stroke="#000000" stroke-width="1.5" stroke-miterlimit="10" d="M108.531,50.643
		c-2.988,0-5.416,2.422-5.416,5.416"/>
	<path fill="none" stroke="#FFFFFF" stroke-width="1.5" stroke-miterlimit="10" d="M103.115,56.059v5.652h4.469"/>
	<path fill="none" stroke="#FFFFFF" stroke-width="1.5" stroke-miterlimit="10" d="M113.943,56.059"/>
	<path fill="none" stroke="#FFFFFF" stroke-width="1.5" stroke-miterlimit="10" d="M105.078,61.711"/>
</g>
<g>
	<path fill="none" stroke="#FFFFFF" stroke-width="1.5" stroke-miterlimit="10" d="M150.378,25.31c0-2.941-2.384-5.323-5.319-5.323"
		/>
	<circle fill="none" stroke="#FFFFFF" stroke-width="1.5" stroke-miterlimit="10" cx="145.061" cy="12.041" r="5.321"/>
	<path fill="none" stroke="#41C363" stroke-width="1.5" stroke-miterlimit="10" d="M145.061,19.987
		c-2.938,0-5.323,2.382-5.323,5.323"/>
	<path fill="none" stroke="#FFFFFF" stroke-width="1.5" stroke-miterlimit="10" d="M139.739,25.31v5.556h8.712"/>
	<path fill="none" stroke="#FFFFFF" stroke-width="1.5" stroke-miterlimit="10" d="M141.666,30.865h8.712V25.31"/>
</g>
<g>
	<path fill="none" stroke="#000000" stroke-width="1.5" stroke-miterlimit="10" d="M150.378,55.645c0-2.942-2.384-5.324-5.319-5.324
		"/>
	<circle fill="none" stroke="#000000" stroke-width="1.5" stroke-miterlimit="10" cx="145.061" cy="42.375" r="5.32"/>
	<path fill="none" stroke="#FFFFFF" stroke-width="1.5" stroke-miterlimit="10" d="M145.061,50.32c-2.938,0-5.323,2.381-5.323,5.322
		"/>
	<path fill="none" stroke="#000000" stroke-width="1.5" stroke-miterlimit="10" d="M139.739,55.645V61.2h8.712"/>
	<path fill="none" stroke="#000000" stroke-width="1.5" stroke-miterlimit="10" d="M141.666,61.199h8.712v-5.557"/>
</g>
<g>
	<path fill="none" stroke="#FFFFFF" stroke-width="1.5" stroke-miterlimit="10" d="M188.072,18.516c0,0.066,0,0.133,0,0.2
		c-0.096,4.628-1.758,8.591-5.053,11.861"/>
	<path fill="none" stroke="#FFFFFF" stroke-width="1.5" stroke-miterlimit="10" d="M179.176,10.555
		c0.447,0.479,0.911,0.949,1.305,1.471c1.279,1.702,1.996,3.632,2.193,5.751c0.029,0.309,0.006,0.623,0.006,0.934
		c-0.037,3.163-1.18,5.866-3.447,8.083"/>
	<path fill="none" stroke="#FFFFFF" stroke-width="1.5" stroke-miterlimit="10" d="M175.395,14.313
		c0.492,0.43,0.895,0.936,1.211,1.506c0.5,0.896,0.773,1.853,0.768,3.291c-0.037,1.289-0.664,2.727-1.896,3.896"/>
	<path fill="none" stroke="#41C363" stroke-width="1.5" stroke-miterlimit="10" d="M182.982,6.788
		c0.422,0.437,0.853,0.868,1.238,1.334c1.83,2.205,3.014,4.721,3.559,7.534c0.197,1.008,0.298,2.027,0.293,3.06"/>
</g>
<path fill="none" stroke="#41C363" stroke-width="1.5" stroke-miterlimit="10" d="M170.174,16.499
	c0.934,0.338,1.605,1.238,1.626,2.145c0.021,0.951-0.637,1.886-1.593,2.24"/>
<path fill="none" stroke="#FFFFFF" stroke-width="1.5" stroke-miterlimit="10" d="M169.943,29.459c0-2.922,0-7.844,0-10.766
	c0-2.889,0-7.778,0-10.668"/>
<g>
	<path fill="none" stroke="#FFFFFF" stroke-width="1.5" stroke-miterlimit="10" d="M188.072,48.516c0,0.066,0,0.133,0,0.2
		c-0.096,4.628-1.758,8.591-5.053,11.86"/>
	<path fill="none" stroke="#FFFFFF" stroke-width="1.5" stroke-miterlimit="10" d="M179.176,40.555
		c0.447,0.479,0.911,0.949,1.305,1.473c1.279,1.701,1.996,3.632,2.193,5.75c0.029,0.31,0.006,0.623,0.006,0.935
		c-0.037,3.164-1.18,5.867-3.447,8.084"/>
	<path fill="none" stroke="#FFFFFF" stroke-width="1.5" stroke-miterlimit="10" d="M175.395,44.313
		c0.492,0.432,0.895,0.938,1.211,1.508c0.5,0.895,0.773,1.852,0.768,3.291c-0.037,1.287-0.664,2.727-1.896,3.896"/>
	<path fill="none" stroke="#000000" stroke-width="1.5" stroke-miterlimit="10" d="M182.982,36.788
		c0.422,0.437,0.853,0.868,1.238,1.335c1.83,2.205,3.014,4.721,3.559,7.533c0.197,1.008,0.298,2.027,0.293,3.06"/>
</g>
<path fill="none" stroke="#000000" stroke-width="1.5" stroke-miterlimit="10" d="M170.174,46.498
	c0.934,0.338,1.605,1.238,1.626,2.146c0.021,0.951-0.637,1.885-1.593,2.239"/>
<path fill="none" stroke="#FFFFFF" stroke-width="1.5" stroke-miterlimit="10" d="M169.943,59.459c0-2.922,0-7.844,0-10.766
	c0-2.889,0-7.778,0-10.668"/>
<polyline fill="none" stroke="#41C363" stroke-width="1.5" stroke-linecap="round" stroke-linejoin="round" stroke-miterlimit="10" points="
	214.718,21.963 214.074,21.963 214.074,15.573 218.014,15.573 "/>
<polyline fill="none" stroke="#FFFFFF" stroke-width="1.5" stroke-linecap="round" stroke-linejoin="round" stroke-miterlimit="10" points="
	219.378,15.573 220.463,15.573 220.463,21.963 217.27,21.963 "/>
<line fill="none" stroke="#41C363" stroke-width="1.5" stroke-linecap="round" stroke-linejoin="round" stroke-miterlimit="10" x1="229.459" y1="24.234" x2="224.402" y2="24.234"/>
<line fill="none" stroke="#FFFFFF" stroke-width="1.5" stroke-linecap="round" stroke-linejoin="round" stroke-miterlimit="10" x1="224.402" y1="13.303" x2="229.459" y2="13.303"/>
<line fill="none" stroke="#FFFFFF" stroke-width="1.5" stroke-linecap="round" stroke-linejoin="round" stroke-miterlimit="10" x1="224.402" y1="18.769" x2="229.459" y2="18.769"/>
<line fill="none" stroke="#FFFFFF" stroke-width="1.5" stroke-linecap="round" stroke-linejoin="round" stroke-miterlimit="10" x1="210.135" y1="24.234" x2="205.078" y2="24.234"/>
<line fill="none" stroke="#FFFFFF" stroke-width="1.5" stroke-linecap="round" stroke-linejoin="round" stroke-miterlimit="10" x1="205.078" y1="13.303" x2="210.135" y2="13.303"/>
<line fill="none" stroke="#FFFFFF" stroke-width="1.5" stroke-linecap="round" stroke-linejoin="round" stroke-miterlimit="10" x1="205.078" y1="18.769" x2="210.135" y2="18.769"/>
<line fill="none" stroke="#FFFFFF" stroke-width="1.5" stroke-linecap="round" stroke-linejoin="round" stroke-miterlimit="10" x1="222.734" y1="6.578" x2="222.734" y2="11.635"/>
<line fill="none" stroke="#FFFFFF" stroke-width="1.5" stroke-linecap="round" stroke-linejoin="round" stroke-miterlimit="10" x1="211.805" y1="11.635" x2="211.805" y2="6.578"/>
<line fill="none" stroke="#FFFFFF" stroke-width="1.5" stroke-linecap="round" stroke-linejoin="round" stroke-miterlimit="10" x1="217.27" y1="11.635" x2="217.27" y2="6.578"/>
<line fill="none" stroke="#FFFFFF" stroke-width="1.5" stroke-linecap="round" stroke-linejoin="round" stroke-miterlimit="10" x1="222.734" y1="25.902" x2="222.734" y2="30.96"/>
<line fill="none" stroke="#FFFFFF" stroke-width="1.5" stroke-linecap="round" stroke-linejoin="round" stroke-miterlimit="10" x1="211.805" y1="30.96" x2="211.805" y2="25.902"/>
<line fill="none" stroke="#FFFFFF" stroke-width="1.5" stroke-linecap="round" stroke-linejoin="round" stroke-miterlimit="10" x1="217.27" y1="30.96" x2="217.27" y2="25.902"/>
<polyline fill="none" stroke="#FFFFFF" stroke-width="1.5" stroke-linecap="round" stroke-linejoin="round" stroke-miterlimit="10" points="
	223.496,27.349 208.689,27.349 208.689,10.188 225.85,10.188 225.85,19.383 "/>
<polyline fill="none" stroke="#41C363" stroke-width="1.5" stroke-linecap="square" stroke-linejoin="round" stroke-miterlimit="10" points="
	225.85,20.175 225.85,27.349 224.186,27.349 "/>
<polyline fill="none" stroke="#000000" stroke-width="1.5" stroke-linecap="round" stroke-linejoin="round" stroke-miterlimit="10" points="
	214.718,51.963 214.074,51.963 214.074,45.573 218.014,45.573 "/>
<polyline fill="none" stroke="#FFFFFF" stroke-width="1.5" stroke-linecap="round" stroke-linejoin="round" stroke-miterlimit="10" points="
	219.378,45.573 220.463,45.573 220.463,51.963 217.27,51.963 "/>
<line fill="none" stroke="#000000" stroke-width="1.5" stroke-linecap="round" stroke-linejoin="round" stroke-miterlimit="10" x1="229.459" y1="54.234" x2="224.402" y2="54.234"/>
<line fill="none" stroke="#FFFFFF" stroke-width="1.5" stroke-linecap="round" stroke-linejoin="round" stroke-miterlimit="10" x1="224.402" y1="43.303" x2="229.459" y2="43.303"/>
<line fill="none" stroke="#FFFFFF" stroke-width="1.5" stroke-linecap="round" stroke-linejoin="round" stroke-miterlimit="10" x1="224.402" y1="48.77" x2="229.459" y2="48.77"/>
<line fill="none" stroke="#FFFFFF" stroke-width="1.5" stroke-linecap="round" stroke-linejoin="round" stroke-miterlimit="10" x1="210.135" y1="54.234" x2="205.078" y2="54.234"/>
<line fill="none" stroke="#FFFFFF" stroke-width="1.5" stroke-linecap="round" stroke-linejoin="round" stroke-miterlimit="10" x1="205.078" y1="43.303" x2="210.135" y2="43.303"/>
<line fill="none" stroke="#FFFFFF" stroke-width="1.5" stroke-linecap="round" stroke-linejoin="round" stroke-miterlimit="10" x1="205.078" y1="48.77" x2="210.135" y2="48.77"/>
<line fill="none" stroke="#FFFFFF" stroke-width="1.5" stroke-linecap="round" stroke-linejoin="round" stroke-miterlimit="10" x1="222.734" y1="36.578" x2="222.734" y2="41.635"/>
<line fill="none" stroke="#FFFFFF" stroke-width="1.5" stroke-linecap="round" stroke-linejoin="round" stroke-miterlimit="10" x1="211.805" y1="41.635" x2="211.805" y2="36.578"/>
<line fill="none" stroke="#FFFFFF" stroke-width="1.5" stroke-linecap="round" stroke-linejoin="round" stroke-miterlimit="10" x1="217.27" y1="41.635" x2="217.27" y2="36.578"/>
<line fill="none" stroke="#FFFFFF" stroke-width="1.5" stroke-linecap="round" stroke-linejoin="round" stroke-miterlimit="10" x1="222.734" y1="55.902" x2="222.734" y2="60.96"/>
<line fill="none" stroke="#FFFFFF" stroke-width="1.5" stroke-linecap="round" stroke-linejoin="round" stroke-miterlimit="10" x1="211.805" y1="60.96" x2="211.805" y2="55.902"/>
<line fill="none" stroke="#FFFFFF" stroke-width="1.5" stroke-linecap="round" stroke-linejoin="round" stroke-miterlimit="10" x1="217.27" y1="60.96" x2="217.27" y2="55.902"/>
<polyline fill="none" stroke="#FFFFFF" stroke-width="1.5" stroke-linecap="round" stroke-linejoin="round" stroke-miterlimit="10" points="
	223.496,57.35 208.689,57.35 208.689,40.188 225.85,40.188 225.85,49.383 "/>
<polyline fill="none" stroke="#000000" stroke-width="1.5" stroke-linecap="square" stroke-linejoin="round" stroke-miterlimit="10" points="
	225.85,50.175 225.85,57.35 224.186,57.35 "/>
<g>
	<path fill="none" stroke="#FFFFFF" stroke-width="1.5" stroke-miterlimit="10" d="M258.871,29.433c-0.344,0-0.693,0-1.034,0
		c-1.444,0-4.438,0.002-5.882-0.001c-1.137-0.001-2.016-0.667-2.303-1.741c-0.055-0.213-0.08-0.442-0.08-0.664
		c-0.01-2.685-0.004-5.368-0.004-8.048c0-2.673-0.006-5.349,0-8.022c0.002-1.405,0.998-2.417,2.408-2.417
		c4.691-0.004,9.392,0.003,14.094-0.006c1.373-0.001,2.412,1.103,2.41,2.351c-0.019,2.319-0.002,6.96-0.008,9.28"/>
</g>
<g>
	<path fill="none" stroke="#FFFFFF" stroke-width="1.5" stroke-miterlimit="10" d="M254.266,12.976c-0.086,0-0.16,0.071-0.16,0.158
		v2.04c0,0.088,0.071,0.159,0.16,0.159h8.984c0.088,0,0.158-0.067,0.158-0.159v-2.04c0-0.089-0.07-0.158-0.158-0.158H254.266z"/>
</g>
<g>
	<g>
		<path fill="none" stroke="#41C363" stroke-width="1.5" stroke-miterlimit="10" d="M261.57,20.62
			c4.684,0.589,8.361,4.445,8.926,8.912"/>
	</g>
	<g>
		<path fill="none" stroke="#FFFFFF" stroke-width="1.5" stroke-miterlimit="10" d="M261.563,23.906
			c3.026,0.576,5.174,3.077,5.629,5.627"/>
	</g>
	<g>
		<path fill="#FFFFFF" d="M262.6,27.674c0.522,0.002,0.937,0.427,0.93,0.96c-0.006,0.513-0.424,0.919-0.949,0.917
			c-0.525-0.003-0.934-0.425-0.932-0.962C261.659,28.082,262.08,27.672,262.6,27.674z"/>
	</g>
</g>
<g>
	<path fill="none" stroke="#FFFFFF" stroke-width="1.5" stroke-miterlimit="10" d="M258.607,18.787h-5.127"/>
</g>
<g>
	<path fill="none" stroke="#FFFFFF" stroke-width="1.5" stroke-miterlimit="10" d="M258.607,22.06h-5.127"/>
</g>
<g>
	<path fill="none" stroke="#FFFFFF" stroke-width="1.5" stroke-miterlimit="10" d="M258.607,25.334h-5.127"/>
</g>
<g>
	<path fill="none" stroke="#41C363" stroke-width="1.5" stroke-miterlimit="10" d="M258.871,29.433c-0.344,0-0.693,0-1.034,0
		c-1.444,0-4.438,0.002-5.882-0.001c-1.137-0.001-2.016-0.667-2.303-1.741c-0.055-0.213-0.08-0.442-0.08-0.664
		c-0.01-2.685-0.004-5.368-0.004-8.048"/>
</g>
<g>
	<path fill="none" stroke="#FFFFFF" stroke-width="1.5" stroke-miterlimit="10" d="M258.871,59.818c-0.344,0-0.693,0-1.034,0
		c-1.444,0-4.438,0.002-5.882-0.002c-1.137,0-2.016-0.666-2.303-1.74c-0.055-0.213-0.08-0.441-0.08-0.664
		c-0.01-2.686-0.004-5.367-0.004-8.047c0-2.674-0.006-5.348,0-8.021c0.002-1.406,0.998-2.414,2.408-2.414
		c4.691-0.006,9.392,0.002,14.094-0.01c1.373-0.002,2.412,1.102,2.41,2.352c-0.019,2.318-0.002,6.961-0.008,9.279"/>
</g>
<g>
	<path fill="none" stroke="#FFFFFF" stroke-width="1.5" stroke-miterlimit="10" d="M254.266,43.361c-0.086,0-0.16,0.07-0.16,0.158
		v2.039c0,0.09,0.071,0.159,0.16,0.159h8.984c0.088,0,0.158-0.063,0.158-0.159V43.52c0-0.09-0.07-0.158-0.158-0.158H254.266
		L254.266,43.361z"/>
</g>
<g>
	<g>
		<path fill="none" stroke="#000000" stroke-width="1.5" stroke-miterlimit="10" d="M261.57,51.005
			c4.684,0.589,8.361,4.445,8.926,8.911"/>
	</g>
	<g>
		<path fill="none" stroke="#FFFFFF" stroke-width="1.5" stroke-miterlimit="10" d="M261.563,54.291
			c3.026,0.576,5.174,3.076,5.629,5.627"/>
	</g>
	<g>
		<path fill="#FFFFFF" d="M262.6,58.061c0.522,0,0.937,0.426,0.93,0.959c-0.006,0.514-0.424,0.914-0.949,0.912
			s-0.934-0.424-0.932-0.961C261.659,58.467,262.08,58.059,262.6,58.061z"/>
	</g>
</g>
<g>
	<path fill="none" stroke="#FFFFFF" stroke-width="1.5" stroke-miterlimit="10" d="M258.607,49.172h-5.127"/>
</g>
<g>
	<path fill="none" stroke="#FFFFFF" stroke-width="1.5" stroke-miterlimit="10" d="M258.607,52.445h-5.127"/>
</g>
<g>
	<path fill="none" stroke="#FFFFFF" stroke-width="1.5" stroke-miterlimit="10" d="M258.607,55.719h-5.127"/>
</g>
<g>
	<path fill="none" stroke="#000000" stroke-width="1.5" stroke-miterlimit="10" d="M258.871,59.818c-0.344,0-0.693,0-1.034,0
		c-1.444,0-4.438,0.002-5.882-0.002c-1.137,0-2.016-0.666-2.303-1.74c-0.055-0.213-0.08-0.441-0.08-0.664
		c-0.01-2.686-0.004-5.367-0.004-8.047"/>
</g>
<line fill="none" stroke="#FFFFFF" stroke-width="1.5" stroke-linecap="round" stroke-linejoin="round" stroke-miterlimit="10" x1="298.058" y1="16.712" x2="298.058" y2="21.278"/>
<circle fill="#FFFFFF" cx="298.058" cy="25.012" r="1.094"/>
<polyline fill="none" stroke="#FFFFFF" stroke-width="1.5" stroke-linecap="round" stroke-linejoin="round" stroke-miterlimit="10" points="
	297.23,10.137 298.058,8.647 309.365,29 291.968,29 "/>
<polyline fill="none" stroke="#41C363" stroke-width="1.5" stroke-linecap="round" stroke-linejoin="round" stroke-miterlimit="10" points="
	292.143,29 286.75,29 298.058,8.647 "/>
<line fill="none" stroke="#FFFFFF" stroke-width="1.5" stroke-linecap="round" stroke-linejoin="round" stroke-miterlimit="10" x1="298.058" y1="47.712" x2="298.058" y2="52.278"/>
<circle fill="#FFFFFF" cx="298.058" cy="56.012" r="1.094"/>
<polyline fill="none" stroke="#FFFFFF" stroke-width="1.5" stroke-linecap="round" stroke-linejoin="round" stroke-miterlimit="10" points="
	297.23,41.137 298.058,39.647 309.365,60 291.968,60 "/>
<polyline fill="none" stroke="#000000" stroke-width="1.5" stroke-linecap="round" stroke-linejoin="round" stroke-miterlimit="10" points="
	292.143,60 286.75,60 298.058,39.647 "/>
</svg>
