<?xml version="1.0" encoding="utf-8"?>
<!-- Generator: Adobe Illustrator 16.0.3, SVG Export Plug-In . SVG Version: 6.00 Build 0)  -->
<!DOCTYPE svg PUBLIC "-//W3C//DTD SVG 1.1//EN" "http://www.w3.org/Graphics/SVG/1.1/DTD/svg11.dtd">
<svg version="1.1" id="Layer_1" xmlns="http://www.w3.org/2000/svg" xmlns:xlink="http://www.w3.org/1999/xlink" x="0px" y="0px"
	 width="578.229px" height="34px" viewBox="0 0 578.229 34" enable-background="new 0 0 578.229 34" xml:space="preserve">
<g>
	<path fill="#1F79F1" stroke="#1F79F1" stroke-width="0.3" d="M3.489,22.719c0.142,0,0.264,0,0.384,0c1.674,0,3.348,0,5.023,0
		c0.111,0,0.224-0.004,0.334,0.014c0.377,0.062,0.622,0.349,0.619,0.713c-0.002,0.355-0.233,0.636-0.598,0.695
		c-0.12,0.021-0.244,0.021-0.367,0.021c-1.931,0.006-3.861,0.01-5.792,0.016c-0.804,0.006-0.971-0.16-1.037-0.955
		c-0.22-2.646,0.206-5.195,1.371-7.579C5.678,11.04,9.333,8.161,14.384,7.26c6.668-1.188,13.016,2.063,16.059,8.1
		c1.227,2.433,1.721,5.025,1.51,7.75c-0.008,0.121-0.008,0.244-0.018,0.367c-0.031,0.409-0.301,0.696-0.709,0.696
		c-2.109,0.002-4.219-0.004-6.328-0.016c-0.459-0.005-0.754-0.314-0.744-0.73c0.008-0.426,0.314-0.702,0.807-0.702
		c1.707-0.007,3.416-0.004,5.123-0.004c0.133,0,0.266,0,0.488,0c0.1-4.552-1.502-8.323-4.998-11.217
		c-4.277-3.54-10.384-4.048-15.151-1.37C5.257,13.037,3.126,18.445,3.489,22.719z"/>
	<path fill="#1F79F1" stroke="#1F79F1" stroke-width="0.3" d="M17.578,27.041c-1.586-0.035-2.885-0.885-3.492-2.346
		c-0.688-1.652-1.09-3.391-1.428-5.141c-0.236-1.229-0.424-2.465-0.617-3.698c-0.029-0.189-0.012-0.407,0.051-0.587
		c0.111-0.32,0.502-0.483,0.834-0.375c0.146,0.048,0.291,0.12,0.414,0.211c2.14,1.576,4.232,3.208,6.112,5.094
		c0.324,0.319,0.625,0.67,0.93,1.012c1.734,1.938,0.799,4.908-1.756,5.642C18.285,26.949,17.927,26.98,17.578,27.041z
		 M13.737,17.292c0.151,0.798,0.29,1.595,0.456,2.388c0.318,1.527,0.662,3.051,1.281,4.488c0.157,0.363,0.421,0.725,0.728,0.969
		c0.9,0.729,2.246,0.58,3.035-0.26c0.588-0.627,0.859-1.822-0.059-2.846C17.57,20.236,15.707,18.736,13.737,17.292z"/>
</g>
<path fill="#3492BC" d="M49.509,12.596c-0.158-0.319-0.266-0.62-0.441-0.875c-0.276-0.396-0.311-0.746-0.034-1.021
	c0.278-0.278,0.632-0.261,1.017,0.044c0.583,0.466,1.317,0.446,1.811-0.046c0.496-0.495,0.518-1.229,0.054-1.811
	c-0.307-0.385-0.324-0.739-0.052-1.017c0.275-0.28,0.64-0.268,1.018,0.035c0.586,0.468,1.316,0.452,1.812-0.037
	c0.506-0.501,0.521-1.232,0.039-1.837c-0.288-0.363-0.303-0.715-0.038-0.991c0.271-0.283,0.643-0.274,1.017,0.024
	c0.591,0.471,1.315,0.46,1.812-0.027c0.501-0.492,0.529-1.232,0.07-1.812c-0.32-0.404-0.336-0.765-0.046-1.041
	c0.308-0.291,0.707-0.241,1.09,0.141c4.633,4.633,9.267,9.267,13.9,13.899c1.065,1.066,2.137,2.129,3.198,3.202
	c0.438,0.44,0.319,1.043-0.228,1.209c-0.301,0.094-0.523-0.055-0.748-0.236c-0.568-0.463-1.314-0.42-1.807,0.086
	c-0.481,0.5-0.488,1.223-0.013,1.814c0.37,0.46,0.252,0.998-0.255,1.166c-0.301,0.098-0.525-0.039-0.751-0.225
	c-0.546-0.448-1.273-0.434-1.758,0.021c-0.525,0.494-0.574,1.255-0.099,1.835c0.178,0.213,0.313,0.43,0.239,0.715
	c-0.132,0.502-0.68,0.646-1.133,0.35c-0.277-0.186-0.604-0.354-0.924-0.393c-0.521-0.063-0.934,0.207-1.182,0.674
	c-0.252,0.479-0.217,0.951,0.093,1.396c0.053,0.075,0.12,0.143,0.174,0.217c0.222,0.301,0.206,0.658-0.042,0.907
	c-0.248,0.249-0.619,0.283-0.908,0.044c-0.292-0.24-0.596-0.428-0.988-0.423c-0.532,0.007-0.936,0.242-1.174,0.71
	c-0.243,0.48-0.201,0.956,0.119,1.396c0.06,0.082,0.134,0.155,0.192,0.244c0.188,0.275,0.159,0.614-0.066,0.854
	c-0.233,0.24-0.596,0.275-0.879,0.078c-0.095-0.063-0.177-0.146-0.257-0.229c-5.652-5.649-11.303-11.303-16.954-16.954
	c-0.049-0.049-0.1-0.096-0.147-0.148c-0.296-0.321-0.319-0.704-0.062-0.989c0.26-0.283,0.64-0.29,0.988-0.015
	c0.665,0.523,1.42,0.517,1.903-0.066C49.264,13.237,49.353,12.917,49.509,12.596z M73.078,18.82
	c-4.634-4.632-9.269-9.268-13.903-13.901c-0.457,1.215-1.373,1.854-2.721,1.878c0.01,0.808-0.24,1.49-0.802,2.047
	c-0.557,0.556-1.25,0.78-2.032,0.782c0.007,0.818-0.243,1.499-0.804,2.055c-0.56,0.556-1.253,0.776-2.023,0.783
	c-0.024,1.366-0.682,2.255-1.86,2.708c4.632,4.633,9.267,9.268,13.896,13.896c0.457-1.209,1.373-1.844,2.718-1.866
	c-0.01-0.813,0.241-1.493,0.802-2.05s1.251-0.777,2.033-0.78c-0.013-0.817,0.243-1.498,0.802-2.056
	c0.561-0.56,1.252-0.775,2.026-0.78C71.229,20.167,71.89,19.284,73.078,18.82z"/>
<path fill="#3492BC" stroke="#3492BC" stroke-width="0.3" d="M67.596,18.471c0.013,0.278-0.116,0.504-0.318,0.704
	c-1.361,1.354-2.717,2.716-4.076,4.074c-0.434,0.435-0.977,0.472-1.464,0.097c-0.086-0.065-0.166-0.146-0.244-0.224
	c-2.218-2.218-4.435-4.435-6.654-6.652c-0.27-0.269-0.479-0.573-0.425-0.964c0.031-0.212,0.112-0.461,0.256-0.609
	c1.394-1.419,2.805-2.821,4.214-4.225c0.317-0.318,0.807-0.365,1.221-0.122c0.13,0.077,0.25,0.176,0.357,0.284
	c2.236,2.234,4.473,4.471,6.709,6.705C67.427,17.793,67.608,18.079,67.596,18.471z M62.412,22.534
	c1.369-1.369,2.755-2.753,4.121-4.119c-1.025-1.023-2.066-2.064-3.121-3.116c0.03-0.012,0.021-0.01,0.015-0.005
	c-0.139,0.136-0.277,0.274-0.42,0.409c-0.241,0.231-0.54,0.247-0.747,0.045c-0.214-0.208-0.199-0.518,0.044-0.765
	c0.144-0.145,0.295-0.279,0.393-0.372c-1.066-1.07-2.107-2.112-3.113-3.122c-1.36,1.36-2.744,2.746-4.116,4.119
	c1.015,1.013,2.053,2.05,3.123,3.121c0.112-0.121,0.239-0.271,0.377-0.401c0.262-0.269,0.567-0.285,0.782-0.066
	c0.214,0.224,0.188,0.521-0.081,0.782c-0.138,0.137-0.296,0.25-0.403,0.34C60.357,20.473,61.394,21.514,62.412,22.534z"/>
<path fill="#3492BC" stroke="#3492BC" stroke-width="0.3" d="M60.231,18.396c-0.164-0.139-0.408-0.242-0.475-0.416
	c-0.075-0.19-0.072-0.522,0.049-0.666c0.464-0.535,0.979-1.029,1.494-1.517c0.231-0.218,0.612-0.178,0.838,0.037
	c0.235,0.227,0.286,0.616,0.058,0.859c-0.479,0.511-0.979,1.001-1.484,1.488C60.611,18.279,60.443,18.309,60.231,18.396z"/>
<g>
	<path fill="#1BCBA4" stroke="#1BCBA4" stroke-width="0.7" stroke-miterlimit="10" d="M116.506,32c-7.675,0-15.329,0-23.012,0
		c0-8.92,0-17.828,0-26.769c1.829,0,3.65,0,5.511,0c0-0.336,0-0.641,0-0.971c1.213,0,2.387,0,3.592,0
		c0.104-0.78,0.435-1.417,1.084-1.858c0.424-0.288,0.899-0.424,1.409-0.399c1.246,0.061,2.004,0.782,2.356,2.242
		c1.17,0,2.348,0,3.561,0c0,0.326,0,0.632,0,0.964c1.85,0,3.659,0,5.499,0C116.506,14.146,116.506,23.055,116.506,32z
		 M115.776,31.277c0-8.448,0-16.878,0-25.306c-1.596,0-3.161,0-4.771,0c0,1.079,0,2.135,0,3.185c-4.016,0-7.988,0-12.002,0
		c0-1.073,0-2.129,0-3.189c-1.608,0-3.178,0-4.759,0c0,8.447,0,16.877,0,25.311C101.439,31.277,108.602,31.277,115.776,31.277z
		 M99.764,8.412c3.518,0,7.011,0,10.493,0c0-1.16,0-2.285,0-3.446c-1.219,0-2.405,0-3.624,0c0.084-0.55,0.076-1.052-0.237-1.5
		c-0.32-0.456-0.763-0.699-1.312-0.736c-0.42-0.029-0.797,0.117-1.123,0.379c-0.598,0.479-0.672,1.14-0.575,1.878
		c-1.233,0-2.418,0-3.622,0C99.764,6.143,99.764,7.26,99.764,8.412z"/>
	<path fill="#1BCBA4" stroke="#1BCBA4" stroke-width="0.7" stroke-miterlimit="10" d="M104.981,14.67c0-0.25,0-0.455,0-0.684
		c2.858,0,4.4,0,7.271,0c0,0.217,0,0.44,0,0.684C109.395,14.67,107.852,14.67,104.981,14.67z"/>
	<path fill="#1BCBA4" stroke="#1BCBA4" stroke-width="0.7" stroke-miterlimit="10" d="M104.981,23.146c0-0.248,0-0.453,0-0.688
		c2.855,0,4.398,0,7.269,0c0,0.215,0,0.438,0,0.688C109.396,23.146,107.852,23.146,104.981,23.146z"/>
	<path fill="#1BCBA4" stroke="#1BCBA4" stroke-width="0.7" stroke-miterlimit="10" d="M112.263,25.704c0,0.237,0,0.444,0,0.676
		c-2.86,0-4.402,0-7.271,0c0-0.22,0-0.432,0-0.676C107.837,25.704,109.389,25.704,112.263,25.704z"/>
	<path fill="#1BCBA4" stroke="#1BCBA4" stroke-width="0.7" stroke-miterlimit="10" d="M112.257,17.209c0,0.246,0,0.45,0,0.674
		c-2.862,0-4.405,0-7.27,0c0-0.229,0-0.439,0-0.674C107.848,17.209,109.393,17.209,112.257,17.209z"/>
</g>
<rect x="97.065" y="22.459" fill="none" stroke="#1BCBA4" stroke-miterlimit="10" width="3.807" height="3.807"/>
<rect x="97.065" y="13.991" fill="none" stroke="#1BCBA4" stroke-miterlimit="10" width="3.807" height="3.808"/>
<polygon fill="#1BCBA4" points="99.15,14.629 99.764,15.827 102.525,12.054 103.483,12.547 99.63,17.751 98.116,15.266 "/>
<polygon fill="#1BCBA4" points="99.15,23.014 99.764,24.211 102.525,20.438 103.483,20.932 99.63,26.136 98.116,23.65 "/>
<path fill="none" stroke="#B773DA" stroke-width="1.5" stroke-miterlimit="10" d="M159.961,14.955
	c0.005-0.156-0.021-0.453-0.021-0.453c-0.378-5.72-5.124-10.245-10.94-10.245c-6.061,0-10.976,4.915-10.976,10.976
	c0,6.063,4.915,10.977,10.976,10.977v3.535c0,0,8.521-2.896,10.546-11.488c0.274-0.962,0.432-1.973,0.432-3.023
	C159.977,15.14,159.964,15.049,159.961,14.955z"/>
<g>
	<polygon id="XMLID_4_" fill="#B773DA" points="148.095,10.565 146.168,10.565 143.251,19.543 145.178,19.543 	"/>
	<polygon id="XMLID_1_" fill="#B773DA" points="149.935,10.565 151.831,10.565 154.748,19.543 152.851,19.543 	"/>
</g>
<g>
	<path fill="#3492BC" d="M192.959,5.935c-3.286,0-5.959,2.674-5.959,5.961c0,1.328,0.441,2.553,1.182,3.545
		c-1.455,1.016-2.33,2.532-2.33,4.155v8.471h1.657v-8.471c0-1.156,0.7-2.253,1.854-2.96c1.001,0.762,2.244,1.218,3.596,1.218
		c1.368,0,2.625-0.468,3.633-1.247c1.184,0.707,1.9,1.814,1.9,2.989v8.469h1.658v-8.469c0-1.65-0.896-3.179-2.385-4.193
		c0.721-0.985,1.15-2.196,1.15-3.508C198.919,8.608,196.245,5.935,192.959,5.935z M192.959,16.197c-2.372,0-4.301-1.931-4.301-4.302
		c0-2.373,1.929-4.303,4.301-4.303c2.371,0,4.303,1.93,4.303,4.303C197.262,14.267,195.33,16.197,192.959,16.197z"/>
	<path fill="#3492BC" d="M179.658,18.253c0-0.508,0.29-0.993,0.77-1.349c0.614,0.408,1.35,0.648,2.141,0.648
		c2.146,0,3.889-1.742,3.889-3.884c0-2.144-1.743-3.887-3.889-3.887c-2.141,0-3.883,1.743-3.883,3.887
		c0,0.745,0.222,1.435,0.586,2.026c-0.801,0.663-1.271,1.581-1.271,2.558v4.918h1.658L179.658,18.253L179.658,18.253z
		 M182.568,11.441c1.229,0,2.229,0.999,2.229,2.228c0,1.228-1,2.226-2.229,2.226s-2.228-0.999-2.228-2.226
		C180.343,12.44,181.341,11.441,182.568,11.441z"/>
	<path fill="#3492BC" d="M206.695,15.669c0.354-0.586,0.57-1.267,0.57-2c0-2.144-1.742-3.887-3.887-3.887
		c-2.143,0-3.886,1.743-3.886,3.887c0,2.143,1.743,3.884,3.886,3.884c0.805,0,1.553-0.244,2.17-0.663
		c0.492,0.355,0.79,0.846,0.79,1.364v4.918H208v-4.919C208,17.259,207.518,16.33,206.695,15.669z M203.382,15.896
		c-1.229,0-2.228-0.999-2.228-2.227c0-1.229,1-2.228,2.228-2.228c1.229,0,2.228,0.999,2.228,2.228
		C205.607,14.896,204.609,15.896,203.382,15.896z"/>
</g>
<g>
	<path fill="#F7845F" d="M236.122,30.154V32h1.756v-1.846c6.581-0.432,11.847-5.688,12.276-12.276H252v-1.756h-1.846
		c-0.432-6.579-5.688-11.846-12.276-12.277V2h-1.756v1.845c-6.579,0.432-11.847,5.688-12.276,12.277H222v1.756h1.846
		C224.275,24.458,229.533,29.723,236.122,30.154z M236.122,5.607v1.726h1.756V5.607c5.603,0.428,10.088,4.913,10.515,10.515h-1.724
		v1.756h1.724c-0.427,5.603-4.912,10.087-10.515,10.515v-1.725h-1.756v1.725c-5.603-0.428-10.086-4.912-10.515-10.515h1.726v-1.756
		h-1.726C226.036,10.521,230.521,6.035,236.122,5.607z"/>
	<path fill="#F7845F" d="M240.143,13.858c0-1.732-1.41-3.14-3.143-3.14s-3.143,1.407-3.143,3.14S235.27,17,237,17
		S240.143,15.591,240.143,13.858z M237,15.429c-0.866,0-1.57-0.705-1.57-1.57c0-0.866,0.704-1.57,1.57-1.57s1.57,0.704,1.57,1.57
		C238.57,14.724,237.866,15.429,237,15.429z"/>
	<path fill="#F7845F" d="M241.713,21.712c0-2.598-2.115-4.712-4.713-4.712s-4.711,2.114-4.711,4.712v1.57h9.424V21.712z
		 M233.857,21.712c0-1.731,1.41-3.142,3.143-3.142c1.732,0,3.143,1.41,3.143,3.142H233.857z"/>
</g>
<g>
	<path fill="#ECB802" d="M295.228,9.764l-5.889-7.47C289.188,2.109,288.976,2,288.733,2h-15.463c-0.237,0-0.457,0.109-0.604,0.294
		l-5.889,7.47c-0.109,0.135-0.168,0.302-0.168,0.476v20.99c0,0.424,0.35,0.771,0.771,0.771h27.229c0.427,0,0.771-0.347,0.771-0.771
		V10.24C295.396,10.065,295.335,9.898,295.228,9.764z M293.132,9.596h-11.357V3.539h6.588L293.132,9.596z M273.646,3.539h6.588
		v6.057h-11.354L273.646,3.539z M268.152,30.458V11.136h25.693v19.322H268.152L268.152,30.458z"/>
	<path fill="#ECB802" d="M286.384,15.735l-7.602,7.601l-3.156-3.156c-0.441-0.445-1.162-0.445-1.605,0
		c-0.438,0.443-0.438,1.16,0,1.604l3.961,3.96c0.224,0.219,0.515,0.334,0.808,0.334s0.573-0.115,0.803-0.334l8.396-8.392
		c0.44-0.444,0.44-1.164,0-1.606C287.546,15.29,286.826,15.29,286.384,15.735z"/>
</g>
<g>
	<path fill="#80BD0B" d="M339.063,19.896c0,2.852,0,5.701-0.002,8.555c0,0.719-0.168,0.889-0.877,0.891
		c-1.188,0.002-2.383,0.004-3.565,0c-0.646-0.004-0.851-0.203-0.851-0.844c-0.002-5.748-0.002-11.495,0-17.241
		c0-0.613,0.217-0.826,0.818-0.828c1.223-0.002,2.439-0.002,3.66,0c0.613,0.002,0.813,0.202,0.813,0.825
		C339.063,14.136,339.062,17.015,339.063,19.896z M337.815,28.111c0-5.492,0-10.963,0-16.438c-0.959,0-1.875,0-2.811,0
		c0,5.489,0,10.952,0,16.438C335.953,28.111,336.873,28.111,337.815,28.111z"/>
	<path fill="#80BD0B" d="M318.562,21.205c0-2.414-0.002-4.825,0-7.237c0-0.701,0.188-0.89,0.89-0.892
		c1.176-0.003,2.354-0.003,3.524,0.001c0.668,0.002,0.879,0.207,0.879,0.867c0.004,4.839,0.004,9.677,0,14.515
		c0,0.691-0.192,0.881-0.896,0.883c-1.18,0.002-2.354,0.004-3.529,0c-0.688-0.002-0.859-0.172-0.859-0.857
		C318.56,26.059,318.562,23.631,318.562,21.205z M319.787,28.109c0.976,0,1.891,0,2.823,0c0-4.609,0-9.189,0-13.781
		c-0.952,0-1.887,0-2.823,0C319.787,18.93,319.787,23.5,319.787,28.109z"/>
	<path fill="#80BD0B" d="M313.333,15.845c-0.309-0.271-0.592-0.521-0.904-0.799c0.611-0.703,1.205-1.389,1.807-2.072
		c2.039-2.334,4.078-4.668,6.119-7c0.443-0.511,0.685-0.527,1.222-0.08c2.323,1.937,4.646,3.875,6.977,5.813
		c0.066,0.057,0.146,0.107,0.326,0.268c2.336-2.436,4.674-4.871,7.021-7.318c0.396,0.398,0.66,0.67,0.94,0.955
		c-0.676,0.678-1.344,1.355-2.021,2.025c-1.785,1.768-3.574,3.531-5.359,5.298c-0.521,0.51-0.709,0.521-1.271,0.056
		c-2.182-1.814-4.354-3.632-6.535-5.447c-0.188-0.16-0.383-0.316-0.61-0.507C318.472,9.971,315.914,12.896,313.333,15.845z"/>
	<path fill="#80BD0B" d="M331.457,23.178c0,1.764,0.002,3.525,0,5.287c0,0.686-0.185,0.875-0.854,0.877
		c-1.203,0.004-2.408,0.004-3.61,0c-0.642-0.004-0.826-0.199-0.826-0.854c-0.002-3.539-0.002-7.078,0-10.62
		c0-0.652,0.188-0.848,0.826-0.85c1.219-0.004,2.438-0.004,3.655,0c0.615,0.004,0.81,0.203,0.812,0.828
		C331.458,19.625,331.457,21.402,331.457,23.178z M327.412,18.248c0,3.303,0,6.572,0,9.863c0.942,0,1.858,0,2.797,0
		c0-3.301,0-6.57,0-9.863C329.272,18.248,328.367,18.248,327.412,18.248z"/>
	<path fill="#80BD0B" d="M310.94,25.285c0-1.104-0.008-2.203,0.002-3.307c0.002-0.648,0.173-0.813,0.81-0.813
		c1.231-0.002,2.47-0.002,3.701,0c0.588,0.002,0.776,0.172,0.778,0.752c0.009,2.222,0.009,4.438,0,6.656
		c-0.002,0.569-0.207,0.762-0.787,0.766c-1.231,0.009-2.467,0.007-3.7,0c-0.604-0.004-0.797-0.192-0.802-0.793
		C310.937,27.459,310.94,26.371,310.94,25.285z M314.99,28.115c0-1.951,0-3.85,0-5.744c-0.96,0-1.878,0-2.813,0
		c0,1.928,0,3.826,0,5.744C313.128,28.115,314.048,28.115,314.99,28.115z"/>
	<g>
		<path fill="#80BD0B" d="M322.63,21.23c0-2.313,0-4.588,0-6.917c-0.488,0-0.967,0-1.469,0c0-0.424,0-0.799,0-1.208
			c0.727,0,1.453-0.025,2.18,0.011c0.369,0.02,0.51,0.329,0.51,0.667c0.008,2.47,0.004,4.938,0.004,7.443
			C323.449,21.23,323.063,21.23,322.63,21.23z"/>
		<path fill="#80BD0B" d="M328.783,29.32c-0.705,0-1.41,0.037-2.104-0.023c-0.186-0.016-0.479-0.322-0.486-0.508
			c-0.051-0.932-0.021-1.869-0.021-2.822c0.412,0,0.783,0,1.201,0c0,0.713,0,1.41,0,2.154c0.487,0,0.938,0,1.412,0
			C328.783,28.543,328.783,28.916,328.783,29.32z"/>
	</g>
</g>
<path fill="#E66A93" d="M381.332,13.482h-0.002C380.876,7.075,375.521,2,369,2s-11.877,5.076-12.33,11.482l0,0
	c-1.473,0-2.67,1.197-2.67,2.669v4.628c0,1.472,1.196,2.669,2.67,2.669h5.242V14.36c0-3.908,3.183-7.088,7.088-7.088
	c3.908,0,7.088,3.18,7.088,7.088v9.088h1.843v0.938c0,2.259-1.839,4.097-4.097,4.097h-0.881c-0.363-1.021-1.343-1.76-2.486-1.76
	h-2.932c-1.455,0-2.642,1.187-2.642,2.639c0,1.453,1.187,2.641,2.642,2.641h2.932c1.146,0,2.123-0.732,2.486-1.759h0.881
	c3.229,0,5.854-2.626,5.854-5.854V23.45h1.646c1.476,0,2.67-1.197,2.67-2.671v-4.626C384,14.679,382.804,13.482,381.332,13.482z
	 M370.466,30.242h-2.932c-0.486,0-0.883-0.396-0.883-0.881c0-0.485,0.396-0.881,0.883-0.881h2.932c0.486,0,0.883,0.396,0.883,0.881
	C371.349,29.848,370.953,30.242,370.466,30.242z M360.153,21.691h-3.483c-0.502,0-0.912-0.408-0.912-0.912v-4.628
	c0-0.503,0.41-0.912,0.912-0.912h3.483V21.691z M369,5.515c-4.58,0-8.358,3.5-8.804,7.967h-1.764
	c0.445-5.437,5.017-9.724,10.563-9.724s10.118,4.287,10.563,9.724h-1.76C377.358,9.016,373.582,5.515,369,5.515z M382.242,20.779
	c0,0.504-0.408,0.912-0.91,0.912h-3.485V15.24h3.485c0.502,0,0.91,0.409,0.91,0.912V20.779z"/>
<g id="network">
	<path fill="#1BCBA4" d="M422.291,24.611c-0.754,0.002-1.49,0.233-2.107,0.668l-2.254-2.313c2.814-3.319,2.814-8.191,0-11.513
		l2.302-2.285c1.7,1.139,4.008,0.682,5.146-1.021s0.682-4.006-1.021-5.145c-1.703-1.139-4.009-0.682-5.146,1.021
		c-0.406,0.605-0.623,1.316-0.627,2.044c0.006,0.733,0.221,1.449,0.625,2.062l-2.301,2.27c-3.316-2.799-8.166-2.799-11.482,0
		l-2.313-2.255c1.164-1.706,0.725-4.032-0.98-5.196c-1.705-1.164-4.031-0.725-5.195,0.979c-1.16,1.705-0.725,4.031,0.98,5.196
		c1.24,0.846,2.865,0.869,4.129,0.058l2.328,2.27c-2.814,3.321-2.814,8.192,0,11.513l-2.211,2.329
		c-0.617-0.444-1.359-0.683-2.121-0.683c-2.049,0-3.709,1.66-3.709,3.709c0,2.048,1.66,3.709,3.709,3.709
		c2.047,0,3.709-1.661,3.709-3.709c0-0.688-0.195-1.361-0.563-1.943l2.271-2.373c0.301,0.253,0.617,0.486,0.949,0.697l0,0
		c2.887,1.838,6.578,1.838,9.467,0l0,0c0.33-0.211,0.645-0.444,0.949-0.697l2.281,2.357c-0.354,0.593-0.531,1.271-0.521,1.959
		c0,2.048,1.66,3.709,3.709,3.709c2.047,0,3.709-1.661,3.709-3.709C426.001,26.271,424.337,24.611,422.291,24.611z M422.291,3.842
		c1.229-0.033,2.25,0.936,2.283,2.165c0.035,1.229-0.938,2.251-2.164,2.285c-0.596,0.017-1.174-0.208-1.604-0.622l0,0l0,0
		c-0.396-0.393-0.633-0.923-0.649-1.483c-0.066-1.227,0.875-2.276,2.102-2.342C422.267,3.843,422.279,3.843,422.291,3.842z
		 M397.813,6.068c0-1.229,0.995-2.226,2.227-2.226c1.229,0,2.227,0.997,2.227,2.226c0.002,0.598-0.233,1.171-0.668,1.587l0,0
		c-0.416,0.407-0.977,0.636-1.559,0.638C398.808,8.293,397.813,7.297,397.813,6.068z M411.164,9.777
		c4.096,0.017,7.404,3.351,7.389,7.448c-0.01,1.998-0.817,3.906-2.256,5.296c-0.129-1.158-0.652-2.238-1.484-3.061
		c-0.381-0.374-0.813-0.688-1.286-0.938c0.848-0.688,1.338-1.724,1.336-2.815c0.008-2.048-1.646-3.716-3.693-3.725
		c-2.049-0.009-3.717,1.645-3.725,3.693c-0.009,1.106,0.479,2.158,1.336,2.866c-1.523,0.789-2.556,2.286-2.746,3.991
		c-2.949-2.848-3.035-7.539-0.193-10.489C407.232,10.6,409.154,9.781,411.164,9.777z M408.938,15.711
		c0-1.229,0.995-2.225,2.229-2.225c1.229,0,2.225,0.996,2.225,2.225s-0.996,2.225-2.225,2.225
		C409.935,17.936,408.938,16.94,408.938,15.711z M400.037,30.547c-1.23,0-2.229-0.996-2.229-2.227c0-1.229,0.996-2.226,2.229-2.226
		c0.604-0.005,1.188,0.25,1.602,0.695l0,0l0,0c0.373,0.399,0.576,0.938,0.564,1.479C402.228,29.5,401.259,30.514,400.037,30.547z
		 M407.455,23.574V23.13c0-2.049,1.66-3.71,3.709-3.71c2.047,0,3.709,1.661,3.709,3.71v0.444
		C412.595,24.96,409.732,24.96,407.455,23.574z M422.291,30.547c-1.221,0.014-2.221-0.966-2.234-2.188
		c-0.006-0.56,0.199-1.094,0.572-1.506l0,0v-0.074c0.432-0.454,1.035-0.703,1.662-0.685c1.229,0,2.225,0.994,2.225,2.226
		C424.516,29.551,423.519,30.547,422.291,30.547z"/>
</g>
<g>
	<path fill="#B773DA" d="M462.955,13.133c1.07,1.071,2.154,2.154,3.24,3.24c0.819,0.823,0.729,1.188-0.39,1.549
		c-0.832,0.271-1.653,0.571-2.504,0.785c-0.526,0.133-0.701,0.359-0.69,0.916c0.026,2.889-0.004,5.777,0.022,8.666
		c0.006,0.646-0.188,0.99-0.815,1.195c-3.531,1.154-7.054,2.344-10.582,3.498c-0.269,0.086-0.617,0.074-0.879-0.021
		c-3.134-1.152-6.248-2.342-9.382-3.494c-0.551-0.205-0.75-0.521-0.743-1.107c0.022-2.844-0.005-5.686,0.021-8.524
		c0.004-0.485-0.141-0.711-0.609-0.845c-0.887-0.256-1.756-0.566-2.625-0.873c-0.666-0.235-0.793-0.579-0.432-1.197
		c0.646-1.103,1.297-2.204,1.979-3.286c0.219-0.351,0.186-0.563-0.109-0.846c-1.037-1.004-2.051-2.034-3.07-3.059
		c-0.758-0.767-0.666-1.164,0.357-1.484c3.092-0.968,6.188-1.937,9.287-2.882c0.442-0.135,0.696-0.364,0.922-0.771
		c1.231-2.229,3.162-3.396,5.697-3.298c2.588,0.101,4.463,1.42,5.514,3.813c0.17,0.389,0.387,0.58,0.783,0.7
		c2.604,0.785,5.205,1.598,7.803,2.401c1.209,0.373,1.297,0.731,0.396,1.633c-1.036,1.039-2.071,2.079-3.104,3.121
		C463.009,12.989,462.998,13.041,462.955,13.133z M461.373,19.328c-2.271,0.712-4.416,1.359-6.543,2.072
		c-0.668,0.223-1.098,0.129-1.514-0.455c-0.535-0.752-1.154-1.445-1.843-2.293c0,4.416,0,8.633,0,12.865
		c0.119,0,0.191,0.018,0.254-0.004c3.074-1.021,6.152-2.039,9.222-3.091c0.188-0.063,0.395-0.39,0.401-0.601
		c0.046-0.944,0.021-1.896,0.021-2.844C461.373,23.143,461.373,21.301,461.373,19.328z M450.16,31.574c0-4.153,0-8.188,0-12.438
		c-0.506,0.826-0.92,1.474-1.297,2.138c-0.271,0.479-0.64,0.588-1.131,0.414c-0.763-0.263-1.521-0.521-2.283-0.771
		c-1.291-0.427-2.586-0.847-3.979-1.299c0,0.347,0,0.577,0,0.813c0,1.916-0.008,3.834,0.002,5.752
		c0.007,0.7-0.188,1.563,0.146,2.063c0.311,0.473,1.188,0.568,1.828,0.813C445.656,29.893,447.865,30.715,450.16,31.574z
		 M456.388,7.537c0.056-2.713-2.108-4.959-4.823-5.013c-2.798-0.054-5.017,2.08-5.105,4.904c-0.078,2.635,2.162,4.96,4.85,5.029
		C454.07,12.529,456.335,10.333,456.388,7.537z M464.96,16.887c-0.961-0.953-1.842-1.8-2.688-2.68
		c-0.303-0.314-0.563-0.385-0.981-0.238c-2.082,0.717-4.178,1.396-6.269,2.09c-1.021,0.341-2.04,0.69-3.146,1.064
		c0.748,0.939,1.455,1.793,2.119,2.678c0.262,0.344,0.494,0.393,0.896,0.258c1.937-0.633,3.877-1.229,5.816-1.842
		C462.08,17.787,463.453,17.357,464.96,16.887z M437.929,17.105c3.402,1.131,6.689,2.224,9.986,3.32
		c0.664-1.108,1.291-2.153,1.896-3.168c-0.053-0.088-0.063-0.119-0.075-0.125c-3.158-1.063-6.316-2.13-9.48-3.174
		c-0.145-0.047-0.438,0.049-0.516,0.172C439.132,15.083,438.56,16.059,437.929,17.105z M459.787,13.165
		c0.012-0.05,0.021-0.101,0.035-0.149c-1.092-0.367-2.188-0.717-3.271-1.109c-0.401-0.148-0.666-0.088-0.996,0.207
		c-2.27,2.02-5.67,2.191-7.924,0.215c-0.908-0.795-1.604-0.845-2.602-0.422c-1.058,0.445-2.164,0.756-3.418,1.184
		c3.086,1.025,5.979,1.991,8.877,2.938c0.203,0.067,0.467,0.059,0.676-0.009C454.042,15.078,456.912,14.12,459.787,13.165z
		 M436.65,9.271c1.026,1.012,1.977,1.963,2.957,2.881c0.118,0.113,0.434,0.102,0.625,0.043c0.991-0.305,1.979-0.643,2.963-0.971
		c0.889-0.295,1.771-0.594,2.51-0.84c-0.486-1.249-0.686-1.796-0.607-3.745C442.369,7.489,439.576,8.359,436.65,9.271z
		 M456.968,10.733c1.457,0.485,3.021,1.011,4.588,1.522c0.115,0.038,0.314,0.045,0.386-0.025c0.991-0.955,1.971-1.928,3.021-2.966
		c-2.512-0.773-4.879-1.5-7.139-2.197C457.906,8.896,457.604,9.616,456.968,10.733z"/>
	<path fill="#B773DA" d="M448.396,28.086c-0.097,0.303-0.113,0.523-0.347,0.457c-1.289-0.367-2.563-0.802-3.813-1.285
		c-0.195-0.076-0.207-0.511-0.084-0.797c0.135-0.229,0.309-0.365,0.528-0.303c1.222,0.355,2.42,0.775,3.613,1.213
		C448.533,27.453,448.484,27.712,448.396,28.086z"/>
	<path fill="#B773DA" d="M448.396,25.525c-0.097,0.305-0.113,0.521-0.347,0.457c-1.289-0.367-2.563-0.803-3.813-1.284
		c-0.195-0.076-0.207-0.511-0.084-0.798c0.135-0.229,0.309-0.366,0.528-0.301c1.222,0.354,2.42,0.771,3.613,1.209
		C448.533,24.895,448.484,25.15,448.396,25.525z"/>
</g>
<g>
	<g>
		<path fill="#F7845F" stroke="#F7845F" stroke-width="0.3" stroke-miterlimit="10" d="M495.81,22.544v-0.522
			c0.146-0.116,0.289-0.248,0.427-0.383c1.09-1.199,1.772-2.711,1.961-4.318c0.977-0.149,1.856-0.674,2.459-1.463
			c0.819-1.161,0.895-2.832,0.209-4.929c-0.041-0.12-0.119-0.225-0.229-0.294l-0.311-0.211c0.047-1.891-0.607-3.733-1.834-5.172
			c-1.527-1.717-3.867-2.584-6.967-2.595c-3.095,0-5.438,0.878-6.964,2.572c-1.229,1.439-1.881,3.281-1.836,5.174l-0.313,0.209
			c-0.105,0.07-0.188,0.174-0.228,0.295c-0.686,2.107-0.61,3.768,0.212,4.93c0.596,0.793,1.479,1.324,2.459,1.479
			c0.188,1.61,0.875,3.124,1.967,4.325c0.133,0.135,0.274,0.265,0.424,0.383v0.521c-2.17,0.42-10.832,2.453-10.688,8.232
			c0,0.313,0.257,0.565,0.566,0.565h28.801c0.314,0,0.566-0.254,0.566-0.565C506.645,24.997,497.979,22.964,495.81,22.544z
			 M484.517,16.051c-0.479-0.162-0.897-0.469-1.198-0.878l0.026,0.005c-0.565-0.826-0.619-2.078-0.112-3.733l0.414-0.278
			c0.174-0.115,0.27-0.318,0.247-0.526c-0.094-1.693,0.455-3.36,1.544-4.663c1.278-1.451,3.336-2.176,6.09-2.187
			c2.756-0.012,4.811,0.736,6.112,2.187c1.086,1.303,1.638,2.97,1.541,4.663c-0.02,0.208,0.076,0.411,0.25,0.526l0.412,0.278
			c0.504,1.648,0.474,2.907-0.112,3.733c-0.302,0.411-0.724,0.717-1.205,0.879c0.684-0.777,1.018-1.802,0.924-2.832
			c-0.105-0.621-0.433-1.185-0.912-1.588c-0.244-5.666-4.217-6.3-5.928-6.3c-0.361-0.002-0.726,0.025-1.082,0.079
			c-0.357-0.054-0.722-0.081-1.082-0.079c-1.699,0-5.666,0.623-5.929,6.3c-0.483,0.4-0.813,0.961-0.922,1.581
			C483.5,14.248,483.833,15.273,484.517,16.051z M497.408,11.405c-2.377,0.137-4.74-0.456-6.771-1.7
			c-0.229-0.162-0.543-0.13-0.735,0.073c-1.134,1.218-3.199,1.502-4.197,1.563c0.307-4.006,2.729-4.878,4.77-4.878
			c0.326-0.002,0.65,0.024,0.972,0.079c0.074,0.016,0.149,0.016,0.227,0c0.32-0.055,0.646-0.081,0.969-0.079
			c2.023,0,4.459,0.895,4.744,4.935L497.408,11.405z M485.9,16.158l0.021,0.006c0.002-0.14-0.049-0.275-0.141-0.379
			c-0.775-0.891-1.136-1.7-1.037-2.369c0.047-0.372,0.229-0.714,0.516-0.957c0.748,0,3.4-0.143,5.101-1.609
			c1.916,1.101,4.082,1.688,6.289,1.699c0.381,0,0.766,0,1.168-0.063c0.276,0.237,0.459,0.568,0.51,0.93
			c0.096,0.657-0.26,1.479-1.037,2.369c-0.092,0.104-0.145,0.239-0.143,0.379c0,0,0,0.113,0,0.295l-3.298,1.768
			c-0.653-0.619-1.688-0.592-2.307,0.063c-0.621,0.653-0.592,1.688,0.063,2.306c0.651,0.62,1.688,0.594,2.307-0.063
			c0.287-0.303,0.447-0.704,0.447-1.122c0.002-0.052,0.002-0.104,0-0.154l2.6-1.394c-0.223,1.119-0.748,2.152-1.518,2.992
			c-1.007,0.968-2.365,1.477-3.759,1.405H491.4c-1.39,0.067-2.746-0.438-3.75-1.399C485.861,19.076,485.9,16.188,485.9,16.158z
			 M493.226,19.411c0,0.278-0.225,0.503-0.504,0.503c-0.276,0-0.504-0.225-0.504-0.503s0.228-0.507,0.504-0.507
			C493.001,18.904,493.226,19.133,493.226,19.411z M490.96,30.177h-13.248c0.447-4.255,7.367-6.034,9.529-6.493v1.015
			c0,1.286,1.563,2.267,3.719,2.432V30.177L490.96,30.177z M488.376,24.695V24.68v-1.938c0.941,0.438,1.971,0.652,3.008,0.633h0.283
			c1.039,0.021,2.066-0.195,3.008-0.633v1.953c0,0.539-1.229,1.314-3.147,1.314C489.605,26.014,488.376,25.234,488.376,24.695z
			 M492.093,30.193v-3.07c2.154-0.146,3.717-1.134,3.717-2.432V23.7c2.185,0.452,9.066,2.231,9.529,6.493H492.093z"/>
	</g>
</g>
<g>
	<path fill="#B773DA" d="M517.59,16.881c0-3.458-0.002-6.916,0-10.375c0.001-1.817,1.297-3.127,3.111-3.127
		c6.074-0.004,12.147,0.006,18.225-0.006c1.777-0.003,3.127,1.425,3.113,3.04c-0.023,3-0.004,6.001-0.006,9.002
		c0,0.48-0.203,0.791-0.563,0.91c-0.346,0.114-0.76,0.021-0.944-0.28c-0.117-0.19-0.187-0.441-0.188-0.666
		c-0.012-2.949-0.006-5.898-0.01-8.848c0-0.72-0.351-1.214-0.979-1.375c-0.155-0.041-0.325-0.04-0.491-0.04
		c-6.033-0.001-12.067-0.002-18.102,0c-0.945,0-1.448,0.502-1.448,1.435c-0.001,6.88,0,13.76,0,20.639
		c0,0.795,0.338,1.287,1.003,1.449c0.148,0.035,0.31,0.033,0.464,0.033c2.283,0.003,4.568,0,6.854,0.004
		c0.713,0.001,1.148,0.65,0.844,1.254c-0.175,0.346-0.479,0.469-0.849,0.471c-0.446,0-0.894,0-1.34,0
		c-1.869,0-3.738,0.004-5.607-0.002c-1.473-0.004-2.618-0.862-2.983-2.252c-0.073-0.275-0.1-0.572-0.1-0.859
		C517.587,23.816,517.59,20.35,517.59,16.881z"/>
	<path fill="#B773DA" d="M543.545,20.438c-0.037,0.918-0.367,1.705-1.01,2.351c-2.359,2.378-4.728,4.748-7.084,7.125
		c-0.379,0.38-0.865,0.466-1.353,0.563c-0.893,0.181-1.786,0.355-2.678,0.537c-1.024,0.207-2.044-0.798-1.827-1.818
		c0.229-1.071,0.458-2.146,0.729-3.209c0.072-0.285,0.244-0.582,0.453-0.793c2.342-2.364,4.688-4.729,7.063-7.063
		c1.871-1.84,4.92-1,5.578,1.512C543.483,19.9,543.502,20.171,543.545,20.438z M531.334,29.247c0.143-0.017,0.225-0.017,0.305-0.033
		c0.761-0.157,1.521-0.306,2.275-0.481c0.191-0.045,0.393-0.145,0.529-0.279c1.84-1.825,3.67-3.663,5.502-5.499
		c0.489-0.491,0.989-0.974,1.455-1.486c0.428-0.471,0.512-1.038,0.272-1.623c-0.42-1.026-1.75-1.407-2.717-0.432
		c-2.16,2.181-4.332,4.349-6.512,6.509c-0.324,0.319-0.533,0.653-0.615,1.104C531.698,27.755,531.51,28.477,531.334,29.247z"/>
	<path fill="#B773DA" d="M529.68,13.907c-2.295,0-4.59,0.002-6.884,0c-0.585,0-0.956-0.31-0.991-0.813
		c-0.027-0.42,0.22-0.776,0.631-0.877c0.16-0.039,0.328-0.053,0.492-0.053c4.518-0.002,9.031-0.002,13.549,0
		c0.175,0,0.354,0.015,0.521,0.058c0.373,0.094,0.607,0.416,0.613,0.801c0.002,0.385-0.228,0.719-0.591,0.821
		c-0.155,0.044-0.325,0.059-0.489,0.061C534.247,13.909,531.963,13.907,529.68,13.907z"/>
	<path fill="#B773DA" d="M529.713,9.988c-2.336,0-4.672-0.001-7.006,0.001c-0.352,0-0.629-0.128-0.799-0.44
		c-0.16-0.296-0.174-0.623,0.045-0.876c0.147-0.172,0.389-0.279,0.606-0.372c0.125-0.053,0.287-0.022,0.433-0.022
		c4.473-0.001,8.945-0.001,13.418,0c0.113,0,0.229-0.001,0.342,0.006c0.531,0.034,0.867,0.375,0.859,0.869
		c-0.011,0.487-0.371,0.832-0.896,0.833c-1.856,0.003-3.715,0.001-5.572,0.001C530.667,9.988,530.19,9.988,529.713,9.988z"/>
	<path fill="#B773DA" d="M522.006,17.301c-0.004-0.637,0.498-1.147,1.133-1.15c0.625-0.003,1.152,0.519,1.154,1.141
		c0,0.617-0.531,1.158-1.143,1.163C522.536,18.46,522.01,17.932,522.006,17.301z"/>
	<path fill="#B773DA" d="M526.459,16.148c0.629-0.004,1.164,0.521,1.161,1.137c-0.004,0.609-0.556,1.15-1.165,1.145
		c-0.615-0.007-1.126-0.516-1.137-1.132C525.308,16.674,525.825,16.152,526.459,16.148z"/>
	<path fill="#B773DA" d="M530.938,17.299c0,0.625-0.519,1.152-1.135,1.155c-0.615,0.004-1.141-0.528-1.141-1.153
		c0-0.629,0.516-1.148,1.14-1.148C530.432,16.152,530.938,16.664,530.938,17.299z"/>
</g>
<g>
	<path fill-rule="evenodd" clip-rule="evenodd" fill="#00DAE5" d="M568.593,15.183c0.636,0.291,1.264,0.538,1.852,0.859
		c0.597,0.325,1.162,0.709,1.723,1.097c0.354,0.245,0.491,0.616,0.376,1.039c-0.113,0.411-0.406,0.642-0.829,0.698
		c-0.269,0.036-0.503-0.053-0.717-0.212c-1.158-0.86-2.423-1.503-3.828-1.849c-1.105-0.272-2.223-0.378-3.364-0.292
		c-2.237,0.169-4.227,0.961-5.948,2.388c-1.942,1.611-3.168,3.663-3.611,6.157c-0.107,0.605-0.145,1.227-0.18,1.843
		c-0.029,0.555-0.473,0.956-0.983,0.949c-0.559-0.008-0.969-0.46-0.959-1.056c0.02-1.111,0.177-2.204,0.493-3.271
		c0.628-2.114,1.739-3.934,3.321-5.47c1.288-1.249,2.789-2.148,4.463-2.773c0.045-0.018,0.09-0.035,0.134-0.055
		c0.013-0.006,0.023-0.02,0.055-0.046c-1.724-1.384-2.715-3.148-2.707-5.39c0.007-1.829,0.682-3.406,1.987-4.678
		c2.619-2.554,6.575-2.51,9.122-0.292c1.597,1.391,2.385,3.173,2.306,5.283C571.218,12.219,570.229,13.887,568.593,15.183z
		 M559.824,9.823c-0.015,2.584,2.108,4.718,4.708,4.732c2.669,0.016,4.819-2.078,4.839-4.71c0.02-2.573-2.134-4.722-4.745-4.738
		C561.979,5.091,559.837,7.195,559.824,9.823z"/>
</g>
<line fill="none" stroke="#00DAE5" stroke-width="2" stroke-miterlimit="10" x1="559.386" y1="25.5" x2="571.386" y2="25.5"/>
<circle fill="none" stroke="#00DAE5" stroke-width="2" stroke-miterlimit="10" cx="572.859" cy="24.987" r="2.937"/>
<line fill="none" stroke="#00DAE5" stroke-width="2" stroke-miterlimit="10" x1="561.386" y1="25.5" x2="561.386" y2="28.5"/>
<line fill="none" stroke="#00DAE5" stroke-width="2" stroke-miterlimit="10" x1="566.386" y1="25.5" x2="566.386" y2="30.5"/>
</svg>
