<?xml version="1.0" encoding="utf-8"?>
<!-- Generator: Adobe Illustrator 16.0.0, SVG Export Plug-In . SVG Version: 6.00 Build 0)  -->
<!DOCTYPE svg PUBLIC "-//W3C//DTD SVG 1.1//EN" "http://www.w3.org/Graphics/SVG/1.1/DTD/svg11.dtd">
<svg version="1.1" id="Layer_1" xmlns="http://www.w3.org/2000/svg" xmlns:xlink="http://www.w3.org/1999/xlink" x="0px" y="0px"
	 width="160px" height="160px" viewBox="0 0 160 160" enable-background="new 0 0 160 160" xml:space="preserve">
<rect fill="#E2E3E5" width="160" height="160"/>
<g>
	<path fill="#919191" d="M57.234,48.324h5.169L73.02,64.605h0.062V48.324h3.9v21.914H72.03L61.196,53.432h-0.062v16.807h-3.9V48.324
		L57.234,48.324z"/>
	<path fill="#919191" d="M80.695,59.374c0-1.753,0.289-3.348,0.867-4.782c0.576-1.434,1.377-2.657,2.397-3.668
		c1.021-1.011,2.238-1.79,3.651-2.337c1.412-0.546,2.966-0.82,4.658-0.82c1.713-0.02,3.281,0.232,4.705,0.758
		s2.65,1.295,3.685,2.306c1.03,1.011,1.836,2.229,2.414,3.652c0.575,1.424,0.864,3.013,0.864,4.767c0,1.713-0.289,3.271-0.864,4.674
		c-0.578,1.403-1.384,2.61-2.414,3.621c-1.033,1.011-2.261,1.801-3.685,2.368s-2.992,0.861-4.705,0.882
		c-1.692,0-3.246-0.274-4.658-0.82c-1.413-0.546-2.631-1.32-3.651-2.321c-1.021-1-1.821-2.203-2.397-3.606
		C80.984,62.645,80.695,61.087,80.695,59.374z M84.781,59.126c0,1.176,0.18,2.26,0.541,3.25c0.361,0.991,0.871,1.847,1.533,2.569
		c0.66,0.723,1.449,1.29,2.367,1.703s1.944,0.619,3.079,0.619c1.136,0,2.166-0.206,3.095-0.619c0.93-0.413,1.723-0.98,2.385-1.703
		c0.66-0.722,1.17-1.578,1.531-2.569c0.36-0.99,0.543-2.074,0.543-3.25c0-1.093-0.183-2.115-0.543-3.064
		c-0.361-0.949-0.871-1.78-1.531-2.492c-0.662-0.712-1.455-1.269-2.385-1.671c-0.929-0.402-1.959-0.604-3.095-0.604
		c-1.135,0-2.161,0.201-3.079,0.604s-1.707,0.959-2.367,1.671c-0.662,0.712-1.172,1.542-1.533,2.492S84.781,58.033,84.781,59.126z"
		/>
	<path fill="#919191" d="M31.049,85.467h3.9v21.914h-3.9V85.467z"/>
	<path fill="#919191" d="M39.839,85.467h5.943l5.85,15.354l5.912-15.354h5.881v21.914H59.71V89.182h-0.062l-6.655,18.199H50.27
		l-6.655-18.199h-0.062v18.199h-3.714V85.467z"/>
	<path fill="#919191" d="M75.496,85.467h3.374l9.44,21.914h-4.457l-2.043-5.015h-9.502l-1.981,5.015h-4.364L75.496,85.467z
		 M80.448,99.023l-3.374-8.914l-3.436,8.914H80.448z"/>
	<path fill="#919191" d="M110.225,105.771c-2.703,1.443-5.728,2.166-9.07,2.166c-1.691,0-3.244-0.273-4.657-0.819
		c-1.413-0.548-2.631-1.32-3.651-2.322c-1.021-1-1.822-2.202-2.398-3.604c-0.578-1.403-0.867-2.961-0.867-4.674
		c0-1.754,0.289-3.349,0.867-4.783c0.576-1.434,1.377-2.655,2.398-3.666c1.021-1.012,2.238-1.791,3.651-2.338
		s2.966-0.819,4.657-0.819c1.673,0,3.24,0.2,4.705,0.604c1.466,0.401,2.775,1.118,3.932,2.149l-2.878,2.91
		c-0.702-0.683-1.554-1.207-2.554-1.579c-1.002-0.371-2.06-0.557-3.174-0.557c-1.135,0-2.162,0.201-3.08,0.604
		s-1.707,0.959-2.366,1.671c-0.661,0.712-1.173,1.543-1.532,2.492c-0.361,0.948-0.542,1.971-0.542,3.063
		c0,1.176,0.181,2.26,0.542,3.25c0.359,0.99,0.871,1.848,1.532,2.568c0.659,0.723,1.448,1.29,2.366,1.702
		c0.918,0.413,1.945,0.619,3.08,0.619c0.99,0,1.924-0.093,2.801-0.278c0.878-0.186,1.656-0.475,2.338-0.865v-5.17h-4.487v-3.529
		h8.388V105.771L110.225,105.771z"/>
	<path fill="#919191" d="M114.835,85.467h14.517v3.528h-10.617v5.386h10.061v3.528h-10.061v5.942h11.175v3.528h-15.073
		L114.835,85.467L114.835,85.467z"/>
</g>
</svg>
