<?xml version="1.0" encoding="utf-8"?>
<!-- Generator: Adobe Illustrator 16.0.0, SVG Export Plug-In . SVG Version: 6.00 Build 0)  -->
<!DOCTYPE svg PUBLIC "-//W3C//DTD SVG 1.1//EN" "http://www.w3.org/Graphics/SVG/1.1/DTD/svg11.dtd">
<svg version="1.1" id="Isolation_Mode" xmlns="http://www.w3.org/2000/svg" xmlns:xlink="http://www.w3.org/1999/xlink" x="0px"
	 y="0px" width="18px" height="18px" viewBox="0 0 18 18" enable-background="new 0 0 18 18" xml:space="preserve">
<g>
	<path fill-rule="evenodd" clip-rule="evenodd" d="M11.482,16.114c0-0.582,0-1.138,0-1.691c0.001-0.688,0.434-1.117,1.127-1.119
		c0.484-0.001,0.967,0,1.449-0.001c0.072,0,0.143-0.005,0.235-0.01c0-0.267,0-0.521,0-0.776c-0.003-1.653-0.003-4.67-0.008-6.324
		c-0.002-0.194,0.052-0.309,0.229-0.437c0.368-0.268,0.691-0.598,1.027-0.909c0.051-0.046,0.07-0.125,0.103-0.188
		c0.031,0.021,0.062,0.042,0.092,0.063c0,0.304,0,0.608,0,0.912c0,2.034,0,5.431,0,7.465c0,0.19,0.008,0.382-0.01,0.571
		c-0.024,0.268-0.119,0.504-0.316,0.701c-0.958,0.949-1.909,1.901-2.858,2.857c-0.221,0.22-0.484,0.321-0.788,0.321
		c-1.99,0.002-3.979,0.001-5.969,0.001c-1.141,0-2.283,0.013-3.423-0.002c-0.859-0.012-1.428-0.614-1.428-1.47
		c0-2.598,0-6.56,0-9.157c0-0.885-0.001-1.771,0-2.656c0.001-0.87,0.59-1.46,1.456-1.461c2.034-0.002,4.068,0.001,6.102-0.005
		c0.186,0,0.222,0.062,0.269,0.239c0.089,0.327-0.083,0.492-0.261,0.717C8.177,4.172,7.781,4.264,7.27,4.253
		c-1.542-0.032-3.087-0.009-4.63-0.015c-0.228,0-0.262,0.111-0.262,0.301c0.006,1.588,0.008,4.54,0.008,6.126
		c0,1.654-0.004,3.308-0.006,4.96c0,0.494,0.001,0.49,0.491,0.49c1.901-0.004,3.804-0.002,5.707-0.002
		C9.534,16.114,10.491,16.114,11.482,16.114z"/>
	<path fill-rule="evenodd" clip-rule="evenodd" d="M10.438,3.749c-0.684-1.19-0.32-2.559,0.646-3.275
		c0.796-0.592,1.89-0.635,2.803-0.094c0.799,0.474,1.251,1.486,1.11,2.477c-0.136,0.933-0.869,1.752-1.784,1.995
		c-0.524,0.139-1.043,0.127-1.545-0.085c-0.124-0.052-0.195-0.026-0.284,0.064c-0.54,0.545-1.081,1.089-1.631,1.627
		c-0.09,0.087-0.21,0.158-0.329,0.199c-0.378,0.131-0.761,0.251-1.147,0.36c-0.078,0.022-0.197,0.008-0.251-0.04
		C7.985,6.94,7.992,6.81,8.022,6.743c0.164-0.351,0.335-0.697,0.517-1.039c0.052-0.101,0.134-0.191,0.215-0.273
		C9.31,4.871,9.87,4.313,10.438,3.749z"/>
	<path fill-rule="evenodd" clip-rule="evenodd" d="M8.358,9.594c-1.293,0-2.588,0-3.882-0.002c-0.283,0-0.311-0.028-0.311-0.317
		c0-0.153,0-0.307,0-0.461c0-0.349,0.013-0.362,0.354-0.362c1.791,0,3.583,0,5.374,0c0.783,0,1.566-0.001,2.349,0
		c0.283,0,0.311,0.029,0.311,0.317c0.002,0.162,0.002,0.323,0,0.484c0,0.32-0.02,0.339-0.331,0.341
		C10.934,9.594,9.646,9.594,8.358,9.594z"/>
	<path fill-rule="evenodd" clip-rule="evenodd" d="M8.383,11.388c1.279,0,2.559-0.001,3.838,0c0.306,0,0.33,0.023,0.33,0.32
		c0.002,0.191-0.004,0.381,0.002,0.572c0.006,0.173-0.072,0.254-0.249,0.249c-0.24-0.003-0.482-0.001-0.724-0.001
		c-2.354,0-4.709,0-7.064,0c-0.334,0-0.352-0.016-0.352-0.342c0-0.168,0-0.338,0-0.506c0.002-0.257,0.037-0.293,0.292-0.293
		C5.765,11.387,7.074,11.388,8.383,11.388z"/>
</g>
</svg>
