<?xml version="1.0" encoding="utf-8"?>
<!-- Generator: Adobe Illustrator 16.0.3, SVG Export Plug-In . SVG Version: 6.00 Build 0)  -->
<!DOCTYPE svg PUBLIC "-//W3C//DTD SVG 1.1//EN" "http://www.w3.org/Graphics/SVG/1.1/DTD/svg11.dtd">
<svg version="1.1" id="Layer_1" xmlns="http://www.w3.org/2000/svg" xmlns:xlink="http://www.w3.org/1999/xlink" x="0px" y="0px"
	 width="60px" height="60px" viewBox="0 0 60 60" enable-background="new 0 0 60 60" xml:space="preserve">
<g>
	<path fill-rule="evenodd" clip-rule="evenodd" stroke="#FFFFFF" stroke-width="0.5" stroke-miterlimit="10" d="M18.007,10.047
		c0-0.723-0.014-1.35,0.003-1.977c0.026-0.983,0.538-1.494,1.53-1.496c1.381-0.003,2.762-0.019,4.144,0.006
		c0.538,0.011,0.823-0.121,0.943-0.713c0.528-2.618,2.292-4.175,4.598-4.125c2.379,0.05,4.061,1.607,4.55,4.212
		c0.032,0.171,0.056,0.345,0.098,0.612c1.526,0,3.043,0.042,4.558-0.012c1.355-0.048,1.875,0.352,1.947,1.715
		c0.029,0.555,0.004,1.113,0.004,1.768c1.623,0,3.139,0.055,4.648-0.012c3.064-0.135,4.542,2.049,4.529,4.507
		c-0.063,12.608-0.07,25.217,0.002,37.827c0.016,2.702-1.173,4.921-4.916,4.88c-10.342-0.113-20.685-0.039-31.027-0.039
		c-3.466,0-4.866-1.445-4.845-4.929c0.036-5.845,0.053-11.688,0.063-17.531c0.011-6.658,0.004-13.317,0.009-19.976
		c0.002-3.347,1.365-4.715,4.687-4.719C14.978,10.046,16.424,10.047,18.007,10.047z M17.887,12.323
		c-1.648,0-3.165,0.002-4.681-0.001c-1.687-0.003-2.149,0.445-2.149,2.102c-0.001,12.748-0.001,25.496,0,38.244
		c0,1.883,0.423,2.303,2.305,2.303c10.481,0,20.962,0.001,31.445,0.004c2.143,0,2.484-0.34,2.484-2.453
		c0-12.253,0.002-24.506-0.003-36.758c0-0.706,0.067-1.448-0.129-2.106c-0.146-0.489-0.642-1.21-1.021-1.236
		c-1.888-0.127-3.787-0.059-5.747-0.059c0,0.673,0.005,1.235-0.002,1.797c-0.014,1.199-0.542,1.791-1.716,1.793
		c-6.339,0.015-12.678,0.016-19.016,0.001c-1.135-0.003-1.678-0.545-1.762-1.684C17.851,13.676,17.887,13.076,17.887,12.323z
		 M38.024,13.598c0-1.678,0-3.243,0-4.858c-1.725,0-3.349,0.009-4.972-0.003c-1.149-0.008-1.426-0.308-1.416-1.468
		c0.002-0.319,0.037-0.641,0.001-0.954c-0.206-1.787-1.915-2.813-3.465-2.089c-1.01,0.472-1.414,1.277-1.416,2.382
		c-0.001,2.046-0.116,2.132-2.172,2.132c-1.437-0.001-2.875,0-4.311,0c0,1.704,0,3.273,0,4.857
		C26.211,13.598,32.072,13.598,38.024,13.598z"/>
	<path fill-rule="evenodd" clip-rule="evenodd" stroke="#FFFFFF" stroke-width="0.5" stroke-miterlimit="10" d="M29.177,35.506
		c-4.033,0-8.065,0.009-12.099-0.015c-0.433-0.004-0.949-0.094-1.278-0.343c-0.601-0.453-0.336-1.563,0.4-1.797
		c0.358-0.115,0.765-0.113,1.148-0.114c7.889-0.005,15.778-0.004,23.666-0.004c0.212,0,0.425-0.004,0.636,0.005
		c0.744,0.031,1.252,0.4,1.229,1.16c-0.021,0.75-0.535,1.106-1.286,1.106c-1.839-0.002-3.679,0.001-5.519,0.001
		C33.775,35.506,31.476,35.506,29.177,35.506z"/>
	<path fill-rule="evenodd" clip-rule="evenodd" stroke="#FFFFFF" stroke-width="0.5" stroke-miterlimit="10" d="M29.177,25.519
		c-4.031,0-8.063,0.011-12.095-0.014c-0.434-0.002-0.95-0.094-1.28-0.341c-0.603-0.453-0.336-1.563,0.401-1.795
		c0.36-0.114,0.766-0.112,1.151-0.113c7.886-0.006,15.773-0.005,23.659-0.005c0.212,0,0.425-0.004,0.637,0.005
		c0.743,0.033,1.254,0.396,1.228,1.158c-0.025,0.748-0.535,1.107-1.287,1.105c-1.838-0.002-3.678,0-5.518,0.001
		C33.774,25.52,31.476,25.52,29.177,25.519z"/>
	<path fill-rule="evenodd" clip-rule="evenodd" stroke="#FFFFFF" stroke-width="0.5" stroke-miterlimit="10" d="M32.604,48.585
		c2.663-2.68,5.231-5.264,7.801-7.848c0.225-0.227,0.424-0.586,0.686-0.641c0.455-0.096,1.047-0.167,1.408,0.045
		c0.546,0.321,0.611,0.952,0.152,1.468c-0.517,0.581-1.086,1.115-1.637,1.664c-2.4,2.403-4.801,4.808-7.207,7.208
		c-0.922,0.918-1.402,0.923-2.31,0.024c-1.208-1.194-2.397-2.407-3.607-3.6c-0.58-0.572-0.846-1.174-0.169-1.822
		c0.64-0.611,1.208-0.319,1.733,0.232C30.476,46.392,31.512,47.455,32.604,48.585z"/>
	<path fill-rule="evenodd" clip-rule="evenodd" stroke="#FFFFFF" stroke-width="0.5" stroke-miterlimit="10" d="M19.24,45.486
		c-0.85,0-1.701,0.021-2.551-0.005c-0.673-0.021-1.162-0.3-1.188-1.068c-0.027-0.814,0.446-1.174,1.179-1.185
		c1.7-0.028,3.401-0.028,5.101,0c0.728,0.011,1.217,0.359,1.191,1.175c-0.024,0.761-0.506,1.056-1.182,1.077
		C20.94,45.508,20.09,45.486,19.24,45.486z"/>
	<path fill-rule="evenodd" clip-rule="evenodd" stroke="#FFFFFF" stroke-width="0.5" stroke-miterlimit="10" d="M29.2,7.886
		c-0.874,0.02-1.539-0.602-1.572-1.469c-0.034-0.878,0.654-1.673,1.481-1.708c0.759-0.032,1.669,0.805,1.709,1.573
		C30.861,7.081,30.068,7.866,29.2,7.886z"/>
</g>
</svg>
