<?xml version="1.0" encoding="utf-8"?>
<!-- Generator: Adobe Illustrator 16.0.3, SVG Export Plug-In . SVG Version: 6.00 Build 0)  -->
<!DOCTYPE svg PUBLIC "-//W3C//DTD SVG 1.1//EN" "http://www.w3.org/Graphics/SVG/1.1/DTD/svg11.dtd">
<svg version="1.1" id="Isolation_Mode" xmlns="http://www.w3.org/2000/svg" xmlns:xlink="http://www.w3.org/1999/xlink" x="0px"
	 y="0px" width="32px" height="32px" viewBox="0 0 32 32" enable-background="new 0 0 32 32" xml:space="preserve">
<g>
	<path fill-rule="evenodd" clip-rule="evenodd" fill="#00AD21" d="M16.045,10.697c-0.083,0.079-0.159,0.148-0.231,0.22
		c-0.843,0.842-1.686,1.686-2.529,2.528c-0.106,0.106-0.21,0.217-0.325,0.313c-0.285,0.237-0.602,0.298-0.949,0.144
		c-0.349-0.155-0.515-0.434-0.549-0.804c-0.004-0.044-0.004-0.089-0.004-0.134c0-2.653,0-5.306,0-7.959c0-0.032,0-0.063,0-0.103
		c0.618,0,1.231,0,1.855,0c0,1.967,0,3.936,0,5.938c0.047-0.044,0.073-0.068,0.098-0.093c0.631-0.633,1.262-1.267,1.895-1.897
		c0.079-0.078,0.168-0.149,0.261-0.21c0.304-0.2,0.614-0.201,0.919-0.004c0.106,0.069,0.207,0.152,0.297,0.241
		c0.578,0.573,1.151,1.15,1.729,1.725c0.074,0.074,0.155,0.142,0.251,0.227c0-1.988,0-3.955,0-5.928c0.615,0,1.22,0,1.833,0
		c0.003,0.025,0.007,0.052,0.007,0.08c0.001,2.691,0.005,5.383-0.002,8.074c-0.003,0.809-0.84,1.096-1.305,0.836
		c-0.099-0.056-0.194-0.125-0.275-0.206c-0.895-0.89-1.787-1.783-2.679-2.677C16.242,10.909,16.148,10.805,16.045,10.697z"/>
	<path fill-rule="evenodd" clip-rule="evenodd" d="M5.184,26.736c-0.379,0.477-0.756,0.949-1.137,1.428
		c-0.249-0.203-0.434-0.444-0.569-0.725c-0.166-0.343-0.246-0.706-0.246-1.086c0-6.973-0.004-13.945,0.004-20.917
		c0.001-0.896,0.378-1.61,1.186-2.055c0.346-0.19,0.723-0.281,1.116-0.281c6.999-0.002,13.997-0.006,20.995,0.003
		c1.221,0.002,2.119,0.823,2.272,2.015c0.012,0.089,0.018,0.179,0.018,0.268c0,2.278,0,4.556,0,6.834
		c0,0.486-0.368,0.906-0.817,0.934c-0.512,0.033-0.928-0.305-0.99-0.813C26.995,12.184,27,12.022,27,11.863
		c-0.001-2.099-0.001-4.198-0.002-6.296c0-0.089-0.006-0.18-0.02-0.268c-0.034-0.215-0.145-0.322-0.359-0.352
		c-0.075-0.01-0.152-0.017-0.229-0.017C20.904,4.928,15.418,4.927,9.933,4.926c-1.426,0-2.852,0.002-4.278,0.003
		c-0.445,0-0.594,0.149-0.594,0.595c0,6.915,0,13.829,0,20.744C5.062,26.433,5.072,26.597,5.184,26.736z"/>
	<path fill-rule="evenodd" clip-rule="evenodd" fill="#00AD21" d="M4.038,28.141c0.373-0.469,0.748-0.939,1.128-1.417
		c0.173,0.136,0.376,0.128,0.578,0.128c6.86,0,13.721,0,20.582-0.001c0.104,0,0.211-0.007,0.314-0.023
		c0.181-0.03,0.292-0.142,0.321-0.323c0.016-0.098,0.021-0.197,0.021-0.297c0.001-3.082,0.001-6.165,0.002-9.247
		c0-0.264,0.033-0.521,0.209-0.732c0.243-0.293,0.555-0.413,0.925-0.316c0.38,0.098,0.603,0.358,0.685,0.739
		c0.009,0.04,0.004,0.083,0.004,0.125c0,3.21,0.005,6.421-0.002,9.632c-0.003,1.021-0.646,2.006-1.873,2.228
		c-0.147,0.026-0.299,0.038-0.448,0.038c-7.012,0.002-14.022,0.003-21.033-0.001c-0.5,0-0.954-0.171-1.356-0.471
		c-0.015-0.012-0.03-0.024-0.044-0.038C4.046,28.159,4.044,28.152,4.038,28.141z"/>
	<path fill-rule="evenodd" clip-rule="evenodd" d="M16.027,20.471c-1.179,0-2.358,0-3.537,0c-0.277,0-0.535-0.067-0.745-0.258
		c-0.268-0.243-0.342-0.552-0.257-0.894c0.089-0.359,0.347-0.557,0.695-0.643c0.104-0.026,0.215-0.037,0.323-0.037
		c2.365-0.003,4.729-0.003,7.093-0.001c0.384,0,0.705,0.13,0.895,0.488c0.282,0.535,0.04,1.097-0.554,1.273
		c-0.139,0.041-0.289,0.06-0.435,0.062c-0.899,0.009-1.8,0.011-2.7,0.015c-0.259,0.002-0.519,0.001-0.778,0.001
		C16.027,20.475,16.027,20.473,16.027,20.471z"/>
	<path fill-rule="evenodd" clip-rule="evenodd" d="M16.027,25.04c-1.189,0-2.377,0.002-3.566-0.001c-0.356,0-0.663-0.121-0.865-0.43
		c-0.327-0.498-0.076-1.163,0.504-1.339c0.121-0.037,0.251-0.058,0.377-0.058c2.365-0.003,4.729-0.002,7.095-0.003
		c0.178,0,0.351,0.032,0.513,0.107c0.352,0.163,0.547,0.494,0.518,0.875c-0.031,0.395-0.28,0.696-0.678,0.801
		c-0.113,0.03-0.233,0.045-0.351,0.045C18.392,25.041,17.21,25.04,16.027,25.04z"/>
</g>
</svg>
