<?xml version="1.0" encoding="utf-8"?>
<!-- Generator: Adobe Illustrator 16.0.3, SVG Export Plug-In . SVG Version: 6.00 Build 0)  -->
<!DOCTYPE svg PUBLIC "-//W3C//DTD SVG 1.1//EN" "http://www.w3.org/Graphics/SVG/1.1/DTD/svg11.dtd">
<svg version="1.1" id="Layer_1" xmlns="http://www.w3.org/2000/svg" xmlns:xlink="http://www.w3.org/1999/xlink" x="0px" y="0px"
	 width="32px" height="32px" viewBox="0 0 32 32" enable-background="new 0 0 32 32" xml:space="preserve">
<g>
	<path fill-rule="evenodd" clip-rule="evenodd" d="M3.173,15.809c0-3.458-0.001-6.916,0-10.375C3.174,3.617,4.47,2.307,6.284,2.307
		C12.359,2.303,18.434,2.313,24.509,2.3c1.777-0.003,3.127,1.425,3.114,3.04c-0.024,3-0.004,6.001-0.007,9.001
		c0,0.48-0.203,0.791-0.562,0.91c-0.347,0.114-0.761,0.021-0.945-0.28c-0.117-0.19-0.187-0.441-0.188-0.665
		c-0.012-2.949-0.007-5.898-0.01-8.848c0-0.72-0.35-1.214-0.979-1.375c-0.157-0.041-0.327-0.04-0.492-0.04
		c-6.034-0.001-12.068-0.002-18.101,0c-0.945,0-1.448,0.502-1.448,1.435c-0.001,6.88,0,13.759,0,20.639
		c0,0.794,0.337,1.286,1.003,1.449C6.043,27.602,6.204,27.6,6.358,27.6c2.285,0.003,6.569,0,8.854,0.004
		c0.714,0.001,1.148,0.65,0.844,1.253c-0.174,0.347-0.48,0.47-0.848,0.471c-0.447,0.001-0.893,0-1.34,0
		c-1.869,0-5.738,0.004-7.607-0.001c-1.473-0.004-2.618-0.863-2.984-2.252c-0.073-0.276-0.098-0.573-0.099-0.86
		C3.17,22.745,3.173,19.277,3.173,15.809z"/>
	<path fill-rule="evenodd" clip-rule="evenodd" fill="none" stroke="#000000" stroke-width="1.5" stroke-miterlimit="10" d="
		M21.875,11.938c0,0.553-0.447,1-1,1H9.25c-0.553,0-1-0.447-1-1V8.25c0-0.552,0.447-1,1-1h11.625c0.553,0,1,0.448,1,1V11.938z"/>
	
		<line fill="none" stroke="#000000" stroke-width="1.5" stroke-linecap="round" stroke-miterlimit="10" x1="8.688" y1="17.75" x2="14.938" y2="17.75"/>
	
		<line fill="none" stroke="#000000" stroke-width="1.5" stroke-linecap="round" stroke-miterlimit="10" x1="8.688" y1="20.75" x2="14.938" y2="20.75"/>
	
		<line fill="none" stroke="#000000" stroke-width="1.5" stroke-linecap="round" stroke-miterlimit="10" x1="8.688" y1="23.75" x2="14.938" y2="23.75"/>
</g>
<g id="_07">
	<path fill="#EA2D3F" stroke="#EA2D3F" stroke-width="0.3" stroke-miterlimit="10" d="M24.427,19.687v1.157
		c0.639,0,1.156,0.519,1.156,1.156h1.156C26.739,20.723,25.704,19.687,24.427,19.687z"/>
	<path fill="#EA2D3F" stroke="#EA2D3F" stroke-width="0.3" stroke-miterlimit="10" d="M29.053,26.469V22
		c0-2.555-2.071-4.625-4.626-4.625s-4.626,2.07-4.626,4.625v4.469h-1.155v1.157h4.046v0.577c0,0.958,0.777,1.734,1.735,1.734
		c0.957,0,1.734-0.776,1.734-1.734v-0.577h4.047v-1.157H29.053z M25.005,28.203c0,0.32-0.258,0.578-0.578,0.578
		c-0.318,0-0.578-0.258-0.578-0.578v-0.577h1.156V28.203z M27.896,26.469h-6.938V22c0-1.916,1.553-3.469,3.469-3.469
		s3.469,1.553,3.469,3.469V26.469z"/>
</g>
</svg>
