<?xml version="1.0" encoding="utf-8"?>
<!-- Generator: Adobe Illustrator 16.0.3, SVG Export Plug-In . SVG Version: 6.00 Build 0)  -->
<!DOCTYPE svg PUBLIC "-//W3C//DTD SVG 1.1//EN" "http://www.w3.org/Graphics/SVG/1.1/DTD/svg11.dtd">
<svg version="1.1" id="Isolation_Mode" xmlns="http://www.w3.org/2000/svg" xmlns:xlink="http://www.w3.org/1999/xlink" x="0px"
	 y="0px" width="17.004px" height="23.011px" viewBox="0 0 17.004 23.011" enable-background="new 0 0 17.004 23.011"
	 xml:space="preserve">
<path fill="none" stroke="#000000" stroke-width="1.5" stroke-miterlimit="10" d="M0.874,20.797c0-5.66,0-7.035,0-12.699
	c0.604,0,1.19,0,1.814,0c0-0.167-0.002-0.297,0-0.427c0.016-1.43-0.031-0.069,0.063-1.494c0.18-2.694,2.595-5.007,5.3-5.165
	c3.089-0.18,5.621,1.78,6.193,4.803c0.061,0.317,0.085,0.643,0.087,0.966c0.011,1.352,0.005-0.091,0.005,1.299
	c0.612,0,1.209,0,1.831,0c0,5.678,0,7.063,0,12.717C11.068,20.797,5.987,20.797,0.874,20.797z"/>
<path fill="none" stroke="#000000" stroke-width="1.5" stroke-miterlimit="10" d="M2.169,8.098c4.066,0,8.009,0,12.212,0"/>
<path fill="none" stroke="#000000" stroke-width="1.5" stroke-miterlimit="10" d="M8.675,14.35c0.667,0,1.251-0.588,1.248-1.255
	c-0.003-0.672-0.584-1.253-1.256-1.246c-0.672,0.004-1.25,0.584-1.25,1.254C7.419,13.771,8.007,14.354,8.675,14.35z"/>
<path fill="none" stroke="#000000" stroke-width="1.5" stroke-miterlimit="10" d="M8.69,17.671c0-1.211,0-2.403,0-3.604"/>
<path fill="none" stroke="#41C363" stroke-width="1.5" stroke-miterlimit="10" d="M0.874,12.797c0-5.66,0,0.965,0-4.699
	c0.604,0,1.19,0,1.814,0c0-0.167-0.002-0.297,0-0.427c0.016-1.43-0.031-0.069,0.063-1.494c0.18-2.694,2.595-5.007,5.3-5.165"/>
</svg>
