<?xml version="1.0" encoding="utf-8"?>
<!-- Generator: Adobe Illustrator 16.0.0, SVG Export Plug-In . SVG Version: 6.00 Build 0)  -->
<!DOCTYPE svg PUBLIC "-//W3C//DTD SVG 1.1//EN" "http://www.w3.org/Graphics/SVG/1.1/DTD/svg11.dtd">
<svg version="1.1" id="Layer_1" xmlns="http://www.w3.org/2000/svg" xmlns:xlink="http://www.w3.org/1999/xlink" x="0px" y="0px"
	 width="50px" height="50px" viewBox="0 0 50 50" enable-background="new 0 0 50 50" xml:space="preserve">
<g>
	<g>
		<path d="M48.891,28.894c-0.681-0.827-1.345-1.61-1.971-2.434c-0.15-0.199-0.23-0.509-0.23-0.766
			c-0.021-2.661-0.014-5.324-0.014-7.986c0-0.235,0-0.474,0-0.751c-18.24,0-25.176,0-43.436,0c0,0.277,0,0.527,0,0.784
			c0,6.163,0.03,12.324-0.027,18.482c-0.015,1.602,1.114,3.035,3.051,3.032c10.559-0.029,9.874-0.008,20.433-0.029
			c0.566,0,0.869,0.114,1.018,0.7c0.131,0.503,0.411,0.957,0.653,1.503c-0.238,0.018-0.438,0.043-0.646,0.043
			c-10.996,0-10.751,0.002-21.749,0c-2.783-0.003-4.958-2.119-4.966-4.898c-0.011-9.13-0.011-18.261,0-27.387
			c0.006-2.801,2.146-4.913,4.937-4.913c16.435-0.004,21.618-0.004,38.05,0c2.67,0,4.881,2.055,4.899,4.671
			c0.039,6.575,0.021,13.155,0.021,19.731C48.915,28.764,48.898,28.841,48.891,28.894z M46.656,10.866
			c0-0.755,0.072-1.442-0.01-2.112c-0.182-1.352-1.375-2.25-2.9-2.25C34.883,6.5,32.621,6.5,23.762,6.5
			c-7.434,0-10.219,0-17.653,0.004c-1.465,0-2.651,0.902-2.835,2.241c-0.091,0.685-0.011,1.389-0.011,2.121
			C21.493,10.866,28.419,10.866,46.656,10.866z"/>
	</g>
	<g>
		<path d="M15.787,32.257c-2.792,0-5.586,0-8.375-0.002c-0.219,0-0.486,0.062-0.647-0.039c-0.232-0.141-0.518-0.39-0.545-0.615
			c-0.029-0.236,0.167-0.597,0.376-0.733c0.232-0.147,0.587-0.147,0.886-0.147c5.545-0.009,11.083-0.005,16.622-0.005
			c0.134,0,0.267-0.013,0.398,0.01c0.479,0.077,0.942,0.226,0.902,0.826c-0.034,0.598-0.467,0.713-0.977,0.713
			C21.546,32.257,18.666,32.257,15.787,32.257L15.787,32.257z"/>
	</g>
	<g>
		<path d="M13.403,26.561c2.068,0,4.134,0.013,6.202-0.004c0.561-0.01,0.969,0.118,1.015,0.743c0.042,0.551-0.311,0.841-0.994,0.845
			c-4.18,0-8.359,0-12.538-0.004c-0.66,0-0.933-0.251-0.928-0.827c0.006-0.563,0.303-0.757,0.842-0.753
			c2.133,0.013,4.27,0.005,6.401,0.005V26.561z"/>
	</g>
	<g>
		<path d="M11.875,22.351c1.605,0,3.21,0.017,4.814-0.011c0.601-0.012,0.844,0.227,0.831,0.808c-0.013,0.543-0.23,0.782-0.81,0.78
			c-3.25-0.017-6.5-0.017-9.758-0.002c-0.576,0.004-0.789-0.249-0.797-0.784c-0.009-0.533,0.184-0.806,0.772-0.797
			C8.579,22.364,10.228,22.351,11.875,22.351z"/>
	</g>
	<g>
		<g>
			<g>
				<path d="M39.541,27.369c-4.907,0-8.9,3.994-8.9,8.902c0,4.912,3.993,8.903,8.9,8.903c4.908,0,8.904-3.991,8.904-8.903
					C48.443,31.363,44.449,27.369,39.541,27.369z M39.541,44.078c-4.303,0-7.805-3.505-7.805-7.807c0-4.3,3.502-7.807,7.805-7.807
					c4.302,0,7.807,3.507,7.807,7.807C47.348,40.573,43.843,44.078,39.541,44.078z"/>
				<path d="M39.541,45.729c-5.215,0-9.456-4.242-9.456-9.457s4.241-9.456,9.456-9.456c5.213,0,9.457,4.241,9.459,9.456
					C49,41.486,44.757,45.729,39.541,45.729z M39.541,29.021c-3.998,0-7.251,3.252-7.251,7.251c0,3.997,3.253,7.253,7.251,7.253
					c3.999,0,7.252-3.256,7.252-7.253C46.793,32.272,43.54,29.021,39.541,29.021z"/>
			</g>
			<g>
				<g>
					<circle cx="39.541" cy="32.718" r="0.917"/>
				</g>
				<g>
					<path d="M39.541,34.189c-0.809,0-1.471-0.66-1.471-1.473c0-0.809,0.662-1.471,1.471-1.471c0.814,0,1.473,0.662,1.473,1.471
						C41.014,33.529,40.355,34.189,39.541,34.189z M39.541,32.354c-0.198,0-0.363,0.162-0.363,0.362c0,0.402,0.729,0.402,0.729,0
						C39.904,32.518,39.74,32.354,39.541,32.354z"/>
				</g>
			</g>
			<g>
				<g>
					<path d="M39.541,35.133c-0.303,0-0.549,0.242-0.549,0.547v4.655c0,0.306,0.246,0.55,0.549,0.55c0.307,0,0.55-0.244,0.55-0.55
						V35.68C40.087,35.375,39.846,35.133,39.541,35.133z"/>
				</g>
				<g>
					<path d="M39.541,41.438c-0.605,0-1.104-0.498-1.104-1.104v-4.659c0-0.604,0.498-1.097,1.104-1.097
						c0.602,0,1.096,0.489,1.104,1.088v4.663C40.646,40.943,40.148,41.438,39.541,41.438z"/>
				</g>
			</g>
		</g>
	</g>
</g>
</svg>
