<?xml version="1.0" encoding="utf-8"?>
<!-- Generator: Adobe Illustrator 16.0.0, SVG Export Plug-In . SVG Version: 6.00 Build 0)  -->
<!DOCTYPE svg PUBLIC "-//W3C//DTD SVG 1.1//EN" "http://www.w3.org/Graphics/SVG/1.1/DTD/svg11.dtd">
<svg version="1.1" id="Layer_1" xmlns="http://www.w3.org/2000/svg" xmlns:xlink="http://www.w3.org/1999/xlink" x="0px" y="0px"
	 width="40px" height="40px" viewBox="116 14 40 40" enable-background="new 116 14 40 40" xml:space="preserve">
<g>
	<g>
		<g>
			<g>
				<path d="M148.297,22.693h-24.593c-1.949,0-3.533,1.584-3.533,3.533v15.547c0,1.948,1.584,3.534,3.533,3.534h24.593
					c1.947,0,3.533-1.586,3.533-3.534V26.226C151.831,24.279,150.245,22.693,148.297,22.693z M150.417,41.773
					c0,1.169-0.952,2.12-2.12,2.12h-24.593c-1.168,0-2.12-0.951-2.12-2.12V26.226c0-1.169,0.952-2.12,2.12-2.12h24.593
					c1.168,0,2.12,0.951,2.12,2.12V41.773L150.417,41.773z"/>
				<path d="M148.297,45.478h-24.593c-2.042,0-3.704-1.661-3.704-3.704V26.226c0-2.042,1.663-3.703,3.704-3.703h24.593
					c2.043,0,3.703,1.661,3.703,3.703v15.547C152,43.816,150.34,45.478,148.297,45.478z M123.704,22.862
					c-1.856,0-3.364,1.508-3.364,3.364v15.547c0,1.855,1.508,3.364,3.364,3.364h24.593c1.854,0,3.363-1.509,3.363-3.364V26.226
					c0-1.855-1.509-3.364-3.363-3.364H123.704z M148.297,44.063h-24.593c-1.263,0-2.29-1.026-2.29-2.29V26.226
					c0-1.263,1.027-2.29,2.29-2.29h24.593c1.261,0,2.29,1.027,2.29,2.29v15.547C150.587,43.037,149.558,44.063,148.297,44.063z
					 M123.704,24.275c-1.075,0-1.951,0.876-1.951,1.951v15.547c0,1.076,0.874,1.95,1.951,1.95h24.593c1.075,0,1.95-0.874,1.95-1.95
					V26.226c0-1.075-0.875-1.951-1.95-1.951H123.704z"/>
			</g>
		</g>
	</g>
	<g>
		<g>
			<g>
				<path d="M151.124,26.933h-30.246c-0.391,0-0.707,0.316-0.707,0.707v4.24c0,0.39,0.316,0.707,0.707,0.707h30.246
					c0.392,0,0.707-0.316,0.707-0.707v-4.24C151.831,27.25,151.515,26.933,151.124,26.933z M150.417,31.173h-28.833v-2.827h28.833
					V31.173L150.417,31.173z"/>
				<path d="M151.124,32.756h-30.246c-0.483,0-0.877-0.393-0.877-0.876v-4.24c0-0.483,0.394-0.876,0.877-0.876h30.246
					c0.484,0,0.877,0.394,0.877,0.876v4.24C152,32.363,151.608,32.756,151.124,32.756z M120.877,27.103
					c-0.296,0-0.538,0.241-0.538,0.537v4.24c0,0.296,0.242,0.537,0.538,0.537h30.246c0.296,0,0.537-0.241,0.537-0.537v-4.24
					c0-0.296-0.241-0.537-0.537-0.537H120.877z M150.587,31.343h-29.174v-3.166h29.174V31.343z M121.753,31.003h28.495v-2.488
					h-28.495V31.003z"/>
			</g>
		</g>
	</g>
	<g>
		<g>
			<g>
				<path d="M133.598,36.827h-8.48c-0.391,0-0.707,0.315-0.707,0.706c0,0.392,0.316,0.709,0.707,0.709h8.48
					c0.39,0,0.707-0.317,0.707-0.709C134.305,37.143,133.988,36.827,133.598,36.827z"/>
				<path d="M133.598,38.41h-8.48c-0.483,0-0.876-0.393-0.876-0.877c0-0.483,0.393-0.876,0.876-0.876h8.48
					c0.484,0,0.875,0.393,0.875,0.876C134.474,38.018,134.082,38.41,133.598,38.41z M125.118,36.997
					c-0.296,0-0.538,0.24-0.538,0.536c0,0.299,0.242,0.539,0.538,0.539h8.48c0.297,0,0.537-0.24,0.537-0.539
					c0-0.296-0.24-0.536-0.537-0.536H125.118z"/>
			</g>
		</g>
	</g>
	<g>
		<g>
			<g>
				<path d="M133.598,39.653h-8.48c-0.391,0-0.707,0.316-0.707,0.707s0.316,0.707,0.707,0.707h8.48c0.39,0,0.707-0.316,0.707-0.707
					S133.988,39.653,133.598,39.653z"/>
				<path d="M133.598,41.237h-8.48c-0.483,0-0.876-0.394-0.876-0.877s0.393-0.877,0.876-0.877h8.48c0.484,0,0.875,0.394,0.875,0.877
					S134.082,41.237,133.598,41.237z M125.118,39.823c-0.296,0-0.538,0.241-0.538,0.537s0.242,0.537,0.538,0.537h8.48
					c0.297,0,0.537-0.241,0.537-0.537s-0.24-0.537-0.537-0.537H125.118z"/>
			</g>
		</g>
	</g>
	<g>
		<g>
			<g>
				<path d="M145.47,35.413h-1.413c-1.169,0-2.12,0.952-2.12,2.12v1.414c0,1.166,0.951,2.12,2.12,2.12h1.413
					c1.168,0,2.12-0.954,2.12-2.12v-1.414C147.59,36.365,146.638,35.413,145.47,35.413z M146.177,38.947
					c0,0.391-0.316,0.706-0.707,0.706h-1.413c-0.389,0-0.707-0.315-0.707-0.706v-1.414c0-0.391,0.318-0.706,0.707-0.706h1.413
					c0.391,0,0.707,0.315,0.707,0.706V38.947z"/>
				<path d="M145.47,41.237h-1.413c-1.264,0-2.29-1.027-2.29-2.29v-1.414c0-1.263,1.026-2.29,2.29-2.29h1.413
					c1.261,0,2.29,1.027,2.29,2.29v1.414C147.76,40.21,146.731,41.237,145.47,41.237z M144.057,35.583
					c-1.076,0-1.95,0.875-1.95,1.95v1.414c0,1.075,0.872,1.95,1.95,1.95h1.413c1.075,0,1.95-0.875,1.95-1.95v-1.414
					c0-1.075-0.875-1.95-1.95-1.95H144.057z M145.47,39.823h-1.413c-0.483,0-0.877-0.393-0.877-0.876v-1.414
					c0-0.483,0.394-0.876,0.877-0.876h1.413c0.483,0,0.877,0.393,0.877,0.876v1.414C146.347,39.431,145.954,39.823,145.47,39.823z
					 M144.057,36.997c-0.296,0-0.537,0.24-0.537,0.536v1.414c0,0.296,0.241,0.536,0.537,0.536h1.413c0.296,0,0.537-0.24,0.537-0.536
					v-1.414c0-0.296-0.241-0.536-0.537-0.536H144.057z"/>
			</g>
		</g>
	</g>
</g>
</svg>
