<svg id="Capa_1" data-name="Capa 1" xmlns="http://www.w3.org/2000/svg" width="31" height="37.60131" viewBox="0 0 31 37.60131"><defs><style>.cls-1{fill:#ed734c;}</style></defs><title>pdf-icon</title><path class="cls-1" d="M2495.77425,297.54653l-9.09216-9.09208a.76756.76756,0,0,0-.54263-.22481h-17.41094a3.73373,3.73373,0,0,0-3.72946,3.72956v30.14221a3.73377,3.73377,0,0,0,3.72952,3.72954h23.54094a3.73374,3.73374,0,0,0,3.72954-3.72954V298.08917A.76823.76823,0,0,0,2495.77425,297.54653Zm-8.86721-6.69664,6.472,6.472h-4.27734a2.19445,2.19445,0,0,1-2.1947-2.19467Zm7.55719,31.25146a2.1972,2.1972,0,0,1-2.19471,2.19476h-23.541a2.19721,2.19721,0,0,1-2.19477-2.19476V291.9592a2.19733,2.19733,0,0,1,2.19477-2.1948h16.64376v5.36266a3.72917,3.72917,0,0,0,3.72939,3.72949h5.36249v23.2448Z" transform="translate(-2464.99906 -288.22964)"/><path class="cls-1" d="M2481.90115,316.83066h-.34354a.76735.76735,0,1,0,0,1.53469h.34354a.76735.76735,0,1,0,0-1.53469Z" transform="translate(-2464.99906 -288.22964)"/><path class="cls-1" d="M2479.075,316.83066h-7.45355a.76735.76735,0,1,0,0,1.53469h7.45355a.76735.76735,0,1,0,0-1.53469Z" transform="translate(-2464.99906 -288.22964)"/><path class="cls-1" d="M2489.37659,313.32424h-17.75508a.76738.76738,0,0,0,0,1.53476h17.75508a.76738.76738,0,0,0,0-1.53476Z" transform="translate(-2464.99906 -288.22964)"/><path class="cls-1" d="M2489.37659,309.81775h-17.75508a.76738.76738,0,1,0,0,1.53476h17.75508a.76738.76738,0,1,0,0-1.53476Z" transform="translate(-2464.99906 -288.22964)"/><path class="cls-1" d="M2489.37659,306.31133h-17.75508a.76738.76738,0,0,0,0,1.53476h17.75508a.76738.76738,0,0,0,0-1.53476Z" transform="translate(-2464.99906 -288.22964)"/><path class="cls-1" d="M2480.79873,298.79623c-.023-.00211-.57678-.05266-1.42678-.05266-.26635,0-.53461.0052-.79941.01516a42.39679,42.39679,0,0,1-3.78957-3.22687c.01346-.0778.02265-.1393.027-.18653a2.81544,2.81544,0,0,0-.31974-2.05639.78006.78006,0,0,0-.80893-.21124.96684.96684,0,0,0-.66246.61683c-.12579.41973.07651.92918.60806,1.52.00843.00894.18877.19795.51646.51816-.213,1.01565-.77058,3.20739-1.04115,4.25987a5.52712,5.52712,0,0,0-1.57461,1.21767l-.02692.0307-.01734.03686a1.27385,1.27385,0,0,0-.09242.91871.62529.62529,0,0,0,.37482.35541l.04719.01271a.61741.61741,0,0,0,.11744.00915c.32783,0,1.137-.17224,1.57107-1.77185l.10519-.40521a12.8712,12.8712,0,0,1,4.7817-1.04019c.70612.52359,1.40876,1.00466,2.08957,1.43065l.02224.01285a1.63814,1.63814,0,0,0,.68116.16466h0a1.00508,1.00508,0,0,0,1.00055-.84106l.00687-.03651a1.00327,1.00327,0,0,0-.22189-.79584A1.7689,1.7689,0,0,0,2480.79873,298.79623Zm-8.85619,3.18781-.006-.01095a.71771.71771,0,0,1,.064-.40834,4.62313,4.62313,0,0,1,.88611-.7583C2472.55332,301.88561,2472.06848,301.97884,2471.94254,301.984Zm2.1167-7.16992h0c-.512-.56988-.50429-.85242-.47674-.94752.04522-.159.24922-.21906.25085-.2196.10282-.02795.16524-.02244.22073.03848a2.10915,2.10915,0,0,1,.19081,1.31785C2474.124,294.88188,2474.05924,294.81412,2474.05924,294.81412Zm-.26452,4.853.00885-.03376-.00123.0004c.25636-1.004.626-2.47415.83864-3.41846l.00769.00731.00075-.00453c.68768.64764,1.74216,1.59488,3.00472,2.58007l-.01415.00057.02081.01574A13.35379,13.35379,0,0,0,2473.79472,299.66708Zm7.81111.32935c-.09051.33279-.2648.37829-.42446.37829h0a1.06186,1.06186,0,0,1-.40447-.09578c-.46362-.29056-.93793-.60721-1.41651-.946h.01156c.82042,0,1.36694.04981,1.38843.05137a1.21846,1.21846,0,0,1,.75752.28884A.40566.40566,0,0,1,2481.60583,299.99643Z" transform="translate(-2464.99906 -288.22964)"/></svg>