<?xml version="1.0" encoding="utf-8"?>
<!-- Generator: Adobe Illustrator 16.0.0, SVG Export Plug-In . SVG Version: 6.00 Build 0)  -->
<!DOCTYPE svg PUBLIC "-//W3C//DTD SVG 1.1//EN" "http://www.w3.org/Graphics/SVG/1.1/DTD/svg11.dtd">
<svg version="1.1" id="Capa_1" xmlns="http://www.w3.org/2000/svg" xmlns:xlink="http://www.w3.org/1999/xlink" x="0px" y="0px"
	 width="30px" height="30px" viewBox="50 10 30 30" enable-background="new 50 10 30 30" xml:space="preserve">
<g>
	<g>
		<path d="M72.117,27.929c-0.502-0.522-1.107-0.802-1.749-0.802c-0.637,0-1.246,0.273-1.77,0.797l-1.635,1.63
			c-0.135-0.073-0.269-0.14-0.398-0.207c-0.187-0.094-0.362-0.182-0.512-0.274c-1.532-0.973-2.924-2.24-4.259-3.881
			c-0.646-0.817-1.081-1.505-1.396-2.204c0.424-0.388,0.817-0.792,1.2-1.18c0.145-0.145,0.29-0.295,0.435-0.44
			c1.086-1.086,1.086-2.494,0-3.581l-1.413-1.413c-0.16-0.16-0.326-0.326-0.481-0.491c-0.31-0.321-0.636-0.652-0.973-0.962
			c-0.502-0.497-1.102-0.761-1.733-0.761c-0.631,0-1.242,0.264-1.759,0.761c-0.005,0.005-0.005,0.005-0.011,0.01l-1.759,1.775
			c-0.662,0.662-1.04,1.469-1.123,2.406c-0.124,1.511,0.321,2.918,0.662,3.839c0.838,2.261,2.09,4.356,3.958,6.603
			c2.266,2.706,4.993,4.843,8.108,6.349c1.19,0.563,2.778,1.231,4.553,1.345c0.109,0.006,0.223,0.011,0.326,0.011
			c1.195,0,2.199-0.43,2.985-1.283c0.006-0.011,0.016-0.016,0.021-0.026c0.269-0.325,0.579-0.62,0.905-0.937
			c0.223-0.212,0.45-0.435,0.673-0.667c0.512-0.533,0.781-1.154,0.781-1.79c0-0.642-0.274-1.257-0.798-1.774L72.117,27.929z
			 M73.969,33.377C73.965,33.377,73.965,33.382,73.969,33.377c-0.2,0.218-0.408,0.414-0.631,0.632
			c-0.336,0.32-0.678,0.656-0.998,1.034c-0.522,0.559-1.139,0.823-1.945,0.823c-0.078,0-0.161,0-0.238-0.006
			c-1.537-0.098-2.965-0.698-4.036-1.21c-2.929-1.418-5.5-3.431-7.637-5.981c-1.764-2.127-2.944-4.093-3.725-6.204
			c-0.481-1.289-0.657-2.292-0.58-3.239c0.052-0.605,0.285-1.107,0.714-1.537l1.765-1.764c0.253-0.238,0.522-0.368,0.787-0.368
			c0.326,0,0.59,0.197,0.755,0.362c0.005,0.005,0.011,0.01,0.016,0.016c0.316,0.295,0.616,0.6,0.932,0.926
			c0.16,0.166,0.326,0.331,0.492,0.501l1.413,1.413c0.548,0.549,0.548,1.056,0,1.604c-0.15,0.15-0.295,0.3-0.445,0.445
			c-0.435,0.445-0.849,0.859-1.299,1.262c-0.01,0.01-0.021,0.016-0.026,0.026c-0.445,0.445-0.362,0.88-0.269,1.175
			c0.005,0.016,0.011,0.031,0.016,0.046c0.368,0.89,0.885,1.728,1.671,2.728l0.005,0.004c1.428,1.76,2.934,3.131,4.595,4.182
			c0.212,0.134,0.429,0.243,0.637,0.347c0.186,0.093,0.361,0.181,0.512,0.273c0.021,0.011,0.041,0.026,0.062,0.037
			c0.177,0.088,0.342,0.129,0.513,0.129c0.43,0,0.698-0.27,0.786-0.357l1.77-1.77c0.177-0.176,0.456-0.388,0.782-0.388
			c0.32,0,0.584,0.202,0.744,0.378c0.006,0.005,0.006,0.005,0.011,0.01l2.852,2.852C74.497,32.286,74.497,32.829,73.969,33.377z"/>
		<path fill="#41C363" d="M65.991,18.574c1.355,0.228,2.587,0.869,3.57,1.852c0.982,0.983,1.619,2.215,1.852,3.571
			c0.058,0.341,0.353,0.579,0.688,0.579c0.041,0,0.078-0.005,0.119-0.01c0.383-0.062,0.637-0.424,0.574-0.807
			c-0.279-1.64-1.055-3.135-2.24-4.32c-1.185-1.185-2.681-1.961-4.32-2.241c-0.383-0.062-0.74,0.191-0.807,0.569
			C65.36,18.144,65.608,18.512,65.991,18.574z"/>
		<path fill="#41C363" d="M77.229,23.557c-0.461-2.701-1.733-5.159-3.689-7.115c-1.956-1.956-4.414-3.229-7.114-3.689
			c-0.378-0.067-0.735,0.192-0.803,0.569c-0.062,0.383,0.191,0.74,0.575,0.807c2.411,0.409,4.609,1.552,6.358,3.296
			c1.749,1.749,2.888,3.948,3.296,6.359c0.058,0.341,0.353,0.58,0.688,0.58c0.042,0,0.078-0.005,0.119-0.01
			C77.037,24.296,77.297,23.934,77.229,23.557z"/>
	</g>
</g>
</svg>
