<?xml version="1.0" encoding="utf-8"?>
<!-- Generator: Adobe Illustrator 16.0.0, SVG Export Plug-In . SVG Version: 6.00 Build 0)  -->
<!DOCTYPE svg PUBLIC "-//W3C//DTD SVG 1.1//EN" "http://www.w3.org/Graphics/SVG/1.1/DTD/svg11.dtd">
<svg version="1.1" id="Layer_1" xmlns="http://www.w3.org/2000/svg" xmlns:xlink="http://www.w3.org/1999/xlink" x="0px" y="0px"
	 width="40px" height="40px" viewBox="0 0 40 40" enable-background="new 0 0 40 40" xml:space="preserve">
<g>
	<path d="M6.868,19.669c0-3.5-0.002-6.999,0-10.499c0.001-1.838,1.313-3.165,3.147-3.165C16.163,6.002,22.308,6.011,28.458,6
		c1.798-0.003,3.165,1.442,3.149,3.076c-0.022,3.036-0.004,6.073-0.005,9.11c0,0.486-0.206,0.8-0.57,0.921
		c-0.35,0.115-0.769,0.021-0.954-0.284c-0.118-0.192-0.188-0.446-0.189-0.674c-0.014-2.983-0.006-5.968-0.011-8.953
		c0-0.729-0.356-1.229-0.991-1.392c-0.157-0.041-0.329-0.041-0.497-0.041c-6.104,0-12.21-0.001-18.316,0
		c-0.956,0-1.465,0.508-1.465,1.453c-0.002,6.962,0,13.923,0,20.884c0,0.805,0.341,1.304,1.015,1.466
		c0.149,0.036,0.313,0.035,0.47,0.035c2.31,0.001,4.623,0,6.937,0.003c0.721,0,1.16,0.658,0.853,1.269
		c-0.177,0.351-0.485,0.475-0.859,0.477c-0.451,0-0.904,0-1.355,0c-1.892,0-3.782,0.005-5.674-0.002
		c-1.491-0.004-2.649-0.873-3.018-2.278c-0.073-0.279-0.1-0.578-0.1-0.87C6.865,26.688,6.868,23.18,6.868,19.669z"/>
	<path d="M33.133,23.27c-0.039,0.929-0.371,1.725-1.023,2.379c-2.388,2.406-4.784,4.806-7.169,7.212
		c-0.384,0.384-0.875,0.472-1.368,0.568c-0.904,0.184-1.81,0.359-2.71,0.543c-1.035,0.212-2.07-0.808-1.848-1.841
		c0.231-1.083,0.463-2.17,0.738-3.246c0.071-0.288,0.246-0.587,0.457-0.803c2.369-2.392,4.744-4.784,7.147-7.146
		c1.892-1.861,4.979-1.011,5.644,1.53C33.069,22.725,33.089,22.999,33.133,23.27z M20.774,32.184
		c0.145-0.017,0.229-0.017,0.309-0.033c0.769-0.158,1.538-0.31,2.303-0.486c0.193-0.046,0.398-0.146,0.534-0.282
		c1.863-1.847,3.713-3.706,5.568-5.565c0.496-0.496,1.001-0.986,1.474-1.503c0.432-0.477,0.518-1.05,0.274-1.643
		c-0.425-1.038-1.771-1.423-2.749-0.438c-2.185,2.207-4.383,4.402-6.592,6.587c-0.328,0.324-0.539,0.662-0.621,1.117
		C21.144,30.673,20.955,31.405,20.774,32.184z"/>
	<path d="M19.1,16.661c-2.321,0-4.645,0.002-6.965,0c-0.593,0-0.968-0.313-1.003-0.823c-0.027-0.425,0.223-0.785,0.639-0.888
		c0.163-0.039,0.331-0.054,0.499-0.054c4.57-0.001,9.138-0.001,13.709,0c0.175,0,0.357,0.016,0.525,0.059
		c0.375,0.095,0.614,0.42,0.62,0.81c0.002,0.389-0.23,0.728-0.599,0.831c-0.156,0.045-0.33,0.06-0.494,0.063
		C23.723,16.663,21.413,16.661,19.1,16.661z"/>
	<path d="M19.136,12.694c-2.364,0-4.727-0.001-7.09,0.001c-0.357,0-0.64-0.13-0.808-0.446c-0.163-0.3-0.176-0.631,0.043-0.887
		c0.15-0.175,0.396-0.282,0.614-0.376c0.128-0.054,0.292-0.022,0.438-0.022c4.528-0.001,9.052-0.001,13.577,0
		c0.115,0,0.233-0.001,0.349,0.006c0.536,0.035,0.876,0.379,0.869,0.879c-0.013,0.493-0.373,0.842-0.907,0.843
		c-1.88,0.003-3.758,0.001-5.638,0.001C20.101,12.694,19.618,12.694,19.136,12.694z"/>
	<path d="M11.336,20.094c-0.003-0.644,0.504-1.161,1.147-1.164c0.632-0.003,1.165,0.525,1.168,1.155c0,0.624-0.538,1.17-1.157,1.176
		C11.871,21.267,11.34,20.733,11.336,20.094z"/>
	<path d="M15.843,18.928c0.637-0.003,1.177,0.527,1.175,1.151c-0.005,0.617-0.564,1.165-1.181,1.159
		c-0.622-0.007-1.139-0.522-1.149-1.146C14.678,19.46,15.201,18.932,15.843,18.928z"/>
	<path d="M20.376,20.092c0,0.633-0.526,1.166-1.148,1.169c-0.623,0.003-1.155-0.534-1.155-1.167c0-0.637,0.522-1.162,1.154-1.162
		C19.863,18.932,20.376,19.45,20.376,20.092z"/>
</g>
</svg>
