<?xml version="1.0" encoding="utf-8"?>
<!-- Generator: Adobe Illustrator 23.0.1, SVG Export Plug-In . SVG Version: 6.00 Build 0)  -->
<svg version="1.1" id="Layer_1" xmlns="http://www.w3.org/2000/svg" xmlns:xlink="http://www.w3.org/1999/xlink" x="0px" y="0px"
	 width="55px" height="62px" viewBox="0 0 44 44" style="enable-background:new 0 0 44 44;" xml:space="preserve">
<style type="text/css">
	.st0{fill:#FFFFFF;}
</style>
<g>
	<g>
		<g>
			<path class="st0" d="M35.7,43H8.3c-2.6,0-4.7-2.1-4.7-4.7V5.7C3.6,3.1,5.7,1,8.3,1h27.4c0.5,0,0.9,0.4,0.9,0.9
				c0,0.5-0.4,0.9-0.9,0.9H8.3c-1.6,0-2.9,1.3-2.9,2.9v32.7c0,1.6,1.3,2.9,2.9,2.9h27.4c1.6,0,2.9-1.3,2.9-2.9v-6.7
				c0-0.5,0.4-0.9,0.9-0.9c0.5,0,0.9,0.4,0.9,0.9v6.7C40.4,40.9,38.3,43,35.7,43z"/>
		</g>
		<g>
			<path class="st0" d="M39.5,32.5c-0.5,0-0.9-0.4-0.9-0.9V5.7c0-1.6-1.3-2.9-2.9-2.9c-0.5,0-0.9-0.4-0.9-0.9c0-0.5,0.4-0.9,0.9-0.9
				c2.6,0,4.7,2.1,4.7,4.7v25.9C40.4,32.1,40,32.5,39.5,32.5z"/>
		</g>
	</g>
	<g>
		<path class="st0" d="M17.2,21.3H12c-1.2,0-2.2-1-2.2-2.2V9.2C9.8,8,10.8,7,12,7h5.2c1.2,0,2.2,1,2.2,2.2v9.9
			C19.4,20.3,18.4,21.3,17.2,21.3z M12,8.8c-0.2,0-0.5,0.2-0.5,0.5v9.9c0,0.2,0.2,0.5,0.5,0.5h5.2c0.3,0,0.5-0.2,0.5-0.5V9.2
			c0-0.3-0.2-0.5-0.5-0.5H12z"/>
	</g>
	<g>
		<path class="st0" d="M32,30.1H12c-1.2,0-2.2-1-2.2-2.2v-1.6c0-1.2,1-2.2,2.2-2.2h20c1.2,0,2.2,1,2.2,2.2v1.6
			C34.2,29.1,33.2,30.1,32,30.1z M12,25.9c-0.2,0-0.5,0.2-0.5,0.5v1.6c0,0.2,0.2,0.5,0.5,0.5h20c0.2,0,0.5-0.2,0.5-0.5v-1.6
			c0-0.3-0.2-0.5-0.5-0.5H12z"/>
	</g>
	<g>
		<path class="st0" d="M32,38H12c-1.2,0-2.2-1-2.2-2.2v-1.6c0-1.2,1-2.2,2.2-2.2h20c1.2,0,2.2,1,2.2,2.2v1.6C34.2,37,33.2,38,32,38z
			 M12,33.7c-0.2,0-0.5,0.2-0.5,0.5v1.6c0,0.3,0.2,0.5,0.5,0.5h20c0.2,0,0.5-0.2,0.5-0.5v-1.6c0-0.2-0.2-0.5-0.5-0.5
			C32,33.7,12,33.7,12,33.7z"/>
	</g>
	<g>
		<path class="st0" d="M32,21.3h-5.2c-1.2,0-2.2-1-2.2-2.2V9.2c0-1.2,1-2.2,2.2-2.2H32c1.2,0,2.2,1,2.2,2.2v9.9
			C34.2,20.3,33.2,21.3,32,21.3z M26.8,8.8c-0.2,0-0.5,0.2-0.5,0.5v9.9c0,0.2,0.2,0.5,0.5,0.5H32c0.2,0,0.5-0.2,0.5-0.5V9.2
			c0-0.3-0.2-0.5-0.5-0.5H26.8z"/>
	</g>
</g>
</svg>
