<?xml version="1.0" encoding="utf-8"?>
<!-- Generator: Adobe Illustrator 16.0.0, SVG Export Plug-In . SVG Version: 6.00 Build 0)  -->
<!DOCTYPE svg PUBLIC "-//W3C//DTD SVG 1.1//EN" "http://www.w3.org/Graphics/SVG/1.1/DTD/svg11.dtd">
<svg version="1.1" id="Layer_1" xmlns="http://www.w3.org/2000/svg" xmlns:xlink="http://www.w3.org/1999/xlink" x="0px" y="0px"
	 width="44px" height="44px" viewBox="0 0 44 44" enable-background="new 0 0 44 44" xml:space="preserve">
<g>
	<g>
		<g>
			<path fill="#4C4C4C" d="M35.72,43H8.283c-2.572,0-4.665-2.091-4.665-4.66V5.665C3.619,3.092,5.711,1,8.283,1H35.72
				c0.493,0,0.894,0.399,0.894,0.894c0,0.493-0.4,0.894-0.894,0.894H8.283c-1.586,0-2.877,1.29-2.877,2.877V38.34
				c0,1.584,1.291,2.873,2.877,2.873H35.72c1.585,0,2.874-1.289,2.874-2.873v-6.729c0-0.493,0.4-0.894,0.895-0.894
				c0.493,0,0.893,0.4,0.893,0.894v6.729C40.381,40.91,38.291,43,35.72,43z"/>
		</g>
		<g>
			<path fill="#4C4C4C" d="M39.489,32.505c-0.494,0-0.895-0.399-0.895-0.894V5.665c0-1.587-1.289-2.877-2.874-2.877
				c-0.493,0-0.894-0.4-0.894-0.894C34.827,1.4,35.227,1,35.72,1c2.57,0,4.661,2.092,4.661,4.664v25.947
				C40.381,32.106,39.982,32.505,39.489,32.505z"/>
		</g>
	</g>
	<g>
		<path fill="#4C4C4C" d="M17.178,21.334h-5.157c-1.234,0-2.238-1.004-2.238-2.239V9.221c0-1.235,1.004-2.24,2.238-2.24h5.157
			c1.235,0,2.24,1.005,2.24,2.24v9.874C19.417,20.331,18.413,21.334,17.178,21.334z M12.021,8.768c-0.249,0-0.451,0.203-0.451,0.453
			v9.874c0,0.249,0.203,0.452,0.451,0.452h5.157c0.25,0,0.453-0.203,0.453-0.452V9.221c0-0.25-0.203-0.453-0.453-0.453H12.021z"/>
	</g>
	<g>
		<path fill="#4C4C4C" d="M31.975,30.141H12.021c-1.234,0-2.238-1.005-2.238-2.239v-1.559c0-1.235,1.004-2.24,2.238-2.24h19.955
			c1.234,0,2.24,1.005,2.24,2.24v1.559C34.215,29.136,33.209,30.141,31.975,30.141z M12.021,25.89c-0.249,0-0.451,0.203-0.451,0.453
			v1.559c0,0.249,0.203,0.452,0.451,0.452h19.955c0.25,0,0.453-0.203,0.453-0.452v-1.559c0-0.25-0.203-0.453-0.453-0.453H12.021z"/>
	</g>
	<g>
		<path fill="#4C4C4C" d="M31.975,37.959H12.021c-1.234,0-2.238-1.004-2.238-2.239v-1.559c0-1.234,1.004-2.239,2.238-2.239h19.955
			c1.234,0,2.24,1.005,2.24,2.239v1.559C34.215,36.956,33.209,37.959,31.975,37.959z M12.021,33.709
			c-0.249,0-0.451,0.203-0.451,0.452v1.559c0,0.25,0.203,0.452,0.451,0.452h19.955c0.25,0,0.453-0.202,0.453-0.452v-1.559
			c0-0.249-0.203-0.452-0.453-0.452H12.021z"/>
	</g>
	<g>
		<path fill="#4C4C4C" d="M31.977,21.334H26.82c-1.235,0-2.239-1.004-2.239-2.239V9.221c0-1.235,1.004-2.24,2.239-2.24h5.157
			c1.234,0,2.238,1.005,2.238,2.24v9.874C34.215,20.331,33.211,21.334,31.977,21.334z M26.82,8.768
			c-0.249,0-0.452,0.203-0.452,0.453v9.874c0,0.249,0.203,0.452,0.452,0.452h5.157c0.248,0,0.451-0.203,0.451-0.452V9.221
			c0-0.254-0.198-0.453-0.451-0.453H26.82z"/>
	</g>
</g>
</svg>
