<?xml version="1.0" encoding="utf-8"?>
<!-- Generator: Adobe Illustrator 16.0.3, SVG Export Plug-In . SVG Version: 6.00 Build 0)  -->
<!DOCTYPE svg PUBLIC "-//W3C//DTD SVG 1.1//EN" "http://www.w3.org/Graphics/SVG/1.1/DTD/svg11.dtd">
<svg version="1.1" id="Layer_1" xmlns="http://www.w3.org/2000/svg" xmlns:xlink="http://www.w3.org/1999/xlink" x="0px" y="0px"
	 width="32px" height="32px" viewBox="0 0 32 32" enable-background="new 0 0 32 32" xml:space="preserve">
<g>
	<path fill-rule="evenodd" clip-rule="evenodd" stroke="#F2F2F2" stroke-width="0.6" stroke-miterlimit="10" d="M17.701,21.156
		c1.044,0,1.973,0,2.936,0c0-0.652,0-1.28,0-1.938c-3.724,0-7.437,0-11.173,0c0,0.632,0,1.247,0,1.914c0.914,0,1.837,0,2.886,0
		c-0.617,0.814-0.919,1.639-0.861,2.632c-0.589,0-1.164,0.059-1.721-0.013c-0.943-0.118-1.675,0.17-2.291,0.885
		c-0.177,0.205-0.48,0.356-0.75,0.409c-0.613,0.126-1.13-0.165-1.384-0.688c-0.247-0.51-0.136-1.107,0.295-1.531
		c0.3-0.293,0.633-0.555,0.907-0.869c0.145-0.164,0.279-0.414,0.279-0.627c0.016-3.939,0.015-7.88,0.003-11.82
		c0-0.19-0.102-0.415-0.226-0.563C6.273,8.555,5.898,8.202,5.558,7.821C5.077,7.282,5.1,6.506,5.596,6.019
		C6.113,5.51,6.89,5.511,7.43,6.037c0.355,0.346,0.673,0.732,1.045,1.06C8.64,7.242,8.896,7.359,9.111,7.36
		c3.972,0.015,7.943,0.016,11.914-0.001c0.214,0,0.467-0.126,0.635-0.273c0.336-0.293,0.618-0.65,0.938-0.967
		c0.563-0.56,1.334-0.583,1.871-0.068c0.537,0.52,0.605,1.365-0.007,1.852c-1.042,0.833-1.267,1.85-1.232,3.132
		c0.088,3.194,0.026,6.393,0.035,9.587c0.001,0.317-0.083,0.554-0.318,0.774c-0.744,0.702-1.475,1.42-2.193,2.146
		c-0.238,0.245-0.404,0.253-0.648,0.008c-0.713-0.714-1.446-1.405-2.17-2.107C17.873,21.383,17.824,21.31,17.701,21.156z
		 M9.463,16.565c3.739,0,7.441,0,11.167,0c0-0.672,0-1.327,0-1.979c-3.744,0-7.443,0-11.167,0
		C9.463,15.249,9.463,15.879,9.463,16.565z M9.459,11.917c3.756,0,7.463,0,11.173,0c0-0.666,0-1.292,0-1.908
		c-3.748,0-7.458,0-11.173,0C9.459,10.66,9.459,11.275,9.459,11.917z"/>
	<path fill-rule="evenodd" clip-rule="evenodd" fill="#00AD21" stroke="#F2F2F2" stroke-width="0.6" stroke-miterlimit="10" d="
		M26.091,18.189c0-4.582,0-9.165,0-13.788c-7.373,0-14.698,0-22.049,0c0,7.331,0,14.646,0,22.029c0.2,0,0.381,0,0.562,0
		c2.56,0,5.121,0.006,7.68-0.009c0.341-0.001,0.573,0.104,0.812,0.344c0.709,0.712,1.449,1.397,2.175,2.09
		c-0.029,0.045-0.061,0.087-0.092,0.13c-4.564,0-9.129,0-13.728,0c0-9.055,0-18.106,0-27.189c9.057,0,18.109,0,27.229,0
		c0,0.172,0,0.338,0,0.502c0,4.328-0.004,8.658,0.007,12.986c0,0.356-0.11,0.602-0.356,0.854c-0.696,0.708-1.359,1.448-2.035,2.176
		C26.228,18.273,26.158,18.229,26.091,18.189z"/>
	<path fill-rule="evenodd" clip-rule="evenodd" fill="#00AD21" stroke="#F2F2F2" stroke-width="0.6" stroke-miterlimit="10" d="
		M20.494,27.06c0.095-0.164,0.159-0.356,0.287-0.486c2.407-2.417,4.819-4.825,7.23-7.239c0.291-0.292,0.596-0.521,1.042-0.523
		c0.54-0.003,0.921,0.229,1.173,0.685c0.257,0.469,0.205,0.923-0.105,1.349c-0.092,0.124-0.198,0.239-0.306,0.347
		c-2.783,2.787-5.567,5.57-8.354,8.355c-0.778,0.775-1.43,0.778-2.2,0.01c-1.602-1.598-3.208-3.192-4.799-4.802
		c-0.725-0.732-0.554-1.758,0.331-2.143c0.528-0.229,1.071-0.104,1.553,0.379c1.208,1.205,2.414,2.41,3.617,3.618
		c0.106,0.111,0.187,0.249,0.279,0.375C20.323,27.007,20.409,27.033,20.494,27.06z"/>
</g>
</svg>
