<?xml version="1.0" encoding="utf-8"?>
<!-- Generator: Adobe Illustrator 16.0.0, SVG Export Plug-In . SVG Version: 6.00 Build 0)  -->
<!DOCTYPE svg PUBLIC "-//W3C//DTD SVG 1.1//EN" "http://www.w3.org/Graphics/SVG/1.1/DTD/svg11.dtd">
<svg version="1.1" id="Layer_1" xmlns="http://www.w3.org/2000/svg" xmlns:xlink="http://www.w3.org/1999/xlink" x="0px" y="0px"
	 width="50px" height="50px" viewBox="0 0 50 50" enable-background="new 0 0 50 50" xml:space="preserve">
<g>
	<g>
		<path d="M23.144,32.265c-0.935,0-1.81-0.363-2.464-1.025l-6.131-6.131c-0.574-0.573-0.574-1.5,0-2.072
			c0.573-0.573,1.5-0.573,2.071,0l6.136,6.136c0.207,0.207,0.574,0.202,0.773,0.005L41.173,9.724
			c0.546-0.601,1.471-0.644,2.069-0.103c0.601,0.545,0.644,1.472,0.101,2.071l-17.689,19.5
			C24.964,31.891,24.065,32.265,23.144,32.265z"/>
	</g>
	<g>
		<path d="M41.521,45H8.476C6.56,45,5,43.44,5,41.523V8.479C5,6.56,6.56,5,8.476,5h26.798c0.809,0,1.465,0.658,1.465,1.465
			c0,0.808-0.656,1.466-1.465,1.466H8.476c-0.302,0-0.547,0.245-0.547,0.549v33.046c0,0.301,0.245,0.544,0.547,0.544h33.044
			c0.303,0,0.547-0.245,0.547-0.544V22.784c0-0.808,0.655-1.465,1.467-1.465c0.809,0,1.466,0.657,1.466,1.465v18.743
			C45,43.44,43.438,45,41.521,45z"/>
	</g>
</g>
</svg>
