<?xml version="1.0" encoding="utf-8"?>
<!-- Generator: Adobe Illustrator 16.0.0, SVG Export Plug-In . SVG Version: 6.00 Build 0)  -->
<!DOCTYPE svg PUBLIC "-//W3C//DTD SVG 1.1//EN" "http://www.w3.org/Graphics/SVG/1.1/DTD/svg11.dtd">
<svg version="1.1" id="Layer_1" xmlns="http://www.w3.org/2000/svg" xmlns:xlink="http://www.w3.org/1999/xlink" x="0px" y="0px"
	 width="40px" height="40px" viewBox="0 0 40 40" enable-background="new 0 0 40 40" xml:space="preserve">
<g>
	<g>
		<path d="M24.055,18.178c0.696,0.319,1.388,0.59,2.034,0.943c0.655,0.355,1.277,0.778,1.893,1.205
			c0.39,0.27,0.538,0.674,0.413,1.141c-0.124,0.449-0.444,0.706-0.908,0.765c-0.3,0.041-0.555-0.058-0.79-0.231
			c-1.272-0.943-2.661-1.648-4.203-2.031c-1.213-0.297-2.445-0.415-3.697-0.32c-2.454,0.186-4.645,1.055-6.532,2.622
			c-2.133,1.771-3.479,4.025-3.964,6.764c-0.118,0.663-0.161,1.347-0.199,2.024c-0.029,0.61-0.518,1.051-1.077,1.041
			c-0.613-0.009-1.065-0.503-1.053-1.158c0.02-1.221,0.193-2.422,0.542-3.594c0.688-2.324,1.909-4.319,3.646-6.009
			c1.413-1.371,3.063-2.357,4.9-3.043c0.052-0.02,0.102-0.039,0.148-0.061c0.013-0.006,0.022-0.022,0.061-0.05
			c-1.894-1.52-2.979-3.457-2.973-5.921c0.008-2.007,0.75-3.74,2.182-5.137c2.877-2.805,7.223-2.756,10.02-0.32
			c1.754,1.527,2.619,3.484,2.53,5.801C26.936,14.923,25.848,16.754,24.055,18.178z M14.42,12.292
			c-0.019,2.837,2.315,5.182,5.171,5.197c2.932,0.018,5.29-2.282,5.313-5.173c0.021-2.826-2.343-5.186-5.209-5.205
			C16.79,7.093,14.437,9.404,14.42,12.292z"/>
	</g>
	<g>
		<rect x="13.94" y="28.536" width="13.183" height="1.944"/>
		<g>
			<path d="M29.591,33.388c-2.45,0-4.442-1.992-4.442-4.442s1.994-4.443,4.442-4.443s4.438,1.993,4.438,4.443
				S32.039,33.388,29.591,33.388z M29.591,26.934c-1.111,0-2.012,0.902-2.012,2.012c0,1.108,0.902,2.011,2.012,2.011
				s2.008-0.902,2.008-2.011C31.599,27.836,30.698,26.934,29.591,26.934z"/>
		</g>
		<g>
			<rect x="14.922" y="29.508" width="2.432" height="3.294"/>
		</g>
		<g>
			<rect x="20.415" y="29.508" width="2.432" height="5.492"/>
		</g>
	</g>
</g>
</svg>
