<?xml version="1.0" encoding="utf-8"?>
<!-- Generator: Adobe Illustrator 16.0.3, SVG Export Plug-In . SVG Version: 6.00 Build 0)  -->
<!DOCTYPE svg PUBLIC "-//W3C//DTD SVG 1.1//EN" "http://www.w3.org/Graphics/SVG/1.1/DTD/svg11.dtd">
<svg version="1.1" id="Layer_1" xmlns="http://www.w3.org/2000/svg" xmlns:xlink="http://www.w3.org/1999/xlink" x="0px" y="0px"
	 width="22px" height="22px" viewBox="0 0 22 22" enable-background="new 0 0 22 22" xml:space="preserve">
<g>
	<path fill="#FFFFFF" d="M19.081,7.674c-0.141-0.335-0.308-0.6-0.502-0.794l-2.925-2.924c-0.195-0.195-0.46-0.362-0.794-0.501
		c-0.334-0.139-0.64-0.209-0.92-0.209H4.248c-0.278,0-0.515,0.097-0.71,0.292C3.343,3.733,3.246,3.97,3.246,4.248v14.085
		c0,0.279,0.097,0.517,0.292,0.711c0.195,0.195,0.432,0.294,0.71,0.294l14.037-0.002c0.279,0,0.517-0.097,0.711-0.292
		c0.195-0.194,0.294-0.432,0.294-0.711v-9.74C19.29,8.315,19.219,8.008,19.081,7.674z M9.93,4.917c0-0.091,0.033-0.169,0.1-0.235
		c0.067-0.066,0.145-0.099,0.235-0.099h2.006c0.091,0,0.168,0.032,0.234,0.099c0.067,0.066,0.101,0.145,0.101,0.235v3.342
		c0,0.09-0.034,0.169-0.101,0.234c-0.066,0.066-0.144,0.1-0.234,0.1h-2.006c-0.091,0-0.168-0.033-0.235-0.1
		c-0.066-0.065-0.1-0.144-0.1-0.234V4.917L9.93,4.917z M15.277,18H7.256 M5.919,18H4.583V4.583h1.336v4.344
		c0,0.279,0.097,0.516,0.292,0.71C6.407,9.833,6.644,9.93,6.922,9.93h6.016c0.281,0,0.517-0.097,0.712-0.292
		c0.194-0.195,0.291-0.431,0.291-0.71V4.583c0.105,0,0.24,0.035,0.408,0.104c0.167,0.07,0.286,0.139,0.354,0.209l2.937,2.935
		c0.068,0.069,0.138,0.19,0.207,0.36c0.072,0.171,0.105,0.305,0.105,0.402V18l0,0h-1.337l0,0"/>
</g>
<g>
	<path fill="#FFFFFF" d="M15.277,18H7.256v-4.06h8.021V18z M16.615,18L16.615,18v-4.393c0-0.279-0.099-0.516-0.293-0.712
		c-0.194-0.194-0.432-0.291-0.71-0.291h-8.69c-0.279,0-0.515,0.097-0.711,0.291c-0.195,0.196-0.292,0.433-0.292,0.712V18"/>
</g>
</svg>
