<?xml version="1.0" encoding="utf-8"?>
<!-- Generator: Adobe Illustrator 16.0.0, SVG Export Plug-In . SVG Version: 6.00 Build 0)  -->
<!DOCTYPE svg PUBLIC "-//W3C//DTD SVG 1.1//EN" "http://www.w3.org/Graphics/SVG/1.1/DTD/svg11.dtd">
<svg version="1.1" id="Layer_1" xmlns="http://www.w3.org/2000/svg" xmlns:xlink="http://www.w3.org/1999/xlink" x="0px" y="0px"
	 width="10px" height="10px" viewBox="0 0 10 10" enable-background="new 0 0 10 10" xml:space="preserve">
<g>
	<path fill="#010101" d="M8.146,0H7.653H1.939H0.102v10h1.43h6.734h1.633V1.752L8.146,0z M7.245,0.408v2.857H2.347V0.408H7.245z
		 M1.939,9.592V5.715h5.918v3.877H1.939z M9.49,9.592H8.266V5.307H1.531v4.285H0.51V0.408h1.43v3.266h5.714V0.408h0.323L9.49,1.921
		V9.592z"/>
	<path fill="#010101" d="M2.755,6.734h1.429c0.113,0,0.204-0.091,0.204-0.203c0-0.113-0.091-0.205-0.204-0.205H2.755
		c-0.112,0-0.204,0.092-0.204,0.205C2.551,6.644,2.643,6.734,2.755,6.734z"/>
	<path fill="#010101" d="M4.796,7.143H2.755c-0.112,0-0.204,0.092-0.204,0.204c0,0.113,0.092,0.204,0.204,0.204h2.041
		C4.908,7.551,5,7.46,5,7.347C5,7.234,4.908,7.143,4.796,7.143z"/>
	<path fill="#010101" d="M5.264,7.202c-0.037,0.038-0.06,0.092-0.06,0.145c0,0.054,0.022,0.106,0.06,0.146
		c0.038,0.036,0.09,0.059,0.145,0.059c0.053,0,0.105-0.022,0.145-0.059C5.59,7.453,5.612,7.4,5.612,7.347
		c0-0.053-0.022-0.106-0.06-0.145C5.478,7.127,5.339,7.127,5.264,7.202z"/>
	<path fill="#010101" d="M6.837,0.816H5.612v2.041h1.225V0.816z M6.429,2.449H6.021V1.225h0.408V2.449z"/>
</g>
</svg>
