<?xml version="1.0" encoding="utf-8"?>
<!-- Generator: Adobe Illustrator 16.0.3, SVG Export Plug-In . SVG Version: 6.00 Build 0)  -->
<!DOCTYPE svg PUBLIC "-//W3C//DTD SVG 1.1//EN" "http://www.w3.org/Graphics/SVG/1.1/DTD/svg11.dtd">
<svg version="1.1" id="Layer_1" xmlns="http://www.w3.org/2000/svg" xmlns:xlink="http://www.w3.org/1999/xlink" x="0px" y="0px"
	 width="18px" height="18px" viewBox="0 0 18 18" enable-background="new 0 0 18 18" xml:space="preserve">
<g>
	<path fill-rule="evenodd" clip-rule="evenodd" d="M14.568,7.22c-0.394,0-0.786,0-1.195,0c-0.043-1.668-0.632-3.114-1.818-4.292
		c-1.181-1.173-2.624-1.756-4.299-1.789c0-0.401,0-0.799,0-1.196C11.225-0.129,14.624,3.278,14.568,7.22z"/>
</g>
<g>
	<path fill-rule="evenodd" clip-rule="evenodd" d="M11.994,12.816c-3.09,2.573-7.101,1.976-9.418,0.02
		C0.2,10.83-0.679,7.458,0.475,4.568C1.7,1.496,4.6-0.08,7.255-0.058c0,0.395,0,0.79,0,1.194C5.257,1.196,3.619,1.992,2.402,3.583
		c-0.924,1.21-1.324,2.598-1.208,4.113c0.254,3.285,3.049,5.763,6.338,5.629c3.097-0.125,5.818-2.678,5.834-6.111
		c0.395,0,0.789,0,1.208,0c-0.017,1.779-0.588,3.353-1.772,4.787c0.063,0.034,0.137,0.055,0.186,0.102
		c1.599,1.595,3.195,3.191,4.791,4.788c0.171,0.172,0.264,0.366,0.194,0.617c-0.066,0.244-0.228,0.39-0.468,0.444
		c-0.242,0.053-0.429-0.051-0.596-0.217c-1.254-1.256-2.51-2.511-3.765-3.767C12.764,13.589,12.384,13.207,11.994,12.816z"/>
</g>
</svg>
