<?xml version="1.0" encoding="utf-8"?>
<!-- Generator: Adobe Illustrator 16.0.0, SVG Export Plug-In . SVG Version: 6.00 Build 0)  -->
<!DOCTYPE svg PUBLIC "-//W3C//DTD SVG 1.1//EN" "http://www.w3.org/Graphics/SVG/1.1/DTD/svg11.dtd">
<svg version="1.1" id="Capa_1" xmlns="http://www.w3.org/2000/svg" xmlns:xlink="http://www.w3.org/1999/xlink" x="0px" y="0px"
	 width="24px" height="24px" viewBox="0 0 24 24" enable-background="new 0 0 24 24" xml:space="preserve">
<g>
	<path d="M1.001,12.003c0.027,0.453,0.328,0.834,0.764,0.965l8.059,2.437l0.296,5.556c0.015,0.22,0.162,0.413,0.373,0.483
		c0.058,0.022,0.121,0.031,0.179,0.031c0.157,0,0.305-0.063,0.414-0.184l2.848-3.154l4.039,2.795
		c0.18,0.126,0.391,0.193,0.611,0.193c0.506,0,0.945-0.359,1.053-0.861L22.99,3.181c0.039-0.197-0.035-0.403-0.188-0.529
		c-0.158-0.13-0.369-0.161-0.557-0.085L1.649,10.949C1.231,11.137,0.976,11.55,1.001,12.003z M11.143,19.581l-0.185-3.504
		l2.064,1.427L11.143,19.581z M18.565,20.008l-7.349-5.089l10.305-9.971L18.565,20.008z M20.391,4.509l-10.189,9.858l-8.05-2.433
		L20.391,4.509z"/>
</g>
</svg>
