<?xml version="1.0" encoding="utf-8"?>
<!-- Generator: Adobe Illustrator 16.0.0, SVG Export Plug-In . SVG Version: 6.00 Build 0)  -->
<!DOCTYPE svg PUBLIC "-//W3C//DTD SVG 1.1//EN" "http://www.w3.org/Graphics/SVG/1.1/DTD/svg11.dtd">
<svg version="1.1" id="Layer_1" xmlns="http://www.w3.org/2000/svg" xmlns:xlink="http://www.w3.org/1999/xlink" x="0px" y="0px"
	 width="36px" height="36px" viewBox="9.5 9.5 36 36" enable-background="new 9.5 9.5 36 36" xml:space="preserve">
<g>
	<g>
		<g>
			<g>
				
					<path fill="none" stroke="#000000" stroke-width="1.5" stroke-linecap="round" stroke-linejoin="round" stroke-miterlimit="10" d="
					M18.357,29.872l-1.386-3.06c-1.32-2.964-4.896,1.74-4.574,3.962c0.741,5.411,10.276,14.175,15.559,11.275
					c1.191-0.644,2.77-2.964,1.579-3.673l-3.061-1.643c-1.031-0.549-1.063-0.194-2.126,0.966c-0.258,0.291-0.742,1-1.321,0.871
					c-1.192-0.291-3.447-2.063-4.156-2.835c-0.354-0.387-1.836-2.19-1.836-2.771C17.004,31.997,18.97,31.578,18.357,29.872z"/>
			</g>
		</g>
	</g>
	<path fill="none" stroke="#000000" stroke-width="1.5" stroke-linecap="round" stroke-linejoin="round" stroke-miterlimit="10" d="
		M13.193,22.585c2.041-5.939,7.675-10.208,14.307-10.208c8.352,0,15.123,6.771,15.123,15.123c0,5.98-3.473,11.151-8.511,13.604"/>
	
		<circle fill="none" stroke="#000000" stroke-width="1.5" stroke-linecap="round" stroke-linejoin="round" stroke-miterlimit="10" cx="27.5" cy="27.5" r="1.647"/>
	
		<line fill="none" stroke="#000000" stroke-width="1.5" stroke-linecap="round" stroke-linejoin="round" stroke-miterlimit="10" x1="27.5" y1="16.413" x2="27.5" y2="25.853"/>
	
		<line fill="none" stroke="#000000" stroke-width="1.5" stroke-linecap="round" stroke-linejoin="round" stroke-miterlimit="10" x1="28.646" y1="29.056" x2="32.825" y2="33.234"/>
</g>
</svg>
