<?xml version="1.0" encoding="utf-8"?>
<!-- Generator: Adobe Illustrator 16.0.0, SVG Export Plug-In . SVG Version: 6.00 Build 0)  -->
<!DOCTYPE svg PUBLIC "-//W3C//DTD SVG 1.1//EN" "http://www.w3.org/Graphics/SVG/1.1/DTD/svg11.dtd">
<svg version="1.1" id="Isolation_Mode" xmlns="http://www.w3.org/2000/svg" xmlns:xlink="http://www.w3.org/1999/xlink" x="0px"
	 y="0px" width="24px" height="24px" viewBox="0 0 24 24" enable-background="new 0 0 24 24" xml:space="preserve">
<g>
	<path stroke="#000000" stroke-width="0.1" stroke-miterlimit="10" d="M17.263,15.023c0.261,0.258,0.539,0.53,0.813,0.808
		c0.495,0.498,0.494,1.086-0.001,1.582c-0.295,0.294-0.59,0.591-0.887,0.884c-0.421,0.417-1.058,0.419-1.48,0.002
		c-0.294-0.29-0.579-0.586-0.862-0.875c-0.325,0.138-0.628,0.275-0.939,0.396c-0.353,0.139-0.354,0.132-0.354,0.512
		c0,0.294,0.001,0.588-0.002,0.883c-0.006,0.566-0.434,1.014-0.997,1.026c-0.471,0.01-0.942,0.01-1.413,0
		c-0.563-0.013-0.995-0.46-0.998-1.024c-0.002-0.387-0.004-0.771,0.001-1.157c0.001-0.09-0.028-0.129-0.111-0.161
		c-0.389-0.146-0.774-0.301-1.189-0.462c-0.245,0.245-0.515,0.518-0.788,0.79c-0.509,0.511-1.111,0.511-1.618,0.005
		c-0.269-0.268-0.538-0.538-0.807-0.806c-0.513-0.514-0.517-1.092-0.009-1.604c0.275-0.276,0.554-0.551,0.805-0.8
		c-0.162-0.418-0.316-0.808-0.464-1.201c-0.03-0.079-0.073-0.1-0.153-0.1c-0.386,0.004-0.771,0.003-1.157,0.003
		c-0.563-0.003-1.014-0.432-1.028-0.995c-0.011-0.477-0.013-0.953,0.001-1.43c0.016-0.551,0.453-0.974,1.002-0.982
		c0.391-0.008,0.782-0.005,1.173-0.001c0.086,0.001,0.132-0.021,0.165-0.108C6.111,9.82,6.265,9.434,6.431,9.011
		C6.167,8.752,5.874,8.466,5.583,8.174C5.24,7.831,5.154,7.379,5.357,6.971c0.052-0.104,0.124-0.202,0.204-0.285
		c0.307-0.315,0.615-0.625,0.93-0.932c0.45-0.437,1.069-0.433,1.517,0.009c0.286,0.281,0.565,0.569,0.857,0.864
		C8.991,6.563,9.11,6.494,9.237,6.442c0.262-0.106,0.526-0.205,0.791-0.301c0.081-0.029,0.117-0.065,0.116-0.158
		c-0.007-0.385-0.005-0.771-0.002-1.156c0.004-0.575,0.434-1.016,1.01-1.027c0.466-0.008,0.931-0.009,1.397,0.001
		c0.568,0.013,0.997,0.455,1.002,1.021c0.003,0.386,0.003,0.771-0.001,1.157c0,0.087,0.021,0.136,0.108,0.164
		c0.197,0.063,0.396,0.131,0.587,0.21c0.191,0.079,0.377,0.174,0.59,0.273c0.283-0.288,0.57-0.588,0.868-0.881
		c0.332-0.325,0.792-0.406,1.196-0.208c0.117,0.058,0.226,0.145,0.319,0.237c0.3,0.29,0.594,0.587,0.887,0.884
		c0.454,0.46,0.454,1.066-0.003,1.523c-0.287,0.288-0.579,0.571-0.842,0.828c0.167,0.425,0.32,0.815,0.47,1.208
		c0.031,0.08,0.075,0.1,0.154,0.099c0.369-0.004,0.739-0.004,1.107-0.001c0.645,0.004,1.074,0.436,1.077,1.078
		c0.001,0.418,0.001,0.835,0,1.253c-0.002,0.642-0.437,1.079-1.074,1.079c-0.37,0-0.74,0.003-1.109-0.002
		c-0.076,0-0.124,0.012-0.156,0.095C17.581,14.211,17.428,14.601,17.263,15.023z M5.405,13.048c0.235,0,0.471,0,0.707,0
		c0.253,0.001,0.364,0.08,0.425,0.324c0.127,0.511,0.332,0.989,0.595,1.442c0.133,0.23,0.117,0.34-0.068,0.525
		c-0.333,0.334-0.667,0.667-0.999,1.002c-0.187,0.188-0.188,0.372-0.003,0.561c0.293,0.296,0.588,0.592,0.884,0.886
		c0.209,0.206,0.386,0.203,0.597-0.008c0.333-0.331,0.665-0.666,0.999-0.998c0.161-0.159,0.284-0.179,0.474-0.067
		c0.467,0.273,0.96,0.483,1.486,0.618c0.234,0.06,0.313,0.17,0.313,0.416c0.001,0.472,0,0.942,0.001,1.413
		c0,0.261,0.132,0.4,0.388,0.403c0.429,0.003,0.857,0.003,1.285,0c0.249-0.003,0.381-0.145,0.383-0.393c0-0.472,0-0.942,0-1.412
		c0-0.259,0.078-0.369,0.318-0.43c0.517-0.129,1-0.334,1.459-0.603c0.218-0.128,0.331-0.11,0.512,0.067
		c0.33,0.33,0.658,0.661,0.987,0.989c0.207,0.204,0.39,0.205,0.597-0.002c0.29-0.285,0.577-0.574,0.864-0.863
		c0.208-0.21,0.208-0.385-0.001-0.596c-0.333-0.334-0.666-0.665-0.999-1c-0.161-0.162-0.184-0.283-0.072-0.473
		c0.277-0.473,0.485-0.972,0.625-1.502c0.061-0.228,0.167-0.302,0.405-0.302c0.472,0,0.942,0,1.412,0c0.269,0,0.407-0.134,0.409-0.4
		c0.002-0.418,0.002-0.834,0-1.252c-0.002-0.27-0.136-0.404-0.403-0.405c-0.472-0.001-0.943,0-1.414,0
		c-0.242,0-0.355-0.08-0.415-0.314c-0.134-0.521-0.337-1.01-0.611-1.472c-0.121-0.206-0.101-0.326,0.073-0.5
		c0.328-0.33,0.659-0.658,0.988-0.987c0.21-0.21,0.214-0.387,0.006-0.597c-0.29-0.292-0.581-0.583-0.875-0.873
		c-0.201-0.199-0.384-0.195-0.586,0.005c-0.326,0.325-0.65,0.65-0.976,0.976c-0.2,0.2-0.307,0.215-0.553,0.071
		C14.18,7.036,13.711,6.84,13.21,6.715c-0.256-0.064-0.337-0.177-0.337-0.449c0-0.465,0-0.931,0-1.396
		c-0.002-0.251-0.134-0.392-0.381-0.395c-0.433-0.005-0.867-0.005-1.301,0c-0.24,0.003-0.373,0.146-0.374,0.386
		c-0.001,0.476,0,0.952-0.001,1.43c0,0.244-0.08,0.356-0.312,0.417c-0.521,0.133-1.01,0.336-1.472,0.61
		c-0.208,0.123-0.327,0.103-0.5-0.069c-0.33-0.329-0.658-0.66-0.987-0.988c-0.209-0.209-0.39-0.213-0.598-0.008
		C6.654,6.542,6.364,6.833,6.075,7.127c-0.202,0.205-0.2,0.38,0.002,0.583c0.333,0.333,0.667,0.665,1,0.999
		c0.17,0.17,0.187,0.292,0.064,0.5c-0.271,0.458-0.476,0.941-0.604,1.458c-0.06,0.242-0.174,0.324-0.425,0.325
		c-0.481,0-0.963-0.002-1.445,0c-0.212,0.001-0.36,0.132-0.363,0.344c-0.008,0.454-0.008,0.91,0,1.364
		c0.003,0.212,0.152,0.344,0.362,0.347C4.912,13.049,5.159,13.048,5.405,13.048z"/>
	<path fill="#41C362" stroke="#41C362" stroke-width="0.1" stroke-miterlimit="10" d="M15.268,12.021
		c0,1.887-1.546,3.432-3.427,3.422c-1.891-0.011-3.407-1.526-3.416-3.416c-0.009-1.885,1.524-3.424,3.417-3.429
		C13.73,8.594,15.267,10.129,15.268,12.021z M11.852,9.28c-1.524-0.001-2.756,1.227-2.75,2.745c0.006,1.51,1.224,2.731,2.729,2.735
		c1.527,0.003,2.756-1.218,2.756-2.738C14.591,10.507,13.368,9.282,11.852,9.28z"/>
</g>
</svg>
