<?xml version="1.0" encoding="utf-8"?>
<!-- Generator: Adobe Illustrator 16.0.3, SVG Export Plug-In . SVG Version: 6.00 Build 0)  -->
<!DOCTYPE svg PUBLIC "-//W3C//DTD SVG 1.1//EN" "http://www.w3.org/Graphics/SVG/1.1/DTD/svg11.dtd">
<svg version="1.1" id="Layer_1" xmlns="http://www.w3.org/2000/svg" xmlns:xlink="http://www.w3.org/1999/xlink" x="0px" y="0px"
	 width="22px" height="22px" viewBox="0 0 22 22" enable-background="new 0 0 22 22" xml:space="preserve">
<g>
	<path fill="#41C363" d="M14.219,9.438v3.213l6.438-4.803L14.219,3v3.002c-7.786,0-8.047,8.264-8.047,8.264
		C8.375,10.67,9.994,9.438,14.219,9.438z"/>
</g>
<path d="M15.828,17.179H3.274V8.14h2.892c0,0,0.709-0.991,2.148-1.921H2.309c-0.533,0-0.966,0.428-0.966,0.961v10.959
	c0,0.528,0.433,0.961,0.966,0.961h14.485c0.533,0,0.966-0.428,0.966-0.961v-5.481l-1.932,1.579V17.179z"/>
</svg>
