<?xml version="1.0" encoding="utf-8"?>
<!-- Generator: Adobe Illustrator 16.0.0, SVG Export Plug-In . SVG Version: 6.00 Build 0)  -->
<!DOCTYPE svg PUBLIC "-//W3C//DTD SVG 1.1//EN" "http://www.w3.org/Graphics/SVG/1.1/DTD/svg11.dtd">
<svg version="1.1" id="Layer_1" xmlns="http://www.w3.org/2000/svg" xmlns:xlink="http://www.w3.org/1999/xlink" x="0px" y="0px"
	 width="40px" height="40px" viewBox="0 0 40 40" enable-background="new 0 0 40 40" xml:space="preserve">
<g id="network">
	<g>
		<path d="M30.493,27.006c-0.712,0-1.396,0.227-1.979,0.634l-2.132-2.18c2.65-3.127,2.65-7.714,0-10.839l2.172-2.152
			c1.604,1.074,3.77,0.643,4.846-0.961c1.071-1.604,0.643-3.771-0.961-4.845c-1.603-1.072-3.77-0.643-4.845,0.961
			C27.21,8.193,27.008,8.864,27,9.549c0.011,0.689,0.21,1.365,0.591,1.942l-2.167,2.137c-3.126-2.636-7.688-2.636-10.812,0
			l-2.18-2.122c1.098-1.607,0.684-3.798-0.92-4.893C9.906,5.517,7.715,5.931,6.615,7.535c-1.097,1.605-0.684,3.797,0.925,4.894
			c1.166,0.795,2.698,0.817,3.885,0.055l2.192,2.137c-2.643,3.126-2.643,7.713,0,10.839l-2.081,2.192
			c-0.581-0.416-1.279-0.642-2.001-0.642c-1.925,0-3.495,1.563-3.495,3.495C6.04,32.432,7.605,34,9.535,34
			c1.929,0,3.497-1.563,3.497-3.495c0-0.647-0.182-1.283-0.527-1.83l2.138-2.235c0.277,0.235,0.579,0.46,0.892,0.654l0,0
			c2.714,1.731,6.192,1.731,8.914,0l0,0c0.313-0.194,0.604-0.419,0.894-0.654l2.149,2.221c-0.334,0.558-0.503,1.191-0.487,1.842
			c0,1.927,1.563,3.493,3.499,3.493c1.927,0,3.496-1.562,3.496-3.493C33.987,28.574,32.419,27.006,30.493,27.006z M30.493,7.449
			c1.156-0.03,2.127,0.882,2.146,2.038c0.036,1.157-0.877,2.121-2.035,2.151c-0.561,0.015-1.104-0.194-1.504-0.586l0,0l0,0
			c-0.379-0.371-0.601-0.869-0.614-1.396c-0.064-1.154,0.823-2.144,1.976-2.207C30.472,7.451,30.481,7.449,30.493,7.449z
			 M7.442,9.546c0-1.158,0.933-2.097,2.092-2.097s2.093,0.938,2.093,2.097c0.002,0.563-0.227,1.103-0.63,1.493l0,0
			c-0.396,0.385-0.922,0.601-1.469,0.602C8.378,11.642,7.442,10.703,7.442,9.546z M20.014,13.04
			c3.857,0.016,6.977,3.156,6.959,7.012c-0.012,1.88-0.765,3.68-2.126,4.988c-0.122-1.091-0.615-2.108-1.395-2.879
			c-0.359-0.353-0.765-0.643-1.22-0.879c0.801-0.642,1.265-1.624,1.259-2.654c0.012-1.927-1.544-3.495-3.476-3.506
			c-1.927-0.009-3.495,1.548-3.505,3.479c-0.008,1.04,0.458,2.031,1.264,2.696c-1.433,0.744-2.401,2.153-2.588,3.757
			c-2.779-2.674-2.858-7.1-0.179-9.877C16.313,13.814,18.123,13.042,20.014,13.04z M17.918,18.625c0-1.156,0.937-2.094,2.09-2.094
			c1.157,0,2.095,0.938,2.095,2.094c0,1.157-0.938,2.093-2.095,2.093C18.858,20.719,17.918,19.783,17.918,18.625z M9.537,32.595
			c-1.159,0-2.091-0.936-2.091-2.09c0-1.158,0.932-2.092,2.091-2.092c0.572-0.009,1.121,0.229,1.514,0.65l0,0l0,0
			c0.352,0.385,0.535,0.885,0.523,1.397C11.6,31.611,10.691,32.564,9.537,32.595z M16.521,26.029V25.61
			c0-1.931,1.563-3.493,3.493-3.493c1.934,0,3.501,1.558,3.501,3.493v0.419C21.363,27.335,18.668,27.335,16.521,26.029z
			 M30.493,32.595c-1.148,0.018-2.091-0.907-2.095-2.054c-0.014-0.524,0.183-1.032,0.53-1.423l0,0v-0.067
			c0.411-0.43,0.973-0.662,1.564-0.642c1.156,0,2.094,0.936,2.094,2.091C32.589,31.649,31.649,32.595,30.493,32.595z"/>
	</g>
</g>
</svg>
