<?xml version="1.0" encoding="utf-8"?>
<!-- Generator: Adobe Illustrator 16.0.3, SVG Export Plug-In . SVG Version: 6.00 Build 0)  -->
<!DOCTYPE svg PUBLIC "-//W3C//DTD SVG 1.1//EN" "http://www.w3.org/Graphics/SVG/1.1/DTD/svg11.dtd">
<svg version="1.1" id="Layer_1" xmlns="http://www.w3.org/2000/svg" xmlns:xlink="http://www.w3.org/1999/xlink" x="0px" y="0px"
	 width="32px" height="32px" viewBox="0 0 32 32" enable-background="new 0 0 32 32" xml:space="preserve">
<g>
	<path fill-rule="evenodd" clip-rule="evenodd" d="M2.546,8.457c0.448,0,0.879,0,1.321,0c0,5.542,0,11.08,0,16.631
		c0.057,0,0.104,0,0.152,0c1.768,0,3.536,0,5.304,0c0.266,0,0.531,0.005,0.797,0.007c0.028,0,0.056,0.001,0.083,0
		c0.239-0.016,0.316-0.097,0.317-0.335c0.001-0.66,0-1.32,0-1.98c0-4.936-0.002-9.869-0.002-14.803c0-0.122,0.002-0.247,0.03-0.364
		c0.07-0.295,0.338-0.493,0.63-0.482c0.329,0.014,0.561,0.223,0.616,0.563c0.015,0.092,0.022,0.188,0.022,0.281
		c0.001,5.65,0.001,11.3,0.001,16.951c0,0.049,0,0.098,0,0.162c0.051,0,0.094,0,0.138,0c1.426,0,2.852-0.001,4.277,0.001
		c0.492,0,0.984,0.003,1.478,0.013c0.109,0.001,0.219,0.031,0.346,0.052c-0.192,0.428-0.374,0.837-0.55,1.229
		c-0.558,0-1.105-0.001-1.653,0c-4.123,0.001-8.246,0.004-12.369,0.005c-0.102,0-0.203-0.003-0.304-0.01
		c-0.402-0.028-0.6-0.227-0.629-0.629c-0.004-0.066-0.004-0.134-0.004-0.199c-0.001-5.245-0.001-10.49-0.001-15.735
		c0-0.412,0-0.824,0-1.235C2.546,8.54,2.546,8.502,2.546,8.457z"/>
	<path fill-rule="evenodd" clip-rule="evenodd" d="M20.706,2.475c2.742,0,5.484,0.001,8.228,0c0.373,0,0.627,0.161,0.777,0.506
		c0.621,1.429,1.251,2.855,1.873,4.285c0.061,0.143,0.109,0.295,0.139,0.447c0.064,0.33-0.084,0.573-0.406,0.667
		c-0.128,0.037-0.267,0.051-0.401,0.058c-0.177,0.01-0.357,0.002-0.535,0.003c-0.802,0.003-1.605,0.01-2.41,0.009
		c-3.263-0.001-6.525-0.008-9.79-0.009c-1.348,0-2.696,0.004-4.044,0.01c-0.476,0.003-0.818-0.199-1.051-0.613
		c-0.623-1.108-1.252-2.21-1.882-3.314c-0.032-0.056-0.033-0.094,0-0.149c0.351-0.604,0.7-1.208,1.045-1.815
		c0.039-0.067,0.082-0.087,0.157-0.087C15.171,2.476,17.938,2.475,20.706,2.475z M30.087,7.14c-0.045-0.116-0.08-0.215-0.121-0.31
		c-0.396-0.904-0.794-1.807-1.188-2.712c-0.127-0.289-0.209-0.346-0.526-0.346c-0.907,0.001-1.816,0.003-2.725,0.003
		c-4.289,0-8.581,0-12.871,0.001c-0.11,0-0.221,0.012-0.35,0.019c0.068,0.13,0.125,0.245,0.188,0.356
		c0.507,0.896,1.019,1.789,1.523,2.686c0.121,0.215,0.29,0.314,0.535,0.312c0.968-0.006,1.935-0.008,2.903-0.008
		c4.154-0.001,8.309,0,12.462,0C29.969,7.14,30.016,7.14,30.087,7.14z"/>
	<path fill-rule="evenodd" clip-rule="evenodd" fill="#00AD21" d="M27.749,25.038c0-5.552,0-11.089,0-16.631
		c0.436,0,0.861,0,1.295,0c0.003,0.03,0.006,0.06,0.006,0.09c0.003,0.423,0.006,0.846,0.007,1.269
		c0.002,1.6,0.002,3.201,0.005,4.801c0.001,0.877,0.002,1.755,0.003,2.631c0.001,0.881,0.005,1.762,0.006,2.641
		c0.005,1.766,0.009,3.53,0.01,5.295c0,0.22,0.007,0.442-0.022,0.658c-0.044,0.327-0.267,0.515-0.598,0.538
		c-0.077,0.007-0.154,0.008-0.23,0.009c-1.443,0-2.888,0-4.331,0c-0.044,0-0.089,0-0.146,0c0,0.052,0,0.092,0,0.133
		c0.002,0.822,0.005,1.644,0.006,2.464c0.001,0.36-0.09,0.692-0.346,0.96c-0.51,0.533-1.306,0.556-1.878,0.047
		c-0.497-0.438-0.99-0.884-1.482-1.328c-0.757-0.685-1.511-1.371-2.269-2.051c-0.093-0.083-0.204-0.144-0.315-0.222
		c0.177-0.396,0.36-0.805,0.556-1.239c0.104,0.068,0.206,0.119,0.289,0.193c0.733,0.652,1.463,1.31,2.193,1.964
		c0.61,0.548,1.222,1.098,1.833,1.645c0.03,0.027,0.064,0.053,0.116,0.094c0-0.053,0-0.09,0-0.125
		c-0.001-1.042-0.003-2.084-0.003-3.124c0-0.422,0.166-0.639,0.53-0.694c0.086-0.014,0.174-0.016,0.261-0.016
		c0.734-0.001,1.468,0,2.201,0c0.717,0,1.433,0,2.149,0C27.64,25.038,27.686,25.038,27.749,25.038z"/>
	<path fill-rule="evenodd" clip-rule="evenodd" fill="#00AD21" d="M12.324,2.484c-0.096,0.165-0.179,0.31-0.262,0.455
		C11.1,4.619,10.136,6.3,9.177,7.982C8.993,8.305,8.725,8.459,8.354,8.457C7.383,8.451,6.411,8.449,5.44,8.449
		c-0.891,0-1.781,0.009-2.672,0.009c-0.695,0-1.39-0.002-2.084-0.013C0.55,8.443,0.41,8.417,0.286,8.372
		c-0.295-0.108-0.43-0.365-0.359-0.669c0.029-0.125,0.075-0.249,0.137-0.36c0.84-1.481,1.685-2.96,2.528-4.439
		c0.159-0.28,0.396-0.42,0.72-0.42c2.963,0.002,5.927,0.001,8.89,0.001C12.235,2.484,12.27,2.484,12.324,2.484z M1.703,7.131
		c0.095,0.007,0.165,0.017,0.234,0.017C3.89,7.146,5.842,7.144,7.795,7.144c0.238,0,0.403-0.101,0.52-0.305
		C8.851,5.9,9.39,4.962,9.926,4.023c0.037-0.064,0.058-0.138,0.092-0.225C9.927,3.793,9.855,3.784,9.782,3.784
		c-1.959-0.002-3.919,0-5.878-0.007c-0.22,0-0.36,0.084-0.465,0.269C2.913,4.976,2.383,5.902,1.855,6.83
		C1.803,6.923,1.759,7.02,1.703,7.131z"/>
</g>
</svg>
