<svg id="Layer_1" data-name="Layer 1" xmlns="http://www.w3.org/2000/svg" width="20" height="20" viewBox="0 0 20 20"><title>telemetry-icon</title><path d="M248.96875,255.375a1.74922,1.74922,0,0,0,1.21675-.49438l1.73431.86732a1.7545,1.7545,0,1,0,3.31787-.54018l2.35288-2.35288a1.73648,1.73648,0,0,0,.75319.17637,1.75981,1.75981,0,0,0,1.75781-1.75781,1.73044,1.73044,0,0,0-.08788-.52062l2.04469-1.53288a1.74206,1.74206,0,0,0,.97288.29569,1.75782,1.75782,0,1,0-1.75782-1.75781,1.73044,1.73044,0,0,0,.08788.52062l-2.04469,1.53288a1.74205,1.74205,0,0,0-.97287-.29569,1.75982,1.75982,0,0,0-1.75782,1.75781,1.73649,1.73649,0,0,0,.17638.75319l-2.35288,2.35288a1.72691,1.72691,0,0,0-1.96993.318l-1.73432-.86731a1.75335,1.75335,0,1,0-1.73643,1.54481Z" transform="translate(-246 -246)"/><path d="M265.41406,264.82813h-.625V252.44532a.58587.58587,0,0,0-.58593-.58594h-2.34375a.58588.58588,0,0,0-.58595.58594v12.38281h-1.17187v-8.86719a.58587.58587,0,0,0-.58593-.58594h-2.34375a.58588.58588,0,0,0-.58595.58594v8.86719h-1.17187v-4.17969a.58587.58587,0,0,0-.58593-.58594h-2.34375a.58588.58588,0,0,0-.58595.58594v4.17969h-1.17187v-6.52344a.58587.58587,0,0,0-.58593-.58594h-2.34375a.58588.58588,0,0,0-.58595.58594v6.52344h-.625a.58594.58594,0,0,0,0,1.17187h18.82813a.58594.58594,0,1,0,0-1.17187Z" transform="translate(-246 -246)"/></svg>