<?xml version="1.0" encoding="utf-8"?>
<!-- Generator: Adobe Illustrator 16.0.0, SVG Export Plug-In . SVG Version: 6.00 Build 0)  -->
<!DOCTYPE svg PUBLIC "-//W3C//DTD SVG 1.1//EN" "http://www.w3.org/Graphics/SVG/1.1/DTD/svg11.dtd">
<svg version="1.1" id="Layer_1" xmlns="http://www.w3.org/2000/svg" xmlns:xlink="http://www.w3.org/1999/xlink" x="0px" y="0px"
	 width="50px" height="50px" viewBox="0 0 50 50" enable-background="new 0 0 50 50" xml:space="preserve">
<g>
	<g>
		<g id="Layer_1_155_">
			<g>
				<g>
					<path d="M35.187,38.893l-1.285,1.41v5.557h-30V4.318h30v9.121l3.384-6.348V3.307C37.285,2.036,36.25,1,34.976,1H3.028
						C1.752,1,0.72,2.035,0.72,3.307v43.387C0.72,47.965,1.752,49,3.028,49h31.944c1.275,0,2.309-1.035,2.309-1.83V36.607
						l-1.104,1.361C35.913,38.438,35.628,38.408,35.187,38.893z"/>
				</g>
				<g>
					<path d="M15.375,41.33c0.074,0.463,0.607,0.607,0.966,0.758c0.347,0.148,0.758-0.131,1.047-0.268
						c1.759-0.855,4.146,0.148,6.03,0.148c1.116,0,1.116-1.727,0-1.727c-2.2,0-4.03-0.557-6.209-0.201
						c0-0.123-0.049-0.293-0.182-0.525c-0.407-0.699-0.925-0.895-1.445-0.816c-0.034-0.082-0.068-0.164-0.117-0.246
						c-0.135-0.221-0.324-0.334-0.539-0.379c0.605-1.061,1-2.186,0.603-3.094c-0.124-0.277-0.471-0.421-0.749-0.436
						c-1.158-0.043-2.149,1.17-2.892,1.9c-1.86,1.821-3.498,3.889-5.081,5.951c-0.684,0.881,0.823,1.74,1.491,0.871
						c1.405-1.822,2.893-3.592,4.495-5.252c-0.384,0.633-0.793,1.258-1.225,1.854c-0.615,0.955,0.855,1.768,1.495,0.875
						c0.153-0.23,0.347-0.402,0.557-0.543c-0.042,0.104-0.085,0.213-0.129,0.318c0,0,0.002,0.002,0.007,0.002
						c-0.036,0.066-0.067,0.139-0.094,0.203c-0.39,0.971,1.056,1.414,1.581,0.662c0.134-0.184,0.257-0.387,0.366-0.596
						C15.347,40.938,15.341,41.133,15.375,41.33z"/>
				</g>
			</g>
		</g>
	</g>
	<g>
		<path d="M28.62,40.08c-0.373,0-0.748-0.098-1.089-0.291c-0.713-0.414-1.129-1.184-1.088-2.011l0.455-7.595
			c0.015-0.321,0.113-0.65,0.289-0.96l12.138-21.02c0.266-0.473,0.709-0.829,1.248-0.992c0.33-0.108,2.27-0.617,5.16,1.053
			c2.731,1.58,3.363,3.409,3.488,3.933l0.004,0.019c0.125,0.545,0.035,1.107-0.252,1.584L36.849,34.799
			c-0.16,0.295-0.418,0.566-0.729,0.754l-6.295,4.162C29.458,39.959,29.04,40.08,28.62,40.08z M29.144,32.979l-0.254,4.451
			l3.715-2.455c-0.375-0.425-0.959-1.013-1.518-1.337C30.538,33.328,29.728,33.099,29.144,32.979z M29.281,30.543
			c0.759,0.123,2.037,0.44,3.013,0.998c1.039,0.602,1.949,1.611,2.346,2.09l0.188-0.123l12.007-20.846
			c-0.121-0.323-0.613-1.318-2.313-2.3c-2.021-1.167-3.182-0.851-3.229-0.839L29.281,30.543z"/>
	</g>
	<g>
		<path d="M26.234,10.958H11.567c-0.779,0-1.414,0.637-1.414,1.415c0,0.781,0.635,1.414,1.414,1.414h14.667
			c0.779,0,1.414-0.633,1.414-1.414C27.648,11.594,27.015,10.958,26.234,10.958z"/>
	</g>
	<g>
		<path d="M27.648,19.706c0-0.782-0.635-1.417-1.414-1.417H11.567c-0.779,0-1.414,0.635-1.414,1.417
			c0,0.781,0.635,1.416,1.414,1.416h14.667C27.015,21.122,27.648,20.486,27.648,19.706z"/>
	</g>
	<g>
		<path d="M20.93,28.453c0.779,0,1.414-0.635,1.414-1.414c0-0.781-0.635-1.42-1.414-1.42h-9.361c-0.779,0-1.414,0.639-1.414,1.42
			c0,0.779,0.635,1.414,1.414,1.414H20.93z"/>
	</g>
</g>
</svg>
