<?xml version="1.0" encoding="utf-8"?>
<!-- Generator: Adobe Illustrator 16.0.0, SVG Export Plug-In . SVG Version: 6.00 Build 0)  -->
<!DOCTYPE svg PUBLIC "-//W3C//DTD SVG 1.1//EN" "http://www.w3.org/Graphics/SVG/1.1/DTD/svg11.dtd">
<svg version="1.1" id="Isolation_Mode" xmlns="http://www.w3.org/2000/svg" xmlns:xlink="http://www.w3.org/1999/xlink" x="0px"
	 y="0px" width="80px" height="80px" viewBox="0 0 80 80" enable-background="new 0 0 80 80" xml:space="preserve">
<g>
	<path fill="#FFFFFF" d="M52.125,34.943c-0.188,0-0.327,0-0.465,0c-2.217,0-4.432,0-6.646,0c-2.98,0-5.077-2.079-5.09-5.064
		c-0.01-2.229-0.003-4.457-0.004-6.685c0-0.126,0-0.252,0-0.418c-0.161-0.008-0.295-0.02-0.429-0.02
		c-4.636-0.001-9.271-0.003-13.906,0c-1.744,0-2.722,0.983-2.722,2.723c0,9.588-0.001,19.177,0,28.765
		c0,1.345,0.679,2.279,1.885,2.57c0.28,0.068,0.58,0.068,0.871,0.069c4.661,0.003,9.322,0.002,13.983,0.003
		c0.152,0,0.307-0.003,0.457,0.02c0.682,0.098,1.117,0.631,1.073,1.304c-0.041,0.636-0.554,1.108-1.228,1.11
		c-1.617,0.007-3.235,0.003-4.852,0.003c-3.209,0-6.418,0.002-9.627,0c-2.871-0.001-5.001-2.111-5.002-4.985
		c-0.006-9.679-0.006-19.357,0-29.035c0.001-2.538,1.646-4.478,4.143-4.917c0.311-0.055,0.634-0.056,0.951-0.056
		c5.412-0.003,10.824,0,16.236-0.009c0.279,0,0.472,0.083,0.667,0.275c3.973,3.913,7.952,7.818,11.922,11.733
		c0.119,0.117,0.21,0.324,0.211,0.489c0.012,3.91,0.014,7.819,0.008,11.729c-0.002,0.943-0.695,1.537-1.524,1.327
		c-0.565-0.144-0.909-0.625-0.909-1.294c-0.002-3.043-0.001-6.087-0.001-9.13C52.125,35.3,52.125,35.148,52.125,34.943z
		 M50.632,32.504c-2.733-2.757-5.493-5.54-8.252-8.32c-0.002,0.012-0.017,0.046-0.017,0.081c-0.002,1.921-0.025,3.842,0.007,5.763
		c0.026,1.499,1.065,2.468,2.575,2.475c1.26,0.006,2.52,0.001,3.779,0.001C49.396,32.504,50.066,32.504,50.632,32.504z"/>
	<path fill="#FFFFFF" d="M51.674,52.048c-1.186-1.179-2.302-2.291-3.418-3.405c-0.551-0.547-1.102-1.094-1.646-1.646
		c-0.574-0.584-0.612-1.326-0.102-1.823c0.52-0.506,1.239-0.46,1.828,0.128c1.621,1.617,3.239,3.238,4.857,4.857
		c0.035,0.035,0.074,0.07,0.183,0.171c0.464-0.483,0.921-0.974,1.394-1.446c1.219-1.228,2.438-2.453,3.672-3.667
		c0.56-0.552,1.354-0.512,1.814,0.056c0.426,0.523,0.364,1.168-0.174,1.709c-0.814,0.819-1.634,1.636-2.452,2.451
		c-0.854,0.854-1.714,1.702-2.59,2.571c0.871,0.873,1.714,1.718,2.56,2.563c0.836,0.836,1.676,1.67,2.512,2.51
		c0.38,0.382,0.545,0.831,0.34,1.355c-0.186,0.467-0.541,0.729-1.043,0.773c-0.46,0.04-0.797-0.196-1.104-0.506
		c-1.445-1.452-2.896-2.898-4.342-4.352c-0.197-0.197-0.37-0.42-0.593-0.674c-0.763,0.771-1.466,1.482-2.17,2.19
		c-0.962,0.964-1.923,1.927-2.888,2.888c-0.582,0.579-1.316,0.612-1.826,0.093C46,58.344,46.039,57.607,46.6,57.046
		c1.563-1.569,3.131-3.133,4.7-4.694C51.398,52.252,51.518,52.175,51.674,52.048z"/>
	<path fill="#FFFFFF" d="M34.441,41.044c2.571,0,5.142,0.004,7.711-0.003c0.502-0.001,0.932,0.115,1.224,0.555
		c0.456,0.69,0.11,1.621-0.69,1.83c-0.193,0.051-0.402,0.061-0.604,0.061c-5.091,0.003-10.182,0.003-15.272,0
		c-0.189,0-0.384-0.008-0.568-0.049c-0.59-0.135-0.971-0.666-0.929-1.27c0.041-0.592,0.512-1.064,1.112-1.113
		c0.152-0.012,0.306-0.011,0.458-0.011C29.401,41.044,31.921,41.044,34.441,41.044z"/>
	<path fill="#FFFFFF" d="M34.44,47.146c2.595,0,5.191-0.002,7.787,0.002c0.842,0.002,1.377,0.512,1.35,1.265
		c-0.021,0.563-0.443,1.047-1.004,1.131c-0.174,0.026-0.354,0.029-0.531,0.029c-5.064,0.002-10.128,0.002-15.191,0
		c-0.166,0-0.332-0.003-0.495-0.023c-0.63-0.082-1.071-0.612-1.046-1.247c0.024-0.607,0.497-1.123,1.117-1.141
		c1.081-0.026,2.163-0.014,3.244-0.016C31.259,47.146,32.85,47.146,34.44,47.146z"/>
	<path fill="#FFFFFF" d="M30.772,37.388c-1.412,0-2.825,0.006-4.237-0.003c-0.607-0.004-1.095-0.413-1.209-0.972
		c-0.11-0.539,0.156-1.1,0.665-1.329c0.19-0.085,0.415-0.135,0.625-0.135c2.773-0.008,5.548-0.009,8.321-0.004
		c0.788,0.002,1.324,0.512,1.322,1.225c-0.002,0.718-0.536,1.214-1.325,1.217C33.547,37.392,32.16,37.388,30.772,37.388z"/>
	<path fill="#FFFFFF" d="M30.766,31.28c-1.374,0-2.747,0.001-4.12,0c-0.777-0.001-1.313-0.469-1.337-1.158
		c-0.024-0.711,0.496-1.266,1.277-1.271c2.798-0.016,5.595-0.016,8.393,0c0.792,0.004,1.3,0.545,1.276,1.266
		c-0.023,0.699-0.548,1.161-1.331,1.162C33.539,31.282,32.152,31.28,30.766,31.28z"/>
</g>
</svg>
