<?xml version="1.0" encoding="utf-8"?>
<!-- Generator: Adobe Illustrator 16.0.0, SVG Export Plug-In . SVG Version: 6.00 Build 0)  -->
<!DOCTYPE svg PUBLIC "-//W3C//DTD SVG 1.1//EN" "http://www.w3.org/Graphics/SVG/1.1/DTD/svg11.dtd">
<svg version="1.1" id="Layer_1" xmlns="http://www.w3.org/2000/svg" xmlns:xlink="http://www.w3.org/1999/xlink" x="0px" y="0px"
	 width="80px" height="80px" viewBox="0 0 80 80" enable-background="new 0 0 80 80" xml:space="preserve">
<g>
	<polygon fill="#FFFFFF" points="46.91,39.91 46.91,39.908 46.91,39.91 	"/>
	<path fill="#FFFFFF" d="M23.152,55.839c0.007,3.463,2.62,6.078,6.078,6.084l3.968,0.004c1.323,0,2.646-0.002,3.968-0.009
		c0.528,0,0.954,0.134,1.354,0.421c3.253,2.335,6.681,3.192,10.488,2.623c6.502-0.974,11.547-6.67,11.735-13.25
		c0.092-3.18-0.822-6.058-2.796-8.798c-0.288-0.399-0.423-0.829-0.423-1.352c0.009-6.953,0.011-13.904,0.004-20.856
		c-0.004-3.431-2.596-6.022-6.03-6.027l-4.854-0.004c-2.485,0-4.971,0.004-7.456,0.017c-0.125,0-0.326,0.087-0.422,0.183
		c-3.043,3.03-6.083,6.066-9.123,9.102l-6.314,6.304c-0.143,0.143-0.187,0.256-0.186,0.481c0.008,3.191,0.008,6.381,0.008,9.571
		l-0.002,11.386C23.15,53.093,23.149,54.466,23.152,55.839z M58.533,51.326c-0.025,6.287-5.408,11.599-11.753,11.599
		c0,0,0,0-0.001,0c-3.135-0.011-6.073-1.259-8.311-3.515c-2.238-2.255-3.463-5.204-3.451-8.303
		c0.025-6.451,5.36-11.699,11.892-11.699h0.049C53.26,39.434,58.56,44.892,58.533,51.326z M26.924,29.89L39.119,17.69l0.094,1.067
		l-0.498,0.044l0.503,0.011c0.008,0.082,0.016,0.167,0.016,0.253l0.002,2.108c0.002,1.876,0.004,3.753-0.004,5.629
		c-0.009,1.978-1.246,3.546-3.078,3.903c-0.179,0.035-0.364,0.052-0.544,0.052l-4.034,0.001l-4.053,0
		c-0.069,0-0.139-0.005-0.21-0.011l-1.072-0.091L26.924,29.89z M25.37,33.74c0-0.06,0.005-0.12,0.014-0.209l0.052-0.554h0.992
		c0.905,0,1.81-0.005,2.715-0.011c2.031-0.011,4.062-0.023,6.089,0.024l0.135,0.002c3.265,0,6.047-2.844,6.075-6.209
		c0.02-2.091,0.016-4.183,0.011-6.273l-0.003-3.611L51.92,16.9c0.131,0,0.264,0.022,0.394,0.047
		c1.876,0.351,2.999,1.708,3.001,3.629l0.002,19.603l-0.777-0.518c-3.044-2.025-6.176-2.792-9.565-2.349
		c-3.418,0.449-6.339,1.992-8.683,4.586c-3.449,3.815-5.255,10.764-1.07,17.004l0.464,0.69l-0.828,0.085
		c-0.156,0.021-0.224,0.029-0.293,0.029l-3.432,0.007c-0.733,0-1.467-0.002-2.2-0.01c-2.059-0.021-3.555-1.516-3.558-3.554
		c-0.009-5.635-0.007-11.271-0.005-16.908L25.37,33.74z"/>
</g>
<polygon fill="#FFFFFF" points="54.287,50.044 47.855,50.044 47.855,43.656 45.652,43.656 45.652,50.087 39.264,50.087 
	39.264,52.292 45.695,52.292 45.695,58.68 47.898,58.68 47.898,52.266 54.287,52.266 "/>
</svg>
