<?xml version="1.0" encoding="utf-8"?>
<!-- Generator: Adobe Illustrator 16.0.0, SVG Export Plug-In . SVG Version: 6.00 Build 0)  -->
<!DOCTYPE svg PUBLIC "-//W3C//DTD SVG 1.1//EN" "http://www.w3.org/Graphics/SVG/1.1/DTD/svg11.dtd">
<svg version="1.1" id="Layer_1" xmlns="http://www.w3.org/2000/svg" xmlns:xlink="http://www.w3.org/1999/xlink" x="0px" y="0px"
	 width="36px" height="36px" viewBox="9.5 9.5 36 36" enable-background="new 9.5 9.5 36 36" xml:space="preserve">
<g>
	<path fill="none" stroke="#000000" stroke-width="1.5" stroke-linecap="round" stroke-linejoin="round" stroke-miterlimit="10" d="
		M13.679,20.551c0.948,0.95,0.948,2.488,0,3.437c-0.95,0.949-2.487,0.949-3.436,0"/>
	<path fill="none" stroke="#000000" stroke-width="1.5" stroke-linecap="round" stroke-linejoin="round" stroke-miterlimit="10" d="
		M17.115,17.115c0.949,0.949,0.949,2.487,0,3.436c-0.95,0.949-2.487,0.949-3.437,0"/>
	<path fill="none" stroke="#000000" stroke-width="1.5" stroke-linecap="round" stroke-linejoin="round" stroke-miterlimit="10" d="
		M20.551,13.678c0.95,0.949,0.949,2.487,0,3.437c-0.949,0.95-2.486,0.95-3.436,0"/>
	<path fill="none" stroke="#000000" stroke-width="1.5" stroke-linecap="round" stroke-linejoin="round" stroke-miterlimit="10" d="
		M23.987,10.243c0.95,0.949,0.95,2.487,0,3.437c-0.948,0.948-2.486,0.948-3.436,0"/>
	<path fill="none" stroke="#000000" stroke-width="1.5" stroke-linecap="round" stroke-linejoin="round" stroke-miterlimit="10" d="
		M34.448,41.319c-0.95-0.948-2.485-0.948-3.435,0c-0.952,0.949-0.952,2.488,0,3.437"/>
	<path fill="none" stroke="#000000" stroke-width="1.5" stroke-linecap="round" stroke-linejoin="round" stroke-miterlimit="10" d="
		M37.884,37.884c-0.948-0.948-2.487-0.948-3.436,0c-0.95,0.949-0.95,2.487,0,3.436"/>
	<path fill="none" stroke="#000000" stroke-width="1.5" stroke-linecap="round" stroke-linejoin="round" stroke-miterlimit="10" d="
		M41.32,34.448c-0.949-0.95-2.487-0.95-3.438,0c-0.946,0.948-0.946,2.487,0.002,3.436"/>
	<path fill="none" stroke="#000000" stroke-width="1.5" stroke-linecap="round" stroke-linejoin="round" stroke-miterlimit="10" d="
		M44.756,31.014c-0.948-0.952-2.488-0.952-3.437,0c-0.948,0.949-0.948,2.484,0.001,3.435"/>
	
		<line fill="none" stroke="#000000" stroke-width="1.5" stroke-linecap="round" stroke-linejoin="round" stroke-miterlimit="10" x1="10.243" y1="23.987" x2="31.014" y2="44.756"/>
	
		<line fill="none" stroke="#000000" stroke-width="1.5" stroke-linecap="round" stroke-linejoin="round" stroke-miterlimit="10" x1="23.987" y1="10.243" x2="44.756" y2="31.014"/>
	<path fill="none" stroke="#000000" stroke-width="1.5" stroke-linecap="round" stroke-linejoin="round" stroke-miterlimit="10" d="
		M34.221,28.341c0.436,0.435,0.436,1.138,0,1.573l-4.424,4.425c-0.434,0.434-1.139,0.432-1.573,0l-7.74-7.742
		c-0.434-0.434-0.434-1.138,0-1.573l4.424-4.425c0.435-0.436,1.139-0.434,1.573,0L34.221,28.341z"/>
	
		<line fill="none" stroke="#000000" stroke-width="1.5" stroke-linecap="round" stroke-linejoin="round" stroke-miterlimit="10" x1="25.793" y1="29.07" x2="28.954" y2="25.91"/>
</g>
</svg>
