<?xml version="1.0" encoding="utf-8"?>
<!-- Generator: Adobe Illustrator 16.0.0, SVG Export Plug-In . SVG Version: 6.00 Build 0)  -->
<!DOCTYPE svg PUBLIC "-//W3C//DTD SVG 1.1//EN" "http://www.w3.org/Graphics/SVG/1.1/DTD/svg11.dtd">
<svg version="1.1" id="Capa_1" xmlns="http://www.w3.org/2000/svg" xmlns:xlink="http://www.w3.org/1999/xlink" x="0px" y="0px"
	 width="80px" height="80px" viewBox="0 0 80 80" enable-background="new 0 0 80 80" xml:space="preserve">
<g>
	<g>
		<g id="cancel">
			<g>
				<path fill="#FFFFFF" d="M40,18.211c-12.033,0-21.789,9.755-21.789,21.789S27.967,61.789,40,61.789S61.789,52.034,61.789,40
					S52.033,18.211,40,18.211z M40,59.064c-10.529,0-19.064-8.535-19.064-19.064S29.471,20.936,40,20.936S59.064,29.471,59.064,40
					S50.529,59.064,40,59.064z"/>
			</g>
		</g>
	</g>
	<path fill="#FFFFFF" d="M49.145,30.855c-0.518-0.521-1.361-0.521-1.881,0L40,38.119l-7.264-7.264c-0.521-0.521-1.361-0.521-1.881,0
		c-0.521,0.519-0.521,1.36,0,1.881L38.119,40l-7.262,7.264c-0.521,0.52-0.521,1.362,0,1.881c0.518,0.52,1.36,0.52,1.879,0L40,41.88
		l7.264,7.265c0.52,0.52,1.363,0.52,1.881,0c0.52-0.519,0.52-1.361,0-1.881L41.881,40l7.264-7.264
		C49.662,32.217,49.662,31.375,49.145,30.855z"/>
</g>
</svg>
