<?xml version="1.0" encoding="utf-8"?>
<!-- Generator: Adobe Illustrator 16.0.0, SVG Export Plug-In . SVG Version: 6.00 Build 0)  -->
<!DOCTYPE svg PUBLIC "-//W3C//DTD SVG 1.1//EN" "http://www.w3.org/Graphics/SVG/1.1/DTD/svg11.dtd">
<svg version="1.1" id="Layer_1" xmlns="http://www.w3.org/2000/svg" xmlns:xlink="http://www.w3.org/1999/xlink" x="0px" y="0px"
	 width="80px" height="80px" viewBox="0 0 80 80" enable-background="new 0 0 80 80" xml:space="preserve">
<path fill="#FFFFFF" d="M19.131,39.274c0.025,0.966,0.062,1.991,0.203,2.973c1.554,10.813,10.615,18.735,21.551,18.851
	c0.451-0.056,0.905-0.101,1.358-0.146c0.951-0.095,1.936-0.193,2.867-0.39c11.831-2.499,19.071-13.022,17.218-25.022
	C60.763,25.4,51.466,17.457,41.164,17.457l-0.179,0.001c-0.856,0.008-1.491,0.57-1.508,1.337c-0.019,0.748,0.688,1.404,1.542,1.434
	l0.108,0.003c0.976,0.034,1.983,0.069,2.973,0.227c5.016,0.796,9.586,3.74,12.539,8.076c2.943,4.323,4.007,9.631,2.916,14.563
	c-2.005,9.07-9.534,15.165-18.736,15.165c-1.118,0-2.255-0.095-3.379-0.281c-8.841-1.465-15.675-9.641-15.56-18.614
	c0.005-0.427-0.161-0.844-0.455-1.142c-0.262-0.266-0.598-0.412-0.945-0.412c-0.359,0-0.694,0.144-0.946,0.403
	C19.263,38.494,19.12,38.87,19.131,39.274z"/>
<path fill="#FFFFFF" d="M34.337,44.001c0.846-0.419,1.69-0.843,2.533-1.267c1.432-0.719,2.864-1.438,4.308-2.134
	c0.778-0.376,1.092-0.88,1.084-1.742c-0.014-1.458-0.012-2.916-0.009-4.373l0.005-3.651c0.004-1.469,0.007-2.938-0.012-4.407
	c-0.012-0.938-0.526-1.521-1.342-1.521c-0.082,0-0.167,0.006-0.253,0.018c-0.976,0.135-1.123,1.109-1.124,1.679l-0.004,1.672
	c-0.007,2.976-0.014,5.952,0.021,8.927c0.01,0.862-0.322,1.39-1.11,1.764c-1.509,0.715-2.999,1.468-4.488,2.222l-0.785,0.396
	c-0.556,0.279-1.411,0.902-0.896,1.942C32.64,44.282,33.43,44.451,34.337,44.001z"/>
<path fill="#FFFFFF" d="M22.031,33.271l0.018-0.498c0.715-0.01,1.301-0.616,1.307-1.352c0.006-0.745-0.557-1.344-1.28-1.364
	c0,0-0.001,0-0.001,0c-0.774,0-1.378,0.603-1.386,1.344c-0.004,0.36,0.138,0.704,0.399,0.969c0.257,0.26,0.592,0.403,0.943,0.403
	V33.271L22.031,33.271z"/>
<path fill="#FFFFFF" d="M33.063,21.698c0.371,0,0.72-0.146,0.982-0.411c0.252-0.255,0.389-0.589,0.385-0.939
	c-0.009-0.72-0.611-1.314-1.343-1.325c0,0,0,0-0.001,0c-0.384,0-0.727,0.143-0.984,0.402c-0.253,0.255-0.391,0.593-0.388,0.949
	c0.007,0.721,0.606,1.314,1.336,1.323l0.013,0.499l0,0V21.698z"/>
<path fill="#FFFFFF" d="M25.124,24.808c0.006,0.724,0.615,1.336,1.33,1.336c0.355-0.001,0.712-0.162,0.979-0.44
	c0.256-0.268,0.396-0.613,0.383-0.946c-0.028-0.705-0.647-1.299-1.352-1.299C25.707,23.474,25.118,24.079,25.124,24.808z"/>
</svg>
