<?xml version="1.0" encoding="utf-8"?>
<!-- Generator: Adobe Illustrator 16.0.0, SVG Export Plug-In . SVG Version: 6.00 Build 0)  -->
<!DOCTYPE svg PUBLIC "-//W3C//DTD SVG 1.1//EN" "http://www.w3.org/Graphics/SVG/1.1/DTD/svg11.dtd">
<svg version="1.1" id="Layer_1" xmlns="http://www.w3.org/2000/svg" xmlns:xlink="http://www.w3.org/1999/xlink" x="0px" y="0px"
	 width="30px" height="30px" viewBox="0 0 30 30" enable-background="new 0 0 30 30" xml:space="preserve">
<g>
	<path fill-rule="evenodd" clip-rule="evenodd" d="M3.775,10.685c-0.154-0.31-0.258-0.604-0.43-0.851
		C3.077,9.448,3.044,9.109,3.313,8.841c0.271-0.27,0.614-0.254,0.989,0.043c0.566,0.453,1.281,0.434,1.76-0.045
		c0.482-0.481,0.503-1.195,0.052-1.761C5.815,6.706,5.799,6.361,6.064,6.09c0.268-0.272,0.621-0.26,0.988,0.035
		c0.57,0.454,1.281,0.44,1.762-0.037c0.492-0.486,0.508-1.197,0.038-1.785C8.572,3.949,8.559,3.607,8.815,3.339
		C9.079,3.063,9.44,3.073,9.804,3.363c0.574,0.458,1.278,0.447,1.761-0.026c0.486-0.478,0.515-1.197,0.068-1.761
		c-0.312-0.394-0.327-0.744-0.044-1.012c0.298-0.282,0.687-0.235,1.058,0.137c4.504,4.504,9.01,9.009,13.516,13.513
		c1.037,1.037,2.075,2.071,3.108,3.114c0.427,0.426,0.312,1.013-0.221,1.176c-0.293,0.089-0.51-0.054-0.728-0.229
		c-0.553-0.451-1.277-0.412-1.756,0.083c-0.469,0.485-0.475,1.183-0.012,1.764c0.359,0.446,0.243,0.971-0.249,1.133
		c-0.291,0.095-0.512-0.038-0.729-0.217c-0.531-0.437-1.238-0.422-1.709,0.021c-0.511,0.48-0.558,1.219-0.096,1.781
		c0.172,0.209,0.306,0.42,0.231,0.696c-0.126,0.488-0.661,0.624-1.101,0.338c-0.269-0.178-0.588-0.342-0.899-0.381
		c-0.506-0.061-0.906,0.201-1.147,0.657c-0.245,0.463-0.211,0.925,0.091,1.358c0.05,0.073,0.116,0.137,0.167,0.208
		c0.218,0.295,0.201,0.644-0.04,0.884c-0.241,0.244-0.603,0.275-0.883,0.045c-0.283-0.236-0.579-0.418-0.96-0.413
		c-0.518,0.007-0.91,0.236-1.142,0.69c-0.237,0.469-0.195,0.93,0.115,1.358c0.058,0.081,0.13,0.153,0.188,0.237
		c0.182,0.271,0.154,0.603-0.064,0.832c-0.227,0.235-0.579,0.271-0.854,0.075c-0.094-0.062-0.175-0.145-0.252-0.223
		C11.728,23.71,6.234,18.216,0.74,12.721c-0.048-0.048-0.098-0.094-0.143-0.144c-0.288-0.313-0.312-0.686-0.06-0.962
		c0.251-0.276,0.622-0.282,0.959-0.015c0.647,0.507,1.381,0.501,1.852-0.066C3.537,11.308,3.624,10.997,3.775,10.685z M26.69,16.738
		c-4.506-4.505-9.012-9.011-13.518-13.518c-0.444,1.182-1.335,1.803-2.645,1.826c0.009,0.787-0.234,1.45-0.779,1.991
		c-0.542,0.54-1.216,0.757-1.976,0.759c0.005,0.796-0.238,1.458-0.783,2c-0.543,0.54-1.218,0.754-1.967,0.761
		C5,11.884,4.362,12.749,3.215,13.189c4.503,4.504,9.009,9.01,13.511,13.512c0.442-1.176,1.336-1.794,2.642-1.816
		c-0.009-0.79,0.233-1.452,0.781-1.992c0.545-0.54,1.214-0.757,1.976-0.759c-0.012-0.797,0.235-1.457,0.779-1.998
		c0.545-0.54,1.217-0.755,1.971-0.76C24.892,18.047,25.536,17.187,26.69,16.738z"/>
	<path fill-rule="evenodd" clip-rule="evenodd" fill="#41C363" d="M21.36,16.397c0.012,0.27-0.113,0.488-0.311,0.684
		c-1.321,1.317-2.641,2.643-3.962,3.963c-0.422,0.421-0.95,0.456-1.424,0.092c-0.083-0.064-0.161-0.14-0.236-0.217
		c-2.157-2.157-4.312-4.312-6.47-6.467c-0.261-0.261-0.467-0.557-0.413-0.938c0.03-0.208,0.108-0.448,0.25-0.593
		c1.354-1.379,2.726-2.743,4.096-4.108c0.309-0.309,0.785-0.354,1.187-0.118c0.125,0.075,0.243,0.172,0.347,0.276
		c2.175,2.172,4.349,4.347,6.523,6.52C21.197,15.738,21.372,16.015,21.36,16.397z M16.32,20.347c1.331-1.33,2.678-2.675,4.006-4.005
		c-0.997-0.995-2.009-2.006-3.034-3.028c0.03-0.012,0.02-0.011,0.017-0.005c-0.137,0.133-0.272,0.267-0.409,0.397
		c-0.235,0.224-0.525,0.24-0.727,0.043c-0.208-0.202-0.194-0.503,0.043-0.745c0.14-0.14,0.287-0.271,0.383-0.361
		c-1.039-1.04-2.05-2.053-3.029-3.035c-1.321,1.323-2.667,2.67-4.001,4.004c0.985,0.986,1.996,1.995,3.036,3.035
		c0.109-0.12,0.233-0.264,0.367-0.396c0.254-0.255,0.552-0.277,0.761-0.063c0.208,0.212,0.184,0.505-0.078,0.76
		c-0.134,0.132-0.289,0.244-0.392,0.331C14.323,18.341,15.331,19.354,16.32,20.347z"/>
	<path fill-rule="evenodd" clip-rule="evenodd" fill="#41C363" d="M14.202,16.326c-0.16-0.132-0.398-0.235-0.463-0.405
		c-0.073-0.187-0.07-0.509,0.047-0.644c0.452-0.52,0.952-1,1.454-1.475c0.225-0.212,0.595-0.173,0.814,0.036
		c0.229,0.221,0.278,0.599,0.057,0.835c-0.466,0.497-0.952,0.974-1.444,1.444C14.569,16.212,14.407,16.238,14.202,16.326z"/>
</g>
</svg>
