<?xml version="1.0" encoding="utf-8"?>
<!-- Generator: Adobe Illustrator 16.0.3, SVG Export Plug-In . SVG Version: 6.00 Build 0)  -->
<!DOCTYPE svg PUBLIC "-//W3C//DTD SVG 1.1//EN" "http://www.w3.org/Graphics/SVG/1.1/DTD/svg11.dtd">
<svg version="1.1" id="Layer_1" xmlns="http://www.w3.org/2000/svg" xmlns:xlink="http://www.w3.org/1999/xlink" x="0px" y="0px"
	 width="50px" height="30px" viewBox="0 0 50 30" enable-background="new 0 0 50 30" xml:space="preserve">
<g>
	<g>
		<g>
			<path fill="#FFFFFF" d="M48.91,20.812l-0.563-4.707c-0.062-0.507-0.517-0.871-1.023-0.818c-1.858,0.189-3.549-1.165-3.768-3.018
				c-0.223-1.854,1.102-3.569,2.953-3.822c0.503-0.068,0.859-0.53,0.799-1.037l-0.561-4.706c-0.097-0.813-0.505-1.541-1.15-2.047
				c-0.642-0.506-1.444-0.731-2.258-0.635L10.535,3.938C9.73,4.034,9.011,4.436,8.504,5.066H4.179
				C2.488,5.068,1.113,6.442,1.113,8.133v4.741c0,0.51,0.409,0.925,0.917,0.934c1.868,0.031,3.387,1.577,3.387,3.444
				s-1.519,3.411-3.387,3.443c-0.509,0.008-0.917,0.425-0.917,0.933v4.742c0,1.69,1.375,3.065,3.066,3.065H30.49h6.725
				c1.692,0,3.068-1.375,3.068-3.065v-1.442l5.944-0.707c0.813-0.098,1.539-0.506,2.047-1.149
				C48.78,22.427,49.006,21.625,48.91,20.812z M38.415,23.271v1.882v1.218c0,0.661-0.539,1.199-1.2,1.199h-5.79v-1.583v-0.169
				c0-0.518-0.418-0.935-0.935-0.935s-0.934,0.417-0.934,0.935v0.391v1.361H18.169h-6.912H4.179c-0.661,0-1.198-0.538-1.198-1.199
				v-3.901c1.049-0.201,2.013-0.715,2.777-1.491c0.984-1,1.527-2.322,1.527-3.726c0-1.404-0.542-2.727-1.527-3.727
				c-0.765-0.775-1.729-1.289-2.777-1.49V8.133c0-0.66,0.537-1.198,1.198-1.198h3.653h1.87h19.854v11.374
				c0,0.514,0.417,0.935,0.934,0.935s0.935-0.421,0.935-0.935V6.935h5.79c0.661,0,1.2,0.538,1.2,1.198v3.902
				c-1.052,0.201-2.015,0.714-2.779,1.49c-0.983,1-1.524,2.323-1.524,3.727c0,1.403,0.541,2.727,1.524,3.726
				c0.765,0.776,1.728,1.29,2.779,1.491V23.271L38.415,23.271z M46.805,21.916c-0.197,0.251-0.481,0.411-0.8,0.449l-5.722,0.683
				v-1.42c0-0.508-0.409-0.925-0.921-0.933c-1.866-0.032-3.385-1.576-3.385-3.443s1.519-3.413,3.385-3.445
				c0.512-0.008,0.921-0.423,0.921-0.934v-4.74c0-1.691-1.376-3.067-3.068-3.067H30.49h-13.66l26.73-3.189
				c0.317-0.038,0.63,0.05,0.883,0.248c0.252,0.198,0.411,0.481,0.448,0.8l0.463,3.875c-1.018,0.324-1.913,0.948-2.581,1.809
				c-0.86,1.11-1.242,2.488-1.075,3.881c0.166,1.395,0.862,2.643,1.959,3.52c0.853,0.682,1.866,1.075,2.935,1.15l0.463,3.876
				C47.092,21.351,47.004,21.664,46.805,21.916z"/>
			<path fill="#FFFFFF" d="M31.353,21.705c-0.021-0.055-0.051-0.111-0.085-0.161c-0.033-0.052-0.073-0.099-0.115-0.142
				c-0.044-0.044-0.091-0.082-0.142-0.116c-0.053-0.033-0.107-0.063-0.161-0.086c-0.058-0.023-0.117-0.041-0.176-0.055
				c-0.122-0.022-0.243-0.022-0.366,0c-0.06,0.014-0.116,0.031-0.174,0.055c-0.057,0.023-0.109,0.053-0.161,0.086
				c-0.051,0.034-0.097,0.072-0.142,0.116c-0.043,0.043-0.082,0.09-0.115,0.142c-0.034,0.05-0.064,0.106-0.087,0.161
				c-0.023,0.057-0.042,0.115-0.054,0.177c-0.014,0.058-0.019,0.121-0.019,0.181c0,0.061,0.005,0.122,0.019,0.183
				c0.012,0.06,0.03,0.119,0.054,0.175c0.022,0.055,0.053,0.112,0.087,0.16c0.033,0.054,0.072,0.1,0.115,0.143
				c0.045,0.044,0.091,0.084,0.142,0.117c0.052,0.032,0.104,0.062,0.161,0.085c0.058,0.024,0.114,0.042,0.174,0.053
				c0.062,0.011,0.123,0.019,0.183,0.019c0.062,0,0.124-0.008,0.184-0.019c0.059-0.011,0.118-0.028,0.176-0.053
				c0.054-0.023,0.108-0.053,0.161-0.085c0.051-0.033,0.098-0.073,0.142-0.117c0.042-0.043,0.082-0.089,0.115-0.143
				c0.034-0.048,0.063-0.105,0.085-0.16c0.023-0.056,0.042-0.115,0.056-0.175c0.01-0.061,0.017-0.122,0.017-0.183
				c0-0.06-0.007-0.123-0.017-0.181C31.395,21.82,31.376,21.762,31.353,21.705z"/>
			<path fill="#FFFFFF" d="M23.701,14.837l-4.104-0.597l-1.834-3.718c-0.156-0.318-0.481-0.52-0.836-0.52
				c-0.355,0-0.681,0.202-0.838,0.52l-1.615,3.271l-0.219,0.447l-1.553,0.227l-2.55,0.37c-0.352,0.051-0.644,0.297-0.754,0.636
				c-0.109,0.337-0.018,0.708,0.236,0.957l2.471,2.41l0.498,0.483L12.32,20.97l-0.418,2.44c-0.061,0.35,0.084,0.704,0.372,0.913
				c0.287,0.21,0.669,0.236,0.983,0.07l3.67-1.93l3.669,1.93c0.137,0.072,0.286,0.107,0.434,0.107c0.195,0,0.388-0.061,0.55-0.178
				c0.287-0.209,0.431-0.563,0.371-0.913l-0.701-4.087l2.968-2.894c0.255-0.248,0.347-0.62,0.236-0.957
				C24.345,15.134,24.053,14.888,23.701,14.837z M19.595,18.327c-0.22,0.216-0.322,0.525-0.268,0.827l0.462,2.704l-2.429-1.275
				c-0.271-0.143-0.597-0.143-0.868,0l-2.429,1.275l0.463-2.704c0.024-0.137,0.014-0.277-0.023-0.41
				c-0.043-0.156-0.126-0.298-0.245-0.417l-1.152-1.119l-0.813-0.794l0.938-0.137l1.777-0.259c0.028-0.005,0.056-0.011,0.083-0.017
				c0.269-0.063,0.497-0.246,0.621-0.495l1.215-2.461l1.214,2.461c0.136,0.276,0.399,0.467,0.703,0.511l2.715,0.396L19.595,18.327z"
				/>
		</g>
	</g>
</g>
</svg>
