<?xml version="1.0" encoding="utf-8"?>
<!-- Generator: Adobe Illustrator 16.0.0, SVG Export Plug-In . SVG Version: 6.00 Build 0)  -->
<!DOCTYPE svg PUBLIC "-//W3C//DTD SVG 1.1//EN" "http://www.w3.org/Graphics/SVG/1.1/DTD/svg11.dtd">
<svg version="1.1" id="Isolation_Mode" xmlns="http://www.w3.org/2000/svg" xmlns:xlink="http://www.w3.org/1999/xlink" x="0px"
	 y="0px" width="80px" height="80px" viewBox="0 0 80 80" enable-background="new 0 0 80 80" xml:space="preserve">
<g>
	<path fill="#FFFFFF" d="M27.026,23.295c-1.041,0-1.814,0.002-2.588-0.001c-0.625-0.002-1.056-0.265-1.061-0.938
		c-0.004-0.631,0.414-0.93,0.989-0.936c1.854-0.022,3.708-0.027,5.562,0.001c0.707,0.011,1.039,0.425,1.031,1.157
		c-0.021,1.719,0.001,3.439-0.008,5.159c-0.004,0.834-0.39,1.346-0.993,1.29c-0.754-0.072-0.933-0.604-0.927-1.267
		c0.009-1.123,0.002-2.246,0.002-3.369c-0.072-0.056-0.143-0.111-0.213-0.166c-1.078,1.051-2.255,2.019-3.213,3.169
		c-3.298,3.957-4.946,8.526-4.609,13.702c0.425,6.545,3.441,11.655,8.873,15.295c3.796,2.543,8.06,3.596,12.576,3.088
		c7.199-0.811,12.601-4.463,15.779-11.006c5.234-10.775-0.355-23.549-11.803-27.102c-1.621-0.503-3.369-0.593-5.063-0.866
		c-0.289-0.047-0.592-0.021-0.88-0.073c-0.549-0.099-0.87-0.433-0.824-1.008c0.045-0.576,0.419-0.891,0.974-0.849
		c1.416,0.106,2.864,0.111,4.238,0.427c8.042,1.848,13.639,6.647,16.177,14.491c2.47,7.628,0.923,14.702-4.397,20.741
		c-4.728,5.365-10.836,7.799-17.937,7.147c-7.816-0.714-13.674-4.69-17.309-11.668c-2.953-5.669-3.164-11.582-0.859-17.542
		c1.219-3.152,3.142-5.853,5.661-8.119C26.421,23.861,26.63,23.662,27.026,23.295z"/>
	<path fill="#FFFFFF" d="M47.751,48.064c0.167,0.031,0.271,0.061,0.376,0.07c0.645,0.071,1.113,0.372,1.031,1.071
		c-0.074,0.642-0.567,0.829-1.182,0.828c-4.916-0.011-9.833-0.011-14.749,0.001c-0.639,0.001-1.17-0.156-1.239-0.852
		c-0.069-0.699,0.413-0.988,1.056-1.052c0.102-0.012,0.202-0.045,0.429-0.095c-0.614-1.901,0.603-2.975,1.815-4.094
		c1.338-1.235,2.615-2.539,4.053-3.942c-0.923-0.874-1.757-1.658-2.586-2.452c-0.427-0.409-0.84-0.831-1.26-1.248
		c-1.204-1.2-2.758-2.225-2.021-4.316c-0.249-0.043-0.352-0.071-0.458-0.079c-0.621-0.044-1.072-0.34-1.037-0.987
		c0.037-0.683,0.537-0.915,1.19-0.914c3.814,0.008,7.63,0.003,11.443,0.003c1.074,0,2.148,0.014,3.224-0.005
		c0.654-0.012,1.246,0.116,1.319,0.859c0.074,0.75-0.459,1.017-1.133,1.053c-0.076,0.004-0.15,0.043-0.219,0.063
		c-0.014,0.037-0.033,0.065-0.029,0.087c0.34,1.771-0.639,2.889-1.846,3.977c-1.371,1.238-2.637,2.594-4.092,4.042
		c0.803,0.751,1.573,1.449,2.319,2.173c0.905,0.88,1.757,1.818,2.694,2.661c0.678,0.607,1.018,1.277,0.901,2.186
		C47.718,47.42,47.751,47.742,47.751,48.064z M35.193,31.944c0.146,0.669,0.086,1.381,0.414,1.741
		c1.567,1.721,3.238,3.347,4.952,5.086c1.576-1.596,3.041-3.158,4.598-4.62c0.717-0.673,0.779-1.367,0.58-2.208
		C42.27,31.944,38.844,31.944,35.193,31.944z M45.741,48.096c0.253-0.973,0.067-1.71-0.712-2.322
		c-0.565-0.443-1.031-1.015-1.547-1.522c-0.963-0.952-1.933-1.899-2.959-2.911c-1.536,1.557-2.966,3.088-4.491,4.518
		c-0.709,0.662-0.839,1.349-0.634,2.24C38.845,48.096,42.273,48.096,45.741,48.096z"/>
	<path fill="#FFFFFF" d="M35.396,52.91c0.517,0.07,0.877,0.404,0.869,0.982c-0.006,0.543-0.372,0.907-0.913,0.91
		c-0.533,0.002-0.927-0.313-0.912-0.892C34.455,53.367,34.67,52.924,35.396,52.91z"/>
	<path fill="#FFFFFF" d="M41.029,52.91c0.519,0.07,0.878,0.404,0.869,0.982c-0.006,0.543-0.371,0.907-0.912,0.91
		c-0.533,0.002-0.927-0.313-0.911-0.892C40.089,53.367,40.305,52.924,41.029,52.91z"/>
	<path fill="#FFFFFF" d="M46.665,52.91c0.517,0.07,0.877,0.404,0.869,0.982c-0.007,0.543-0.372,0.907-0.913,0.91
		c-0.533,0.002-0.928-0.313-0.911-0.892C45.725,53.367,45.939,52.924,46.665,52.91z"/>
</g>
</svg>
