<?xml version="1.0" encoding="utf-8"?>
<!-- Generator: Adobe Illustrator 16.0.0, SVG Export Plug-In . SVG Version: 6.00 Build 0)  -->
<!DOCTYPE svg PUBLIC "-//W3C//DTD SVG 1.1//EN" "http://www.w3.org/Graphics/SVG/1.1/DTD/svg11.dtd">
<svg version="1.1" id="Isolation_Mode" xmlns="http://www.w3.org/2000/svg" xmlns:xlink="http://www.w3.org/1999/xlink" x="0px"
	 y="0px" width="80px" height="80px" viewBox="0 0 80 80" enable-background="new 0 0 80 80" xml:space="preserve">
<g>
	<path fill="#FFFFFF" d="M51.624,21.156c-0.511,0.81-1.021,1.618-1.575,2.5c-5.355-2.515-10.778-2.744-16.219-0.375
		c-3.75,1.632-6.642,4.273-8.688,7.813c-4.107,7.101-3.108,16.119,2.433,22.165c5.555,6.06,14.396,7.794,21.872,4.363
		c6.482-2.976,12.359-10.562,10.562-20.945c0.941-0.201,1.89-0.403,2.835-0.604c1.776,6.147-0.158,17.071-9.771,23.067
		c-9.374,5.848-21.677,3.762-28.624-4.82c-6.983-8.625-6.439-21.083,1.28-29.058C33.598,17.127,45.006,17.269,51.624,21.156z"/>
	<path fill="#FFFFFF" d="M39.619,45.469c6.682-6.685,13.24-13.245,19.82-19.829c0.625,0.679,1.211,1.315,1.721,1.869
		c-7.143,7.141-14.357,14.357-21.492,21.49c-3.994-3.994-8.121-8.123-12.239-12.24c0.501-0.492,1.119-1.098,1.771-1.736
		C32.625,38.456,36.084,41.925,39.619,45.469z"/>
</g>
</svg>
