<?xml version="1.0" encoding="utf-8"?>
<!-- Generator: Adobe Illustrator 16.0.3, SVG Export Plug-In . SVG Version: 6.00 Build 0)  -->
<!DOCTYPE svg PUBLIC "-//W3C//DTD SVG 1.1//EN" "http://www.w3.org/Graphics/SVG/1.1/DTD/svg11.dtd">
<svg version="1.1" id="Layer_1" xmlns="http://www.w3.org/2000/svg" xmlns:xlink="http://www.w3.org/1999/xlink" x="0px" y="0px"
	 width="16px" height="16px" viewBox="0 0 16 16" enable-background="new 0 0 16 16" xml:space="preserve">
<g>
	<path fill-rule="evenodd" clip-rule="evenodd" d="M12.627,11.997c0-0.79,0-1.544,0-2.296c0-0.944-0.004-1.886,0.003-2.83
		c0.002-0.177-0.042-0.25-0.235-0.25c-2.64,0.006-5.28,0.004-7.92,0.005c-0.026,0-0.053,0.008-0.129,0.02
		C4.411,6.727,4.453,6.79,4.506,6.843C4.992,7.332,5.467,7.83,5.97,8.3c0.462,0.433,0.206,1.051-0.296,1.11
		C5.509,9.431,5.278,9.354,5.159,9.238c-0.94-0.912-1.864-1.842-2.786-2.773C2.074,6.163,2.09,5.875,2.395,5.569
		c0.913-0.914,1.827-1.827,2.74-2.74c0.27-0.27,0.549-0.307,0.79-0.109C6.23,2.969,6.327,3.31,6.065,3.609
		c-0.08,0.092-0.149,0.193-0.235,0.279c-0.477,0.48-0.957,0.958-1.488,1.489c0.161,0,0.259,0,0.357,0c2.829,0,5.658,0,8.486,0
		c0.464,0,0.688,0.223,0.689,0.684c0,2.169,0,4.337,0,6.505c-0.001,0.447-0.227,0.677-0.67,0.677c-1.952,0-3.903,0-5.855,0
		c-0.395,0-0.659-0.251-0.663-0.627c-0.004-0.368,0.269-0.62,0.673-0.62c1.641-0.001,3.281,0,4.922,0
		C12.385,11.997,12.487,11.997,12.627,11.997z"/>
</g>
</svg>
