<?xml version="1.0" encoding="utf-8"?>
<!-- Generator: Adobe Illustrator 16.0.0, SVG Export Plug-In . SVG Version: 6.00 Build 0)  -->
<!DOCTYPE svg PUBLIC "-//W3C//DTD SVG 1.1//EN" "http://www.w3.org/Graphics/SVG/1.1/DTD/svg11.dtd">
<svg version="1.1" id="Layer_1" xmlns="http://www.w3.org/2000/svg" xmlns:xlink="http://www.w3.org/1999/xlink" x="0px" y="0px"
	 width="30px" height="30px" viewBox="0 0 30 30" enable-background="new 0 0 30 30" xml:space="preserve">
<g>
	<path fill-rule="evenodd" clip-rule="evenodd" d="M4.002,16.036c0-2.609,0-5.217,0-7.825c0-1.339,0.864-2.207,2.199-2.208
		c0.851,0,1.7-0.003,2.551,0.002C9.099,6.007,9.38,6.235,9.443,6.546C9.508,6.86,9.37,7.171,9.079,7.303
		c-0.12,0.054-0.262,0.08-0.395,0.081C7.841,7.39,6.998,7.386,6.155,7.387c-0.51,0.001-0.77,0.262-0.77,0.772
		c0,5.252,0,10.505,0,15.757c0,0.494,0.266,0.762,0.758,0.762c4.568,0.001,9.136,0.001,13.704,0c0.479,0,0.754-0.272,0.754-0.745
		c0.001-5.268,0.001-10.534,0-15.801c0-0.454-0.236-0.707-0.688-0.747C19.5,7.35,19.209,7.048,19.226,6.672
		c0.019-0.393,0.336-0.673,0.757-0.667c1.063,0.017,1.965,0.903,2.001,1.966c0.003,0.086,0.003,0.173,0.003,0.259
		c0,5.202-0.017,10.404,0.012,15.606c0.007,1.299-0.993,2.242-2.238,2.235c-4.532-0.022-9.064-0.008-13.596-0.01
		c-1.031,0-1.857-0.604-2.091-1.539c-0.052-0.207-0.067-0.428-0.067-0.641C4,21.268,4.002,18.651,4.002,16.036z"/>
	<path fill-rule="evenodd" clip-rule="evenodd" fill="#41C363" d="M14.374,11.712c-0.758,0.568-1.502,1.124-2.243,1.684
		c-0.252,0.19-0.514,0.291-0.819,0.139c-0.313-0.155-0.395-0.429-0.394-0.754c0.002-2.679,0.001-5.358,0.002-8.037
		c0-0.544,0.268-0.814,0.806-0.814c1.772,0,3.543-0.001,5.315,0c0.516,0,0.794,0.272,0.795,0.78c0.002,2.7,0,5.401,0.002,8.102
		c0,0.274-0.067,0.514-0.307,0.676c-0.275,0.187-0.563,0.163-0.876-0.072c-0.698-0.521-1.395-1.044-2.092-1.567
		C14.505,11.805,14.446,11.764,14.374,11.712z M16.438,11.527c0-2.093,0-4.147,0-6.199c-1.385,0-2.756,0-4.125,0
		c0,2.065,0,4.115,0,6.191c0.077-0.054,0.135-0.091,0.19-0.133c0.45-0.336,0.9-0.673,1.35-1.009c0.4-0.298,0.652-0.298,1.052,0.002
		C15.408,10.754,15.908,11.13,16.438,11.527z"/>
	<path fill-rule="evenodd" clip-rule="evenodd" fill="#41C363" d="M10.205,22.604c-0.431,0-0.863,0.002-1.294-0.001
		c-0.443-0.002-0.753-0.286-0.755-0.686c-0.002-0.401,0.307-0.693,0.746-0.695c0.885-0.003,1.77-0.003,2.654,0
		c0.437,0.002,0.747,0.297,0.744,0.696c-0.002,0.392-0.31,0.678-0.735,0.686c-0.014,0.001-0.029,0-0.043,0
		C11.083,22.604,10.644,22.604,10.205,22.604z"/>
</g>
</svg>
