<?xml version="1.0" encoding="utf-8"?>
<!-- Generator: Adobe Illustrator 16.0.0, SVG Export Plug-In . SVG Version: 6.00 Build 0)  -->
<!DOCTYPE svg PUBLIC "-//W3C//DTD SVG 1.1//EN" "http://www.w3.org/Graphics/SVG/1.1/DTD/svg11.dtd">
<svg version="1.1" id="Layer_1" xmlns="http://www.w3.org/2000/svg" xmlns:xlink="http://www.w3.org/1999/xlink" x="0px" y="0px"
	 width="30px" height="30px" viewBox="-2 -2 30 30" enable-background="new -2 -2 30 30" xml:space="preserve">
<g>
	<path d="M13.611,0.982c0.328,0.083,0.658,0.155,0.98,0.251c2.676,0.799,4.273,3.25,3.997,6.124
		c-0.241,2.521-2.396,4.614-5.024,4.889c-2.966,0.309-5.722-1.834-6.122-4.762C7.022,4.39,9.072,1.565,12.096,1.072
		c0.107-0.018,0.21-0.059,0.315-0.089C12.812,0.982,13.212,0.982,13.611,0.982z M17.475,6.664c0.014-2.398-1.983-4.464-4.334-4.48
		c-2.543-0.018-4.58,1.95-4.589,4.437c-0.01,2.438,1.992,4.471,4.417,4.486C15.43,11.122,17.458,9.121,17.475,6.664z"/>
	<path d="M17.82,23.954c-0.049-1.823,0.054-3.627-0.188-5.384c-0.293-2.129-2.093-3.594-4.235-3.791
		c-0.126-0.01-0.251-0.036-0.398-0.059c0-0.369,0.009-0.678,0.009-1.128c0.599,0.022,0.995,0.067,1.472,0.181
		c2.49,0.598,4.375,2.887,4.445,5.449c0.049,1.758,0.021,3.517,0.018,5.273c0,0.472-0.211,0.679-0.686,0.679
		c-3.503,0.005-7.005,0.002-10.507,0.002c-0.382,0-0.66-0.163-0.665-0.565c-0.015-1.371-0.005-2.741-0.005-4.149
		c0.383,0,0.743,0,1.15,0c0,1.152,0,2.304,0,3.492C11.424,23.954,14.57,23.954,17.82,23.954z"/>
	<path fill="#41C363" d="M13.014,13.6c0,0.369-0.005,0.762-0.005,1.123c-3.295,0.428-4.857,2.426-4.782,5.73
		c-0.396,0-0.738,0-1.14,0C6.585,16.297,10.084,13.438,13.014,13.6z"/>
</g>
</svg>
