<?xml version="1.0" encoding="utf-8"?>
<!-- Generator: Adobe Illustrator 16.0.0, SVG Export Plug-In . SVG Version: 6.00 Build 0)  -->
<!DOCTYPE svg PUBLIC "-//W3C//DTD SVG 1.1//EN" "http://www.w3.org/Graphics/SVG/1.1/DTD/svg11.dtd">
<svg version="1.1" id="Layer_1" xmlns="http://www.w3.org/2000/svg" xmlns:xlink="http://www.w3.org/1999/xlink" x="0px" y="0px"
	 width="40px" height="40px" viewBox="0 0 40 40" enable-background="new 0 0 40 40" xml:space="preserve">
<g>
	<g>
		<path d="M19.959,8.935c-3.287,0-5.959,2.674-5.959,5.961c0,1.328,0.439,2.553,1.182,3.545c-1.455,1.016-2.33,2.531-2.33,4.154
			v8.471h1.656v-8.471c0-1.156,0.701-2.253,1.855-2.96c1,0.763,2.244,1.218,3.598,1.218c1.367,0,2.625-0.468,3.633-1.246
			c1.184,0.707,1.9,1.813,1.9,2.988v8.469h1.656v-8.469c0-1.65-0.896-3.179-2.385-4.192c0.721-0.985,1.148-2.196,1.148-3.508
			C25.918,11.605,23.244,8.935,19.959,8.935z M19.959,19.194c-2.373,0-4.301-1.931-4.301-4.302c0-2.373,1.928-4.304,4.301-4.304
			c2.371,0,4.303,1.931,4.303,4.304S22.33,19.194,19.959,19.194z"/>
	</g>
	<g>
		<path d="M6.658,21.25c0-0.508,0.287-0.992,0.77-1.349c0.613,0.408,1.35,0.647,2.141,0.647c2.146,0,3.891-1.741,3.891-3.884
			c0-2.144-1.742-3.887-3.891-3.887c-2.141,0-3.883,1.743-3.883,3.887c0,0.745,0.225,1.436,0.586,2.026
			C5.471,19.354,5,20.271,5,21.248v4.918h1.658V21.25L6.658,21.25z M9.568,14.438c1.229,0,2.229,0.999,2.229,2.228
			s-1,2.227-2.229,2.227c-1.23,0-2.229-0.999-2.229-2.227C7.342,15.438,8.34,14.438,9.568,14.438z"/>
	</g>
	<g>
		<path d="M33.695,18.667c0.354-0.586,0.57-1.267,0.57-2c0-2.144-1.742-3.887-3.889-3.887s-3.887,1.743-3.887,3.887
			s1.74,3.884,3.887,3.884c0.807,0,1.555-0.243,2.17-0.662c0.492,0.354,0.789,0.846,0.789,1.363v4.918H35v-4.92
			C35,20.257,34.518,19.329,33.695,18.667z M30.381,18.896c-1.229,0-2.229-0.999-2.229-2.228s1-2.228,2.229-2.228
			c1.23,0,2.229,0.999,2.229,2.228C32.607,17.896,31.609,18.896,30.381,18.896z"/>
	</g>
</g>
</svg>
