<?xml version="1.0" encoding="utf-8"?>
<!-- Generator: Adobe Illustrator 16.0.0, SVG Export Plug-In . SVG Version: 6.00 Build 0)  -->
<!DOCTYPE svg PUBLIC "-//W3C//DTD SVG 1.1//EN" "http://www.w3.org/Graphics/SVG/1.1/DTD/svg11.dtd">
<svg version="1.1" id="Layer_1" xmlns="http://www.w3.org/2000/svg" xmlns:xlink="http://www.w3.org/1999/xlink" x="0px" y="0px"
	 width="38px" height="38px" viewBox="0 0 38 38" enable-background="new 0 0 38 38" xml:space="preserve">
<g>
	<g>
		<path fill="#FFFFFF" d="M35.264,35.094H8.547c-0.366,0-0.662-0.295-0.662-0.662c0-0.365,0.296-0.662,0.662-0.662h26.717
			c0.778,0,1.411-0.633,1.411-1.41V8.405c0-0.778-0.633-1.411-1.411-1.411H31.81c-0.366,0-0.662-0.297-0.662-0.662
			c0-0.366,0.296-0.662,0.662-0.662h3.454C36.772,5.67,38,6.897,38,8.405v23.954C38,33.867,36.772,35.094,35.264,35.094z"/>
	</g>
	<g>
		<path fill="#FFFFFF" d="M29.045,6.995H14.766c-0.366,0-0.662-0.297-0.662-0.662c0-0.366,0.296-0.662,0.662-0.662h14.279
			c0.366,0,0.663,0.296,0.663,0.662C29.708,6.698,29.411,6.995,29.045,6.995z"/>
	</g>
	<g>
		<path fill="#FFFFFF" d="M6.474,12.349c-0.366,0-0.663-0.296-0.663-0.662V8.405c0-1.508,1.229-2.735,2.736-2.735h3.454
			c0.366,0,0.663,0.296,0.663,0.662c0,0.365-0.297,0.662-0.663,0.662H8.547c-0.778,0-1.411,0.632-1.411,1.411v3.282
			C7.136,12.053,6.84,12.349,6.474,12.349z"/>
	</g>
	<g>
		<path fill="#FFFFFF" d="M33.423,35.094H5.782c-1.508,0-2.736-1.227-2.736-2.734v-2.533c0-0.365,0.297-0.662,0.663-0.662H31.35
			c0.366,0,0.662,0.297,0.662,0.662v2.533c0,0.777,0.633,1.41,1.411,1.41c0.366,0,0.662,0.297,0.662,0.662
			C34.085,34.799,33.789,35.094,33.423,35.094z M4.371,30.488v1.871c0,0.777,0.633,1.41,1.411,1.41H31.08
			c-0.249-0.412-0.394-0.895-0.394-1.41v-1.871H4.371z"/>
	</g>
	<g>
		<path fill="#FFFFFF" d="M14.075,9.758h-1.384c-0.746,0-1.353-0.607-1.353-1.353V4.259c0-0.746,0.606-1.353,1.353-1.353h1.384
			c0.746,0,1.354,0.607,1.354,1.353v4.146C15.429,9.151,14.821,9.758,14.075,9.758z M12.691,4.23l-0.027,4.175l1.411,0.029
			c0.015,0,0.028-0.014,0.028-0.029V4.259L12.691,4.23z"/>
	</g>
	<g>
		<path fill="#FFFFFF" d="M31.118,9.758h-1.382c-0.746,0-1.354-0.607-1.354-1.353V4.259c0-0.746,0.607-1.353,1.354-1.353h1.382
			c0.746,0,1.354,0.607,1.354,1.353v4.146C32.473,9.151,31.864,9.758,31.118,9.758z M29.736,4.23l-0.028,4.175l1.41,0.029
			c0.017,0,0.029-0.013,0.029-0.029V4.259L29.736,4.23z"/>
	</g>
	<g>
		<path fill="#FFFFFF" d="M13.695,17.269c-0.366,0-0.662-0.296-0.662-0.662c0-0.276,0.169-0.513,0.408-0.612v-2.8h-2.107
			c-0.077,0.282-0.334,0.49-0.641,0.49c-0.365,0-0.662-0.296-0.662-0.662c0-0.635,0.481-1.152,1.073-1.152h2.591
			c0.591,0,1.071,0.517,1.071,1.152v3.095C14.767,16.752,14.286,17.269,13.695,17.269z"/>
	</g>
	<g>
		<path fill="#FFFFFF" d="M20.032,17.269h-2.591c-0.592,0-1.072-0.517-1.072-1.151v-3.095c0-0.635,0.48-1.152,1.072-1.152h2.591
			c0.591,0,1.071,0.517,1.071,1.152v3.095C21.104,16.752,20.623,17.269,20.032,17.269z M17.694,15.945h2.084v-2.75h-2.084V15.945z"
			/>
	</g>
	<g>
		<path fill="#FFFFFF" d="M26.369,17.269h-2.591c-0.591,0-1.072-0.517-1.072-1.151v-3.095c0-0.635,0.481-1.152,1.072-1.152h2.591
			c0.592,0,1.073,0.517,1.073,1.152v3.095C27.442,16.752,26.961,17.269,26.369,17.269z M24.031,15.945h2.086v-2.75h-2.086V15.945z"
			/>
	</g>
	<g>
		<path fill="#FFFFFF" d="M32.706,17.269h-2.591c-0.591,0-1.072-0.517-1.072-1.151v-3.095c0-0.635,0.481-1.152,1.072-1.152h2.591
			c0.591,0,1.072,0.517,1.072,1.152v3.095C33.778,16.752,33.297,17.269,32.706,17.269z M30.368,15.945h2.085v-2.75h-2.085V15.945z"
			/>
	</g>
	<g>
		<path fill="#FFFFFF" d="M20.032,25.469h-2.591c-0.592,0-1.072-0.516-1.072-1.15v-3.096c0-0.635,0.48-1.152,1.072-1.152h2.591
			c0.591,0,1.071,0.518,1.071,1.152v3.096C21.104,24.953,20.623,25.469,20.032,25.469z M17.694,24.145h2.084v-2.748h-2.084V24.145z"
			/>
	</g>
	<g>
		<path fill="#FFFFFF" d="M26.369,25.469h-2.591c-0.591,0-1.072-0.516-1.072-1.15v-3.096c0-0.635,0.481-1.152,1.072-1.152h2.591
			c0.592,0,1.073,0.518,1.073,1.152v3.096C27.442,24.953,26.961,25.469,26.369,25.469z M24.031,24.145h2.086v-2.748h-2.086V24.145z"
			/>
	</g>
	<g>
		<path fill="#FFFFFF" d="M32.706,25.469h-2.591c-0.591,0-1.072-0.516-1.072-1.15v-3.096c0-0.635,0.481-1.152,1.072-1.152h2.591
			c0.591,0,1.072,0.518,1.072,1.152v3.096C33.778,24.953,33.297,25.469,32.706,25.469z M30.368,24.145h2.085v-2.748h-2.085V24.145z"
			/>
	</g>
	<g>
		<path fill="#FFFFFF" d="M6.474,27.207C2.904,27.207,0,24.303,0,20.734c0-3.57,2.904-6.474,6.474-6.474
			c3.568,0,6.473,2.904,6.473,6.474C12.946,24.303,10.042,27.207,6.474,27.207z M6.474,15.585c-2.84,0-5.148,2.31-5.148,5.149
			c0,2.838,2.309,5.148,5.148,5.148c2.838,0,5.147-2.311,5.147-5.148C11.621,17.895,9.312,15.585,6.474,15.585z"/>
	</g>
	<g>
		<path fill="#FFFFFF" d="M5.209,23.402c-0.178,0-0.356-0.072-0.486-0.213l-1.451-1.572c-0.248-0.27-0.232-0.689,0.036-0.936
			c0.269-0.248,0.688-0.232,0.937,0.035l1.009,1.094l3.37-3.017c0.272-0.243,0.689-0.222,0.936,0.052
			c0.244,0.272,0.221,0.691-0.052,0.935L5.65,23.232C5.524,23.346,5.366,23.402,5.209,23.402z"/>
	</g>
</g>
</svg>
