<?xml version="1.0" encoding="utf-8"?>
<!-- Generator: Adobe Illustrator 16.0.0, SVG Export Plug-In . SVG Version: 6.00 Build 0)  -->
<!DOCTYPE svg PUBLIC "-//W3C//DTD SVG 1.1//EN" "http://www.w3.org/Graphics/SVG/1.1/DTD/svg11.dtd">
<svg version="1.1" id="Layer_1" xmlns="http://www.w3.org/2000/svg" xmlns:xlink="http://www.w3.org/1999/xlink" x="0px" y="0px"
	 width="36px" height="36px" viewBox="9.5 9.5 36 36" enable-background="new 9.5 9.5 36 36" xml:space="preserve">
<g>
	<path fill="none" stroke="#000000" stroke-width="1.5" stroke-linecap="round" stroke-linejoin="round" stroke-miterlimit="10" d="
		M39.39,15.887h3.206c1.064,0,1.926,0.862,1.926,1.924v22.235c0,1.063-0.861,1.925-1.926,1.925H17.797"/>
	
		<line fill="none" stroke="#000000" stroke-width="1.5" stroke-linecap="round" stroke-linejoin="round" stroke-miterlimit="10" x1="23.569" y1="15.887" x2="36.825" y2="15.887"/>
	<path fill="none" stroke="#000000" stroke-width="1.5" stroke-linecap="round" stroke-linejoin="round" stroke-miterlimit="10" d="
		M15.872,20.857v-3.046c0-1.063,0.862-1.924,1.924-1.924h3.207"/>
	<path fill="none" stroke="#000000" stroke-width="1.5" stroke-linecap="round" stroke-linejoin="round" stroke-miterlimit="10" d="
		M38.964,40.046v-2.353c-9.647,0-19.992,0-25.657,0v2.353c0,1.063,0.861,1.925,1.924,1.925h25.656
		C39.824,41.971,38.964,41.108,38.964,40.046z"/>
	<path fill="none" stroke="#000000" stroke-width="1.5" stroke-linecap="round" stroke-linejoin="round" stroke-miterlimit="10" d="
		M23.569,17.811c0,0.354-0.287,0.642-0.641,0.642h-1.283c-0.354,0-0.641-0.288-0.641-0.642v-3.849c0-0.354,0.287-0.641,0.641-0.641
		h1.283c0.354,0,0.641,0.288,0.641,0.641V17.811z"/>
	<path fill="none" stroke="#000000" stroke-width="1.5" stroke-linecap="round" stroke-linejoin="round" stroke-miterlimit="10" d="
		M39.39,17.811c0,0.354-0.287,0.642-0.642,0.642h-1.282c-0.353,0-0.642-0.288-0.642-0.642v-3.849c0-0.354,0.289-0.641,0.642-0.641
		h1.282c0.354,0,0.642,0.288,0.642,0.641V17.811z"/>
	<path fill="none" stroke="#000000" stroke-width="1.5" stroke-linecap="round" stroke-linejoin="round" stroke-miterlimit="10" d="
		M19.79,22.097c0-0.25,0.17-0.454,0.38-0.454h2.405c0.21,0,0.38,0.204,0.38,0.454v2.874c0,0.25-0.169,0.454-0.38,0.454"/>
	<path fill="none" stroke="#000000" stroke-width="1.5" stroke-linecap="round" stroke-linejoin="round" stroke-miterlimit="10" d="
		M28.837,24.97c0,0.25-0.169,0.454-0.378,0.454h-2.406c-0.21,0-0.38-0.204-0.38-0.454v-2.874c0-0.25,0.17-0.454,0.38-0.454h2.406
		c0.209,0,0.378,0.204,0.378,0.454V24.97z"/>
	<path fill="none" stroke="#000000" stroke-width="1.5" stroke-linecap="round" stroke-linejoin="round" stroke-miterlimit="10" d="
		M34.721,24.97c0,0.25-0.17,0.454-0.38,0.454h-2.405c-0.208,0-0.379-0.204-0.379-0.454v-2.874c0-0.25,0.171-0.454,0.379-0.454h2.405
		c0.21,0,0.38,0.204,0.38,0.454V24.97z"/>
	<path fill="none" stroke="#000000" stroke-width="1.5" stroke-linecap="round" stroke-linejoin="round" stroke-miterlimit="10" d="
		M40.603,24.97c0,0.25-0.169,0.454-0.379,0.454h-2.405c-0.21,0-0.38-0.204-0.38-0.454v-2.874c0-0.25,0.17-0.454,0.38-0.454h2.405
		c0.21,0,0.379,0.204,0.379,0.454V24.97z"/>
	<path fill="none" stroke="#000000" stroke-width="1.5" stroke-linecap="round" stroke-linejoin="round" stroke-miterlimit="10" d="
		M28.837,32.581c0,0.25-0.169,0.453-0.378,0.453h-2.406c-0.21,0-0.38-0.204-0.38-0.453v-2.873c0-0.25,0.17-0.453,0.38-0.453h2.406
		c0.209,0,0.378,0.204,0.378,0.453V32.581z"/>
	<path fill="none" stroke="#000000" stroke-width="1.5" stroke-linecap="round" stroke-linejoin="round" stroke-miterlimit="10" d="
		M34.721,32.581c0,0.25-0.17,0.453-0.38,0.453h-2.405c-0.208,0-0.379-0.204-0.379-0.453v-2.873c0-0.25,0.171-0.453,0.379-0.453
		h2.405c0.21,0,0.38,0.204,0.38,0.453V32.581z"/>
	<path fill="none" stroke="#000000" stroke-width="1.5" stroke-linecap="round" stroke-linejoin="round" stroke-miterlimit="10" d="
		M40.603,32.581c0,0.25-0.169,0.453-0.379,0.453h-2.405c-0.21,0-0.38-0.204-0.38-0.453v-2.873c0-0.25,0.17-0.453,0.38-0.453h2.405
		c0.21,0,0.379,0.204,0.379,0.453V32.581z"/>
	
		<circle fill="none" stroke="#000000" stroke-width="1.5" stroke-linecap="round" stroke-linejoin="round" stroke-miterlimit="10" cx="15.872" cy="29.255" r="5.394"/>
	
		<polyline fill="none" stroke="#000000" stroke-width="1.5" stroke-linecap="round" stroke-linejoin="round" stroke-miterlimit="10" points="
		13.351,29.657 14.7,31.116 18.278,27.912 	"/>
</g>
</svg>
