<?xml version="1.0" encoding="utf-8"?>
<!-- Generator: Adobe Illustrator 16.0.0, SVG Export Plug-In . SVG Version: 6.00 Build 0)  -->
<!DOCTYPE svg PUBLIC "-//W3C//DTD SVG 1.1//EN" "http://www.w3.org/Graphics/SVG/1.1/DTD/svg11.dtd">
<svg version="1.1" id="Layer_1" xmlns="http://www.w3.org/2000/svg" xmlns:xlink="http://www.w3.org/1999/xlink" x="0px" y="0px"
	 width="20px" height="20px" viewBox="0 0 20 20" enable-background="new 0 0 20 20" xml:space="preserve">
<g>
	<g>
		<path d="M19.379,9.631C19.21,9.398,15.165,3.945,10,3.945c-5.166,0-9.21,5.453-9.379,5.685c-0.161,0.221-0.161,0.52,0,0.739
			C0.79,10.602,4.834,16.055,10,16.055c5.165,0,9.21-5.453,9.379-5.686C19.54,10.149,19.54,9.851,19.379,9.631z M10,14.803
			c-3.805,0-7.1-3.62-8.076-4.803C2.898,8.815,6.187,5.198,10,5.198c3.805,0,7.1,3.618,8.075,4.802
			C17.102,11.185,13.813,14.803,10,14.803z"/>
	</g>
</g>
<g>
	<g>
		<path d="M10,6.242c-2.072,0-3.758,1.686-3.758,3.758S7.928,13.758,10,13.758s3.758-1.686,3.758-3.758S12.072,6.242,10,6.242z
			 M10,12.506c-1.382,0-2.505-1.124-2.505-2.506c0-1.381,1.123-2.505,2.505-2.505S12.505,8.619,12.505,10
			C12.505,11.382,11.382,12.506,10,12.506z"/>
	</g>
</g>
</svg>
