<?xml version="1.0" encoding="utf-8"?>
<!-- Generator: Adobe Illustrator 16.0.3, SVG Export Plug-In . SVG Version: 6.00 Build 0)  -->
<!DOCTYPE svg PUBLIC "-//W3C//DTD SVG 1.1//EN" "http://www.w3.org/Graphics/SVG/1.1/DTD/svg11.dtd">
<svg version="1.1" id="Layer_1" xmlns="http://www.w3.org/2000/svg" xmlns:xlink="http://www.w3.org/1999/xlink" x="0px" y="0px"
	 width="26px" height="26px" viewBox="0 0 26 26" enable-background="new 0 0 26 26" xml:space="preserve">
<g>
	<path fill-rule="evenodd" clip-rule="evenodd" d="M0.279,13.48c0.059-0.083,0.107-0.17,0.174-0.237
		c1.669-1.684,3.358-3.346,5.305-4.716c1.561-1.098,3.228-1.959,5.118-2.343c2.312-0.469,4.547-0.205,6.72,0.679
		c2.104,0.856,3.916,2.161,5.541,3.723c0.957,0.919,1.859,1.896,2.769,2.829c-0.019,0.066-0.015,0.089-0.025,0.101
		c-1.629,1.667-3.28,3.311-5.19,4.666c-1.85,1.312-3.864,2.25-6.125,2.576c-2.36,0.343-4.609-0.067-6.754-1.095
		c-1.646-0.788-3.058-1.903-4.377-3.142c-0.824-0.774-1.616-1.581-2.426-2.369C0.775,13.924,0.529,13.709,0.279,13.48z
		 M24.55,13.434c-0.799-0.8-1.534-1.58-2.313-2.312c-1.47-1.381-3.103-2.524-4.979-3.295c-1.648-0.678-3.361-0.979-5.141-0.784
		C10.199,7.252,8.468,7.98,6.858,9.02c-1.887,1.218-3.505,2.75-5.079,4.334c-0.012,0.012-0.009,0.037-0.021,0.09
		c1.649,1.721,3.349,3.41,5.408,4.686c1.512,0.936,3.148,1.536,4.927,1.677c1.821,0.144,3.565-0.208,5.246-0.917
		c2.217-0.938,4.07-2.395,5.783-4.051C23.583,14.392,24.038,13.938,24.55,13.434z"/>
	<path fill-rule="evenodd" clip-rule="evenodd" d="M18.426,13.419c0.004,2.916-2.387,5.306-5.32,5.318
		c-2.916,0.011-5.335-2.409-5.338-5.342C7.764,10.487,10.17,8.094,13.1,8.09C16.047,8.087,18.423,10.463,18.426,13.419z
		 M17.384,13.412c0-2.33-1.929-4.249-4.267-4.25c-2.353-0.001-4.28,1.902-4.283,4.229c-0.002,2.355,1.938,4.284,4.306,4.28
		C15.438,17.665,17.385,15.713,17.384,13.412z"/>
</g>
</svg>
