<?xml version="1.0" encoding="utf-8"?>
<!-- Generator: Adobe Illustrator 16.0.3, SVG Export Plug-In . SVG Version: 6.00 Build 0)  -->
<!DOCTYPE svg PUBLIC "-//W3C//DTD SVG 1.1//EN" "http://www.w3.org/Graphics/SVG/1.1/DTD/svg11.dtd">
<svg version="1.1" id="Layer_1" xmlns="http://www.w3.org/2000/svg" xmlns:xlink="http://www.w3.org/1999/xlink" x="0px" y="0px"
	 width="20px" height="20px" viewBox="0 0 20 20" enable-background="new 0 0 20 20" xml:space="preserve">
<g>
	<path fill-rule="evenodd" clip-rule="evenodd" fill="#40C261" d="M12.437,10.222c0.004,1.374-1.088,2.48-2.453,2.484
		c-1.381,0.001-2.499-1.088-2.503-2.442C7.476,8.87,8.563,7.762,9.941,7.755C11.338,7.75,12.428,8.831,12.437,10.222z"/>
</g>
<g>
	<path d="M9.95,5.591L9.95,5.591c0.568,0,1.154,0.106,1.793,0.327c1.113,0.381,2.219,0.999,3.481,1.946
		c0.944,0.706,1.846,1.497,2.732,2.397c-0.252,0.27-0.501,0.53-0.755,0.781c-1.342,1.319-2.662,2.293-4.039,2.979
		c-1.142,0.569-2.191,0.847-3.209,0.847l-0.12-0.002c-1.015-0.021-2.063-0.317-3.201-0.904c-1.453-0.75-2.849-1.821-4.271-3.277
		c-0.136-0.138-0.268-0.28-0.398-0.424C3.527,8.675,5.02,7.507,6.603,6.624C7.506,6.118,8.361,5.8,9.217,5.653
		C9.457,5.611,9.704,5.591,9.95,5.591 M9.95,4.091c-0.326,0-0.655,0.026-0.986,0.083C7.862,4.364,6.839,4.772,5.869,5.315
		c-2.228,1.243-4.105,2.917-5.821,4.784c-0.1,0.109-0.084,0.18,0.007,0.278c0.413,0.451,0.808,0.923,1.236,1.359
		c1.376,1.409,2.891,2.648,4.652,3.559c1.213,0.625,2.485,1.042,3.857,1.071c0.051,0.001,0.102,0.002,0.152,0.002
		c1.373,0,2.655-0.394,3.879-1.005c1.661-0.826,3.104-1.956,4.421-3.251c0.603-0.595,1.166-1.228,1.756-1.854
		c-1.211-1.353-2.483-2.546-3.888-3.596c-1.199-0.899-2.466-1.675-3.893-2.164C11.482,4.241,10.723,4.091,9.95,4.091L9.95,4.091z"/>
</g>
</svg>
