<svg id="Capa_1" data-name="Capa 1" xmlns="http://www.w3.org/2000/svg" width="28" height="25.66748" viewBox="0 0 28 25.66748"><defs><style>.cls-1{fill:#6cbf6c;}</style></defs><title>voltage-icon</title><path class="cls-1" d="M30.6963,26.2168,19.207,5.4253a2.44106,2.44106,0,0,0-2.1342-1.2588h-.1456A2.43992,2.43992,0,0,0,14.793,5.4258L3.3042,26.2168A2.43791,2.43791,0,0,0,5.438,29.834H28.5615a2.43863,2.43863,0,0,0,2.1348-3.61718Zm-9.1699-7.0869-7,8.166a.583.583,0,0,1-.9844-.5957l2.0132-5.0342H12.9165a.58188.58188,0,0,1-.5488-.7783l2.9165-8.167a.58349.58349,0,0,1,.5493-.3872H19.916a.58224.58224,0,0,1,.542.7998L18.4443,18.166H21.084a.58433.58433,0,0,1,.4424.9639Z" transform="translate(-3 -4.1665)"/></svg>