<?xml version="1.0" encoding="utf-8"?>
<!-- Generator: Adobe Illustrator 16.0.0, SVG Export Plug-In . SVG Version: 6.00 Build 0)  -->
<!DOCTYPE svg PUBLIC "-//W3C//DTD SVG 1.1//EN" "http://www.w3.org/Graphics/SVG/1.1/DTD/svg11.dtd">
<svg version="1.1" id="Layer_1" xmlns="http://www.w3.org/2000/svg" xmlns:xlink="http://www.w3.org/1999/xlink" x="0px" y="0px"
	 width="30px" height="30px" viewBox="-4.519 -4.519 30 30" enable-background="new -4.519 -4.519 30 30" xml:space="preserve">
<g>
	<path d="M10.055,0.381c0.275,0,0.551,0,0.826,0c0.013,0.004,0.027,0.012,0.041,0.013c0.116,0.008,0.233,0.012,0.351,0.02
		c0.433,0.031,0.86,0.096,1.285,0.188c0.907,0.195,1.771,0.516,2.593,0.94c1.063,0.548,2.006,1.252,2.811,2.139
		c0.99,1.09,1.695,2.345,2.158,3.74c0.26,0.786,0.418,1.592,0.463,2.417c0.025,0.477,0.023,0.955-0.008,1.432
		c-0.029,0.445-0.097,0.885-0.189,1.32c-0.188,0.895-0.504,1.742-0.92,2.555c-0.596,1.156-1.375,2.17-2.363,3.02
		c-0.842,0.721-1.781,1.28-2.803,1.703c-1.01,0.42-2.059,0.672-3.148,0.742c-0.096,0.008-0.19,0.02-0.286,0.031
		c-0.264,0-0.527,0-0.791,0c-0.028-0.006-0.056-0.014-0.085-0.016c-0.32-0.031-0.642-0.051-0.961-0.097
		c-0.798-0.11-1.569-0.325-2.315-0.631c-1.52-0.623-2.849-1.522-3.915-2.78c-1.463-1.73-2.294-3.726-2.436-5.996
		c-0.004-0.067-0.02-0.138-0.031-0.207c0-0.28,0-0.563,0-0.844c0.006-0.022,0.017-0.044,0.018-0.065
		c0.012-0.132,0.022-0.263,0.032-0.395C0.41,9.213,0.469,8.82,0.55,8.43c0.183-0.886,0.49-1.728,0.901-2.532
		C1.956,4.908,2.602,4.023,3.4,3.247C4.969,1.722,7.41,0.49,9.988,0.395C10.01,0.394,10.032,0.386,10.055,0.381z M5.952,10.468
		c0,0.079-0.002,0.158,0,0.237c0.008,0.267,0.01,0.533,0.031,0.799c0.031,0.408,0.067,0.817,0.117,1.225
		c0.044,0.354,0.102,0.707,0.169,1.059c0.044,0.229,0.114,0.453,0.178,0.678c0.087,0.313,0.169,0.629,0.271,0.938
		c0.252,0.768,0.588,1.497,1.041,2.17c0.29,0.43,0.62,0.824,1.023,1.152c0.39,0.318,0.828,0.541,1.323,0.641
		c0.158,0.03,0.319,0.063,0.479,0.037c0.205-0.035,0.411-0.074,0.608-0.133c0.368-0.105,0.689-0.307,0.982-0.548
		c0.379-0.313,0.687-0.688,0.959-1.093c0.48-0.707,0.837-1.478,1.104-2.287c0.099-0.295,0.175-0.596,0.269-0.893
		c0.123-0.382,0.228-0.768,0.265-1.17c0.03-0.326,0.084-0.65,0.122-0.976c0.057-0.478,0.087-0.958,0.098-1.438
		c0.014-0.548,0.004-1.096-0.048-1.642c-0.032-0.359-0.075-0.717-0.12-1.074c-0.021-0.177-0.061-0.352-0.089-0.528
		c-0.028-0.173-0.05-0.348-0.084-0.52c-0.104-0.499-0.25-0.987-0.415-1.469c-0.253-0.737-0.572-1.442-0.999-2.096
		c-0.276-0.423-0.589-0.819-0.967-1.157c-0.272-0.244-0.577-0.436-0.914-0.584c-0.233-0.104-0.474-0.185-0.725-0.229
		c-0.069-0.012-0.141-0.022-0.21-0.018c-0.071,0.004-0.146,0.021-0.214,0.042c-0.143,0.043-0.282,0.096-0.425,0.14
		C9.564,1.798,9.36,1.893,9.167,2.011C8.852,2.206,8.577,2.45,8.329,2.726C7.861,3.246,7.494,3.833,7.19,4.461
		C6.844,5.173,6.594,5.918,6.396,6.682C6.304,7.036,6.247,7.397,6.184,7.758C6.026,8.655,5.95,9.558,5.952,10.468z M16.021,13.258
		c0.978,0,1.944,0,2.925,0c0.572-1.854,0.578-3.702-0.025-5.555c-0.035,0-0.062,0-0.088,0c-0.931,0.001-1.861,0.003-2.793,0.005
		c-0.004,0-0.006,0.002-0.008,0.004c-0.003,0.002-0.004,0.005-0.009,0.013C16.297,9.564,16.299,11.409,16.021,13.258z M4.925,13.26
		c-0.092-0.625-0.156-1.238-0.186-1.855C4.71,10.788,4.711,10.17,4.74,9.552c0.029-0.617,0.096-1.229,0.184-1.844
		c-0.974,0-1.934,0-2.898,0c-0.349,1.039-0.493,2.104-0.445,3.193c0.035,0.805,0.173,1.592,0.423,2.357
		C2.98,13.26,3.947,13.26,4.925,13.26z M13.875,18.717c0.01,0.004,0.018,0.007,0.021,0.006c0.022-0.008,0.045-0.016,0.065-0.026
		c1.104-0.479,2.076-1.149,2.914-2.018c0.606-0.63,1.106-1.332,1.502-2.112c0.012-0.023,0.021-0.05,0.035-0.079
		c-0.887,0-1.759,0-2.631,0c-0.004,0.009-0.01,0.013-0.012,0.019c-0.007,0.023-0.014,0.051-0.02,0.076
		c-0.145,0.59-0.318,1.168-0.539,1.733c-0.33,0.849-0.752,1.646-1.313,2.366C13.893,18.693,13.885,18.706,13.875,18.717z
		 M7.052,18.726c0.004-0.004,0.009-0.009,0.014-0.015c-0.014-0.02-0.026-0.039-0.041-0.057c-0.276-0.357-0.519-0.736-0.734-1.135
		c-0.453-0.833-0.775-1.716-1.018-2.631c-0.035-0.133-0.068-0.268-0.102-0.401c-0.879,0-1.753,0-2.641,0
		c0.451,0.914,1.039,1.714,1.764,2.415C5.1,17.682,6.021,18.29,7.052,18.726z M18.417,6.48c-0.502-0.967-1.146-1.807-1.939-2.534
		c-0.768-0.705-1.631-1.261-2.598-1.658c0.013,0.028,0.027,0.052,0.045,0.074c0.218,0.284,0.414,0.581,0.596,0.89
		c0.503,0.86,0.861,1.779,1.126,2.737c0.047,0.163,0.087,0.327,0.131,0.492C16.654,6.48,17.526,6.48,18.417,6.48z M7.066,2.289
		c-1.206,0.5-2.245,1.234-3.129,2.187C3.378,5.078,2.91,5.743,2.53,6.479c0.888,0,1.763,0,2.641,0
		C5.542,4.962,6.109,3.538,7.066,2.289z"/>
</g>
<g>
	<path fill="#41C363" d="M11.096,19.282c-0.415,0.164-0.826,0.157-1.247,0.016c0-1.601,0-3.2,0-4.812
		C9.561,14.483,9.28,14.485,9,14.484c-0.284,0-0.568,0-0.853,0c-0.282,0-0.563,0-0.844,0c-0.281,0-0.563,0-0.849,0
		c-0.133-0.396-0.217-0.797-0.279-1.218c1.227,0,2.443,0,3.666,0c0-1.857,0-3.703,0-5.558c-0.243-0.01-0.484-0.003-0.727-0.004
		c-0.24-0.001-0.48,0-0.721,0c-0.243,0-0.486,0-0.729,0c-0.241,0-0.481,0-0.722,0c-0.242,0-0.485,0-0.727,0
		c-0.02-0.141,0.155-1.012,0.244-1.22c1.122,0,2.248,0,3.366,0c0.009-0.007,0.01-0.009,0.012-0.012
		c0.002-0.001,0.004-0.004,0.005-0.007c0.002-0.006,0.002-0.012,0.002-0.017c0.001-0.006,0-0.012,0.001-0.018
		c0-0.006,0-0.011,0-0.018c0-1.553,0-3.106,0-4.66c0-0.006,0.001-0.012,0.001-0.018c0-0.003,0.001-0.006,0.002-0.009
		C9.849,1.724,9.85,1.721,9.854,1.71c0.121-0.058,0.256-0.096,0.391-0.131c0.142-0.037,0.281-0.039,0.426-0.006
		c0.173,0.04,0.347,0.077,0.51,0.156c-0.022-0.002-0.048-0.005-0.075-0.009c0,1.586,0,3.168,0,4.762
		c0.125,0.003,0.249,0.001,0.374,0.001c0.126,0,0.253,0,0.378,0c0.124,0,0.247,0,0.37,0c0.127,0,0.252,0,0.378,0
		c0.125,0,0.252,0,0.377,0c0.127,0,0.254,0,0.379,0c0.124,0,0.246,0,0.369,0c0.127,0,0.252,0,0.379,0c0.125,0,0.251,0,0.383,0
		c0.127,0.395,0.205,0.796,0.252,1.216c-0.121,0.008-0.242,0.002-0.359,0.003c-0.123,0-0.246,0-0.369,0c-0.12,0-0.24,0-0.359,0
		c-0.121,0-0.242,0-0.361,0c-0.123,0-0.246,0-0.369,0c-0.12,0-0.24,0-0.36,0s-0.239,0-0.36,0c-0.119,0-0.24,0-0.359,0
		c-0.123,0-0.246,0-0.369,0c-0.12,0-0.239,0-0.355,0c-0.021,0.075-0.022,5.468-0.004,5.56c1.213,0,2.428,0,3.646,0
		c0.021,0.078-0.001,0.146-0.011,0.215c-0.027,0.258-0.156,0.759-0.256,1.003c-1.123,0-2.25,0-3.365,0
		c-0.016,0.013-0.018,0.013-0.02,0.015s-0.003,0.006-0.005,0.008c-0.001,0.006-0.002,0.012-0.003,0.018c0,0.009,0,0.018,0,0.025
		c-0.002,1.574-0.002,3.148-0.004,4.723C11.098,19.271,11.097,19.274,11.096,19.282z"/>
</g>
</svg>
