<?xml version="1.0" encoding="utf-8"?>
<!-- Generator: Adobe Illustrator 16.0.0, SVG Export Plug-In . SVG Version: 6.00 Build 0)  -->
<!DOCTYPE svg PUBLIC "-//W3C//DTD SVG 1.1//EN" "http://www.w3.org/Graphics/SVG/1.1/DTD/svg11.dtd">
<svg version="1.1" id="Layer_1" xmlns="http://www.w3.org/2000/svg" xmlns:xlink="http://www.w3.org/1999/xlink" x="0px" y="0px"
	 width="40px" height="40px" viewBox="0 0 40 40" enable-background="new 0 0 40 40" xml:space="preserve">
<g>
	<path fill="#FFFFFF" stroke="#FFFFFF" stroke-width="0.3" d="M6.489,25.689c0.142,0,0.264,0,0.384,0c1.674,0,3.348,0,5.023,0
		c0.111,0,0.224-0.004,0.334,0.014c0.377,0.059,0.622,0.346,0.619,0.713c-0.002,0.355-0.233,0.633-0.598,0.695
		c-0.12,0.021-0.244,0.021-0.367,0.021c-1.931,0.006-3.861,0.01-5.792,0.016c-0.804,0.006-0.971-0.16-1.037-0.957
		c-0.22-2.646,0.206-5.193,1.371-7.577c2.252-4.604,5.907-7.482,10.958-8.384c6.668-1.188,13.017,2.063,16.06,8.101
		c1.227,2.433,1.721,5.024,1.51,7.749c-0.008,0.121-0.008,0.244-0.018,0.367c-0.031,0.409-0.302,0.696-0.709,0.696
		c-2.109,0.002-4.22-0.004-6.328-0.016c-0.459-0.005-0.754-0.314-0.744-0.73c0.008-0.426,0.313-0.702,0.807-0.702
		c1.707-0.007,3.416-0.004,5.123-0.004c0.133,0,0.267,0,0.488,0c0.1-4.552-1.502-8.323-4.998-11.217
		c-4.277-3.54-10.384-4.048-15.151-1.37C8.257,16.008,6.126,21.416,6.489,25.689z"/>
	<path fill="#FFFFFF" stroke="#FFFFFF" stroke-width="0.3" d="M20.578,30.012c-1.586-0.035-2.885-0.885-3.492-2.346
		c-0.688-1.652-1.09-3.391-1.428-5.141c-0.236-1.227-0.424-2.462-0.617-3.694c-0.029-0.189-0.012-0.407,0.051-0.588
		c0.111-0.319,0.502-0.482,0.834-0.375c0.146,0.049,0.291,0.121,0.414,0.211c2.14,1.576,4.232,3.208,6.112,5.095
		c0.324,0.322,0.625,0.67,0.93,1.012c1.734,1.939,0.8,4.908-1.756,5.639C21.285,29.92,20.927,29.951,20.578,30.012z M16.737,20.263
		c0.151,0.798,0.29,1.595,0.456,2.388c0.318,1.527,0.662,3.051,1.281,4.488c0.157,0.363,0.421,0.725,0.728,0.969
		c0.9,0.729,2.246,0.58,3.035-0.26c0.588-0.627,0.859-1.822-0.059-2.846C20.57,23.207,18.707,21.707,16.737,20.263z"/>
</g>
</svg>
