<?xml version="1.0" encoding="utf-8"?>
<!-- Generator: Adobe Illustrator 16.0.0, SVG Export Plug-In . SVG Version: 6.00 Build 0)  -->
<!DOCTYPE svg PUBLIC "-//W3C//DTD SVG 1.1//EN" "http://www.w3.org/Graphics/SVG/1.1/DTD/svg11.dtd">
<svg version="1.1" id="Layer_1" xmlns="http://www.w3.org/2000/svg" xmlns:xlink="http://www.w3.org/1999/xlink" x="0px" y="0px"
	 width="40px" height="40px" viewBox="0 0 40 40" enable-background="new 0 0 40 40" xml:space="preserve">
<g>
	<path fill="#FFFFFF" d="M35.039,16.182c0,0.856-0.141,1.7-0.412,2.511c-1.275,5.781-12.326,12.774-12.795,13.072
		c-0.146,0.091-0.313,0.139-0.48,0.139s-0.334-0.042-0.48-0.139c-0.129-0.084-3.24-2.048-6.395-4.748
		c-0.379-0.325-0.418-0.888-0.102-1.263c0.324-0.374,0.885-0.42,1.266-0.101c2.352,2.01,4.729,3.634,5.715,4.288
		C24.674,27.778,32,22.274,32.896,18.215c0.236-0.717,0.342-1.369,0.342-2.031c0-2.304-1.256-4.429-3.275-5.542
		c-2.58-1.432-6.033-0.771-7.922,1.503c-0.338,0.411-1.035,0.411-1.383,0c-1.893-2.277-5.344-2.932-7.92-1.506
		c-2.025,1.115-3.281,3.238-3.281,5.54c0,0.659,0.111,1.313,0.32,1.945c0.133,0.592,0.387,1.17,0.711,1.771h5.234l1.797-4.13
		c0.154-0.354,0.521-0.576,0.9-0.537c0.385,0.035,0.705,0.312,0.791,0.688l1.322,5.593l1.711-2.807
		c0.162-0.267,0.455-0.429,0.768-0.429h3.248c0.494,0,0.895,0.399,0.895,0.897c0,0.494-0.4,0.896-0.895,0.896h-2.746l-2.578,4.236
		c-0.164,0.271-0.453,0.431-0.762,0.431c-0.051,0-0.096-0.003-0.141-0.011c-0.361-0.057-0.646-0.323-0.732-0.678l-1.209-5.094
		l-0.955,2.199c-0.143,0.331-0.467,0.539-0.822,0.539H5.855c-0.49,0-0.895-0.401-0.895-0.896c0-0.495,0.404-0.897,0.895-0.897h2.631
		c-0.188-0.446-0.338-0.877-0.432-1.295c-0.25-0.725-0.385-1.569-0.385-2.421c0-2.956,1.607-5.68,4.207-7.111
		c3.01-1.665,6.992-1.142,9.479,1.196c2.48-2.337,6.461-2.861,9.475-1.196C33.426,10.498,35.039,13.224,35.039,16.182z"/>
</g>
</svg>
