<?xml version="1.0" encoding="utf-8"?>
<!-- Generator: Adobe Illustrator 16.0.0, SVG Export Plug-In . SVG Version: 6.00 Build 0)  -->
<!DOCTYPE svg PUBLIC "-//W3C//DTD SVG 1.1//EN" "http://www.w3.org/Graphics/SVG/1.1/DTD/svg11.dtd">
<svg version="1.1" id="Layer_1" xmlns="http://www.w3.org/2000/svg" xmlns:xlink="http://www.w3.org/1999/xlink" x="0px" y="0px"
	 width="40px" height="40px" viewBox="0 0 40 40" enable-background="new 0 0 40 40" xml:space="preserve">
<path fill="none" stroke="#FFFFFF" stroke-width="1.5" stroke-miterlimit="10" d="M30.96,17.954
	c0.005-0.156-0.021-0.453-0.021-0.453c-0.379-5.72-5.125-10.245-10.94-10.245c-6.062,0-10.976,4.915-10.976,10.977
	c0,6.063,4.914,10.977,10.976,10.977v3.535c0,0,8.521-2.896,10.546-11.488c0.273-0.962,0.432-1.973,0.432-3.023
	C30.977,18.139,30.963,18.048,30.96,17.954z"/>
<g>
	<polygon id="XMLID_4_" fill="#FFFFFF" points="19.094,13.564 17.167,13.564 14.25,22.542 16.178,22.542 	"/>
	<polygon id="XMLID_1_" fill="#FFFFFF" points="20.934,13.564 22.83,13.564 25.747,22.542 23.85,22.542 	"/>
</g>
</svg>
