<?xml version="1.0" encoding="utf-8"?>
<!-- Generator: Adobe Illustrator 16.0.0, SVG Export Plug-In . SVG Version: 6.00 Build 0)  -->
<!DOCTYPE svg PUBLIC "-//W3C//DTD SVG 1.1//EN" "http://www.w3.org/Graphics/SVG/1.1/DTD/svg11.dtd">
<svg version="1.1" id="Layer_1" xmlns="http://www.w3.org/2000/svg" xmlns:xlink="http://www.w3.org/1999/xlink" x="0px" y="0px"
	 width="40px" height="40px" viewBox="0 0 40 40" enable-background="new 0 0 40 40" xml:space="preserve">
<g>
	<path fill="#FFFFFF" d="M19.122,33.155V35h1.756v-1.845c6.581-0.433,11.847-5.688,12.276-12.277H35v-1.756h-1.846
		c-0.432-6.579-5.688-11.846-12.276-12.277V5h-1.756v1.845C12.543,7.276,7.275,12.533,6.846,19.122H5v1.756h1.846
		C7.275,27.458,12.533,32.723,19.122,33.155z M19.122,8.606v1.727h1.756V8.606c5.603,0.429,10.088,4.914,10.515,10.516h-1.724v1.756
		h1.724c-0.427,5.603-4.912,10.087-10.515,10.515v-1.725h-1.756v1.725C13.52,30.965,9.036,26.48,8.607,20.878h1.726v-1.756H8.607
		C9.036,13.521,13.521,9.035,19.122,8.606z"/>
	<path fill="#FFFFFF" d="M23.143,16.858c0-1.732-1.41-3.141-3.143-3.141s-3.143,1.407-3.143,3.141C16.857,18.591,18.27,20,20,20
		S23.143,18.591,23.143,16.858z M20,18.429c-0.866,0-1.57-0.705-1.57-1.57s0.704-1.569,1.57-1.569s1.57,0.704,1.57,1.569
		S20.866,18.429,20,18.429z"/>
	<path fill="#FFFFFF" d="M24.713,24.712C24.713,22.114,22.598,20,20,20s-4.711,2.114-4.711,4.712v1.57h9.424V24.712z M16.857,24.712
		c0-1.731,1.41-3.142,3.143-3.142s3.143,1.41,3.143,3.142H16.857z"/>
</g>
</svg>
