<?xml version="1.0" encoding="utf-8"?>
<!-- Generator: Adobe Illustrator 16.0.0, SVG Export Plug-In . SVG Version: 6.00 Build 0)  -->
<!DOCTYPE svg PUBLIC "-//W3C//DTD SVG 1.1//EN" "http://www.w3.org/Graphics/SVG/1.1/DTD/svg11.dtd">
<svg version="1.1" id="Layer_1" xmlns="http://www.w3.org/2000/svg" xmlns:xlink="http://www.w3.org/1999/xlink" x="0px" y="0px"
	 width="40px" height="40px" viewBox="0 0 40 40" enable-background="new 0 0 40 40" xml:space="preserve">
<g>
	<path fill="#FFFFFF" d="M34.063,22.896c0,2.852,0,5.701-0.002,8.555c0,0.719-0.168,0.889-0.877,0.891
		c-1.188,0.002-2.381,0.004-3.567,0c-0.646-0.004-0.849-0.203-0.849-0.844c-0.002-5.748-0.002-11.495,0-17.241
		c0-0.613,0.218-0.826,0.82-0.828c1.221-0.002,2.439-0.002,3.659,0c0.614,0.002,0.813,0.202,0.813,0.825
		C34.063,17.135,34.061,20.015,34.063,22.896z M32.816,31.11c0-5.492,0-10.963,0-16.438c-0.959,0-1.875,0-2.809,0
		c0,5.489,0,10.952,0,16.438C30.953,31.11,31.872,31.11,32.816,31.11z"/>
	<path fill="#FFFFFF" d="M13.561,24.204c0-2.414-0.002-4.825,0-7.237c0-0.701,0.188-0.89,0.888-0.892
		c1.177-0.003,2.354-0.003,3.526,0.001c0.668,0.002,0.879,0.207,0.879,0.867c0.005,4.839,0.005,9.677,0,14.515
		c0,0.691-0.193,0.881-0.896,0.883c-1.178,0.002-2.354,0.004-3.53,0c-0.689-0.002-0.859-0.172-0.859-0.857
		C13.559,29.058,13.561,26.63,13.561,24.204z M14.787,31.108c0.974,0,1.891,0,2.824,0c0-4.609,0-9.189,0-13.781
		c-0.954,0-1.888,0-2.824,0C14.787,21.929,14.787,26.499,14.787,31.108z"/>
	<path fill="#FFFFFF" d="M8.334,18.844c-0.309-0.271-0.592-0.521-0.906-0.799c0.613-0.703,1.207-1.389,1.808-2.072
		c2.039-2.334,4.079-4.668,6.118-7c0.445-0.511,0.683-0.526,1.22-0.08c2.326,1.938,4.647,3.875,6.977,5.813
		c0.066,0.058,0.144,0.106,0.326,0.269c2.336-2.437,4.674-4.871,7.021-7.318c0.396,0.398,0.66,0.67,0.942,0.955
		c-0.676,0.678-1.343,1.354-2.019,2.025c-1.787,1.768-3.576,3.53-5.362,5.297c-0.521,0.51-0.708,0.521-1.271,0.057
		c-2.18-1.814-4.354-3.633-6.532-5.447c-0.191-0.16-0.386-0.316-0.614-0.507C13.471,12.971,10.913,15.895,8.334,18.844z"/>
	<path fill="#FFFFFF" d="M26.457,26.177c0,1.764,0.001,3.525,0,5.287c-0.001,0.686-0.184,0.875-0.854,0.877
		c-1.2,0.004-2.405,0.004-3.609,0c-0.643-0.004-0.827-0.199-0.827-0.854c-0.002-3.539-0.002-7.078,0-10.62
		c0-0.652,0.188-0.849,0.827-0.851c1.219-0.004,2.438-0.004,3.657,0c0.612,0.004,0.808,0.203,0.809,0.828
		C26.459,22.624,26.457,24.401,26.457,26.177z M22.412,21.247c0,3.303,0,6.572,0,9.863c0.943,0,1.859,0,2.796,0
		c0-3.301,0-6.57,0-9.863C24.273,21.247,23.367,21.247,22.412,21.247z"/>
	<path fill="#FFFFFF" d="M5.941,28.284c0-1.104-0.009-2.203,0.002-3.307c0.002-0.648,0.172-0.813,0.808-0.813
		c1.233-0.002,2.47-0.002,3.702,0c0.587,0.002,0.777,0.172,0.779,0.752c0.008,2.222,0.008,4.438,0,6.656
		c-0.002,0.569-0.207,0.762-0.787,0.766c-1.232,0.009-2.467,0.007-3.701,0c-0.604-0.004-0.797-0.192-0.801-0.793
		C5.936,30.458,5.941,29.37,5.941,28.284z M9.99,31.114c0-1.951,0-3.85,0-5.744c-0.959,0-1.877,0-2.813,0c0,1.928,0,3.826,0,5.744
		C8.129,31.114,9.048,31.114,9.99,31.114z"/>
	<g>
		<path fill="#FFFFFF" d="M17.631,24.229c0-2.313,0-4.589,0-6.917c-0.49,0-0.967,0-1.47,0c0-0.424,0-0.799,0-1.207
			c0.726,0,1.454-0.025,2.181,0.011c0.368,0.021,0.508,0.329,0.508,0.667c0.009,2.47,0.004,4.938,0.004,7.444
			C18.448,24.229,18.064,24.229,17.631,24.229z"/>
		<path fill="#FFFFFF" d="M23.783,32.319c-0.706,0-1.41,0.037-2.104-0.023c-0.182-0.016-0.476-0.322-0.483-0.508
			c-0.054-0.932-0.022-1.869-0.022-2.822c0.411,0,0.783,0,1.201,0c0,0.713,0,1.41,0,2.154c0.489,0,0.938,0,1.412,0
			C23.783,31.542,23.783,31.915,23.783,32.319z"/>
	</g>
</g>
</svg>
