<?xml version="1.0" encoding="utf-8"?>
<!-- Generator: Adobe Illustrator 16.0.0, SVG Export Plug-In . SVG Version: 6.00 Build 0)  -->
<!DOCTYPE svg PUBLIC "-//W3C//DTD SVG 1.1//EN" "http://www.w3.org/Graphics/SVG/1.1/DTD/svg11.dtd">
<svg version="1.1" id="Layer_1" xmlns="http://www.w3.org/2000/svg" xmlns:xlink="http://www.w3.org/1999/xlink" x="0px" y="0px"
	 width="40px" height="40px" viewBox="0 0 40 40" enable-background="new 0 0 40 40" xml:space="preserve">
<g>
	<path fill="#FFFFFF" d="M34.229,12.764l-5.888-7.471C28.191,5.108,27.977,5,27.736,5H12.273c-0.238,0-0.457,0.108-0.604,0.294
		l-5.888,7.471c-0.109,0.135-0.168,0.301-0.168,0.476V34.23c0,0.424,0.349,0.77,0.771,0.77h27.231c0.425,0,0.771-0.346,0.771-0.77
		V13.24C34.396,13.065,34.337,12.897,34.229,12.764z M32.135,12.596H20.775V6.539h6.588L32.135,12.596z M12.646,6.539h6.588v6.058
		H7.878L12.646,6.539z M7.154,33.457V14.135h25.693v19.322H7.154L7.154,33.457z"/>
</g>
</svg>
