<?xml version="1.0" encoding="utf-8"?>
<!-- Generator: Adobe Illustrator 16.0.0, SVG Export Plug-In . SVG Version: 6.00 Build 0)  -->
<!DOCTYPE svg PUBLIC "-//W3C//DTD SVG 1.1//EN" "http://www.w3.org/Graphics/SVG/1.1/DTD/svg11.dtd">
<svg version="1.1" id="Layer_1" xmlns="http://www.w3.org/2000/svg" xmlns:xlink="http://www.w3.org/1999/xlink" x="0px" y="0px"
	 width="40px" height="40px" viewBox="0 0 40 40" enable-background="new 0 0 40 40" xml:space="preserve">
<g>
	<path fill="#FFFFFF" d="M8.507,15.601c-0.157-0.32-0.266-0.621-0.44-0.875c-0.276-0.396-0.312-0.746-0.034-1.021
		c0.278-0.278,0.632-0.262,1.017,0.044c0.583,0.466,1.317,0.446,1.812-0.046c0.496-0.495,0.518-1.229,0.054-1.811
		c-0.307-0.386-0.324-0.74-0.052-1.018c0.275-0.28,0.64-0.268,1.018,0.035c0.586,0.468,1.316,0.451,1.813-0.037
		c0.506-0.501,0.521-1.232,0.039-1.837c-0.288-0.363-0.303-0.716-0.038-0.991c0.271-0.283,0.643-0.273,1.017,0.023
		c0.592,0.472,1.315,0.461,1.813-0.026c0.501-0.492,0.529-1.231,0.07-1.812c-0.32-0.404-0.337-0.766-0.047-1.041
		c0.309-0.291,0.707-0.242,1.091,0.141c4.633,4.633,9.267,9.267,13.899,13.898c1.065,1.066,2.137,2.13,3.198,3.202
		c0.438,0.44,0.319,1.043-0.229,1.209c-0.301,0.094-0.522-0.055-0.748-0.236c-0.567-0.463-1.313-0.42-1.807,0.086
		c-0.48,0.5-0.488,1.22-0.013,1.814c0.37,0.46,0.252,0.998-0.255,1.166c-0.302,0.098-0.525-0.039-0.751-0.225
		c-0.546-0.448-1.273-0.434-1.759,0.021c-0.524,0.494-0.573,1.255-0.099,1.833c0.178,0.215,0.313,0.432,0.239,0.717
		c-0.132,0.502-0.68,0.644-1.133,0.347c-0.277-0.183-0.604-0.351-0.925-0.39c-0.521-0.063-0.934,0.207-1.182,0.674
		c-0.252,0.479-0.217,0.951,0.093,1.396c0.054,0.075,0.12,0.143,0.175,0.217c0.222,0.301,0.205,0.658-0.043,0.907
		c-0.247,0.249-0.618,0.283-0.907,0.044c-0.292-0.24-0.597-0.428-0.988-0.423c-0.532,0.007-0.936,0.242-1.174,0.71
		c-0.243,0.48-0.201,0.956,0.119,1.396c0.06,0.082,0.134,0.156,0.191,0.244c0.188,0.278,0.159,0.617-0.065,0.854
		c-0.233,0.241-0.597,0.276-0.879,0.078c-0.096-0.063-0.178-0.147-0.258-0.229c-5.651-5.65-11.303-11.303-16.953-16.954
		c-0.05-0.049-0.101-0.096-0.147-0.147c-0.296-0.321-0.319-0.704-0.062-0.989c0.26-0.283,0.64-0.29,0.987-0.015
		c0.665,0.522,1.42,0.517,1.903-0.066C8.263,16.241,8.352,15.921,8.507,15.601z M32.076,21.824
		c-4.634-4.632-9.269-9.269-13.903-13.901c-0.457,1.215-1.373,1.854-2.721,1.878c0.01,0.808-0.24,1.49-0.802,2.047
		c-0.557,0.556-1.25,0.78-2.032,0.782c0.007,0.818-0.243,1.499-0.804,2.055c-0.561,0.557-1.253,0.776-2.023,0.783
		c-0.023,1.366-0.682,2.255-1.859,2.708c4.632,4.633,9.267,9.268,13.896,13.896c0.457-1.209,1.373-1.844,2.718-1.866
		c-0.01-0.813,0.241-1.493,0.803-2.05c0.561-0.557,1.251-0.777,2.032-0.78c-0.013-0.817,0.243-1.498,0.803-2.056
		c0.561-0.557,1.252-0.775,2.025-0.78C30.228,23.171,30.889,22.288,32.076,21.824z"/>
	<path fill="#FFFFFF" stroke="#FFFFFF" stroke-width="0.3" d="M26.595,21.475c0.013,0.278-0.116,0.504-0.318,0.704
		c-1.361,1.355-2.717,2.716-4.076,4.074c-0.434,0.435-0.977,0.471-1.464,0.097c-0.086-0.064-0.166-0.146-0.244-0.224
		c-2.218-2.218-4.435-4.435-6.654-6.652c-0.27-0.269-0.479-0.572-0.425-0.964c0.031-0.212,0.112-0.461,0.256-0.608
		c1.395-1.42,2.806-2.821,4.214-4.226c0.317-0.317,0.808-0.364,1.222-0.122c0.13,0.077,0.25,0.176,0.356,0.284
		c2.236,2.233,4.474,4.472,6.709,6.705C26.425,20.797,26.606,21.083,26.595,21.475z M21.41,25.538
		c1.369-1.369,2.755-2.753,4.121-4.119c-1.025-1.022-2.066-2.064-3.121-3.116c0.03-0.012,0.021-0.01,0.015-0.005
		c-0.139,0.137-0.276,0.273-0.42,0.409c-0.24,0.231-0.54,0.247-0.747,0.045c-0.214-0.208-0.198-0.519,0.045-0.765
		c0.144-0.146,0.295-0.279,0.393-0.373c-1.066-1.069-2.107-2.111-3.113-3.121c-1.359,1.359-2.744,2.746-4.116,4.119
		c1.016,1.013,2.054,2.05,3.123,3.12c0.112-0.121,0.239-0.271,0.377-0.404c0.263-0.266,0.567-0.285,0.782-0.066
		c0.214,0.221,0.188,0.521-0.081,0.782c-0.138,0.136-0.296,0.25-0.402,0.34C19.355,23.477,20.393,24.518,21.41,25.538z"/>
	<path fill="#FFFFFF" stroke="#FFFFFF" stroke-width="0.3" d="M19.229,21.4c-0.164-0.136-0.408-0.241-0.476-0.416
		c-0.074-0.19-0.071-0.522,0.05-0.662c0.464-0.535,0.979-1.029,1.493-1.518c0.231-0.218,0.612-0.178,0.839,0.037
		c0.234,0.228,0.285,0.616,0.058,0.859c-0.479,0.511-0.979,1.002-1.484,1.484C19.609,21.284,19.441,21.313,19.229,21.4z"/>
</g>
</svg>
