<?xml version="1.0" encoding="utf-8"?>
<!-- Generator: Adobe Illustrator 16.0.0, SVG Export Plug-In . SVG Version: 6.00 Build 0)  -->
<!DOCTYPE svg PUBLIC "-//W3C//DTD SVG 1.1//EN" "http://www.w3.org/Graphics/SVG/1.1/DTD/svg11.dtd">
<svg version="1.1" id="Layer_1" xmlns="http://www.w3.org/2000/svg" xmlns:xlink="http://www.w3.org/1999/xlink" x="0px" y="0px"
	 width="40px" height="40px" viewBox="0 0 40 40" enable-background="new 0 0 40 40" xml:space="preserve">
<g>
	<path fill="#FFFFFF" d="M32.33,16.482h-0.002C31.876,10.076,26.521,5,19.999,5S8.121,10.077,7.669,16.482H7.668
		c-1.472,0-2.669,1.197-2.669,2.67v4.627c0,1.473,1.197,2.67,2.669,2.67h5.243v-9.088c0-3.908,3.181-7.088,7.088-7.088
		c3.908,0,7.088,3.18,7.088,7.088v9.088h1.841v0.938c0,2.258-1.837,4.096-4.095,4.096h-0.881c-0.363-1.023-1.341-1.76-2.487-1.76
		h-2.932c-1.455,0-2.641,1.184-2.641,2.639c0,1.453,1.186,2.639,2.641,2.639h2.932c1.146,0,2.124-0.736,2.487-1.76h0.881
		c3.229,0,5.854-2.625,5.854-5.854v-0.938h1.645c1.472,0,2.669-1.197,2.669-2.67v-4.627C34.999,17.679,33.802,16.482,32.33,16.482z
		 M21.465,33.242h-2.932c-0.485,0-0.881-0.396-0.881-0.881s0.396-0.881,0.881-0.881h2.932c0.486,0,0.881,0.396,0.881,0.881
		C22.346,32.848,21.951,33.242,21.465,33.242z M11.153,24.691H7.668c-0.502,0-0.911-0.408-0.911-0.912v-4.627
		c0-0.504,0.409-0.912,0.911-0.912h3.485V24.691z M19.999,8.515c-4.581,0-8.359,3.5-8.803,7.967H9.431
		c0.448-5.437,5.018-9.724,10.566-9.724s10.118,4.287,10.566,9.724h-1.765C28.358,12.017,24.58,8.515,19.999,8.515z M33.241,23.781
		c0,0.502-0.409,0.91-0.911,0.91h-3.485v-6.451h3.485c0.502,0,0.911,0.409,0.911,0.911V23.781z"/>
</g>
</svg>
