<?xml version="1.0" encoding="utf-8"?>
<!-- Generator: Adobe Illustrator 16.0.0, SVG Export Plug-In . SVG Version: 6.00 Build 0)  -->
<!DOCTYPE svg PUBLIC "-//W3C//DTD SVG 1.1//EN" "http://www.w3.org/Graphics/SVG/1.1/DTD/svg11.dtd">
<svg version="1.1" id="Layer_1" xmlns="http://www.w3.org/2000/svg" xmlns:xlink="http://www.w3.org/1999/xlink" x="0px" y="0px"
	 width="40px" height="40px" viewBox="0 0 40 40" enable-background="new 0 0 40 40" xml:space="preserve">
<g>
	<g>
		<path fill="#FFFFFF" d="M32.137,15.97c1.07,1.071,2.154,2.154,3.24,3.24c0.821,0.823,0.73,1.188-0.387,1.549
			c-0.833,0.271-1.656,0.571-2.504,0.785c-0.529,0.133-0.702,0.358-0.693,0.916c0.028,2.89-0.004,5.776,0.024,8.666
			c0.007,0.646-0.19,0.991-0.817,1.196c-3.531,1.152-7.052,2.343-10.582,3.496c-0.267,0.088-0.617,0.074-0.88-0.021
			c-3.13-1.151-6.248-2.342-9.378-3.493c-0.552-0.205-0.751-0.521-0.747-1.107c0.024-2.844-0.002-5.687,0.021-8.527
			c0.007-0.488-0.139-0.711-0.607-0.845c-0.886-0.253-1.755-0.566-2.625-0.873c-0.666-0.235-0.793-0.579-0.433-1.197
			c0.646-1.103,1.299-2.204,1.979-3.287c0.219-0.35,0.186-0.562-0.109-0.845c-1.037-1.004-2.051-2.034-3.069-3.059
			C3.811,11.796,3.903,11.4,4.926,11.08c3.092-0.968,6.188-1.938,9.287-2.882c0.444-0.136,0.699-0.364,0.922-0.771
			c1.233-2.229,3.162-3.396,5.696-3.299c2.589,0.102,4.464,1.42,5.515,3.813c0.17,0.39,0.387,0.58,0.783,0.701
			c2.605,0.785,5.205,1.598,7.803,2.4c1.209,0.373,1.297,0.73,0.397,1.633c-1.038,1.039-2.073,2.079-3.106,3.121
			C32.191,15.826,32.18,15.878,32.137,15.97z M30.555,22.165c-2.27,0.712-4.416,1.358-6.543,2.071
			c-0.668,0.224-1.098,0.13-1.514-0.453c-0.535-0.753-1.154-1.446-1.841-2.293c0,4.415,0,8.632,0,12.863
			c0.12,0,0.191,0.019,0.254-0.004c3.075-1.021,6.151-2.039,9.22-3.088c0.188-0.063,0.396-0.39,0.404-0.601
			c0.044-0.945,0.02-1.894,0.02-2.841C30.555,25.979,30.555,24.139,30.555,22.165z M19.342,34.411c0-4.153,0-8.188,0-12.438
			c-0.506,0.826-0.92,1.473-1.297,2.139c-0.271,0.478-0.638,0.588-1.132,0.412c-0.759-0.262-1.521-0.521-2.282-0.771
			c-1.291-0.427-2.586-0.845-3.978-1.299c0,0.347,0,0.578,0,0.812c0,1.916-0.007,3.834,0.003,5.752
			c0.005,0.703-0.188,1.563,0.145,2.064c0.312,0.473,1.191,0.57,1.828,0.813C14.838,32.729,17.047,33.552,19.342,34.411z
			 M25.57,10.374c0.052-2.713-2.111-4.959-4.827-5.013c-2.794-0.054-5.015,2.079-5.104,4.903c-0.08,2.635,2.162,4.961,4.851,5.029
			C23.252,15.366,25.518,13.17,25.57,10.374z M34.143,19.724c-0.961-0.953-1.842-1.8-2.688-2.68
			c-0.302-0.314-0.563-0.385-0.983-0.238c-2.082,0.717-4.178,1.396-6.268,2.09c-1.021,0.341-2.04,0.69-3.146,1.064
			c0.748,0.938,1.455,1.793,2.119,2.679c0.263,0.344,0.494,0.392,0.898,0.258c1.934-0.633,3.877-1.23,5.815-1.842
			C31.262,20.624,32.635,20.193,34.143,19.724z M7.111,19.942c3.401,1.132,6.688,2.224,9.985,3.32
			c0.664-1.107,1.291-2.154,1.897-3.168c-0.053-0.088-0.063-0.119-0.077-0.125c-3.158-1.063-6.316-2.13-9.48-3.174
			c-0.145-0.047-0.438,0.049-0.516,0.172C8.314,17.92,7.741,18.896,7.111,19.942z M28.969,16.002c0.012-0.05,0.021-0.1,0.035-0.149
			c-1.092-0.367-2.188-0.717-3.268-1.109c-0.405-0.148-0.666-0.088-0.997,0.207c-2.27,2.02-5.67,2.191-7.924,0.215
			c-0.907-0.795-1.604-0.845-2.602-0.422c-1.055,0.445-2.164,0.756-3.418,1.184c3.086,1.025,5.979,1.991,8.877,2.938
			c0.203,0.067,0.467,0.059,0.676-0.009C23.225,17.915,26.094,16.957,28.969,16.002z M5.832,12.108
			c1.028,1.012,1.977,1.963,2.957,2.881c0.12,0.113,0.434,0.102,0.624,0.043c0.995-0.305,1.979-0.643,2.964-0.971
			c0.889-0.295,1.773-0.595,2.51-0.84c-0.486-1.25-0.685-1.797-0.606-3.746C11.551,10.326,8.758,11.196,5.832,12.108z M26.149,13.57
			c1.457,0.485,3.021,1.011,4.589,1.522c0.114,0.038,0.313,0.045,0.383-0.025c0.993-0.955,1.971-1.928,3.021-2.967
			c-2.512-0.772-4.879-1.5-7.139-2.196C27.088,11.733,26.786,12.453,26.149,13.57z"/>
		<path fill="#FFFFFF" d="M17.578,30.923c-0.095,0.304-0.113,0.522-0.345,0.457c-1.288-0.366-2.563-0.802-3.813-1.285
			c-0.195-0.075-0.207-0.511-0.084-0.797c0.135-0.228,0.308-0.364,0.531-0.303c1.219,0.354,2.419,0.774,3.613,1.213
			C17.715,30.29,17.665,30.549,17.578,30.923z"/>
		<path fill="#FFFFFF" d="M17.578,28.363c-0.095,0.304-0.113,0.521-0.345,0.457c-1.288-0.368-2.563-0.805-3.813-1.285
			c-0.195-0.076-0.207-0.512-0.084-0.797c0.135-0.229,0.308-0.367,0.531-0.303c1.219,0.354,2.419,0.774,3.613,1.209
			C17.715,27.73,17.665,27.988,17.578,28.363z"/>
	</g>
	<path fill="#FFFFFF" d="M23.272,8.133l-3.697,3.698l-1.535-1.535c-0.216-0.217-0.565-0.217-0.782,0
		c-0.215,0.217-0.215,0.564,0,0.779l1.928,1.927c0.105,0.106,0.248,0.163,0.393,0.163c0.142,0,0.279-0.057,0.39-0.163l4.086-4.083
		c0.215-0.216,0.215-0.566,0-0.781C23.838,7.917,23.487,7.917,23.272,8.133z"/>
</g>
</svg>
