<?xml version="1.0" encoding="utf-8"?>
<!-- Generator: Adobe Illustrator 16.0.0, SVG Export Plug-In . SVG Version: 6.00 Build 0)  -->
<!DOCTYPE svg PUBLIC "-//W3C//DTD SVG 1.1//EN" "http://www.w3.org/Graphics/SVG/1.1/DTD/svg11.dtd">
<svg version="1.1" id="Layer_1" xmlns="http://www.w3.org/2000/svg" xmlns:xlink="http://www.w3.org/1999/xlink" x="0px" y="0px"
	 width="30px" height="30px" viewBox="0 0 30 30" enable-background="new 0 0 30 30" xml:space="preserve">
<g id="network">
	<path fill="#FFFFFF" d="M25.497,22.02c-0.71,0.002-1.399,0.219-1.983,0.629l-2.121-2.18c2.649-3.127,2.649-7.717,0-10.847
		l2.168-2.154c1.602,1.073,3.776,0.645,4.848-0.962c1.072-1.604,0.644-3.774-0.96-4.845C25.842,0.586,23.67,1.016,22.6,2.622
		c-0.385,0.568-0.588,1.24-0.593,1.928c0.009,0.689,0.208,1.365,0.591,1.941L20.43,8.63c-3.125-2.638-7.695-2.638-10.82,0
		L7.43,6.502c1.098-1.605,0.682-3.801-0.924-4.896C4.9,0.508,2.708,0.922,1.611,2.526C0.518,4.135,0.93,6.325,2.535,7.422
		c1.167,0.799,2.699,0.818,3.89,0.055L8.619,9.62c-2.651,3.131-2.651,7.722,0,10.847L6.536,22.66
		c-0.58-0.418-1.28-0.643-1.999-0.643c-1.93,0-3.494,1.564-3.494,3.492c0,1.932,1.564,3.496,3.494,3.496
		c1.929,0,3.495-1.564,3.495-3.496c0-0.646-0.183-1.281-0.529-1.828l2.14-2.238c0.283,0.238,0.58,0.457,0.895,0.656l0,0
		c2.721,1.73,6.197,1.73,8.92,0l0,0c0.311-0.199,0.607-0.418,0.896-0.656l2.146,2.221c-0.33,0.563-0.499,1.197-0.491,1.85
		c0,1.93,1.566,3.494,3.497,3.494c1.93,0,3.494-1.564,3.494-3.494C28.995,23.582,27.427,22.02,25.497,22.02z M25.497,2.45
		c1.159-0.031,2.121,0.882,2.151,2.041c0.031,1.156-0.881,2.119-2.037,2.15c-0.563,0.018-1.106-0.193-1.512-0.584l0,0l0,0
		c-0.373-0.371-0.599-0.869-0.613-1.398c-0.061-1.154,0.828-2.145,1.979-2.204C25.479,2.45,25.486,2.45,25.497,2.45z M2.434,4.549
		c0-1.16,0.938-2.102,2.101-2.102c1.157,0,2.099,0.939,2.099,2.102c0.002,0.563-0.221,1.102-0.631,1.492l0,0
		c-0.393,0.385-0.92,0.602-1.468,0.604C3.372,6.643,2.434,5.706,2.434,4.549z M15.016,8.042c3.859,0.018,6.978,3.156,6.963,7.02
		c-0.012,1.882-0.771,3.679-2.127,4.994c-0.121-1.094-0.612-2.111-1.397-2.887c-0.356-0.355-0.767-0.648-1.212-0.887
		c0.8-0.645,1.263-1.623,1.259-2.651c0.011-1.929-1.551-3.502-3.479-3.509c-1.93-0.01-3.502,1.55-3.51,3.479
		c-0.008,1.043,0.451,2.037,1.26,2.705c-1.435,0.742-2.408,2.15-2.588,3.76c-2.778-2.686-2.859-7.104-0.181-9.882
		C11.311,8.817,13.121,8.045,15.016,8.042z M12.917,13.633c0-1.156,0.938-2.1,2.101-2.1c1.159,0,2.098,0.939,2.098,2.1
		c0,1.158-0.938,2.097-2.098,2.097C13.857,15.729,12.917,14.792,12.917,13.633z M4.53,27.611c-1.158,0-2.099-0.938-2.099-2.098
		c0-1.158,0.937-2.1,2.099-2.1c0.569-0.004,1.12,0.232,1.51,0.652l0,0l0,0c0.353,0.377,0.543,0.885,0.532,1.396
		C6.594,26.625,5.684,27.582,4.53,27.611z M11.521,21.043v-0.42c0-1.93,1.563-3.496,3.494-3.496c1.93,0,3.492,1.566,3.492,3.496
		v0.42C16.361,22.348,13.666,22.348,11.521,21.043z M25.497,27.611c-1.146,0.014-2.092-0.914-2.103-2.061
		c-0.008-0.529,0.187-1.031,0.537-1.422l0,0v-0.07c0.406-0.426,0.976-0.66,1.563-0.645c1.159,0,2.099,0.938,2.099,2.098
		C27.598,26.674,26.656,27.611,25.497,27.611z"/>
</g>
</svg>
