<?xml version="1.0" encoding="utf-8"?>
<!-- Generator: Adobe Illustrator 16.0.0, SVG Export Plug-In . SVG Version: 6.00 Build 0)  -->
<!DOCTYPE svg PUBLIC "-//W3C//DTD SVG 1.1//EN" "http://www.w3.org/Graphics/SVG/1.1/DTD/svg11.dtd">
<svg version="1.1" id="Layer_1" xmlns="http://www.w3.org/2000/svg" xmlns:xlink="http://www.w3.org/1999/xlink" x="0px" y="0px"
	 width="30px" height="30px" viewBox="0 0 30 30" enable-background="new 0 0 30 30" xml:space="preserve">
<g>
	<path fill="#FFFFFF" d="M21.006,3.595v-0.9h-3.418c-0.404-1.327-1.24-2.03-2.484-2.091l-0.132-0.003
		c-0.515,0-0.995,0.149-1.427,0.443c-0.577,0.393-0.952,0.951-1.12,1.664H9.004v0.906H3.86v25.785h22.281V3.595H21.006z
		 M21.004,8.079V5.105h3.652v22.819H5.361V5.101h3.642v2.979H21.004z M13.89,3.733c-0.091-0.69,0.021-1.092,0.392-1.388
		c0.221-0.178,0.472-0.249,0.77-0.266c0.398,0.027,0.701,0.196,0.925,0.518c0.188,0.268,0.23,0.589,0.152,1.108l-0.07,0.461h3.447
		v2.416h-8.992V4.187h3.436L13.89,3.733z"/>
	<polygon fill="#FFFFFF" points="7.901,17.983 12.127,22.211 12.694,22.781 22.098,13.376 21.135,12.407 12.69,20.854 8.857,17.024 
			"/>
</g>
</svg>
