<?xml version="1.0" encoding="utf-8"?>
<!-- Generator: Adobe Illustrator 16.0.0, SVG Export Plug-In . SVG Version: 6.00 Build 0)  -->
<!DOCTYPE svg PUBLIC "-//W3C//DTD SVG 1.1//EN" "http://www.w3.org/Graphics/SVG/1.1/DTD/svg11.dtd">
<svg version="1.1" id="Layer_1" xmlns="http://www.w3.org/2000/svg" xmlns:xlink="http://www.w3.org/1999/xlink" x="0px" y="0px"
	 width="30px" height="30px" viewBox="0 0 30 30" enable-background="new 0 0 30 30" xml:space="preserve">
<g>
	<path fill="#FFFFFF" d="M5.156,15.767c0.209,0,0.419-0.08,0.58-0.24l5.981-5.983l2.702,2.702c0.32,0.32,0.839,0.32,1.16,0
		l8.443-8.443v1.301c0,0.455,0.367,0.82,0.819,0.82c0.453,0,0.82-0.367,0.82-0.82V1.821c0-0.026-0.002-0.055-0.004-0.08
		c-0.002-0.014-0.004-0.025-0.007-0.041c-0.002-0.012-0.004-0.023-0.006-0.039c-0.004-0.016-0.008-0.031-0.012-0.047
		c-0.004-0.01-0.006-0.018-0.007-0.029c-0.007-0.018-0.013-0.033-0.019-0.049c-0.004-0.01-0.008-0.02-0.012-0.025
		c-0.006-0.017-0.015-0.033-0.021-0.05c-0.004-0.007-0.009-0.017-0.013-0.024c-0.008-0.018-0.02-0.035-0.029-0.051
		c-0.003-0.006-0.008-0.013-0.012-0.02c-0.016-0.021-0.029-0.043-0.047-0.063l0,0C25.441,1.261,25.4,1.22,25.357,1.185l0,0
		c-0.021-0.018-0.043-0.033-0.063-0.047c-0.006-0.004-0.013-0.006-0.019-0.011c-0.018-0.011-0.032-0.021-0.051-0.03
		c-0.009-0.004-0.018-0.008-0.023-0.012c-0.018-0.007-0.031-0.018-0.049-0.021c-0.01-0.004-0.02-0.008-0.026-0.012
		c-0.017-0.004-0.032-0.011-0.049-0.018c-0.011-0.002-0.021-0.004-0.029-0.008c-0.017-0.002-0.03-0.008-0.049-0.01
		c-0.013-0.004-0.026-0.004-0.039-0.006c-0.013-0.004-0.024-0.006-0.039-0.007C24.895,1.002,24.867,1,24.84,1h-3.281
		c-0.453,0-0.819,0.366-0.819,0.819c0,0.455,0.366,0.82,0.819,0.82h1.301L15,10.504l-2.702-2.7c-0.319-0.322-0.839-0.322-1.159,0
		l-6.562,6.563c-0.321,0.318-0.321,0.838,0,1.16C4.736,15.687,4.947,15.767,5.156,15.767z"/>
	<path fill="#FFFFFF" d="M1,28.181C1,28.632,1.367,29,1.82,29h6.563c0.454,0,0.82-0.368,0.82-0.819v-1.148H1V28.181z"/>
	<path fill="#FFFFFF" d="M8.383,23.423H1.82C1.366,23.423,1,23.79,1,24.241v1.148h8.203v-1.148
		C9.203,23.79,8.836,23.423,8.383,23.423z"/>
	<path fill="#FFFFFF" d="M10.898,28.181c0,0.451,0.367,0.819,0.819,0.819h6.563c0.451,0,0.82-0.368,0.82-0.819v-1.148h-8.205v1.148
		H10.898z"/>
	<path fill="#FFFFFF" d="M20.797,23.423H29v1.969h-8.203V23.423z"/>
	<path fill="#FFFFFF" d="M28.18,12.595h-6.563c-0.452,0-0.82,0.365-0.82,0.819v1.147H29v-1.147C29,12.96,28.632,12.595,28.18,12.595
		z"/>
	<path fill="#FFFFFF" d="M20.797,16.203H29v1.97h-8.203V16.203z"/>
	<path fill="#FFFFFF" d="M20.797,19.812H29v1.969h-8.203V19.812z"/>
	<path fill="#FFFFFF" d="M20.797,28.181c0,0.451,0.368,0.819,0.82,0.819h6.563c0.452,0,0.82-0.368,0.82-0.819v-1.148h-8.203V28.181z
		"/>
	<path fill="#FFFFFF" d="M10.898,23.423h8.203v1.969h-8.203V23.423z"/>
	<path fill="#FFFFFF" d="M18.281,19.812h-6.563c-0.453,0-0.82,0.369-0.82,0.82v1.148h8.203v-1.148
		C19.102,20.181,18.734,19.812,18.281,19.812z"/>
</g>
</svg>
