<?xml version="1.0" encoding="utf-8"?>
<!-- Generator: Adobe Illustrator 16.0.0, SVG Export Plug-In . SVG Version: 6.00 Build 0)  -->
<!DOCTYPE svg PUBLIC "-//W3C//DTD SVG 1.1//EN" "http://www.w3.org/Graphics/SVG/1.1/DTD/svg11.dtd">
<svg version="1.1" id="Layer_1" xmlns="http://www.w3.org/2000/svg" xmlns:xlink="http://www.w3.org/1999/xlink" x="0px" y="0px"
	 width="30px" height="30px" viewBox="0 0 30 30" enable-background="new 0 0 30 30" xml:space="preserve">
<g>
	<g>
		<path fill="#FFFFFF" d="M14.962,4.673c-3.067,0-5.562,2.496-5.562,5.563c0,1.24,0.41,2.383,1.104,3.31
			c-1.357,0.948-2.175,2.362-2.175,3.877v7.905h1.545v-7.905c0-1.079,0.653-2.104,1.731-2.765c0.933,0.714,2.094,1.139,3.357,1.139
			c1.277,0,2.451-0.438,3.391-1.162c1.104,0.659,1.773,1.689,1.773,2.788v7.903h1.546v-7.903c0-1.541-0.837-2.968-2.228-3.913
			c0.674-0.918,1.07-2.049,1.07-3.275C20.523,7.164,18.027,4.673,14.962,4.673z M14.962,14.246c-2.215,0-4.014-1.802-4.014-4.015
			c0-2.215,1.799-4.019,4.014-4.019c2.213,0,4.017,1.804,4.017,4.019S17.175,14.246,14.962,14.246z"/>
	</g>
	<g>
		<path fill="#FFFFFF" d="M2.548,16.167c0-0.475,0.267-0.926,0.718-1.262c0.572,0.381,1.26,0.605,1.998,0.605
			c2.004,0,3.633-1.625,3.633-3.625c0-2.002-1.627-3.629-3.633-3.629c-1.998,0-3.623,1.627-3.623,3.629
			c0,0.693,0.209,1.34,0.547,1.889C1.439,14.397,1,15.252,1,16.165v4.59h1.548V16.167L2.548,16.167z M5.264,9.81
			c1.146,0,2.08,0.932,2.08,2.08c0,1.146-0.933,2.078-2.08,2.078c-1.148,0-2.08-0.932-2.08-2.078
			C3.186,10.741,4.117,9.81,5.264,9.81z"/>
	</g>
	<g>
		<path fill="#FFFFFF" d="M27.782,13.755c0.329-0.547,0.532-1.184,0.532-1.867c0-2-1.627-3.629-3.631-3.629
			c-2.006,0-3.629,1.629-3.629,3.629c0,2.002,1.623,3.627,3.629,3.627c0.754,0,1.451-0.229,2.024-0.619
			c0.459,0.33,0.735,0.789,0.735,1.271v4.592H29v-4.593C29,15.241,28.55,14.374,27.782,13.755z M24.689,13.97
			c-1.148,0-2.082-0.936-2.082-2.082s0.934-2.08,2.082-2.08c1.146,0,2.078,0.934,2.078,2.08
			C26.768,13.036,25.835,13.97,24.689,13.97z"/>
	</g>
</g>
</svg>
