<?xml version="1.0" encoding="utf-8"?>
<!-- Generator: Adobe Illustrator 16.0.0, SVG Export Plug-In . SVG Version: 6.00 Build 0)  -->
<!DOCTYPE svg PUBLIC "-//W3C//DTD SVG 1.1//EN" "http://www.w3.org/Graphics/SVG/1.1/DTD/svg11.dtd">
<svg version="1.1" id="Layer_1" xmlns="http://www.w3.org/2000/svg" xmlns:xlink="http://www.w3.org/1999/xlink" x="0px" y="0px"
	 width="30px" height="30px" viewBox="0 0 30 30" enable-background="new 0 0 30 30" xml:space="preserve">
<g>
	<g>
		<path fill="#FFFFFF" d="M1.526,14.994c0-3.582-0.004-7.166,0-10.75c0.002-1.879,1.342-3.237,3.222-3.237
			C11.038,1.002,17.332,1.013,23.627,1c1.838-0.003,3.241,1.476,3.224,3.149c-0.02,3.105-0.002,9.322-0.007,12.43
			c0,0.498-0.21,0.82-0.581,0.943c-0.359,0.119-0.791,0.021-0.979-0.291c-0.123-0.197-0.193-0.457-0.193-0.688
			c-0.015-3.055-0.01-9.219-0.013-12.274c0-0.748-0.363-1.258-1.017-1.424c-0.158-0.043-0.336-0.043-0.51-0.043
			c-6.248,0-12.501-0.002-18.753,0c-0.975,0-1.497,0.52-1.497,1.489c0,7.124,0,14.25,0,21.378c0,0.822,0.35,1.332,1.039,1.5
			c0.154,0.035,0.322,0.033,0.482,0.033c2.367,0.006,6.804,0,9.172,0.006c0.74,0.002,1.189,0.674,0.878,1.299
			c-0.187,0.359-0.498,0.488-0.885,0.49c-0.462,0-0.927,0-1.386,0c-1.938,0-5.945,0-7.879-0.002
			c-1.526-0.002-2.709-0.895-3.092-2.334c-0.076-0.287-0.102-0.592-0.102-0.889C1.521,22.18,1.526,18.584,1.526,14.994z"/>
	</g>
	<g>
		<path fill="#FFFFFF" d="M19.86,12.845H7.817c-1.023,0-1.86-0.834-1.86-1.861V7.167c0-1.026,0.836-1.858,1.86-1.858H19.86
			c1.024,0,1.861,0.832,1.861,1.858v3.819C21.72,12.009,20.886,12.845,19.86,12.845z M7.817,6.953c-0.115,0-0.213,0.096-0.213,0.213
			v3.82c0,0.115,0.095,0.211,0.213,0.211H19.86c0.121,0,0.213-0.09,0.213-0.211v-3.82c0-0.119-0.094-0.213-0.213-0.213H7.817z"/>
	</g>
	<g>
		<g>
			<path fill="#FFFFFF" d="M16.517,16.105c6.271,0.791,11.2,5.955,11.959,11.938c-0.604,0-1.199,0-1.804,0
				c-0.057-0.275-0.106-0.557-0.171-0.838c-0.281-1.23-0.745-2.393-1.396-3.479c-1.225-2.033-2.886-3.596-5.002-4.67
				c-1.104-0.559-2.268-0.928-3.49-1.125c-0.062-0.014-0.104-0.018-0.104-0.098c0.005-0.564,0.002-1.131,0.002-1.697
				C16.508,16.125,16.517,16.119,16.517,16.105z"/>
		</g>
		<g>
			<path fill="#FFFFFF" d="M16.508,20.506c4.056,0.771,6.929,4.125,7.539,7.539c-0.042,0.004-0.073,0.008-0.112,0.008
				c-0.531,0-1.06-0.002-1.588,0.004c-0.097,0-0.13-0.025-0.152-0.117c-0.385-1.439-1.113-2.678-2.195-3.689
				c-0.959-0.904-2.07-1.529-3.348-1.859c-0.114-0.031-0.15-0.08-0.146-0.197C16.511,21.631,16.508,21.078,16.508,20.506z"/>
		</g>
		<g>
			<path fill="#FFFFFF" d="M17.896,25.557c0.701,0.002,1.254,0.57,1.248,1.287c-0.006,0.686-0.57,1.229-1.273,1.229
				c-0.703-0.006-1.248-0.572-1.242-1.291C16.634,26.1,17.198,25.553,17.896,25.557z"/>
		</g>
	</g>
	<g>
		<path fill="#FFFFFF" d="M13.634,18.002H6.767c-0.482,0-0.875-0.395-0.875-0.875c0-0.482,0.391-0.873,0.875-0.873h6.867
			c0.482,0,0.875,0.391,0.875,0.873C14.51,17.607,14.117,18.002,13.634,18.002z"/>
	</g>
	<g>
		<path fill="#FFFFFF" d="M13.634,21.299H6.767c-0.482,0-0.875-0.391-0.875-0.875c0-0.48,0.391-0.873,0.875-0.873h6.867
			c0.482,0,0.875,0.393,0.875,0.873C14.51,20.906,14.117,21.299,13.634,21.299z"/>
	</g>
	<g>
		<path fill="#FFFFFF" d="M13.634,24.598H6.767c-0.482,0-0.875-0.393-0.875-0.873c0-0.484,0.391-0.875,0.875-0.875h6.867
			c0.482,0,0.875,0.391,0.875,0.875C14.509,24.205,14.117,24.598,13.634,24.598z"/>
	</g>
</g>
</svg>
