<?xml version="1.0" encoding="utf-8"?>
<!-- Generator: Adobe Illustrator 16.0.0, SVG Export Plug-In . SVG Version: 6.00 Build 0)  -->
<!DOCTYPE svg PUBLIC "-//W3C//DTD SVG 1.1//EN" "http://www.w3.org/Graphics/SVG/1.1/DTD/svg11.dtd">
<svg version="1.1" id="Layer_1" xmlns="http://www.w3.org/2000/svg" xmlns:xlink="http://www.w3.org/1999/xlink" x="0px" y="0px"
	 width="30px" height="30px" viewBox="0 0 30 30" enable-background="new 0 0 30 30" xml:space="preserve">
<g>
	<path fill="#FFFFFF" d="M21.006,3.595v-0.9h-3.418c-0.406-1.327-1.24-2.03-2.485-2.092L14.976,0.6
		c-0.517,0-0.998,0.149-1.431,0.444c-0.577,0.393-0.952,0.951-1.12,1.664H9.004v0.906H3.86V29.4H26.14V3.595H21.006z M21.004,8.08
		V5.106h3.652v22.818H5.361V5.101h3.641V8.08H21.004z M13.89,3.734c-0.091-0.688,0.022-1.091,0.392-1.388
		c0.221-0.178,0.472-0.249,0.77-0.266c0.397,0.027,0.7,0.196,0.924,0.517c0.188,0.27,0.232,0.592,0.153,1.112l-0.069,0.46h3.447
		v2.414h-8.992V4.187h3.436L13.89,3.734z"/>
	<rect x="14.58" y="11.787" fill="#FFFFFF" width="7.588" height="1.438"/>
	<rect x="14.58" y="19.693" fill="#FFFFFF" width="7.586" height="1.443"/>
	<rect x="14.593" y="22.723" fill="#FFFFFF" width="7.587" height="1.432"/>
	<rect x="14.586" y="14.794" fill="#FFFFFF" width="7.588" height="1.43"/>
	<path fill="#FFFFFF" d="M7.093,24.148h4.556v-4.553H7.093V24.148z M8.093,20.596h2.556v2.553H8.093V20.596z"/>
	<path fill="#FFFFFF" d="M7.093,16.244h4.556v-4.553H7.093V16.244z M8.093,12.691h2.556v2.554H8.093V12.691z"/>
</g>
</svg>
