<?xml version="1.0" encoding="utf-8"?>
<!-- Generator: Adobe Illustrator 16.0.0, SVG Export Plug-In . SVG Version: 6.00 Build 0)  -->
<!DOCTYPE svg PUBLIC "-//W3C//DTD SVG 1.1//EN" "http://www.w3.org/Graphics/SVG/1.1/DTD/svg11.dtd">
<svg version="1.1" id="Layer_1" xmlns="http://www.w3.org/2000/svg" xmlns:xlink="http://www.w3.org/1999/xlink" x="0px" y="0px"
	 width="30px" height="30px" viewBox="0 0 30 30" enable-background="new 0 0 30 30" xml:space="preserve">
<g>
	<path fill="#FFFFFF" d="M28.277,8.246l-5.495-6.969C22.645,1.102,22.439,1,22.219,1H7.786C7.564,1,7.361,1.102,7.222,1.277
		L1.728,8.246C1.625,8.371,1.572,8.527,1.572,8.689v19.592C1.572,28.678,1.894,29,2.291,29h25.417c0.396,0,0.72-0.322,0.72-0.719
		V8.689C28.436,8.527,28.379,8.371,28.277,8.246z M26.323,8.09H15.723v-5.65h6.147L26.323,8.09z M8.132,2.439h6.149v5.648H3.679
		L8.132,2.439z M3.006,27.561V9.529h23.98v18.031H3.006L3.006,27.561z"/>
	<path fill="#FFFFFF" d="M19.102,14.678l-5.792,5.791l-2.404-2.404c-0.338-0.34-0.887-0.34-1.225,0
		c-0.338,0.338-0.338,0.883,0,1.224l3.018,3.017c0.166,0.168,0.389,0.256,0.611,0.256c0.224,0,0.441-0.088,0.612-0.256l6.394-6.392
		c0.339-0.341,0.339-0.888,0-1.228C19.984,14.34,19.438,14.34,19.102,14.678z"/>
</g>
</svg>
