<?xml version="1.0" encoding="utf-8"?>
<!-- Generator: Adobe Illustrator 16.0.0, SVG Export Plug-In . SVG Version: 6.00 Build 0)  -->
<!DOCTYPE svg PUBLIC "-//W3C//DTD SVG 1.1//EN" "http://www.w3.org/Graphics/SVG/1.1/DTD/svg11.dtd">
<svg version="1.1" id="Layer_1" xmlns="http://www.w3.org/2000/svg" xmlns:xlink="http://www.w3.org/1999/xlink" x="0px" y="0px"
	 width="30px" height="30px" viewBox="0 0 30 30" enable-background="new 0 0 30 30" xml:space="preserve">
<g>
	<g>
		<g>
			<path fill="#FFFFFF" d="M4.893,23.246c-0.414,0-0.75-0.336-0.75-0.75V4.782c0-1.896,1.542-3.438,3.437-3.438
				c0.414,0,0.75,0.336,0.75,0.75s-0.336,0.75-0.75,0.75c-1.068,0-1.937,0.869-1.937,1.938v17.714
				C5.643,22.91,5.307,23.246,4.893,23.246z"/>
		</g>
		<g>
			<path fill="#FFFFFF" d="M22.239,10.534c-0.414,0-0.75-0.336-0.75-0.75V4.782c0-1.896,1.542-3.438,3.438-3.438
				s3.438,1.542,3.438,3.438v1.554c0,0.414-0.336,0.75-0.75,0.75h-4.626v2.698C22.989,10.198,22.653,10.534,22.239,10.534z
				 M22.989,5.586h3.876V4.782c0-1.068-0.869-1.938-1.938-1.938c-1.068,0-1.938,0.869-1.938,1.938V5.586z"/>
		</g>
		<g>
			<path fill="#FFFFFF" d="M19.066,28.655c-2.16,0-3.918-1.758-3.918-3.918v-1.491H1c-0.414,0-0.75-0.336-0.75-0.75
				s0.336-0.75,0.75-0.75h14.898c0.414,0,0.75,0.336,0.75,0.75v2.241c0,1.333,1.085,2.418,2.418,2.418
				c1.336,0,2.423-1.085,2.423-2.418v-2.241c0-0.414,0.336-0.75,0.75-0.75s0.75,0.336,0.75,0.75v2.241
				C22.989,26.897,21.229,28.655,19.066,28.655z"/>
		</g>
		<g>
			<path fill="#FFFFFF" d="M19.048,28.655H4.171c-2.162,0-3.92-1.758-3.92-3.918v-2.241c0-0.414,0.336-0.75,0.75-0.75
				s0.75,0.336,0.75,0.75v2.241c0,1.333,1.085,2.418,2.42,2.418h14.877c0.414,0,0.75,0.336,0.75,0.75S19.462,28.655,19.048,28.655z"
				/>
		</g>
		<g>
			<path fill="#FFFFFF" d="M24.928,2.845H7.579c-0.414,0-0.75-0.336-0.75-0.75s0.336-0.75,0.75-0.75h17.349
				c0.414,0,0.75,0.336,0.75,0.75S25.342,2.845,24.928,2.845z"/>
		</g>
	</g>
	<g>
		<g>
			<path fill="#FFFFFF" d="M27.359,17.745c-0.331,0-0.6-0.269-0.6-0.6c0-2.48-2.019-4.498-4.5-4.498
				c-1.146,0-2.234,0.429-3.066,1.207c-0.242,0.227-0.621,0.216-0.849-0.028c-0.226-0.242-0.214-0.622,0.028-0.848
				c1.056-0.987,2.436-1.531,3.887-1.531c3.143,0,5.699,2.556,5.699,5.698C27.959,17.477,27.69,17.745,27.359,17.745z"/>
		</g>
		<g>
			<path fill="#FFFFFF" d="M22.261,22.843c-3.142,0-5.696-2.556-5.696-5.697c0-0.331,0.269-0.6,0.6-0.6s0.6,0.269,0.6,0.6
				c0,2.48,2.018,4.498,4.497,4.498c1.155,0,2.253-0.438,3.09-1.23c0.241-0.229,0.621-0.217,0.849,0.022
				c0.228,0.241,0.218,0.621-0.022,0.849C25.115,22.289,23.725,22.843,22.261,22.843z"/>
		</g>
		<g>
			<path fill="#FFFFFF" d="M18.807,18.276c-0.153,0-0.307-0.058-0.424-0.175l-1.22-1.218l-1.218,1.218
				c-0.234,0.233-0.613,0.233-0.848-0.001c-0.234-0.234-0.234-0.614,0-0.849l1.642-1.641c0.234-0.233,0.613-0.233,0.848,0
				l1.644,1.641c0.234,0.234,0.235,0.614,0.001,0.849C19.114,18.218,18.96,18.276,18.807,18.276z"/>
		</g>
		<g>
			<path fill="#FFFFFF" d="M27.357,18.278c-0.153,0-0.307-0.059-0.424-0.176l-1.643-1.643c-0.234-0.233-0.234-0.614,0-0.848
				c0.234-0.235,0.613-0.235,0.848,0l1.219,1.218l1.219-1.218c0.234-0.235,0.613-0.235,0.848,0c0.234,0.233,0.234,0.614,0,0.848
				l-1.643,1.643C27.664,18.22,27.511,18.278,27.357,18.278z"/>
		</g>
	</g>
	<g>
		<g>
			<path fill="#FFFFFF" d="M11.014,17.955v-1.558c-0.957-0.017-1.934-0.295-2.513-0.685l0.396-1.044
				c0.578,0.357,1.438,0.669,2.363,0.669c1.174,0,1.967-0.638,1.967-1.524c0-0.857-0.644-1.385-1.867-1.854
				c-1.687-0.623-2.728-1.355-2.728-2.71c0-1.291,0.976-2.272,2.479-2.507V5.188h1.041v1.51c0.977,0.029,1.652,0.281,2.149,0.545
				l-0.413,1.027c-0.347-0.188-1.024-0.547-2.082-0.547c-1.272,0-1.752,0.717-1.752,1.355c0,0.793,0.612,1.199,2.049,1.775
				c1.703,0.652,2.563,1.445,2.563,2.832c0,1.246-0.909,2.398-2.611,2.646v1.619h-1.043v0.003H11.014z"/>
		</g>
	</g>
</g>
</svg>
