<svg id="Capa_1" data-name="Capa 1" xmlns="http://www.w3.org/2000/svg" width="31" height="37.60131" viewBox="0 0 31 37.60131"><defs><style>.cls-1{fill:#2f82f0;}</style></defs><title>word-icon</title><path class="cls-1" d="M1424.1551,297.54652l-9.09215-9.09208a.7676.7676,0,0,0-.54265-.2248h-17.41094a3.73373,3.73373,0,0,0-3.72945,3.72956v30.14221a3.73377,3.73377,0,0,0,3.72952,3.72954h23.541a3.73374,3.73374,0,0,0,3.72953-3.72954V298.08917A.76825.76825,0,0,0,1424.1551,297.54652Zm-8.86721-6.69664,6.472,6.472h-4.27734a2.19445,2.19445,0,0,1-2.1947-2.19467Zm7.55719,31.25147a2.1972,2.1972,0,0,1-2.1947,2.19477h-23.541a2.19722,2.19722,0,0,1-2.19476-2.19477V291.9592a2.19732,2.19732,0,0,1,2.19476-2.1948h16.64377v5.36265a3.72919,3.72919,0,0,0,3.72939,3.7295h5.36249v23.2448Z" transform="translate(-1393.37991 -288.22964)"/><path class="cls-1" d="M1410.282,316.83066h-.34354a.76735.76735,0,1,0,0,1.53469h.34354a.76735.76735,0,1,0,0-1.53469Z" transform="translate(-1393.37991 -288.22964)"/><path class="cls-1" d="M1407.45585,316.83066h-7.45356a.76735.76735,0,1,0,0,1.53469h7.45356a.76735.76735,0,1,0,0-1.53469Z" transform="translate(-1393.37991 -288.22964)"/><path class="cls-1" d="M1417.75745,313.32424h-17.75509a.76738.76738,0,0,0,0,1.53476h17.75509a.76738.76738,0,0,0,0-1.53476Z" transform="translate(-1393.37991 -288.22964)"/><path class="cls-1" d="M1417.75745,309.81775h-17.75509a.76738.76738,0,1,0,0,1.53476h17.75509a.76738.76738,0,1,0,0-1.53476Z" transform="translate(-1393.37991 -288.22964)"/><path class="cls-1" d="M1417.75745,306.31133h-17.75509a.76738.76738,0,1,0,0,1.53476h17.75509a.76738.76738,0,1,0,0-1.53476Z" transform="translate(-1393.37991 -288.22964)"/></svg>