<?xml version="1.0" encoding="utf-8"?>
<!-- Generator: Adobe Illustrator 16.0.0, SVG Export Plug-In . SVG Version: 6.00 Build 0)  -->
<!DOCTYPE svg PUBLIC "-//W3C//DTD SVG 1.1//EN" "http://www.w3.org/Graphics/SVG/1.1/DTD/svg11.dtd">
<svg version="1.1" id="Layer_1" xmlns="http://www.w3.org/2000/svg" xmlns:xlink="http://www.w3.org/1999/xlink" x="0px" y="0px"
	 width="24px" height="24px" viewBox="0 0 24 24" enable-background="new 0 0 24 24" xml:space="preserve">
<g id="Icons">
	<g>
		<path fill="#F9F9F9" d="M21.935,19.524H2.163c-0.827,0-1.496-0.671-1.496-1.497V6.269c0-0.827,0.671-1.496,1.496-1.496h19.772
			c0.828,0,1.498,0.669,1.498,1.496v11.759C23.433,18.854,22.763,19.524,21.935,19.524z"/>
		
			<path fill="none" stroke="#303030" stroke-width="0.8" stroke-linecap="round" stroke-linejoin="round" stroke-miterlimit="10" d="
			M21.935,19.524H2.163c-0.827,0-1.496-0.671-1.496-1.497V6.269c0-0.827,0.671-1.496,1.496-1.496h19.772
			c0.828,0,1.498,0.669,1.498,1.496v11.759C23.433,18.854,22.763,19.524,21.935,19.524z"/>
		<g>
			<path fill="#128CF9" d="M11.45,9.886l-1.347,3.076l-1.41-3.076H6.88v4.255L5.013,9.886H3.41l-1.951,4.521l1.187,0.004
				l0.372-0.972h2.313l0.424,0.972h2.228v-3.537l1.571,3.533c0,0,0.954,0.01,1.029,0c0.075-0.012,1.548-3.501,1.548-3.501v3.501
				h1.074V9.886H11.45z M3.452,12.483l0.742-1.766l0.742,1.766H3.452z"/>
			<path fill="#128CF9" d="M22.639,9.886h-1.296l-1.38,1.497l-1.334-1.497h-4.425v4.524h4.369l1.371-1.466l1.341,1.466h1.317
				l-1.959-2.262L22.639,9.886z M17.967,13.516h-2.679v-0.919c0,0,2.347,0,2.4,0c0.056,0,0-0.938,0-0.938h-2.4v-0.847h2.735
				l1.241,1.353L17.967,13.516z"/>
		</g>
	</g>
</g>
</svg>
