<?xml version="1.0" encoding="utf-8"?>
<!-- Generator: Adobe Illustrator 16.0.0, SVG Export Plug-In . SVG Version: 6.00 Build 0)  -->
<!DOCTYPE svg PUBLIC "-//W3C//DTD SVG 1.1//EN" "http://www.w3.org/Graphics/SVG/1.1/DTD/svg11.dtd">
<svg version="1.1" id="Layer_1" xmlns="http://www.w3.org/2000/svg" xmlns:xlink="http://www.w3.org/1999/xlink" x="0px" y="0px"
	 width="20px" height="20px" viewBox="0 0 20 20" enable-background="new 0 0 20 20" xml:space="preserve">
<g>
	<path d="M10.03,2.162c2.789,0,5.576,0.005,8.363-0.005c0.625-0.003,1.039,0.459,1.037,1.036c-0.015,3.435-0.006,6.871-0.006,10.306
		c0,2.187-1.619,4.144-3.77,4.551c-2.166,0.411-4.209-0.62-5.178-2.618c-0.056-0.113-0.132-0.108-0.227-0.108
		c-2.875,0.003-5.752,0.003-8.627,0c-0.495,0-0.864-0.283-0.966-0.744c-0.017-0.075-0.018-0.153-0.018-0.229
		C0.637,10.611,0.637,6.877,0.637,3.142c0-0.58,0.4-0.98,0.982-0.98c2.749-0.001,5.497,0,8.245,0
		C9.919,2.162,9.974,2.162,10.03,2.162z M1.269,7.19c0,0.083,0,0.149,0,0.215c0,2.278,0,4.555,0,6.833
		c0,0.363,0.089,0.451,0.45,0.451c2.759,0,5.518,0,8.279,0c0.06,0,0.119,0,0.193,0c-0.278-1.117-0.21-2.193,0.272-3.228
		c0.485-1.036,1.25-1.806,2.29-2.287c1.083-0.502,2.209-0.578,3.351-0.228c1.146,0.35,2.022,1.06,2.681,2.102
		c0-1.313,0-2.583,0-3.859C12.945,7.19,7.117,7.19,1.269,7.19z M10.663,13.43c0,2.24,1.812,4.063,4.062,4.082
		c2.193,0.021,4.065-1.83,4.067-4.021c0.001-2.289-1.808-4.12-4.067-4.118C12.488,9.373,10.663,11.199,10.663,13.43z M1.269,4.652
		c5.851,0,11.681,0,17.523,0c0-0.472,0-0.931,0-1.391c0-0.384-0.085-0.469-0.469-0.469c-5.527,0-11.057,0-16.586,0
		c-0.062,0-0.124-0.003-0.183,0.005C1.39,2.821,1.272,2.935,1.271,3.095C1.266,3.61,1.269,4.124,1.269,4.652z M1.274,6.534
		c5.847,0,11.679,0,17.505,0c0-0.414,0-0.813,0-1.213c-5.842,0-11.67,0-17.505,0C1.274,5.729,1.274,6.127,1.274,6.534z"/>
	<path d="M9.403,13.445c0,0.209,0,0.402,0,0.606c-1.565,0-3.125,0-4.694,0c0-0.2,0-0.397,0-0.606
		C6.271,13.445,7.831,13.445,9.403,13.445z"/>
	<path d="M1.897,12.188c1.353,0,2.696,0,4.053,0c0,0.207,0,0.407,0,0.623c-1.345,0-2.692,0-4.053,0
		C1.897,12.611,1.897,12.41,1.897,12.188z"/>
	<path d="M9.399,12.197c0,0.205,0,0.406,0,0.617c-0.831,0-1.654,0-2.491,0c0-0.2,0-0.401,0-0.617
		C7.731,12.197,8.562,12.197,9.399,12.197z"/>
	<path d="M1.893,14.051c0-0.203,0-0.398,0-0.607c0.73,0,1.452,0,2.185,0c0,0.201,0,0.397,0,0.607
		C3.356,14.051,2.635,14.051,1.893,14.051z"/>
	<path d="M12.846,14.682c0-0.105-0.003-0.207,0-0.304c0.01-0.188,0.141-0.317,0.315-0.317c0.174,0,0.31,0.131,0.313,0.317
		c0.006,0.117,0.006,0.233,0,0.351c-0.015,0.326-0.272,0.582-0.602,0.594c-0.221,0.007-0.443,0.005-0.665,0
		c-0.338-0.008-0.61-0.26-0.612-0.596c-0.01-0.859-0.01-1.72,0-2.578c0.006-0.338,0.278-0.582,0.619-0.586
		c0.217-0.006,0.432-0.006,0.648,0c0.34,0.006,0.597,0.258,0.611,0.596c0.004,0.123,0.006,0.244-0.002,0.365
		c-0.012,0.176-0.149,0.302-0.316,0.299c-0.168-0.004-0.303-0.137-0.313-0.309c-0.003-0.101,0-0.199,0-0.311
		c-0.205,0-0.404,0-0.609,0c0,0.827,0,1.648,0,2.479C12.436,14.682,12.627,14.682,12.846,14.682z"/>
	<path d="M16.932,13.309c0.055-0.26,0.106-0.518,0.159-0.774c0.046-0.228,0.091-0.455,0.138-0.685
		c0.045-0.224,0.183-0.33,0.381-0.295c0.188,0.032,0.285,0.195,0.24,0.42c-0.144,0.723-0.289,1.443-0.434,2.166
		c-0.061,0.297-0.121,0.596-0.184,0.895c-0.039,0.182-0.153,0.287-0.311,0.287c-0.167,0.003-0.285-0.106-0.322-0.297
		c-0.205-1.021-0.408-2.039-0.611-3.06c-0.043-0.212,0.05-0.372,0.229-0.411c0.197-0.039,0.343,0.063,0.39,0.286
		c0.098,0.468,0.189,0.935,0.285,1.399c0.004,0.021,0.01,0.043,0.015,0.063C16.916,13.307,16.925,13.307,16.932,13.309z"/>
	<path d="M14.742,13.298c0.063-0.306,0.126-0.614,0.188-0.92c0.036-0.175,0.069-0.347,0.105-0.521
		c0.044-0.222,0.188-0.328,0.385-0.291c0.18,0.033,0.279,0.199,0.237,0.41c-0.132,0.678-0.271,1.354-0.406,2.03
		c-0.069,0.343-0.138,0.685-0.208,1.024c-0.042,0.193-0.163,0.297-0.328,0.289c-0.158-0.006-0.271-0.11-0.309-0.293
		c-0.205-1.026-0.408-2.051-0.611-3.077c-0.04-0.197,0.059-0.358,0.232-0.396c0.191-0.039,0.341,0.057,0.386,0.269
		c0.103,0.489,0.198,0.979,0.299,1.471C14.723,13.295,14.73,13.296,14.742,13.298z"/>
	<path d="M4.703,5.623c0,0.208,0,0.405,0,0.612c-0.208,0-0.407,0-0.616,0c0-0.204,0-0.401,0-0.612
		C4.288,5.623,4.488,5.623,4.703,5.623z"/>
	<path d="M7.845,6.235c0-0.208,0-0.409,0-0.62c0.206,0,0.402,0,0.612,0c0,0.206,0,0.408,0,0.62C8.253,6.235,8.053,6.235,7.845,6.235
		z"/>
	<path d="M11.604,6.235c0-0.208,0-0.409,0-0.62c0.205,0,0.401,0,0.61,0c0,0.206,0,0.408,0,0.62
		C12.012,6.235,11.811,6.235,11.604,6.235z"/>
	<path d="M15.361,5.617c0.209,0,0.406,0,0.611,0c0,0.21,0,0.412,0,0.621c-0.205,0-0.402,0-0.611,0
		C15.361,6.035,15.361,5.834,15.361,5.617z"/>
	<path d="M2.198,5.619c0,0.207,0,0.404,0,0.614c-0.201,0-0.401,0-0.613,0c0-0.202,0-0.402,0-0.614
		C1.787,5.619,1.982,5.619,2.198,5.619z"/>
	<path d="M2.835,5.617c0.207,0,0.402,0,0.611,0c0,0.205,0,0.406,0,0.618c-0.203,0-0.403,0-0.611,0
		C2.835,6.027,2.835,5.826,2.835,5.617z"/>
	<path d="M5.951,6.238c-0.209,0-0.406,0-0.61,0c0-0.21,0-0.411,0-0.621c0.206,0,0.402,0,0.61,0C5.951,5.822,5.951,6.022,5.951,6.238
		z"/>
	<path d="M6.594,5.618c0.21,0,0.406,0,0.612,0c0,0.206,0,0.402,0,0.613c-0.199,0-0.399,0-0.612,0
		C6.594,6.033,6.594,5.833,6.594,5.618z"/>
	<path d="M9.096,5.616c0.211,0,0.406,0,0.614,0c0,0.208,0,0.409,0,0.62c-0.204,0-0.404,0-0.614,0
		C9.096,6.03,9.096,5.833,9.096,5.616z"/>
	<path d="M10.349,6.233c0-0.212,0-0.41,0-0.615c0.206,0,0.4,0,0.612,0c0,0.201,0,0.402,0,0.615
		C10.76,6.233,10.561,6.233,10.349,6.233z"/>
	<path d="M13.465,6.239c-0.205,0-0.398,0-0.609,0c0-0.208,0-0.408,0-0.62c0.201,0,0.397,0,0.609,0
		C13.465,5.818,13.465,6.019,13.465,6.239z"/>
	<path d="M14.105,5.613c0.213,0,0.404,0,0.608,0c0,0.205,0,0.406,0,0.619c-0.194,0-0.396,0-0.608,0
		C14.105,6.031,14.105,5.83,14.105,5.613z"/>
	<path d="M17.229,5.618c0,0.209,0,0.407,0,0.615c-0.203,0-0.403,0-0.615,0c0-0.204,0-0.405,0-0.615
		C16.814,5.618,17.014,5.618,17.229,5.618z"/>
	<path d="M17.861,6.235c0-0.206,0-0.402,0-0.613c0.203,0,0.402,0,0.615,0c0,0.2,0,0.402,0,0.613
		C18.275,6.235,18.078,6.235,17.861,6.235z"/>
</g>
</svg>
