<?xml version="1.0" encoding="utf-8"?>
<!-- Generator: Adobe Illustrator 16.0.0, SVG Export Plug-In . SVG Version: 6.00 Build 0)  -->
<!DOCTYPE svg PUBLIC "-//W3C//DTD SVG 1.1//EN" "http://www.w3.org/Graphics/SVG/1.1/DTD/svg11.dtd">
<svg version="1.1" id="Isolation_Mode" xmlns="http://www.w3.org/2000/svg" xmlns:xlink="http://www.w3.org/1999/xlink" x="0px"
	 y="0px" width="20px" height="20px" viewBox="0 0 20 20" enable-background="new 0 0 20 20" xml:space="preserve">
<g>
	<path d="M10.775,3.086c0.604,0,1.14,0,1.717,0c-1.146,4.579-2.283,9.131-3.424,13.696c-0.576,0-1.125,0-1.717,0
		C8.495,12.208,9.632,7.657,10.775,3.086z"/>
	<path d="M17.814,10.013c-1.398-1.392-2.688-2.676-3.967-3.95c0.416-0.427,0.795-0.816,1.141-1.169
		C16.673,6.579,18.361,8.267,20,9.906c-1.646,1.646-3.344,3.344-5.051,5.05c-0.295-0.312-0.66-0.694-1.021-1.073
		C15.186,12.63,16.482,11.339,17.814,10.013z"/>
	<path d="M5.015,14.93c-1.661-1.658-3.35-3.345-5.009-5C1.661,8.275,3.35,6.586,5.063,4.875C5.395,5.225,5.77,5.619,6.15,6.021
		C4.884,7.282,3.596,8.565,2.344,9.813c1.335,1.333,2.631,2.625,3.93,3.923C5.769,14.214,5.375,14.587,5.015,14.93z"/>
</g>
</svg>
