<?xml version="1.0" encoding="utf-8"?>
<!-- Generator: Adobe Illustrator 16.0.0, SVG Export Plug-In . SVG Version: 6.00 Build 0)  -->
<!DOCTYPE svg PUBLIC "-//W3C//DTD SVG 1.1//EN" "http://www.w3.org/Graphics/SVG/1.1/DTD/svg11.dtd">
<svg version="1.1" id="Layer_1" xmlns="http://www.w3.org/2000/svg" xmlns:xlink="http://www.w3.org/1999/xlink" x="0px" y="0px"
	 width="512px" height="512px" viewBox="0 0 512 512" enable-background="new 0 0 512 512" xml:space="preserve">
<g>
	<g>
		<path fill="#0064A7" stroke="#0064A7" stroke-width="4" stroke-miterlimit="10" d="M481.874,102.698
			c13.854,0,25.126,11.271,25.126,25.126v257.898c0,13.854-11.271,25.126-25.126,25.126H30.143
			c-13.854,0-25.126-11.271-25.126-25.126V127.824c0-13.854,11.271-25.126,25.126-25.126H481.874 M481.874,97.698H30.143
			c-16.638,0-30.126,13.488-30.126,30.126v257.898c0,16.641,13.488,30.126,30.126,30.126h451.731
			c16.64,0,30.126-13.485,30.126-30.126V127.824C512,111.186,498.513,97.698,481.874,97.698L481.874,97.698z"/>
	</g>
	<g>
		<path fill="#0064A7" d="M278.66,311.787c47.751,0.232,91.335-38.932,91.335-86.581c0-52.099-43.584-88.111-91.335-88.097h-41.097
			c-48.318-0.014-88.092,36.005-88.092,88.097c0,47.66,39.774,86.813,88.092,86.581H278.66z"/>
		<path fill="#FFFFFF" d="M255.896,271.602v-94.608c19.018,7.293,32.52,25.706,32.552,47.303
			C288.415,245.891,274.913,264.293,255.896,271.602 M187.084,224.295c0.041-21.582,13.523-39.984,32.529-47.301v94.591
			C200.608,264.271,187.125,245.881,187.084,224.295 M237.759,144.331c-44.154,0.014-79.937,35.8-79.945,79.964
			c0.009,44.158,35.791,79.936,79.945,79.95c44.168-0.015,79.955-35.792,79.96-79.95
			C317.714,180.131,281.927,144.345,237.759,144.331"/>
		<path fill="#1D1D1B" d="M60.146,371.398c0,7.11,5.085,7.941,9.607,7.941c19.954,0,26.503-15.053,26.503-28.814
			c0-17.268-11.082-29.729-28.902-29.729c-3.794,0-5.538,0.27-7.208,0.366V371.398z M51.094,328.082c0-8.307-4.334-7.76-8.486-7.848
			v-2.398c3.6,0.175,7.291,0.175,10.897,0.175c3.877,0,9.14-0.175,15.979-0.175c23.915,0,36.936,15.967,36.936,32.322
			c0,9.146-5.355,32.14-38.048,32.14c-4.707,0-9.052-0.185-13.392-0.185c-4.151,0-8.221,0.09-12.372,0.185v-2.401
			c5.535-0.556,8.221-0.739,8.486-7.021V328.082z"/>
		<path fill="#1D1D1B" d="M119.538,325.873c-2.406,0-4.526-2.219-4.526-4.62c0-2.312,2.221-4.44,4.526-4.44
			c2.394,0,4.523,1.945,4.523,4.44C124.062,323.751,122.026,325.873,119.538,325.873 M109.655,379.896h1.755
			c2.58,0,4.429,0,4.429-3.056v-25.022c0-4.06-1.383-4.623-4.802-6.461v-1.478c4.34-1.3,9.516-3.048,9.88-3.325
			c0.651-0.367,1.2-0.466,1.666-0.466c0.456,0,0.646,0.556,0.646,1.3v35.452c0,3.056,2.031,3.056,4.62,3.056h1.566v2.4
			c-3.142,0-6.377-0.186-9.692-0.186c-3.328,0-6.652,0.091-10.068,0.186V379.896z"/>
		<path fill="#1D1D1B" d="M138.19,352.372c0-3.413-1.02-4.334-5.352-6.089v-1.756c3.966-1.293,7.747-2.495,12.184-4.438
			c0.278,0,0.548,0.191,0.548,0.922v6.006c5.271-3.783,9.797-6.928,15.993-6.928c7.842,0,10.613,5.729,10.613,12.932v23.82
			c0,3.055,2.032,3.055,4.617,3.055h1.666v2.401c-3.242,0-6.471-0.185-9.789-0.185c-3.331,0-6.654,0.09-9.98,0.185v-2.401h1.664
			c2.589,0,4.427,0,4.427-3.055v-23.91c0-5.269-3.217-7.852-8.487-7.852c-2.955,0-7.665,2.398-10.723,4.436v27.326
			c0,3.055,2.041,3.055,4.628,3.055h1.66v2.401c-3.231,0-6.468-0.185-9.794-0.185c-3.317,0-6.648,0.09-9.971,0.185v-2.401h1.665
			c2.586,0,4.431,0,4.431-3.055V352.372L138.19,352.372z"/>
		<path fill="#1D1D1B" d="M201.828,353.852c2.306,0,2.575-1.201,2.575-2.307c0-4.71-2.86-8.498-8.034-8.498
			c-5.63,0-9.508,4.148-10.617,10.805H201.828z M185.481,356.811c-0.192,0.834-0.192,2.213,0,5.358
			c0.543,8.771,6.188,15.974,13.566,15.974c5.087,0,9.062-2.773,12.474-6.188l1.289,1.293c-4.25,5.634-9.511,10.438-17.079,10.438
			c-14.689,0-17.643-14.226-17.643-20.134c0-18.106,12.188-23.462,18.648-23.462c7.487,0,15.528,4.709,15.612,14.499
			c0,0.56,0,1.108-0.083,1.668l-0.84,0.554H185.481L185.481,356.811z"/>
		<path fill="#1D1D1B" d="M214.475,379.896h2.495c2.578,0,4.427,0,4.427-3.056v-25.942c0-2.86-3.416-3.42-4.804-4.156v-1.385
			c6.743-2.863,10.438-5.269,11.281-5.269c0.541,0,0.819,0.277,0.819,1.206v8.311h0.196c2.301-3.602,6.184-9.517,11.814-9.517
			c2.311,0,5.264,1.567,5.264,4.894c0,2.496-1.752,4.72-4.338,4.72c-2.875,0-2.875-2.224-6.102-2.224
			c-1.572,0-6.742,2.127-6.742,7.67v21.692c0,3.056,1.844,3.056,4.434,3.056h5.168v2.4c-5.082-0.095-8.945-0.186-12.924-0.186
			c-3.784,0-7.664,0.091-10.989,0.186L214.475,379.896L214.475,379.896z"/>
		<path fill="#1D1D1B" d="M250.03,369.46c1.201,6.092,4.893,11.267,11.638,11.267c5.441,0,7.471-3.324,7.471-6.555
			c0-10.898-20.124-7.393-20.124-22.256c0-5.174,4.16-11.826,14.314-11.826c2.95,0,6.922,0.834,10.522,2.684l0.646,9.41h-2.121
			c-0.923-5.811-4.154-9.133-10.068-9.133c-3.697,0-7.203,2.123-7.203,6.094c0,10.812,21.427,7.479,21.427,21.978
			c0,6.093-4.895,12.563-15.887,12.563c-3.693,0-8.035-1.293-11.264-3.14l-1.021-10.62L250.03,369.46z"/>
		<path fill="#1D1D1B" d="M359.924,334.547h-2.306c-1.758-10.796-9.425-15.143-19.762-15.143c-10.626,0-26.054,7.106-26.054,29.272
			c0,18.662,13.312,32.05,27.524,32.05c9.141,0,16.72-6.275,18.569-15.979l2.12,0.553l-2.12,13.484
			c-3.882,2.407-14.317,4.899-20.416,4.899c-21.604,0-35.271-13.945-35.271-34.726c0-18.935,16.896-32.517,34.995-32.517
			c7.479,0,14.685,2.408,21.792,4.904L359.924,334.547z"/>
		<path fill="#1D1D1B" d="M363.253,379.896h1.748c2.593,0,4.44,0,4.44-3.056V325.41c0-6.006-1.387-6.189-4.896-7.204v-1.478
			c3.692-1.199,7.571-2.86,9.51-3.975c1.011-0.551,1.754-1.02,2.026-1.02c0.56,0,0.748,0.559,0.748,1.299v63.808
			c0,3.056,2.029,3.056,4.618,3.056h1.561v2.4c-3.131,0-6.367-0.186-9.688-0.186c-3.322,0-6.648,0.091-10.067,0.186V379.896
			L363.253,379.896z"/>
		<path fill="#1D1D1B" d="M422.548,377.214c0,1.668,1.01,1.755,2.58,1.755c1.109,0,2.491-0.087,3.697-0.087v1.942
			c-3.978,0.367-11.549,2.307-13.304,2.859l-0.463-0.277v-7.479c-5.534,4.524-9.785,7.757-16.352,7.757
			c-4.987,0-10.155-3.231-10.155-10.986v-23.648c0-2.4-0.368-4.709-5.532-5.168v-1.758c3.325-0.092,10.7-0.645,11.906-0.645
			c1.023,0,1.023,0.645,1.023,2.678v23.822c0,2.773,0,10.715,8.028,10.715c3.14,0,7.296-2.401,11.171-5.627v-24.852
			c0-1.843-4.432-2.854-7.749-3.777v-1.666c8.302-0.556,13.48-1.293,14.403-1.293c0.743,0,0.743,0.645,0.743,1.666v34.069H422.548z"
			/>
		<path fill="#1D1D1B" d="M440.923,371.857c0,3.511,3.322,9.426,9.51,9.426c9.883,0,14.035-9.7,14.035-17.924
			c0-9.971-7.565-18.279-14.768-18.279c-3.429,0-6.286,2.221-8.777,4.345V371.857z M440.923,346.738
			c3.69-3.135,8.681-6.648,13.76-6.648c10.714,0,17.175,9.335,17.175,19.396c0,12.098-8.866,24.199-22.076,24.199
			c-6.826,0-10.428-2.218-12.834-3.232l-2.767,2.12l-1.932-1.013c0.815-5.449,1.287-10.808,1.287-16.44v-39.707
			c0-6.007-1.393-6.19-4.899-7.206v-1.479c3.702-1.197,7.573-2.859,9.514-3.973c1.017-0.551,1.752-1.018,2.035-1.018
			c0.555,0,0.737,0.558,0.737,1.296V346.738L440.923,346.738z"/>
	</g>
</g>
</svg>
