<?xml version="1.0" encoding="utf-8"?>
<!-- Generator: Adobe Illustrator 16.0.0, SVG Export Plug-In . SVG Version: 6.00 Build 0)  -->
<!DOCTYPE svg PUBLIC "-//W3C//DTD SVG 1.1//EN" "http://www.w3.org/Graphics/SVG/1.1/DTD/svg11.dtd">
<svg version="1.1" id="Layer_1" xmlns="http://www.w3.org/2000/svg" xmlns:xlink="http://www.w3.org/1999/xlink" x="0px" y="0px"
	 width="24px" height="24px" viewBox="0 0 24 24" enable-background="new 0 0 24 24" xml:space="preserve">
<g id="Icons">
	<g>
		<path fill="#F9F9F9" d="M22.068,19.501H1.932c-0.842,0-1.525-0.683-1.525-1.525V6.001c0-0.842,0.683-1.525,1.525-1.525h20.137
			c0.843,0,1.525,0.683,1.525,1.525v11.974C23.594,18.818,22.911,19.501,22.068,19.501z"/>
		<path fill="#FF6F00" d="M23.421,13.078L23.421,13.078l-0.005,0.003l0,0L23.389,13.1c-0.054,0.034-0.105,0.067-0.156,0.1
			l-0.003,0.003c-0.051,0.032-0.103,0.066-0.151,0.098c-0.806,0.513-1.643,0.971-2.496,1.402c-1.974,0.998-4.016,1.83-6.108,2.541
			c-1.606,0.546-3.233,1.016-4.885,1.407c-0.851,0.199-1.708,0.373-2.563,0.551c-0.123,0.029-0.249,0.049-0.373,0.073L6.64,19.277
			l-1.344,0.306h16.778c0.837,0,1.52-0.68,1.52-1.52v-5.096L23.421,13.078z"/>
		
			<path fill="none" stroke="#303030" stroke-width="0.8" stroke-linecap="round" stroke-linejoin="round" stroke-miterlimit="10" d="
			M22.068,19.501H1.932c-0.842,0-1.525-0.683-1.525-1.525V6.001c0-0.842,0.683-1.525,1.525-1.525h20.137
			c0.843,0,1.525,0.683,1.525,1.525v11.974C23.594,18.818,22.911,19.501,22.068,19.501z"/>
		<path fill="#303030" d="M2.532,13.197c0-1.024,0-2.036,0-3.051c0.012-0.002,0.024-0.008,0.033-0.008
			c0.338,0.002,0.677-0.012,1.014,0.012c0.54,0.037,0.992,0.257,1.267,0.742c0.54,0.957-0.049,2.154-1.119,2.278
			c-0.269,0.031-0.542,0.021-0.814,0.027C2.789,13.199,2.665,13.197,2.532,13.197z M3.133,12.674c0.113,0,0.219,0.005,0.324-0.002
			c0.235-0.015,0.458-0.071,0.641-0.233c0.42-0.374,0.445-1.082,0.051-1.488c-0.283-0.292-0.645-0.298-1.016-0.29
			C3.133,11.334,3.133,12,3.133,12.674z"/>
		<path fill="#303030" d="M19.459,10.145c0.011-0.003,0.017-0.005,0.023-0.005c0.338,0.002,0.678,0,1.015,0.011
			c0.118,0.004,0.24,0.033,0.354,0.07c0.383,0.126,0.599,0.458,0.573,0.863c-0.015,0.231-0.074,0.442-0.247,0.608
			c-0.107,0.102-0.237,0.163-0.378,0.203c-0.019,0.005-0.04,0.011-0.069,0.019c0.319,0.427,0.636,0.849,0.96,1.285
			c-0.145,0-0.275,0-0.402,0c-0.09,0-0.182-0.003-0.27,0.001c-0.049,0.002-0.078-0.017-0.103-0.055
			c-0.251-0.374-0.5-0.747-0.75-1.122c-0.026-0.037-0.048-0.07-0.11-0.045c0,0.401,0,0.806,0,1.216c-0.202,0-0.397,0-0.596,0
			C19.459,12.176,19.459,11.163,19.459,10.145z M20.056,11.547c0.188,0,0.374,0.011,0.541-0.082
			c0.156-0.087,0.211-0.229,0.211-0.399c-0.003-0.165-0.065-0.295-0.216-0.373c-0.17-0.087-0.351-0.075-0.536-0.067
			C20.056,10.935,20.056,11.237,20.056,11.547z"/>
		<path fill="#303030" d="M17.376,10.142c0.562,0,1.119,0,1.681,0c0,0.173,0,0.341,0,0.517c-0.358,0-0.718,0-1.08,0
			c0,0.227,0,0.447,0,0.675c0.345,0,0.69,0,1.038,0c0,0.176,0,0.345,0,0.521c-0.345,0-0.69,0-1.038,0c0,0.275,0,0.544,0,0.822
			c0.361,0,0.719,0,1.083,0c0,0.175,0,0.342,0,0.517c-0.56,0-1.12,0-1.684,0C17.376,12.176,17.376,11.163,17.376,10.142z"/>
		<path fill="#303030" d="M8.148,10.432c-0.105,0.138-0.206,0.269-0.311,0.405c-0.115-0.122-0.234-0.22-0.399-0.24
			c-0.164-0.021-0.318,0.005-0.439,0.128c-0.13,0.132-0.116,0.328,0.042,0.426c0.104,0.064,0.225,0.109,0.338,0.161
			c0.173,0.082,0.352,0.152,0.518,0.248c0.239,0.135,0.347,0.356,0.358,0.63c0.014,0.362-0.095,0.667-0.395,0.885
			c-0.227,0.165-0.486,0.209-0.761,0.194c-0.417-0.024-0.724-0.23-0.946-0.563c0.123-0.132,0.243-0.26,0.359-0.384
			c0.075,0.087,0.134,0.172,0.212,0.24c0.172,0.15,0.375,0.198,0.596,0.142c0.224-0.056,0.359-0.273,0.312-0.485
			c-0.025-0.112-0.088-0.196-0.188-0.246c-0.112-0.056-0.229-0.099-0.345-0.147c-0.125-0.053-0.251-0.1-0.372-0.159
			c-0.386-0.192-0.504-0.527-0.394-0.942c0.091-0.348,0.41-0.592,0.804-0.629c0.372-0.033,0.7,0.075,0.987,0.313
			C8.132,10.411,8.137,10.42,8.148,10.432z"/>
		<path fill="#303030" d="M14.169,10.138c0.21,0,0.412-0.001,0.615,0.002c0.019,0,0.044,0.036,0.057,0.061
			c0.209,0.526,0.418,1.053,0.628,1.581c0.05,0.129,0.102,0.26,0.158,0.401c0.015-0.032,0.025-0.054,0.033-0.076
			c0.258-0.635,0.513-1.272,0.768-1.909c0.017-0.043,0.034-0.062,0.088-0.062c0.191,0.003,0.382,0.001,0.585,0.001
			c-0.011,0.03-0.019,0.054-0.029,0.077c-0.421,1-0.842,2-1.263,2.998c-0.019,0.049-0.043,0.065-0.092,0.063
			c-0.07-0.006-0.139,0.003-0.206-0.003c-0.025-0.003-0.058-0.021-0.067-0.043c-0.425-1.017-0.845-2.038-1.268-3.057
			C14.172,10.166,14.173,10.157,14.169,10.138z"/>
		<path fill="#303030" d="M10.804,10.95c-0.095-0.072-0.178-0.144-0.269-0.2c-0.355-0.217-0.812-0.166-1.132,0.118
			c-0.478,0.427-0.458,1.257,0.044,1.643c0.374,0.288,0.897,0.274,1.255-0.035c0.03-0.026,0.06-0.053,0.103-0.09
			c0,0.045,0,0.077,0,0.109c0,0.179-0.001,0.36,0,0.54c0,0.039-0.011,0.058-0.046,0.075c-0.729,0.351-1.625,0.111-2.06-0.56
			c-0.601-0.927-0.125-2.195,1.026-2.443c0.355-0.078,0.7-0.04,1.028,0.128c0.021,0.011,0.049,0.036,0.049,0.057
			C10.805,10.508,10.804,10.725,10.804,10.95z"/>
		<path fill="#FF6F00" d="M14.273,11.669c0.016,0.875-0.706,1.589-1.619,1.588c-0.919-0.002-1.624-0.686-1.62-1.606
			c0.006-0.87,0.72-1.555,1.62-1.561C13.572,10.085,14.287,10.805,14.273,11.669z"/>
		<path fill="#303030" d="M5.917,13.193c-0.199,0-0.391,0-0.59,0c0-1.018,0-2.031,0-3.05c0.196,0,0.391,0,0.59,0
			C5.917,11.158,5.917,12.172,5.917,13.193z"/>
	</g>
</g>
</svg>
