<?xml version="1.0" encoding="utf-8"?>
<!-- Generator: Adobe Illustrator 16.0.0, SVG Export Plug-In . SVG Version: 6.00 Build 0)  -->
<!DOCTYPE svg PUBLIC "-//W3C//DTD SVG 1.1//EN" "http://www.w3.org/Graphics/SVG/1.1/DTD/svg11.dtd">
<svg version="1.1" id="Layer_1" xmlns="http://www.w3.org/2000/svg" xmlns:xlink="http://www.w3.org/1999/xlink" x="0px" y="0px"
	 width="24px" height="24px" viewBox="0 0 24 24" enable-background="new 0 0 24 24" xml:space="preserve">
<g>
	<g>
		<g>
			<path id="SVGID_1_" fill="#FFFFFF" d="M0.032,5.642c0-0.616,0.506-1.122,1.122-1.122h21.693c0.618,0,1.121,0.506,1.121,1.122
				v12.716c0,0.617-0.503,1.124-1.121,1.124H1.154c-0.618,0-1.122-0.507-1.122-1.124V5.642z"/>
		</g>
		<g>
			<g>
				<defs>
					<path id="SVGID_2_" d="M0.032,5.642c0-0.616,0.506-1.122,1.122-1.122h21.693c0.618,0,1.121,0.506,1.121,1.122v12.716
						c0,0.617-0.503,1.124-1.121,1.124H1.154c-0.618,0-1.122-0.507-1.122-1.124V5.642z"/>
				</defs>
				<clipPath id="SVGID_3_">
					<use xlink:href="#SVGID_2_"  overflow="visible"/>
				</clipPath>
				<path clip-path="url(#SVGID_3_)" fill="#FFFFFF" stroke="#CBCBCB" stroke-width="2" stroke-miterlimit="10" d="M0.032,5.642
					c0-0.616,0.506-1.122,1.122-1.122h21.693c0.618,0,1.121,0.506,1.121,1.122v12.716c0,0.617-0.503,1.124-1.121,1.124H1.154
					c-0.618,0-1.122-0.507-1.122-1.124V5.642z"/>
			</g>
		</g>
	</g>
</g>
<g>
	<g>
		<g>
			<g>
				<defs>
					<path id="SVGID_4_" d="M16.354,12.539c0.017,0.906,0.063,1.846,0.017,2.784c-0.017,0.368-0.263,0.723-0.601,0.923
						c-0.262,0.17-0.568,0.186-0.908,0.199l-1.215-0.016V8.692c0.062-0.508,0.432-0.969,0.924-1.092
						c0.601-0.077,1.152-0.046,1.769-0.062l0.017,0.384v4.385l-0.017,0.016v0.216H16.354z"/>
				</defs>
				<clipPath id="SVGID_5_">
					<use xlink:href="#SVGID_4_"  overflow="visible"/>
				</clipPath>
				<rect x="12.893" y="6.785" clip-path="url(#SVGID_5_)" fill="#00A551" width="4.262" height="10.445"/>
			</g>
		</g>
	</g>
</g>
<g>
	<g>
		<g>
			<g>
				<defs>
					<path id="SVGID_6_" d="M7.615,12.246V8.6c0.077-0.416,0.416-0.8,0.8-0.938c0.6-0.185,1.277-0.077,1.892-0.077
						c0.016,0.6,0,1.338,0.016,1.846l0.015,4.754c-0.077,0.737,0.2,1.724-0.723,2.139c-0.569,0.292-1.354,0.107-2.015,0.169
						l-0.016-0.107v-4v-0.139L7.615,12.246L7.615,12.246z"/>
				</defs>
				<clipPath id="SVGID_7_">
					<use xlink:href="#SVGID_6_"  overflow="visible"/>
				</clipPath>
				<rect x="6.815" y="6.769" clip-path="url(#SVGID_7_)" fill="#0071BB" width="4.292" height="10.477"/>
			</g>
		</g>
	</g>
</g>
<g>
	<g>
		<g>
			<g>
				<defs>
					<path id="SVGID_8_" d="M7.615,12.385c0.246,0.322,0.569,0.555,0.985,0.568c0.492,0.047,1.154,0.078,1.492-0.385
						c0.231-0.245,0.077-0.568,0.139-0.907l-0.016-0.569c-0.292-0.062-0.554,0-0.877-0.015c-0.169,0.615,0.262,1.308-0.431,1.646
						c-0.169,0.047-0.416,0.017-0.569-0.076c-0.261-0.063-0.123-0.493-0.492-0.384l-0.2-0.016v0.169H7.615V12.385z"/>
				</defs>
				<clipPath id="SVGID_9_">
					<use xlink:href="#SVGID_8_"  overflow="visible"/>
				</clipPath>
				<rect x="6.846" y="10.308" clip-path="url(#SVGID_9_)" fill="#FFFFFF" width="4.169" height="3.461"/>
			</g>
		</g>
	</g>
</g>
<g>
	<g>
		<g>
			<g>
				<defs>
					<path id="SVGID_10_" d="M13.338,8.062l0.016,7.399c-0.106,0.354-0.385,0.739-0.754,0.862c-0.569,0.2-1.292,0.106-1.923,0.106
						l-0.015-7.8c0.015-0.369,0.261-0.677,0.6-0.877c0.23-0.139,0.492-0.2,0.8-0.2h1.292L13.338,8.062L13.338,8.062z"/>
				</defs>
				<clipPath id="SVGID_11_">
					<use xlink:href="#SVGID_10_"  overflow="visible"/>
				</clipPath>
				<rect x="9.877" y="6.785" clip-path="url(#SVGID_11_)" fill="#EC1C24" width="4.246" height="10.445"/>
			</g>
		</g>
	</g>
</g>
<g>
	<g>
		<g>
			<g>
				<defs>
					<path id="SVGID_12_" d="M13.215,11.123c0.016,0.077,0,0.169,0.016,0.262c-0.444-0.123-1.029-0.262-1.431,0.077
						c-0.138,0.185-0.246,0.369-0.23,0.616c0.046,0.261,0.2,0.538,0.477,0.63c0.385,0.123,0.801,0.017,1.169-0.076
						c0.017,0.076,0.017,0.185,0,0.246h-1.753c-0.308-0.062-0.554-0.229-0.677-0.539c-0.123-0.292-0.062-0.677,0.138-0.923
						c0.185-0.2,0.431-0.323,0.739-0.323L13.215,11.123z"/>
				</defs>
				<clipPath id="SVGID_13_">
					<use xlink:href="#SVGID_12_"  overflow="visible"/>
				</clipPath>
				<rect x="9.954" y="10.323" clip-path="url(#SVGID_13_)" fill="#FFFFFF" width="4.046" height="3.323"/>
			</g>
		</g>
	</g>
</g>
<g>
	<g>
		<g>
			<g>
				<defs>
					<path id="SVGID_14_" d="M15.338,12.123c-0.292-0.046-0.568-0.015-0.846-0.015c-0.016,0.23,0,0.416,0.016,0.615
						c0.309,0,0.631,0.047,0.908-0.076c0.076-0.076,0.123-0.199,0.076-0.308C15.523,12.246,15.445,12.169,15.338,12.123z
						 M14.523,11.277c-0.047,0.169-0.047,0.385-0.017,0.569c0.322-0.016,0.738,0.107,0.938-0.139
						c0.076-0.077,0.015-0.246-0.016-0.323C15.2,11.2,14.83,11.323,14.523,11.277z M16.354,12.539
						c-0.045,0.184-0.199,0.354-0.385,0.384h-2.123l-0.076-0.015c0-0.616-0.016-1.185,0.017-1.785h1.354
						c0.43,0.046,0.906-0.139,1.092,0.262c0.063,0.138,0.047,0.323-0.062,0.431c-0.063,0.107-0.2,0.123-0.231,0.2
						c0.17,0.046,0.354,0.185,0.416,0.354v0.169H16.354z"/>
				</defs>
				<clipPath id="SVGID_15_">
					<use xlink:href="#SVGID_14_"  overflow="visible"/>
				</clipPath>
				<rect x="12.984" y="10.338" clip-path="url(#SVGID_15_)" fill="#FFFFFF" width="4.123" height="3.354"/>
			</g>
		</g>
	</g>
</g>
</svg>
