<?xml version="1.0" encoding="utf-8"?>
<!-- Generator: Adobe Illustrator 16.0.0, SVG Export Plug-In . SVG Version: 6.00 Build 0)  -->
<!DOCTYPE svg PUBLIC "-//W3C//DTD SVG 1.1//EN" "http://www.w3.org/Graphics/SVG/1.1/DTD/svg11.dtd">
<svg version="1.1" id="Layer_1" xmlns="http://www.w3.org/2000/svg" xmlns:xlink="http://www.w3.org/1999/xlink" x="0px" y="0px"
	 width="24px" height="24px" viewBox="0 0 24 24" enable-background="new 0 0 24 24" xml:space="preserve">
<g id="Icons">
	<g>
		<path fill="#F9F9F9" d="M22.048,19.5H1.917c-0.845,0-1.528-0.682-1.528-1.527V6.004c0-0.844,0.686-1.528,1.528-1.528h20.131
			c0.842,0,1.527,0.684,1.527,1.528v11.967C23.575,18.818,22.891,19.5,22.048,19.5z"/>
		<circle fill="#FFC601" cx="15.363" cy="12.039" r="4.943"/>
		<circle fill="#F43735" cx="8.708" cy="12.039" r="4.943"/>
		
			<path fill="none" stroke="#303030" stroke-width="0.8" stroke-linecap="round" stroke-linejoin="round" stroke-miterlimit="10" d="
			M22.048,19.5H1.917c-0.845,0-1.528-0.682-1.528-1.527V6.004c0-0.844,0.686-1.528,1.528-1.528h20.131
			c0.842,0,1.527,0.684,1.527,1.528v11.967C23.575,18.818,22.891,19.5,22.048,19.5z"/>
		<path fill="#FFFFFF" d="M5.691,11.333c-0.091,0.53-0.183,1.06-0.276,1.597c-0.148,0-0.295,0-0.454,0
			c0.125-0.742,0.25-1.478,0.376-2.221c0.226,0,0.45,0,0.703,0c0,0.432,0,0.864,0,1.295c0.012,0,0.026,0.002,0.039,0.003
			c0.083-0.243,0.166-0.486,0.249-0.729c0.058-0.167,0.113-0.336,0.174-0.501c0.011-0.031,0.049-0.072,0.077-0.072
			c0.224-0.006,0.448-0.003,0.694-0.003c-0.125,0.748-0.248,1.483-0.372,2.228c-0.16,0-0.315,0-0.483,0
			c0.083-0.522,0.166-1.041,0.248-1.559c-0.007-0.002-0.013-0.003-0.02-0.005c-0.017,0.043-0.035,0.085-0.052,0.128
			c-0.162,0.447-0.326,0.894-0.485,1.344c-0.029,0.081-0.066,0.107-0.149,0.1c-0.065-0.006-0.131,0-0.213,0
			c-0.014-0.539-0.03-1.068-0.044-1.598C5.702,11.336,5.696,11.335,5.691,11.333z"/>
		<path fill="#FFFFFF" d="M18.431,11.314c0.031-0.208,0.065-0.404,0.1-0.608c0.153,0,0.307,0,0.47,0
			c-0.033,0.22-0.069,0.439-0.104,0.659c-0.082,0.491-0.162,0.983-0.238,1.474c-0.014,0.072-0.041,0.092-0.107,0.09
			c-0.117-0.007-0.236-0.004-0.36-0.004c0-0.051,0-0.092,0-0.136c-0.081,0.042-0.148,0.093-0.227,0.122
			c-0.309,0.118-0.614-0.023-0.726-0.351c-0.148-0.449-0.063-0.866,0.236-1.226C17.744,11.01,18.073,11.006,18.431,11.314z
			 M18.309,11.909c-0.008-0.064-0.011-0.133-0.03-0.195c-0.051-0.183-0.237-0.252-0.39-0.138c-0.059,0.044-0.109,0.11-0.144,0.176
			c-0.08,0.156-0.094,0.322-0.072,0.495c0.017,0.111,0.058,0.207,0.177,0.244c0.113,0.035,0.235-0.012,0.315-0.123
			C18.267,12.23,18.303,12.076,18.309,11.909z"/>
		<path fill="#FFFFFF" d="M8.116,11.787c0.058-0.176,0.004-0.271-0.171-0.271c-0.201,0-0.402,0.023-0.607,0.039
			c0.009-0.051,0.02-0.119,0.031-0.188c0.035-0.204,0.033-0.216,0.237-0.245c0.184-0.025,0.375-0.043,0.56-0.021
			c0.297,0.033,0.471,0.278,0.433,0.577c-0.051,0.403-0.11,0.805-0.167,1.205c-0.004,0.028-0.036,0.075-0.057,0.075
			c-0.116,0.008-0.233,0.003-0.357,0.003c0-0.055,0-0.099,0-0.129c-0.115,0.051-0.227,0.123-0.346,0.151
			c-0.301,0.073-0.534-0.101-0.568-0.408c-0.048-0.451,0.229-0.756,0.72-0.788C7.919,11.781,8.019,11.787,8.116,11.787z
			 M8.064,12.168c-0.17-0.029-0.313-0.008-0.407,0.056c-0.112,0.077-0.147,0.244-0.07,0.341c0.071,0.093,0.232,0.09,0.333-0.011
			C8.024,12.448,8.063,12.318,8.064,12.168z"/>
		<path fill="#FFFFFF" d="M15.821,11.784c0.043-0.196-0.003-0.27-0.187-0.272c-0.195-0.001-0.387,0.025-0.595,0.039
			c0.016-0.1,0.029-0.222,0.056-0.342c0.005-0.021,0.039-0.042,0.064-0.051c0.229-0.074,0.465-0.112,0.71-0.065
			c0.291,0.058,0.468,0.292,0.427,0.588c-0.057,0.421-0.117,0.84-0.179,1.27c-0.133,0-0.262,0-0.398,0c0-0.047,0-0.092,0-0.152
			c-0.041,0.033-0.074,0.061-0.109,0.084c-0.181,0.134-0.438,0.154-0.605,0.047c-0.203-0.131-0.225-0.336-0.202-0.548
			c0.042-0.356,0.31-0.573,0.715-0.597C15.617,11.78,15.717,11.784,15.821,11.784z M15.77,12.161
			c-0.149-0.019-0.283-0.018-0.406,0.058c-0.088,0.057-0.131,0.145-0.106,0.245c0.016,0.057,0.061,0.125,0.11,0.147
			c0.092,0.041,0.186,0.01,0.26-0.066C15.727,12.441,15.759,12.312,15.77,12.161z"/>
		<path fill="#FFFFFF" d="M11.227,12.21c-0.028,0.179,0.048,0.299,0.217,0.348c0.184,0.053,0.365,0.021,0.545-0.032
			c0.046-0.014,0.091-0.028,0.155-0.05c-0.027,0.148-0.05,0.286-0.078,0.421c-0.005,0.021-0.041,0.041-0.065,0.049
			c-0.24,0.063-0.482,0.081-0.723,0.02c-0.292-0.076-0.462-0.27-0.514-0.563c-0.066-0.389,0.008-0.75,0.268-1.059
			c0.165-0.197,0.377-0.293,0.637-0.262c0.408,0.05,0.63,0.365,0.573,0.806c-0.041,0.314-0.041,0.314-0.356,0.314
			c-0.21,0-0.421,0-0.631,0.002C11.247,12.203,11.24,12.206,11.227,12.21z M11.263,11.823c0.161,0,0.317,0.002,0.469-0.001
			c0.022,0,0.057-0.024,0.062-0.041c0.043-0.132-0.067-0.283-0.206-0.29C11.413,11.481,11.29,11.604,11.263,11.823z"/>
		<path fill="#FFFFFF" d="M14.927,10.774c-0.025,0.161-0.049,0.317-0.074,0.48c-0.1-0.033-0.193-0.074-0.291-0.097
			c-0.243-0.058-0.452,0.022-0.59,0.229c-0.168,0.252-0.212,0.534-0.144,0.826c0.059,0.255,0.285,0.384,0.541,0.328
			c0.098-0.021,0.189-0.057,0.292-0.087c-0.024,0.157-0.046,0.311-0.076,0.462c-0.002,0.022-0.034,0.051-0.057,0.053
			c-0.165,0.021-0.333,0.058-0.491,0.04c-0.368-0.036-0.595-0.254-0.679-0.614c-0.087-0.376-0.053-0.744,0.105-1.093
			C13.729,10.712,14.301,10.506,14.927,10.774z"/>
		<path fill="#FFFFFF" d="M9.845,11.117c-0.021,0.142-0.038,0.266-0.057,0.404c-0.1-0.004-0.194-0.01-0.289-0.014
			c-0.174-0.007-0.265,0.03-0.281,0.117c-0.024,0.145,0.099,0.179,0.192,0.217c0.258,0.109,0.418,0.288,0.334,0.705
			c-0.042,0.201-0.173,0.323-0.367,0.376c-0.273,0.069-0.547,0.041-0.834-0.013c0.021-0.14,0.041-0.267,0.059-0.391
			c0.165,0.015,0.319,0.032,0.476,0.042c0.046,0.003,0.098-0.009,0.14-0.027c0.103-0.044,0.122-0.163,0.035-0.232
			c-0.063-0.05-0.137-0.085-0.208-0.123c-0.261-0.141-0.358-0.335-0.311-0.611c0.048-0.27,0.212-0.425,0.498-0.472
			C9.436,11.061,9.636,11.077,9.845,11.117z"/>
		<path fill="#FFFFFF" d="M10.12,10.856c0.165,0,0.312,0,0.467,0c-0.013,0.088-0.025,0.172-0.038,0.261
			c0.076,0.004,0.145,0.006,0.226,0.011c-0.018,0.144-0.036,0.282-0.056,0.429c-0.081,0-0.156,0-0.245,0
			c-0.029,0.174-0.059,0.339-0.085,0.504c-0.014,0.087-0.028,0.174-0.042,0.262c-0.027,0.16,0.026,0.218,0.189,0.21
			c0.025-0.001,0.052-0.003,0.09-0.007c-0.017,0.12-0.031,0.236-0.05,0.35c-0.002,0.021-0.029,0.05-0.046,0.051
			c-0.139,0.02-0.279,0.048-0.415,0.034c-0.164-0.017-0.266-0.149-0.259-0.333c0.009-0.206,0.037-0.41,0.069-0.614
			C9.986,11.629,10.054,11.245,10.12,10.856z"/>
		<path fill="#FFFFFF" d="M16.729,12.947c-0.166,0-0.326,0-0.488,0c0.1-0.609,0.197-1.213,0.297-1.821c0.148,0,0.289,0,0.441,0
			c-0.008,0.072-0.02,0.142-0.03,0.231c0.127-0.141,0.236-0.289,0.442-0.257c-0.058,0.18-0.113,0.358-0.17,0.536
			c-0.159,0.006-0.227,0.041-0.272,0.211c-0.064,0.245-0.108,0.496-0.157,0.746C16.768,12.711,16.748,12.832,16.729,12.947z"/>
		<path fill="#FFFFFF" d="M12.717,12.951c-0.167,0-0.322,0-0.488,0c0.037-0.236,0.072-0.468,0.111-0.698
			c0.057-0.349,0.117-0.698,0.172-1.048c0.01-0.063,0.029-0.088,0.098-0.087c0.116,0.004,0.233,0.001,0.359,0.001
			c-0.012,0.08-0.021,0.148-0.033,0.239c0.13-0.143,0.236-0.291,0.444-0.257c-0.057,0.181-0.113,0.359-0.171,0.536
			c-0.154,0.002-0.225,0.039-0.268,0.202c-0.066,0.25-0.111,0.504-0.161,0.756C12.756,12.711,12.738,12.826,12.717,12.951z"/>
		<path fill="#FFFFFF" d="M4.265,13.519h0.083c-0.018-0.051-0.04-0.104-0.057-0.154L4.265,13.519z"/>
		<g>
			
				<path fill="none" stroke="#303030" stroke-width="0.8" stroke-linecap="round" stroke-linejoin="round" stroke-miterlimit="10" d="
				M13.16,9.904c-0.283-0.609-0.691-1.149-1.189-1.585c-0.873-0.782-2.008-1.246-3.26-1.246c-2.721,0-4.915,2.201-4.915,4.913
				c0,2.714,2.194,4.915,4.915,4.915c1.252,0,2.387-0.465,3.26-1.247c0.47-0.408,0.857-0.912,1.135-1.479"/>
			
				<path fill="none" stroke="#303030" stroke-width="0.8" stroke-linecap="round" stroke-linejoin="round" stroke-miterlimit="10" d="
				M10.781,9.904c0.284-0.609,0.691-1.149,1.19-1.585c0.871-0.782,2.005-1.246,3.261-1.246c2.711,0,4.912,2.201,4.912,4.913
				c0,2.714-2.201,4.915-4.912,4.915c-1.256,0-2.391-0.465-3.261-1.247c-0.471-0.408-0.858-0.912-1.142-1.479"/>
		</g>
	</g>
</g>
</svg>
