<?xml version="1.0" encoding="utf-8"?>
<!-- Generator: Adobe Illustrator 16.0.0, SVG Export Plug-In . SVG Version: 6.00 Build 0)  -->
<!DOCTYPE svg PUBLIC "-//W3C//DTD SVG 1.1//EN" "http://www.w3.org/Graphics/SVG/1.1/DTD/svg11.dtd">
<svg version="1.1" id="Layer_1" xmlns="http://www.w3.org/2000/svg" xmlns:xlink="http://www.w3.org/1999/xlink" x="0px" y="0px"
	 width="18px" height="18px" viewBox="0 0 18 18" enable-background="new 0 0 18 18" xml:space="preserve">
<path fill="#81828E" d="M0.235,10.139c-0.138-0.138-0.207-0.346-0.207-0.483s0.069-0.344,0.207-0.483l0.966-0.966
	c0.277-0.276,0.69-0.276,0.966,0l0.069,0.069l3.796,3.174c0.139,0.139,0.344,0.139,0.484,0l9.25-8.695h0.067l0,0
	c0.275-0.276,0.69-0.276,0.965,0l0.967,0.966c0.277,0.276,0.277,0.69,0,0.967l0,0L6.722,15.246
	c-0.139,0.139-0.277,0.206-0.484,0.206c-0.207,0-0.346-0.068-0.483-0.206l-5.383-4.9L0.235,10.139L0.235,10.139z"/>
</svg>
