<?xml version="1.0" encoding="utf-8"?>
<!-- Generator: Adobe Illustrator 16.0.0, SVG Export Plug-In . SVG Version: 6.00 Build 0)  -->
<!DOCTYPE svg PUBLIC "-//W3C//DTD SVG 1.1//EN" "http://www.w3.org/Graphics/SVG/1.1/DTD/svg11.dtd">
<svg version="1.1" id="Layer_1" xmlns="http://www.w3.org/2000/svg" xmlns:xlink="http://www.w3.org/1999/xlink" x="0px" y="0px"
	 width="18px" height="18px" viewBox="0 0 24 24" enable-background="new 0 0 24 24" xml:space="preserve">
<path fill="#FFFFFF" d="M0.313,13.518c-0.184-0.183-0.276-0.46-0.276-0.644c0-0.183,0.092-0.459,0.276-0.644l1.288-1.288
	c0.369-0.368,0.92-0.368,1.288,0l0.092,0.092l5.062,4.232c0.185,0.185,0.459,0.185,0.645,0L21.02,3.672h0.091l0,0
	c0.367-0.368,0.921-0.368,1.286,0l1.289,1.288c0.37,0.368,0.37,0.92,0,1.289l0,0L8.963,20.328c-0.185,0.185-0.369,0.275-0.645,0.275
	s-0.461-0.091-0.645-0.275l-7.177-6.534L0.313,13.518L0.313,13.518z"/>
</svg>
