<?xml version="1.0" encoding="UTF-8"?>
<!-- Generator: Adobe Illustrator 16.0.0, SVG Export Plug-In . SVG Version: 6.00 Build 0)  -->
<!DOCTYPE svg PUBLIC "-//W3C//DTD SVG 1.1//EN" "http://www.w3.org/Graphics/SVG/1.1/DTD/svg11.dtd">
<svg version="1.1" id="Layer_1" xmlns="http://www.w3.org/2000/svg" xmlns:xlink="http://www.w3.org/1999/xlink" x="0px" y="0px" width="600px" height="600px" viewBox="0 0 600 600" enable-background="new 0 0 600 600" xml:space="preserve">
<path fill="#41C363" d="M6.923,323.077C2.308,318.461,0,311.539,0,306.923c0-4.615,2.308-11.538,6.923-16.154l32.308-32.308  c9.23-9.23,23.077-9.23,32.308,0l2.308,2.308l126.923,106.154c4.616,4.615,11.539,4.615,16.154,0L526.154,76.154h2.308l0,0  c9.23-9.231,23.076-9.231,32.308,0l32.308,32.308c9.23,9.231,9.23,23.077,0,32.308l0,0L223.846,493.846  c-4.615,4.616-9.231,6.924-16.154,6.924c-6.923,0-11.539-2.308-16.154-6.924L11.539,330L6.923,323.077L6.923,323.077z"/>
</svg>