<?xml version="1.0" encoding="utf-8"?>
<!-- Generator: Adobe Illustrator 16.0.3, SVG Export Plug-In . SVG Version: 6.00 Build 0)  -->
<!DOCTYPE svg PUBLIC "-//W3C//DTD SVG 1.1//EN" "http://www.w3.org/Graphics/SVG/1.1/DTD/svg11.dtd">
<svg version="1.1" id="Layer_1" xmlns="http://www.w3.org/2000/svg" xmlns:xlink="http://www.w3.org/1999/xlink" x="0px" y="0px"
	 width="24px" height="24px" viewBox="0 0 24 24" enable-background="new 0 0 24 24" xml:space="preserve">
<g>
	<g>
		<g>
			<path id="SVGID_1_" fill="#FFFFFF" d="M-3.039,4.01c0-0.775,0.635-1.41,1.41-1.41h27.258c0.775,0,1.409,0.635,1.409,1.41v15.979
				c0,0.775-0.634,1.411-1.409,1.411H-1.629c-0.775,0-1.41-0.636-1.41-1.411V4.01z"/>
		</g>
		<g>
			<defs>
				<path id="SVGID_2_" d="M-3.039,4.01c0-0.775,0.635-1.41,1.41-1.41h27.258c0.775,0,1.409,0.635,1.409,1.41v15.979
					c0,0.775-0.634,1.411-1.409,1.411H-1.629c-0.775,0-1.41-0.636-1.41-1.411V4.01z"/>
			</defs>
			<clipPath id="SVGID_3_">
				<use xlink:href="#SVGID_2_"  overflow="visible"/>
			</clipPath>
			<path clip-path="url(#SVGID_3_)" fill="#FFFFFF" stroke="#CBCBCB" stroke-width="2" stroke-miterlimit="10" d="M-3.039,4.01
				c0-0.775,0.635-1.41,1.41-1.41h27.258c0.775,0,1.409,0.635,1.409,1.41v15.979c0,0.775-0.634,1.411-1.409,1.411H-1.629
				c-0.775,0-1.41-0.636-1.41-1.411V4.01z"/>
		</g>
	</g>
</g>
<path fill="#E4363A" d="M11.465,5.282c-0.208-0.123-0.434-0.153-0.671-0.153c-1.745,0-3.49,0-5.236,0.001
	c-0.147,0-0.295,0.015-0.441,0.024C5.062,5.225,4.972,5.217,4.9,5.247C4.324,5.492,3.94,5.91,3.789,6.517
	c-0.091,0.361-0.903,3.854-1.56,6.679c0.294,2.078,1.213,3.957,2.561,5.439c0.942-0.003,1.884-0.002,2.826,0.013
	c0.837,0.011,1.639-0.641,1.815-1.444c0.326-1.465,0.678-2.924,1.017-4.387c0.494-2.108,0.984-4.215,1.477-6.323
	C12.043,5.986,11.867,5.521,11.465,5.282z"/>
<path fill="#E4363A" d="M1.691,18.494c0.207,0.124,0.435,0.154,0.671,0.154c1.745,0,3.49,0,5.236-0.001
	c0.147-0.003,0.295-0.017,0.442-0.023c0.052-0.072,0.144-0.064,0.215-0.096c0.576-0.245,0.96-0.662,1.113-1.269
	c0.088-0.362,0.904-3.854,1.558-6.682C10.631,8.5,9.712,6.622,8.365,5.141C7.422,5.143,6.481,5.142,5.539,5.129
	C4.702,5.117,3.9,5.769,3.723,6.572c-0.324,1.465-0.676,2.924-1.018,4.387c-0.492,2.108-0.984,4.215-1.476,6.322
	C1.111,17.79,1.29,18.256,1.691,18.494z"/>
<path fill="#004A87" d="M8.672,6.517c0.152-0.608,0.536-1.025,1.113-1.27C9.856,5.217,9.946,5.225,10,5.154
	c0.147-0.009,0.294-0.024,0.442-0.024c1.745-0.001,3.49-0.001,5.237-0.001c0.234,0,0.462,0.03,0.67,0.153
	c0.401,0.239,0.579,0.705,0.46,1.213c-0.491,2.108-0.981,4.215-1.475,6.323c-0.342,1.46-0.695,2.922-1.018,4.387
	c-0.179,0.804-0.979,1.455-1.815,1.444c-1.716-0.024-3.433-0.008-5.149-0.01c-0.15,0-0.304-0.013-0.456-0.021
	c-0.027-0.043-0.08-0.048-0.122-0.059c-0.344-0.091-0.639-0.567-0.639-0.874c0-0.291,0.062-0.564,0.129-0.845
	C6.267,16.843,8.52,7.133,8.672,6.517z"/>
<path fill="#008286" d="M14.675,6.517c0.152-0.608,0.536-1.025,1.113-1.27c0.07-0.03,0.161-0.022,0.214-0.093
	c0.147-0.009,0.295-0.024,0.444-0.024c1.744-0.001,3.489-0.001,5.234-0.001c0.235,0,0.465,0.03,0.671,0.153
	c0.401,0.239,0.581,0.705,0.462,1.213c-0.492,2.108-0.982,4.215-1.477,6.323c-0.339,1.46-0.694,2.922-1.017,4.387
	c-0.178,0.804-0.98,1.455-1.816,1.444c-1.715-0.024-3.433-0.008-5.147-0.01c-0.152,0-0.303-0.013-0.456-0.021
	c-0.029-0.043-0.079-0.048-0.122-0.059c-0.345-0.091-0.639-0.567-0.639-0.874c0-0.291,0.063-0.564,0.13-0.845
	C12.269,16.843,14.522,7.133,14.675,6.517z"/>
<g>
	<path fill="#FFFFFF" d="M15.378,11.376c-0.139,0-0.28,0.003-0.418,0c-0.06-0.002-0.083,0.016-0.097,0.076
		c-0.065,0.346-0.14,0.689-0.207,1.036c-0.012,0.064-0.035,0.088-0.104,0.085c-0.165-0.008-0.329-0.008-0.495,0
		c-0.081,0.003-0.102-0.016-0.085-0.099c0.105-0.496,0.207-0.992,0.31-1.49c0.111-0.543,0.226-1.086,0.335-1.631
		c0.013-0.067,0.037-0.086,0.103-0.085c0.469,0.003,0.937,0.001,1.401,0.001c0.114,0,0.223,0.014,0.332,0.041
		c0.307,0.075,0.49,0.275,0.518,0.591c0.048,0.543-0.207,1.143-0.811,1.387c-0.158,0.064-0.324,0.088-0.494,0.088
		C15.57,11.376,15.474,11.376,15.378,11.376z M15.409,10.801c0.087,0,0.172,0,0.257,0c0.348-0.002,0.54-0.171,0.598-0.517
		c0.04-0.267-0.045-0.399-0.308-0.434c-0.235-0.032-0.478-0.011-0.715-0.014c-0.035,0-0.047,0.02-0.052,0.053
		c-0.056,0.282-0.113,0.566-0.175,0.849c-0.013,0.055,0.001,0.064,0.052,0.064C15.181,10.799,15.295,10.801,15.409,10.801z"/>
	<path fill="#FFFFFF" d="M20.043,11.874c0.04-0.03,0.044-0.062,0.055-0.091c0.17-0.393,0.34-0.786,0.506-1.179
		c0.024-0.057,0.051-0.075,0.112-0.074c0.142,0.004,0.287,0.004,0.429,0c0.077-0.003,0.083,0.017,0.052,0.083
		c-0.361,0.725-0.718,1.449-1.076,2.176c-0.153,0.313-0.304,0.629-0.522,0.905c-0.191,0.238-0.411,0.433-0.728,0.486
		c-0.101,0.017-0.204,0.041-0.308,0.014c0.012-0.098,0.021-0.193,0.033-0.292c0.003-0.023,0.012-0.045,0.038-0.059
		c0.279-0.108,0.444-0.331,0.589-0.573c0.102-0.16,0.177-0.329,0.262-0.497c0.016-0.038,0.015-0.073,0.01-0.112
		c-0.055-0.677-0.107-1.355-0.167-2.034c-0.005-0.073,0.017-0.093,0.085-0.092c0.167,0.003,0.331,0.002,0.498-0.004
		c0.08-0.005,0.107,0.017,0.108,0.103C20.022,11.043,20.034,11.452,20.043,11.874z"/>
	<path fill="#FFFFFF" d="M17.907,12.555c-0.032,0-0.066,0-0.083-0.033c-0.045-0.082-0.101-0.065-0.174-0.035
		c-0.139,0.057-0.284,0.096-0.434,0.1c-0.308,0.008-0.515-0.158-0.553-0.461c-0.055-0.455,0.071-0.866,0.359-1.217
		c0.25-0.306,0.688-0.344,1.02-0.103c0.061,0.043,0.105,0.059,0.162,0.002c0.022-0.024,0.081-0.083,0.109-0.113
		c0.014-0.013,0.028-0.02,0.044-0.02c0.102-0.005,0.461-0.017,0.479-0.017c0.083-0.003,0.076,0.029,0.048,0.156
		c-0.124,0.561-0.251,1.121-0.371,1.682c-0.011,0.059-0.032,0.08-0.091,0.077C18.335,12.566,17.992,12.555,17.907,12.555z
		 M18.046,11.467c-0.003-0.082-0.013-0.163-0.048-0.24c-0.069-0.135-0.189-0.178-0.327-0.115c-0.045,0.022-0.088,0.052-0.122,0.087
		c-0.194,0.201-0.277,0.443-0.255,0.721c0.003,0.057,0.021,0.111,0.051,0.162c0.065,0.116,0.177,0.155,0.3,0.106
		c0.063-0.025,0.115-0.066,0.161-0.116C17.96,11.903,18.033,11.697,18.046,11.467z"/>
	<path fill="#FFFFFF" d="M10.754,10.482c0.421-0.005,0.716,0.204,0.801,0.573c0.155,0.664-0.305,1.401-0.965,1.543
		c-0.222,0.048-0.444,0.042-0.653-0.054c-0.232-0.104-0.371-0.288-0.406-0.539c-0.057-0.427,0.109-1.069,0.64-1.373
		C10.351,10.529,10.548,10.485,10.754,10.482z M10.055,11.727c0,0.263,0.09,0.407,0.265,0.438c0.212,0.038,0.401-0.018,0.527-0.202
		c0.151-0.22,0.211-0.467,0.184-0.733c-0.017-0.173-0.142-0.287-0.317-0.299c-0.208-0.015-0.372,0.065-0.484,0.242
		C10.114,11.354,10.067,11.557,10.055,11.727z"/>
	<path fill="#FFFFFF" d="M13.342,10.487c-0.297-0.026-0.54,0.076-0.75,0.3c0.01-0.061,0.016-0.125,0.034-0.184
		c0.02-0.065-0.007-0.075-0.064-0.074c-0.116,0.004-0.235,0.004-0.352,0c-0.061-0.003-0.08,0.019-0.092,0.076
		c-0.044,0.227-0.304,1.514-0.383,1.897c-0.012,0.058,0.002,0.071,0.057,0.07h0.372c0.067,0.003,0.088-0.022,0.097-0.083
		c0.028-0.151,0.205-1.029,0.242-1.169c0.063-0.258,0.267-0.401,0.517-0.392c0.165,0.006,0.251,0.098,0.24,0.264
		c-0.005,0.054-0.015,0.108-0.025,0.161c-0.074,0.382-0.15,0.765-0.229,1.149c-0.014,0.058,0.001,0.071,0.057,0.07h0.371
		c0.067,0.003,0.089-0.022,0.098-0.083c0.029-0.151,0.057-0.299,0.088-0.449c0.062-0.331,0.146-0.657,0.188-0.992
		C13.847,10.733,13.658,10.515,13.342,10.487z"/>
	<path fill="#FFFFFF" d="M7.121,10.938c-0.243,0.036-0.376,0.19-0.428,0.416c-0.077,0.333-0.137,0.671-0.202,1.007
		c-0.042,0.21-0.041,0.21-0.255,0.21c-0.076,0-0.152-0.005-0.229,0.002c-0.065,0.004-0.08-0.019-0.065-0.08
		c0.084-0.417,0.167-0.835,0.251-1.251c0.042-0.208,0.085-0.416,0.124-0.625c0.011-0.062,0.027-0.094,0.101-0.088
		c0.119,0.007,0.241,0.003,0.363,0.001c0.048-0.001,0.06,0.016,0.049,0.061c-0.013,0.064-0.026,0.13-0.031,0.203
		c0.035-0.038,0.069-0.073,0.107-0.104c0.175-0.148,0.404-0.222,0.633-0.204c0.03,0.002,0.059,0.007,0.09,0.014
		c0.274,0.059,0.424,0.277,0.376,0.569c-0.054,0.329-0.125,0.654-0.189,0.981c-0.028,0.147-0.061,0.292-0.086,0.439
		c-0.01,0.058-0.026,0.087-0.096,0.084c-0.12-0.008-0.241-0.007-0.36,0c-0.061,0.001-0.08-0.008-0.066-0.078
		c0.085-0.41,0.166-0.82,0.242-1.231C7.497,11.015,7.375,10.898,7.121,10.938z"/>
	<path fill="#FFFFFF" d="M8.319,12.57c-0.038,0-0.066-0.033-0.059-0.072c0.081-0.38,0.162-0.753,0.241-1.126
		c0.055-0.251,0.11-0.501,0.163-0.754c0.012-0.063,0.031-0.092,0.102-0.088l0.4,0.001c0.059-0.001,0.075,0.01,0.06,0.075
		c-0.137,0.631-0.275,1.266-0.41,1.898c-0.007,0.035-0.007,0.069-0.061,0.069C8.611,12.57,8.468,12.57,8.319,12.57z"/>
	<path fill="#FFFFFF" d="M9.364,9.789C9.294,9.791,9.225,9.79,9.156,9.79l0,0c-0.018,0-0.037,0-0.052,0c-0.005,0-0.012,0-0.018,0
		l0,0c-0.061,0-0.118,0-0.173-0.001c-0.037,0-0.061,0.008-0.068,0.048c-0.026,0.13-0.053,0.26-0.081,0.39
		c-0.009,0.042,0.001,0.057,0.045,0.057c0.069-0.002,0.139-0.001,0.207-0.001l0,0c0.017,0,0.037,0,0.054,0c0.005,0,0.01,0,0.017,0
		l0,0c0.062,0,0.116,0,0.174,0.001c0.035,0,0.059-0.008,0.065-0.048c0.028-0.13,0.054-0.261,0.081-0.39
		C9.418,9.803,9.407,9.788,9.364,9.789z"/>
	<path fill="#FFFFFF" d="M4.063,12.64c-0.252-0.005-0.495-0.024-0.717-0.145c-0.261-0.142-0.4-0.362-0.426-0.656
		c-0.023-0.265,0.053-0.517,0.104-0.772c0.123-0.605,0.253-1.21,0.375-1.816c0.018-0.081,0.047-0.108,0.13-0.104
		c0.174,0.007,0.35,0.005,0.524,0c0.072-0.001,0.084,0.022,0.071,0.087c-0.131,0.624-0.261,1.248-0.39,1.873
		c-0.027,0.13-0.056,0.261-0.076,0.392c-0.044,0.297,0.114,0.495,0.41,0.523c0.487,0.048,0.816-0.197,0.915-0.674
		c0.144-0.709,0.293-1.416,0.439-2.125c0.01-0.052,0.024-0.077,0.083-0.076C5.699,9.15,5.892,9.149,6.086,9.149
		C6.127,9.147,6.15,9.151,6.138,9.206c-0.161,0.767-0.309,1.537-0.486,2.3c-0.145,0.641-0.583,0.988-1.217,1.103
		c-0.041,0.008-0.082,0.015-0.122,0.018C4.228,12.634,4.143,12.636,4.063,12.64z"/>
</g>
</svg>
