<?xml version="1.0" encoding="utf-8"?>
<!-- Generator: Adobe Illustrator 16.0.0, SVG Export Plug-In . SVG Version: 6.00 Build 0)  -->
<!DOCTYPE svg PUBLIC "-//W3C//DTD SVG 1.1//EN" "http://www.w3.org/Graphics/SVG/1.1/DTD/svg11.dtd">
<svg version="1.1" id="Layer_1" xmlns="http://www.w3.org/2000/svg" xmlns:xlink="http://www.w3.org/1999/xlink" x="0px" y="0px"
	 width="24px" height="24px" viewBox="0 0 24 24" enable-background="new 0 0 24 24" xml:space="preserve">
<g id="Icons">
	<g>
		<g>
			<path fill="#F9F9F9" d="M22.052,19.491H1.988c-0.834,0-1.511-0.677-1.511-1.512V6.045c0-0.835,0.678-1.511,1.511-1.511h20.064
				c0.832,0,1.509,0.677,1.509,1.511v11.935C23.563,18.814,22.884,19.491,22.052,19.491z"/>
		</g>
		<path fill="#0052CC" d="M6.85,12.872c0.006,0.036,0.014,0.073,0.043,0.112c0.493-1.245,0.987-2.49,1.479-3.735
			c0.501,0,0.998,0,1.505,0C9.849,9.319,9.826,9.379,9.801,9.438c-0.736,1.755-1.472,3.509-2.205,5.265
			c-0.028,0.066-0.062,0.094-0.137,0.094c-0.444-0.005-0.888-0.004-1.333-0.002c-0.067,0.002-0.095-0.017-0.114-0.086
			c-0.372-1.446-0.749-2.889-1.116-4.334"/>
		<path fill="#FFC601" d="M4.896,10.375C4.83,10.116,4.698,9.936,4.452,9.826C4.045,9.646,3.62,9.518,3.188,9.417
			C3.168,9.413,3.151,9.405,3.132,9.399c0-0.012,0-0.025,0-0.04C3.146,9.25,3.213,9.24,3.309,9.242
			c0.755,0.003,1.508,0.001,2.262,0.001c0.375,0,0.631,0.209,0.702,0.577c0.193,1.019,0.384,2.035,0.575,3.052"/>
		<path fill="#0052CC" d="M15.028,9.142c0.161,0.027,0.323,0.049,0.482,0.083c0.157,0.034,0.311,0.081,0.466,0.122
			c0.037,0.012,0.075,0.028,0.118,0.046c-0.083,0.387-0.166,0.771-0.248,1.156c-0.188-0.06-0.37-0.128-0.557-0.172
			c-0.335-0.082-0.677-0.118-1.011-0.026c-0.125,0.032-0.249,0.101-0.343,0.184c-0.161,0.141-0.163,0.347-0.006,0.495
			c0.105,0.1,0.231,0.185,0.359,0.259c0.25,0.15,0.515,0.276,0.764,0.432c0.334,0.206,0.61,0.471,0.723,0.866
			c0.161,0.573-0.016,1.338-0.654,1.796c-0.367,0.266-0.779,0.404-1.224,0.46c-0.695,0.089-1.378,0.023-2.043-0.206
			c-0.038-0.013-0.074-0.028-0.12-0.048c0.086-0.403,0.171-0.804,0.259-1.211c0.055,0.025,0.105,0.04,0.151,0.064
			c0.411,0.195,0.844,0.289,1.3,0.283c0.209-0.002,0.414-0.034,0.599-0.136c0.344-0.18,0.39-0.533,0.087-0.771
			c-0.148-0.117-0.317-0.208-0.485-0.298c-0.281-0.145-0.558-0.294-0.804-0.5c-0.697-0.583-0.606-1.402-0.23-1.952
			c0.311-0.451,0.767-0.69,1.283-0.822c0.166-0.041,0.337-0.057,0.506-0.086c0.025-0.004,0.05-0.011,0.075-0.02
			C14.66,9.142,14.844,9.142,15.028,9.142z"/>
		<path fill="#0052CC" d="M20.906,14.788c-0.449,0-0.882,0-1.321,0c-0.043-0.198-0.087-0.395-0.127-0.594
			c-0.048-0.232-0.045-0.232-0.289-0.232c-0.502,0-1.005,0-1.51-0.004c-0.068,0-0.103,0.02-0.126,0.088
			c-0.076,0.225-0.155,0.445-0.241,0.668c-0.014,0.03-0.055,0.072-0.084,0.072c-0.478,0.007-0.952,0.004-1.441,0.004
			c0.012-0.034,0.02-0.062,0.031-0.088c0.7-1.676,1.4-3.351,2.104-5.027c0.119-0.284,0.339-0.43,0.646-0.43c0.395,0,0.788,0,1.199,0
			C20.134,11.091,20.52,12.935,20.906,14.788z M19.173,12.83c-0.143-0.694-0.286-1.373-0.429-2.052
			c-0.007-0.001-0.015-0.001-0.022-0.003c-0.248,0.683-0.492,1.362-0.744,2.056C18.382,12.83,18.767,12.83,19.173,12.83z"/>
		<path fill="#0052CC" d="M9.312,14.794c0.398-1.859,0.794-3.702,1.188-5.545c0.481,0,0.949,0,1.432,0
			c-0.037,0.184-0.075,0.36-0.111,0.537c-0.348,1.625-0.697,3.25-1.041,4.878c-0.022,0.104-0.06,0.136-0.167,0.134
			c-0.391-0.009-0.783-0.003-1.175-0.003C9.401,14.794,9.367,14.794,9.312,14.794z"/>
		<g>
			
				<path fill="none" stroke="#303030" stroke-width="0.8" stroke-linecap="round" stroke-linejoin="round" stroke-miterlimit="10" d="
				M22.052,19.491H1.988c-0.834,0-1.511-0.677-1.511-1.512V6.045c0-0.835,0.678-1.511,1.511-1.511h20.064
				c0.832,0,1.509,0.677,1.509,1.511v11.935C23.563,18.814,22.884,19.491,22.052,19.491z"/>
		</g>
	</g>
</g>
</svg>
